G04 #@! TF.GenerationSoftware,KiCad,Pcbnew,5.1.6*
G04 #@! TF.CreationDate,2020-09-07T17:12:55+08:00*
G04 #@! TF.ProjectId,bt_audio_rec,62745f61-7564-4696-9f5f-7265632e6b69,rev?*
G04 #@! TF.SameCoordinates,Original*
G04 #@! TF.FileFunction,Legend,Bot*
G04 #@! TF.FilePolarity,Positive*
%FSLAX46Y46*%
G04 Gerber Fmt 4.6, Leading zero omitted, Abs format (unit mm)*
G04 Created by KiCad (PCBNEW 5.1.6) date 2020-09-07 17:12:55*
%MOMM*%
%LPD*%
G01*
G04 APERTURE LIST*
%ADD10C,0.200000*%
%ADD11C,0.250000*%
%ADD12C,0.010000*%
%ADD13C,0.120000*%
%ADD14C,0.150000*%
G04 APERTURE END LIST*
D10*
X247301904Y-123422380D02*
X247301904Y-123041428D01*
X247682857Y-123003333D01*
X247644761Y-123041428D01*
X247606666Y-123117619D01*
X247606666Y-123308095D01*
X247644761Y-123384285D01*
X247682857Y-123422380D01*
X247759047Y-123460476D01*
X247949523Y-123460476D01*
X248025714Y-123422380D01*
X248063809Y-123384285D01*
X248101904Y-123308095D01*
X248101904Y-123117619D01*
X248063809Y-123041428D01*
X248025714Y-123003333D01*
X247301904Y-123955714D02*
X247301904Y-124031904D01*
X247340000Y-124108095D01*
X247378095Y-124146190D01*
X247454285Y-124184285D01*
X247606666Y-124222380D01*
X247797142Y-124222380D01*
X247949523Y-124184285D01*
X248025714Y-124146190D01*
X248063809Y-124108095D01*
X248101904Y-124031904D01*
X248101904Y-123955714D01*
X248063809Y-123879523D01*
X248025714Y-123841428D01*
X247949523Y-123803333D01*
X247797142Y-123765238D01*
X247606666Y-123765238D01*
X247454285Y-123803333D01*
X247378095Y-123841428D01*
X247340000Y-123879523D01*
X247301904Y-123955714D01*
X247301904Y-124717619D02*
X247301904Y-124793809D01*
X247340000Y-124870000D01*
X247378095Y-124908095D01*
X247454285Y-124946190D01*
X247606666Y-124984285D01*
X247797142Y-124984285D01*
X247949523Y-124946190D01*
X248025714Y-124908095D01*
X248063809Y-124870000D01*
X248101904Y-124793809D01*
X248101904Y-124717619D01*
X248063809Y-124641428D01*
X248025714Y-124603333D01*
X247949523Y-124565238D01*
X247797142Y-124527142D01*
X247606666Y-124527142D01*
X247454285Y-124565238D01*
X247378095Y-124603333D01*
X247340000Y-124641428D01*
X247301904Y-124717619D01*
X248101904Y-125327142D02*
X247568571Y-125327142D01*
X247644761Y-125327142D02*
X247606666Y-125365238D01*
X247568571Y-125441428D01*
X247568571Y-125555714D01*
X247606666Y-125631904D01*
X247682857Y-125670000D01*
X248101904Y-125670000D01*
X247682857Y-125670000D02*
X247606666Y-125708095D01*
X247568571Y-125784285D01*
X247568571Y-125898571D01*
X247606666Y-125974761D01*
X247682857Y-126012857D01*
X248101904Y-126012857D01*
X247873333Y-126355714D02*
X247873333Y-126736666D01*
X248101904Y-126279523D02*
X247301904Y-126546190D01*
X248101904Y-126812857D01*
X236051904Y-124144285D02*
X236051904Y-124639523D01*
X236356666Y-124372857D01*
X236356666Y-124487142D01*
X236394761Y-124563333D01*
X236432857Y-124601428D01*
X236509047Y-124639523D01*
X236699523Y-124639523D01*
X236775714Y-124601428D01*
X236813809Y-124563333D01*
X236851904Y-124487142D01*
X236851904Y-124258571D01*
X236813809Y-124182380D01*
X236775714Y-124144285D01*
X236775714Y-124982380D02*
X236813809Y-125020476D01*
X236851904Y-124982380D01*
X236813809Y-124944285D01*
X236775714Y-124982380D01*
X236851904Y-124982380D01*
X236051904Y-125287142D02*
X236051904Y-125782380D01*
X236356666Y-125515714D01*
X236356666Y-125630000D01*
X236394761Y-125706190D01*
X236432857Y-125744285D01*
X236509047Y-125782380D01*
X236699523Y-125782380D01*
X236775714Y-125744285D01*
X236813809Y-125706190D01*
X236851904Y-125630000D01*
X236851904Y-125401428D01*
X236813809Y-125325238D01*
X236775714Y-125287142D01*
X236051904Y-126010952D02*
X236851904Y-126277619D01*
X236051904Y-126544285D01*
X240560000Y-124649523D02*
X240521904Y-124573333D01*
X240521904Y-124459047D01*
X240560000Y-124344761D01*
X240636190Y-124268571D01*
X240712380Y-124230476D01*
X240864761Y-124192380D01*
X240979047Y-124192380D01*
X241131428Y-124230476D01*
X241207619Y-124268571D01*
X241283809Y-124344761D01*
X241321904Y-124459047D01*
X241321904Y-124535238D01*
X241283809Y-124649523D01*
X241245714Y-124687619D01*
X240979047Y-124687619D01*
X240979047Y-124535238D01*
X241321904Y-125030476D02*
X240521904Y-125030476D01*
X241321904Y-125487619D01*
X240521904Y-125487619D01*
X241321904Y-125868571D02*
X240521904Y-125868571D01*
X240521904Y-126059047D01*
X240560000Y-126173333D01*
X240636190Y-126249523D01*
X240712380Y-126287619D01*
X240864761Y-126325714D01*
X240979047Y-126325714D01*
X241131428Y-126287619D01*
X241207619Y-126249523D01*
X241283809Y-126173333D01*
X241321904Y-126059047D01*
X241321904Y-125868571D01*
X242683809Y-124192380D02*
X242721904Y-124306666D01*
X242721904Y-124497142D01*
X242683809Y-124573333D01*
X242645714Y-124611428D01*
X242569523Y-124649523D01*
X242493333Y-124649523D01*
X242417142Y-124611428D01*
X242379047Y-124573333D01*
X242340952Y-124497142D01*
X242302857Y-124344761D01*
X242264761Y-124268571D01*
X242226666Y-124230476D01*
X242150476Y-124192380D01*
X242074285Y-124192380D01*
X241998095Y-124230476D01*
X241960000Y-124268571D01*
X241921904Y-124344761D01*
X241921904Y-124535238D01*
X241960000Y-124649523D01*
X242721904Y-124992380D02*
X242188571Y-124992380D01*
X241921904Y-124992380D02*
X241960000Y-124954285D01*
X241998095Y-124992380D01*
X241960000Y-125030476D01*
X241921904Y-124992380D01*
X241998095Y-124992380D01*
X242188571Y-125373333D02*
X242721904Y-125373333D01*
X242264761Y-125373333D02*
X242226666Y-125411428D01*
X242188571Y-125487619D01*
X242188571Y-125601904D01*
X242226666Y-125678095D01*
X242302857Y-125716190D01*
X242721904Y-125716190D01*
X242721904Y-126097142D02*
X241921904Y-126097142D01*
X242417142Y-126173333D02*
X242721904Y-126401904D01*
X242188571Y-126401904D02*
X242493333Y-126097142D01*
X238650000Y-124639523D02*
X238611904Y-124563333D01*
X238611904Y-124449047D01*
X238650000Y-124334761D01*
X238726190Y-124258571D01*
X238802380Y-124220476D01*
X238954761Y-124182380D01*
X239069047Y-124182380D01*
X239221428Y-124220476D01*
X239297619Y-124258571D01*
X239373809Y-124334761D01*
X239411904Y-124449047D01*
X239411904Y-124525238D01*
X239373809Y-124639523D01*
X239335714Y-124677619D01*
X239069047Y-124677619D01*
X239069047Y-124525238D01*
X239411904Y-125020476D02*
X238611904Y-125020476D01*
X239411904Y-125477619D01*
X238611904Y-125477619D01*
X239411904Y-125858571D02*
X238611904Y-125858571D01*
X238611904Y-126049047D01*
X238650000Y-126163333D01*
X238726190Y-126239523D01*
X238802380Y-126277619D01*
X238954761Y-126315714D01*
X239069047Y-126315714D01*
X239221428Y-126277619D01*
X239297619Y-126239523D01*
X239373809Y-126163333D01*
X239411904Y-126049047D01*
X239411904Y-125858571D01*
X222583809Y-102737619D02*
X222621904Y-102851904D01*
X222621904Y-103042381D01*
X222583809Y-103118571D01*
X222545714Y-103156666D01*
X222469523Y-103194762D01*
X222393333Y-103194762D01*
X222317142Y-103156666D01*
X222279047Y-103118571D01*
X222240952Y-103042381D01*
X222202857Y-102890000D01*
X222164761Y-102813809D01*
X222126666Y-102775714D01*
X222050476Y-102737619D01*
X221974285Y-102737619D01*
X221898095Y-102775714D01*
X221860000Y-102813809D01*
X221821904Y-102890000D01*
X221821904Y-103080476D01*
X221860000Y-103194762D01*
X222621904Y-103537619D02*
X221821904Y-103537619D01*
X221821904Y-103842381D01*
X221860000Y-103918571D01*
X221898095Y-103956666D01*
X221974285Y-103994762D01*
X222088571Y-103994762D01*
X222164761Y-103956666D01*
X222202857Y-103918571D01*
X222240952Y-103842381D01*
X222240952Y-103537619D01*
X222621904Y-104337619D02*
X221821904Y-104337619D01*
X221821904Y-104528095D01*
X221860000Y-104642381D01*
X221936190Y-104718571D01*
X222012380Y-104756666D01*
X222164761Y-104794762D01*
X222279047Y-104794762D01*
X222431428Y-104756666D01*
X222507619Y-104718571D01*
X222583809Y-104642381D01*
X222621904Y-104528095D01*
X222621904Y-104337619D01*
X222621904Y-105137619D02*
X221821904Y-105137619D01*
X222202857Y-105785238D02*
X222202857Y-105518571D01*
X222621904Y-105518571D02*
X221821904Y-105518571D01*
X221821904Y-105899524D01*
X219840000Y-104185238D02*
X219801904Y-104109047D01*
X219801904Y-103994762D01*
X219840000Y-103880476D01*
X219916190Y-103804285D01*
X219992380Y-103766190D01*
X220144761Y-103728095D01*
X220259047Y-103728095D01*
X220411428Y-103766190D01*
X220487619Y-103804285D01*
X220563809Y-103880476D01*
X220601904Y-103994762D01*
X220601904Y-104070952D01*
X220563809Y-104185238D01*
X220525714Y-104223333D01*
X220259047Y-104223333D01*
X220259047Y-104070952D01*
X220601904Y-104566190D02*
X219801904Y-104566190D01*
X220601904Y-105023333D01*
X219801904Y-105023333D01*
X220601904Y-105404285D02*
X219801904Y-105404285D01*
X219801904Y-105594762D01*
X219840000Y-105709047D01*
X219916190Y-105785238D01*
X219992380Y-105823333D01*
X220144761Y-105861428D01*
X220259047Y-105861428D01*
X220411428Y-105823333D01*
X220487619Y-105785238D01*
X220563809Y-105709047D01*
X220601904Y-105594762D01*
X220601904Y-105404285D01*
X223807142Y-117156666D02*
X223807142Y-117766189D01*
X224111904Y-117461428D02*
X223502380Y-117461428D01*
X225807142Y-117156666D02*
X225807142Y-117766189D01*
X227350000Y-117575714D02*
X227311904Y-117499523D01*
X227311904Y-117385238D01*
X227350000Y-117270952D01*
X227426190Y-117194761D01*
X227502380Y-117156666D01*
X227654761Y-117118571D01*
X227769047Y-117118571D01*
X227921428Y-117156666D01*
X227997619Y-117194761D01*
X228073809Y-117270952D01*
X228111904Y-117385238D01*
X228111904Y-117461428D01*
X228073809Y-117575714D01*
X228035714Y-117613809D01*
X227769047Y-117613809D01*
X227769047Y-117461428D01*
X228111904Y-117956666D02*
X227311904Y-117956666D01*
X228111904Y-118413809D01*
X227311904Y-118413809D01*
X228111904Y-118794761D02*
X227311904Y-118794761D01*
X227311904Y-118985238D01*
X227350000Y-119099523D01*
X227426190Y-119175714D01*
X227502380Y-119213809D01*
X227654761Y-119251904D01*
X227769047Y-119251904D01*
X227921428Y-119213809D01*
X227997619Y-119175714D01*
X228073809Y-119099523D01*
X228111904Y-118985238D01*
X228111904Y-118794761D01*
D11*
X239129880Y-80180476D02*
X239225119Y-80132857D01*
X239415595Y-80132857D01*
X239510833Y-80180476D01*
X239606071Y-80275714D01*
X239653690Y-80370952D01*
X239653690Y-80561428D01*
X239606071Y-80656666D01*
X239510833Y-80751904D01*
X239415595Y-80799523D01*
X239225119Y-80799523D01*
X239129880Y-80751904D01*
X239320357Y-79799523D02*
X239558452Y-79847142D01*
X239796547Y-79990000D01*
X239939404Y-80228095D01*
X239987023Y-80466190D01*
X239939404Y-80704285D01*
X239796547Y-80942380D01*
X239558452Y-81085238D01*
X239320357Y-81132857D01*
X239082261Y-81085238D01*
X238844166Y-80942380D01*
X238701309Y-80704285D01*
X238653690Y-80466190D01*
X238701309Y-80228095D01*
X238844166Y-79990000D01*
X239082261Y-79847142D01*
X239320357Y-79799523D01*
X237510833Y-80037619D02*
X237463214Y-79990000D01*
X237367976Y-79942380D01*
X237129880Y-79942380D01*
X237034642Y-79990000D01*
X236987023Y-80037619D01*
X236939404Y-80132857D01*
X236939404Y-80228095D01*
X236987023Y-80370952D01*
X237558452Y-80942380D01*
X236939404Y-80942380D01*
X236320357Y-79942380D02*
X236225119Y-79942380D01*
X236129880Y-79990000D01*
X236082261Y-80037619D01*
X236034642Y-80132857D01*
X235987023Y-80323333D01*
X235987023Y-80561428D01*
X236034642Y-80751904D01*
X236082261Y-80847142D01*
X236129880Y-80894761D01*
X236225119Y-80942380D01*
X236320357Y-80942380D01*
X236415595Y-80894761D01*
X236463214Y-80847142D01*
X236510833Y-80751904D01*
X236558452Y-80561428D01*
X236558452Y-80323333D01*
X236510833Y-80132857D01*
X236463214Y-80037619D01*
X236415595Y-79990000D01*
X236320357Y-79942380D01*
X235606071Y-80037619D02*
X235558452Y-79990000D01*
X235463214Y-79942380D01*
X235225119Y-79942380D01*
X235129880Y-79990000D01*
X235082261Y-80037619D01*
X235034642Y-80132857D01*
X235034642Y-80228095D01*
X235082261Y-80370952D01*
X235653690Y-80942380D01*
X235034642Y-80942380D01*
X234415595Y-79942380D02*
X234320357Y-79942380D01*
X234225119Y-79990000D01*
X234177500Y-80037619D01*
X234129880Y-80132857D01*
X234082261Y-80323333D01*
X234082261Y-80561428D01*
X234129880Y-80751904D01*
X234177500Y-80847142D01*
X234225119Y-80894761D01*
X234320357Y-80942380D01*
X234415595Y-80942380D01*
X234510833Y-80894761D01*
X234558452Y-80847142D01*
X234606071Y-80751904D01*
X234653690Y-80561428D01*
X234653690Y-80323333D01*
X234606071Y-80132857D01*
X234558452Y-80037619D01*
X234510833Y-79990000D01*
X234415595Y-79942380D01*
X250976071Y-78693571D02*
X250833214Y-78741190D01*
X250785595Y-78788809D01*
X250737976Y-78884047D01*
X250737976Y-79026904D01*
X250785595Y-79122142D01*
X250833214Y-79169761D01*
X250928452Y-79217380D01*
X251309404Y-79217380D01*
X251309404Y-78217380D01*
X250976071Y-78217380D01*
X250880833Y-78265000D01*
X250833214Y-78312619D01*
X250785595Y-78407857D01*
X250785595Y-78503095D01*
X250833214Y-78598333D01*
X250880833Y-78645952D01*
X250976071Y-78693571D01*
X251309404Y-78693571D01*
X250166547Y-79217380D02*
X250261785Y-79169761D01*
X250309404Y-79074523D01*
X250309404Y-78217380D01*
X249357023Y-78550714D02*
X249357023Y-79217380D01*
X249785595Y-78550714D02*
X249785595Y-79074523D01*
X249737976Y-79169761D01*
X249642738Y-79217380D01*
X249499880Y-79217380D01*
X249404642Y-79169761D01*
X249357023Y-79122142D01*
X248499880Y-79169761D02*
X248595119Y-79217380D01*
X248785595Y-79217380D01*
X248880833Y-79169761D01*
X248928452Y-79074523D01*
X248928452Y-78693571D01*
X248880833Y-78598333D01*
X248785595Y-78550714D01*
X248595119Y-78550714D01*
X248499880Y-78598333D01*
X248452261Y-78693571D01*
X248452261Y-78788809D01*
X248928452Y-78884047D01*
X248166547Y-78550714D02*
X247785595Y-78550714D01*
X248023690Y-78217380D02*
X248023690Y-79074523D01*
X247976071Y-79169761D01*
X247880833Y-79217380D01*
X247785595Y-79217380D01*
X247309404Y-79217380D02*
X247404642Y-79169761D01*
X247452261Y-79122142D01*
X247499880Y-79026904D01*
X247499880Y-78741190D01*
X247452261Y-78645952D01*
X247404642Y-78598333D01*
X247309404Y-78550714D01*
X247166547Y-78550714D01*
X247071309Y-78598333D01*
X247023690Y-78645952D01*
X246976071Y-78741190D01*
X246976071Y-79026904D01*
X247023690Y-79122142D01*
X247071309Y-79169761D01*
X247166547Y-79217380D01*
X247309404Y-79217380D01*
X246404642Y-79217380D02*
X246499880Y-79169761D01*
X246547500Y-79122142D01*
X246595119Y-79026904D01*
X246595119Y-78741190D01*
X246547500Y-78645952D01*
X246499880Y-78598333D01*
X246404642Y-78550714D01*
X246261785Y-78550714D01*
X246166547Y-78598333D01*
X246118928Y-78645952D01*
X246071309Y-78741190D01*
X246071309Y-79026904D01*
X246118928Y-79122142D01*
X246166547Y-79169761D01*
X246261785Y-79217380D01*
X246404642Y-79217380D01*
X245785595Y-78550714D02*
X245404642Y-78550714D01*
X245642738Y-78217380D02*
X245642738Y-79074523D01*
X245595119Y-79169761D01*
X245499880Y-79217380D01*
X245404642Y-79217380D01*
X245071309Y-79217380D02*
X245071309Y-78217380D01*
X244642738Y-79217380D02*
X244642738Y-78693571D01*
X244690357Y-78598333D01*
X244785595Y-78550714D01*
X244928452Y-78550714D01*
X245023690Y-78598333D01*
X245071309Y-78645952D01*
X243404642Y-79217380D02*
X243404642Y-78217380D01*
X243071309Y-78931666D01*
X242737976Y-78217380D01*
X242737976Y-79217380D01*
X241880833Y-79169761D02*
X241976071Y-79217380D01*
X242166547Y-79217380D01*
X242261785Y-79169761D01*
X242309404Y-79074523D01*
X242309404Y-78693571D01*
X242261785Y-78598333D01*
X242166547Y-78550714D01*
X241976071Y-78550714D01*
X241880833Y-78598333D01*
X241833214Y-78693571D01*
X241833214Y-78788809D01*
X242309404Y-78884047D01*
X240976071Y-79217380D02*
X240976071Y-78217380D01*
X240976071Y-79169761D02*
X241071309Y-79217380D01*
X241261785Y-79217380D01*
X241357023Y-79169761D01*
X241404642Y-79122142D01*
X241452261Y-79026904D01*
X241452261Y-78741190D01*
X241404642Y-78645952D01*
X241357023Y-78598333D01*
X241261785Y-78550714D01*
X241071309Y-78550714D01*
X240976071Y-78598333D01*
X240499880Y-79217380D02*
X240499880Y-78550714D01*
X240499880Y-78217380D02*
X240547500Y-78265000D01*
X240499880Y-78312619D01*
X240452261Y-78265000D01*
X240499880Y-78217380D01*
X240499880Y-78312619D01*
X239595119Y-79217380D02*
X239595119Y-78693571D01*
X239642738Y-78598333D01*
X239737976Y-78550714D01*
X239928452Y-78550714D01*
X240023690Y-78598333D01*
X239595119Y-79169761D02*
X239690357Y-79217380D01*
X239928452Y-79217380D01*
X240023690Y-79169761D01*
X240071309Y-79074523D01*
X240071309Y-78979285D01*
X240023690Y-78884047D01*
X239928452Y-78836428D01*
X239690357Y-78836428D01*
X239595119Y-78788809D01*
X238357023Y-79217380D02*
X238357023Y-78217380D01*
X237976071Y-78217380D01*
X237880833Y-78265000D01*
X237833214Y-78312619D01*
X237785595Y-78407857D01*
X237785595Y-78550714D01*
X237833214Y-78645952D01*
X237880833Y-78693571D01*
X237976071Y-78741190D01*
X238357023Y-78741190D01*
X237214166Y-79217380D02*
X237309404Y-79169761D01*
X237357023Y-79074523D01*
X237357023Y-78217380D01*
X236404642Y-79217380D02*
X236404642Y-78693571D01*
X236452261Y-78598333D01*
X236547500Y-78550714D01*
X236737976Y-78550714D01*
X236833214Y-78598333D01*
X236404642Y-79169761D02*
X236499880Y-79217380D01*
X236737976Y-79217380D01*
X236833214Y-79169761D01*
X236880833Y-79074523D01*
X236880833Y-78979285D01*
X236833214Y-78884047D01*
X236737976Y-78836428D01*
X236499880Y-78836428D01*
X236404642Y-78788809D01*
X236023690Y-78550714D02*
X235785595Y-79217380D01*
X235547500Y-78550714D02*
X235785595Y-79217380D01*
X235880833Y-79455476D01*
X235928452Y-79503095D01*
X236023690Y-79550714D01*
X234785595Y-79169761D02*
X234880833Y-79217380D01*
X235071309Y-79217380D01*
X235166547Y-79169761D01*
X235214166Y-79074523D01*
X235214166Y-78693571D01*
X235166547Y-78598333D01*
X235071309Y-78550714D01*
X234880833Y-78550714D01*
X234785595Y-78598333D01*
X234737976Y-78693571D01*
X234737976Y-78788809D01*
X235214166Y-78884047D01*
X234309404Y-79217380D02*
X234309404Y-78550714D01*
X234309404Y-78741190D02*
X234261785Y-78645952D01*
X234214166Y-78598333D01*
X234118928Y-78550714D01*
X234023690Y-78550714D01*
X250737976Y-80967380D02*
X251071309Y-80491190D01*
X251309404Y-80967380D02*
X251309404Y-79967380D01*
X250928452Y-79967380D01*
X250833214Y-80015000D01*
X250785595Y-80062619D01*
X250737976Y-80157857D01*
X250737976Y-80300714D01*
X250785595Y-80395952D01*
X250833214Y-80443571D01*
X250928452Y-80491190D01*
X251309404Y-80491190D01*
X249928452Y-80919761D02*
X250023690Y-80967380D01*
X250214166Y-80967380D01*
X250309404Y-80919761D01*
X250357023Y-80824523D01*
X250357023Y-80443571D01*
X250309404Y-80348333D01*
X250214166Y-80300714D01*
X250023690Y-80300714D01*
X249928452Y-80348333D01*
X249880833Y-80443571D01*
X249880833Y-80538809D01*
X250357023Y-80634047D01*
X249547500Y-80300714D02*
X249309404Y-80967380D01*
X249071309Y-80300714D01*
X248690357Y-80967380D02*
X248690357Y-80300714D01*
X248690357Y-79967380D02*
X248737976Y-80015000D01*
X248690357Y-80062619D01*
X248642738Y-80015000D01*
X248690357Y-79967380D01*
X248690357Y-80062619D01*
X248261785Y-80919761D02*
X248166547Y-80967380D01*
X247976071Y-80967380D01*
X247880833Y-80919761D01*
X247833214Y-80824523D01*
X247833214Y-80776904D01*
X247880833Y-80681666D01*
X247976071Y-80634047D01*
X248118928Y-80634047D01*
X248214166Y-80586428D01*
X248261785Y-80491190D01*
X248261785Y-80443571D01*
X248214166Y-80348333D01*
X248118928Y-80300714D01*
X247976071Y-80300714D01*
X247880833Y-80348333D01*
X247404642Y-80967380D02*
X247404642Y-80300714D01*
X247404642Y-79967380D02*
X247452261Y-80015000D01*
X247404642Y-80062619D01*
X247357023Y-80015000D01*
X247404642Y-79967380D01*
X247404642Y-80062619D01*
X246785595Y-80967380D02*
X246880833Y-80919761D01*
X246928452Y-80872142D01*
X246976071Y-80776904D01*
X246976071Y-80491190D01*
X246928452Y-80395952D01*
X246880833Y-80348333D01*
X246785595Y-80300714D01*
X246642738Y-80300714D01*
X246547500Y-80348333D01*
X246499880Y-80395952D01*
X246452261Y-80491190D01*
X246452261Y-80776904D01*
X246499880Y-80872142D01*
X246547500Y-80919761D01*
X246642738Y-80967380D01*
X246785595Y-80967380D01*
X246023690Y-80300714D02*
X246023690Y-80967380D01*
X246023690Y-80395952D02*
X245976071Y-80348333D01*
X245880833Y-80300714D01*
X245737976Y-80300714D01*
X245642738Y-80348333D01*
X245595119Y-80443571D01*
X245595119Y-80967380D01*
X243833214Y-80967380D02*
X244404642Y-80967380D01*
X244118928Y-80967380D02*
X244118928Y-79967380D01*
X244214166Y-80110238D01*
X244309404Y-80205476D01*
X244404642Y-80253095D01*
X242976071Y-80967380D02*
X242976071Y-80443571D01*
X243023690Y-80348333D01*
X243118928Y-80300714D01*
X243309404Y-80300714D01*
X243404642Y-80348333D01*
X242976071Y-80919761D02*
X243071309Y-80967380D01*
X243309404Y-80967380D01*
X243404642Y-80919761D01*
X243452261Y-80824523D01*
X243452261Y-80729285D01*
X243404642Y-80634047D01*
X243309404Y-80586428D01*
X243071309Y-80586428D01*
X242976071Y-80538809D01*
D10*
X235781904Y-107667619D02*
X235400952Y-107400952D01*
X235781904Y-107210476D02*
X234981904Y-107210476D01*
X234981904Y-107515238D01*
X235020000Y-107591428D01*
X235058095Y-107629523D01*
X235134285Y-107667619D01*
X235248571Y-107667619D01*
X235324761Y-107629523D01*
X235362857Y-107591428D01*
X235400952Y-107515238D01*
X235400952Y-107210476D01*
X235743809Y-107972380D02*
X235781904Y-108086666D01*
X235781904Y-108277142D01*
X235743809Y-108353333D01*
X235705714Y-108391428D01*
X235629523Y-108429523D01*
X235553333Y-108429523D01*
X235477142Y-108391428D01*
X235439047Y-108353333D01*
X235400952Y-108277142D01*
X235362857Y-108124761D01*
X235324761Y-108048571D01*
X235286666Y-108010476D01*
X235210476Y-107972380D01*
X235134285Y-107972380D01*
X235058095Y-108010476D01*
X235020000Y-108048571D01*
X234981904Y-108124761D01*
X234981904Y-108315238D01*
X235020000Y-108429523D01*
X234981904Y-108658095D02*
X234981904Y-109115238D01*
X235781904Y-108886666D02*
X234981904Y-108886666D01*
X237550000Y-107359523D02*
X237511904Y-107283333D01*
X237511904Y-107169047D01*
X237550000Y-107054761D01*
X237626190Y-106978571D01*
X237702380Y-106940476D01*
X237854761Y-106902380D01*
X237969047Y-106902380D01*
X238121428Y-106940476D01*
X238197619Y-106978571D01*
X238273809Y-107054761D01*
X238311904Y-107169047D01*
X238311904Y-107245238D01*
X238273809Y-107359523D01*
X238235714Y-107397619D01*
X237969047Y-107397619D01*
X237969047Y-107245238D01*
X238311904Y-107740476D02*
X237511904Y-107740476D01*
X238311904Y-108197619D01*
X237511904Y-108197619D01*
X238311904Y-108578571D02*
X237511904Y-108578571D01*
X237511904Y-108769047D01*
X237550000Y-108883333D01*
X237626190Y-108959523D01*
X237702380Y-108997619D01*
X237854761Y-109035714D01*
X237969047Y-109035714D01*
X238121428Y-108997619D01*
X238197619Y-108959523D01*
X238273809Y-108883333D01*
X238311904Y-108769047D01*
X238311904Y-108578571D01*
X240833809Y-105648571D02*
X240871904Y-105762857D01*
X240871904Y-105953333D01*
X240833809Y-106029524D01*
X240795714Y-106067619D01*
X240719523Y-106105714D01*
X240643333Y-106105714D01*
X240567142Y-106067619D01*
X240529047Y-106029524D01*
X240490952Y-105953333D01*
X240452857Y-105800952D01*
X240414761Y-105724762D01*
X240376666Y-105686667D01*
X240300476Y-105648571D01*
X240224285Y-105648571D01*
X240148095Y-105686667D01*
X240110000Y-105724762D01*
X240071904Y-105800952D01*
X240071904Y-105991429D01*
X240110000Y-106105714D01*
X240071904Y-106372381D02*
X240871904Y-106562857D01*
X240300476Y-106715238D01*
X240871904Y-106867619D01*
X240071904Y-107058095D01*
X240871904Y-107362857D02*
X240071904Y-107362857D01*
X240071904Y-107553333D01*
X240110000Y-107667619D01*
X240186190Y-107743810D01*
X240262380Y-107781905D01*
X240414761Y-107820000D01*
X240529047Y-107820000D01*
X240681428Y-107781905D01*
X240757619Y-107743810D01*
X240833809Y-107667619D01*
X240871904Y-107553333D01*
X240871904Y-107362857D01*
X240871904Y-108162857D02*
X240071904Y-108162857D01*
X240071904Y-108696191D02*
X240071904Y-108848571D01*
X240110000Y-108924762D01*
X240186190Y-109000952D01*
X240338571Y-109039048D01*
X240605238Y-109039048D01*
X240757619Y-109000952D01*
X240833809Y-108924762D01*
X240871904Y-108848571D01*
X240871904Y-108696191D01*
X240833809Y-108620000D01*
X240757619Y-108543810D01*
X240605238Y-108505714D01*
X240338571Y-108505714D01*
X240186190Y-108543810D01*
X240110000Y-108620000D01*
X240071904Y-108696191D01*
X242601904Y-107896190D02*
X242601904Y-108353333D01*
X243401904Y-108124761D02*
X242601904Y-108124761D01*
X242601904Y-108543809D02*
X243401904Y-109077142D01*
X242601904Y-109077142D02*
X243401904Y-108543809D01*
X235040000Y-115099523D02*
X235001904Y-115023333D01*
X235001904Y-114909047D01*
X235040000Y-114794761D01*
X235116190Y-114718571D01*
X235192380Y-114680476D01*
X235344761Y-114642380D01*
X235459047Y-114642380D01*
X235611428Y-114680476D01*
X235687619Y-114718571D01*
X235763809Y-114794761D01*
X235801904Y-114909047D01*
X235801904Y-114985238D01*
X235763809Y-115099523D01*
X235725714Y-115137619D01*
X235459047Y-115137619D01*
X235459047Y-114985238D01*
X235801904Y-115480476D02*
X235001904Y-115480476D01*
X235801904Y-115937619D01*
X235001904Y-115937619D01*
X235801904Y-116318571D02*
X235001904Y-116318571D01*
X235001904Y-116509047D01*
X235040000Y-116623333D01*
X235116190Y-116699523D01*
X235192380Y-116737619D01*
X235344761Y-116775714D01*
X235459047Y-116775714D01*
X235611428Y-116737619D01*
X235687619Y-116699523D01*
X235763809Y-116623333D01*
X235801904Y-116509047D01*
X235801904Y-116318571D01*
X237511904Y-114604285D02*
X237511904Y-115099523D01*
X237816666Y-114832857D01*
X237816666Y-114947142D01*
X237854761Y-115023333D01*
X237892857Y-115061428D01*
X237969047Y-115099523D01*
X238159523Y-115099523D01*
X238235714Y-115061428D01*
X238273809Y-115023333D01*
X238311904Y-114947142D01*
X238311904Y-114718571D01*
X238273809Y-114642380D01*
X238235714Y-114604285D01*
X238235714Y-115442380D02*
X238273809Y-115480476D01*
X238311904Y-115442380D01*
X238273809Y-115404285D01*
X238235714Y-115442380D01*
X238311904Y-115442380D01*
X237511904Y-115747142D02*
X237511904Y-116242380D01*
X237816666Y-115975714D01*
X237816666Y-116090000D01*
X237854761Y-116166190D01*
X237892857Y-116204285D01*
X237969047Y-116242380D01*
X238159523Y-116242380D01*
X238235714Y-116204285D01*
X238273809Y-116166190D01*
X238311904Y-116090000D01*
X238311904Y-115861428D01*
X238273809Y-115785238D01*
X238235714Y-115747142D01*
X237511904Y-116470952D02*
X238311904Y-116737619D01*
X237511904Y-117004285D01*
X240833809Y-114642380D02*
X240871904Y-114756666D01*
X240871904Y-114947142D01*
X240833809Y-115023333D01*
X240795714Y-115061428D01*
X240719523Y-115099523D01*
X240643333Y-115099523D01*
X240567142Y-115061428D01*
X240529047Y-115023333D01*
X240490952Y-114947142D01*
X240452857Y-114794761D01*
X240414761Y-114718571D01*
X240376666Y-114680476D01*
X240300476Y-114642380D01*
X240224285Y-114642380D01*
X240148095Y-114680476D01*
X240110000Y-114718571D01*
X240071904Y-114794761D01*
X240071904Y-114985238D01*
X240110000Y-115099523D01*
X240071904Y-115366190D02*
X240871904Y-115556666D01*
X240300476Y-115709047D01*
X240871904Y-115861428D01*
X240071904Y-116051904D01*
X240795714Y-116813809D02*
X240833809Y-116775714D01*
X240871904Y-116661428D01*
X240871904Y-116585238D01*
X240833809Y-116470952D01*
X240757619Y-116394761D01*
X240681428Y-116356666D01*
X240529047Y-116318571D01*
X240414761Y-116318571D01*
X240262380Y-116356666D01*
X240186190Y-116394761D01*
X240110000Y-116470952D01*
X240071904Y-116585238D01*
X240071904Y-116661428D01*
X240110000Y-116775714D01*
X240148095Y-116813809D01*
X240871904Y-117537619D02*
X240871904Y-117156666D01*
X240071904Y-117156666D01*
X240871904Y-117804285D02*
X240071904Y-117804285D01*
X240871904Y-118261428D02*
X240414761Y-117918571D01*
X240071904Y-118261428D02*
X240529047Y-117804285D01*
X243451904Y-115137619D02*
X243070952Y-114870952D01*
X243451904Y-114680476D02*
X242651904Y-114680476D01*
X242651904Y-114985238D01*
X242690000Y-115061428D01*
X242728095Y-115099523D01*
X242804285Y-115137619D01*
X242918571Y-115137619D01*
X242994761Y-115099523D01*
X243032857Y-115061428D01*
X243070952Y-114985238D01*
X243070952Y-114680476D01*
X242651904Y-115404285D02*
X243451904Y-115937619D01*
X242651904Y-115937619D02*
X243451904Y-115404285D01*
D11*
X212127976Y-94202380D02*
X212461309Y-93726190D01*
X212699404Y-94202380D02*
X212699404Y-93202380D01*
X212318452Y-93202380D01*
X212223214Y-93250000D01*
X212175595Y-93297619D01*
X212127976Y-93392857D01*
X212127976Y-93535714D01*
X212175595Y-93630952D01*
X212223214Y-93678571D01*
X212318452Y-93726190D01*
X212699404Y-93726190D01*
X211699404Y-94202380D02*
X211699404Y-93202380D01*
X211127976Y-94202380D01*
X211127976Y-93202380D01*
X210175595Y-93202380D02*
X210651785Y-93202380D01*
X210699404Y-93678571D01*
X210651785Y-93630952D01*
X210556547Y-93583333D01*
X210318452Y-93583333D01*
X210223214Y-93630952D01*
X210175595Y-93678571D01*
X210127976Y-93773809D01*
X210127976Y-94011904D01*
X210175595Y-94107142D01*
X210223214Y-94154761D01*
X210318452Y-94202380D01*
X210556547Y-94202380D01*
X210651785Y-94154761D01*
X210699404Y-94107142D01*
X209747023Y-93297619D02*
X209699404Y-93250000D01*
X209604166Y-93202380D01*
X209366071Y-93202380D01*
X209270833Y-93250000D01*
X209223214Y-93297619D01*
X209175595Y-93392857D01*
X209175595Y-93488095D01*
X209223214Y-93630952D01*
X209794642Y-94202380D01*
X209175595Y-94202380D01*
X212366071Y-95428571D02*
X212699404Y-95428571D01*
X212699404Y-95952380D02*
X212699404Y-94952380D01*
X212223214Y-94952380D01*
X211413690Y-95952380D02*
X211413690Y-95428571D01*
X211461309Y-95333333D01*
X211556547Y-95285714D01*
X211747023Y-95285714D01*
X211842261Y-95333333D01*
X211413690Y-95904761D02*
X211508928Y-95952380D01*
X211747023Y-95952380D01*
X211842261Y-95904761D01*
X211889880Y-95809523D01*
X211889880Y-95714285D01*
X211842261Y-95619047D01*
X211747023Y-95571428D01*
X211508928Y-95571428D01*
X211413690Y-95523809D01*
X210508928Y-95904761D02*
X210604166Y-95952380D01*
X210794642Y-95952380D01*
X210889880Y-95904761D01*
X210937500Y-95857142D01*
X210985119Y-95761904D01*
X210985119Y-95476190D01*
X210937500Y-95380952D01*
X210889880Y-95333333D01*
X210794642Y-95285714D01*
X210604166Y-95285714D01*
X210508928Y-95333333D01*
X210223214Y-95285714D02*
X209842261Y-95285714D01*
X210080357Y-94952380D02*
X210080357Y-95809523D01*
X210032738Y-95904761D01*
X209937500Y-95952380D01*
X209842261Y-95952380D01*
X209366071Y-95952380D02*
X209461309Y-95904761D01*
X209508928Y-95857142D01*
X209556547Y-95761904D01*
X209556547Y-95476190D01*
X209508928Y-95380952D01*
X209461309Y-95333333D01*
X209366071Y-95285714D01*
X209223214Y-95285714D01*
X209127976Y-95333333D01*
X209080357Y-95380952D01*
X209032738Y-95476190D01*
X209032738Y-95761904D01*
X209080357Y-95857142D01*
X209127976Y-95904761D01*
X209223214Y-95952380D01*
X209366071Y-95952380D01*
X208604166Y-95952380D02*
X208604166Y-95285714D01*
X208604166Y-95476190D02*
X208556547Y-95380952D01*
X208508928Y-95333333D01*
X208413690Y-95285714D01*
X208318452Y-95285714D01*
X208080357Y-95285714D02*
X207842261Y-95952380D01*
X207604166Y-95285714D02*
X207842261Y-95952380D01*
X207937500Y-96190476D01*
X207985119Y-96238095D01*
X208080357Y-96285714D01*
X212127976Y-97702380D02*
X212461309Y-97226190D01*
X212699404Y-97702380D02*
X212699404Y-96702380D01*
X212318452Y-96702380D01*
X212223214Y-96750000D01*
X212175595Y-96797619D01*
X212127976Y-96892857D01*
X212127976Y-97035714D01*
X212175595Y-97130952D01*
X212223214Y-97178571D01*
X212318452Y-97226190D01*
X212699404Y-97226190D01*
X211318452Y-97654761D02*
X211413690Y-97702380D01*
X211604166Y-97702380D01*
X211699404Y-97654761D01*
X211747023Y-97559523D01*
X211747023Y-97178571D01*
X211699404Y-97083333D01*
X211604166Y-97035714D01*
X211413690Y-97035714D01*
X211318452Y-97083333D01*
X211270833Y-97178571D01*
X211270833Y-97273809D01*
X211747023Y-97369047D01*
X210889880Y-97654761D02*
X210794642Y-97702380D01*
X210604166Y-97702380D01*
X210508928Y-97654761D01*
X210461309Y-97559523D01*
X210461309Y-97511904D01*
X210508928Y-97416666D01*
X210604166Y-97369047D01*
X210747023Y-97369047D01*
X210842261Y-97321428D01*
X210889880Y-97226190D01*
X210889880Y-97178571D01*
X210842261Y-97083333D01*
X210747023Y-97035714D01*
X210604166Y-97035714D01*
X210508928Y-97083333D01*
X209651785Y-97654761D02*
X209747023Y-97702380D01*
X209937500Y-97702380D01*
X210032738Y-97654761D01*
X210080357Y-97559523D01*
X210080357Y-97178571D01*
X210032738Y-97083333D01*
X209937500Y-97035714D01*
X209747023Y-97035714D01*
X209651785Y-97083333D01*
X209604166Y-97178571D01*
X209604166Y-97273809D01*
X210080357Y-97369047D01*
X209318452Y-97035714D02*
X208937500Y-97035714D01*
X209175595Y-96702380D02*
X209175595Y-97559523D01*
X209127976Y-97654761D01*
X209032738Y-97702380D01*
X208937500Y-97702380D01*
X242027619Y-128532380D02*
X242027619Y-127532380D01*
X241646666Y-127532380D01*
X241551428Y-127580000D01*
X241503809Y-127627619D01*
X241456190Y-127722857D01*
X241456190Y-127865714D01*
X241503809Y-127960952D01*
X241551428Y-128008571D01*
X241646666Y-128056190D01*
X242027619Y-128056190D01*
X240884761Y-128532380D02*
X240980000Y-128484761D01*
X241027619Y-128437142D01*
X241075238Y-128341904D01*
X241075238Y-128056190D01*
X241027619Y-127960952D01*
X240980000Y-127913333D01*
X240884761Y-127865714D01*
X240741904Y-127865714D01*
X240646666Y-127913333D01*
X240599047Y-127960952D01*
X240551428Y-128056190D01*
X240551428Y-128341904D01*
X240599047Y-128437142D01*
X240646666Y-128484761D01*
X240741904Y-128532380D01*
X240884761Y-128532380D01*
X240218095Y-127865714D02*
X240027619Y-128532380D01*
X239837142Y-128056190D01*
X239646666Y-128532380D01*
X239456190Y-127865714D01*
X238694285Y-128484761D02*
X238789523Y-128532380D01*
X238980000Y-128532380D01*
X239075238Y-128484761D01*
X239122857Y-128389523D01*
X239122857Y-128008571D01*
X239075238Y-127913333D01*
X238980000Y-127865714D01*
X238789523Y-127865714D01*
X238694285Y-127913333D01*
X238646666Y-128008571D01*
X238646666Y-128103809D01*
X239122857Y-128199047D01*
X238218095Y-128532380D02*
X238218095Y-127865714D01*
X238218095Y-128056190D02*
X238170476Y-127960952D01*
X238122857Y-127913333D01*
X238027619Y-127865714D01*
X237932380Y-127865714D01*
X236837142Y-128532380D02*
X236837142Y-127865714D01*
X236837142Y-127532380D02*
X236884761Y-127580000D01*
X236837142Y-127627619D01*
X236789523Y-127580000D01*
X236837142Y-127532380D01*
X236837142Y-127627619D01*
X236360952Y-127865714D02*
X236360952Y-128532380D01*
X236360952Y-127960952D02*
X236313333Y-127913333D01*
X236218095Y-127865714D01*
X236075238Y-127865714D01*
X235980000Y-127913333D01*
X235932380Y-128008571D01*
X235932380Y-128532380D01*
X223192380Y-100429761D02*
X223049523Y-100477380D01*
X222811428Y-100477380D01*
X222716190Y-100429761D01*
X222668571Y-100382142D01*
X222620952Y-100286904D01*
X222620952Y-100191666D01*
X222668571Y-100096428D01*
X222716190Y-100048809D01*
X222811428Y-100001190D01*
X223001904Y-99953571D01*
X223097142Y-99905952D01*
X223144761Y-99858333D01*
X223192380Y-99763095D01*
X223192380Y-99667857D01*
X223144761Y-99572619D01*
X223097142Y-99525000D01*
X223001904Y-99477380D01*
X222763809Y-99477380D01*
X222620952Y-99525000D01*
X222192380Y-100477380D02*
X222192380Y-99477380D01*
X221811428Y-99477380D01*
X221716190Y-99525000D01*
X221668571Y-99572619D01*
X221620952Y-99667857D01*
X221620952Y-99810714D01*
X221668571Y-99905952D01*
X221716190Y-99953571D01*
X221811428Y-100001190D01*
X222192380Y-100001190D01*
X221192380Y-100477380D02*
X221192380Y-99477380D01*
X220954285Y-99477380D01*
X220811428Y-99525000D01*
X220716190Y-99620238D01*
X220668571Y-99715476D01*
X220620952Y-99905952D01*
X220620952Y-100048809D01*
X220668571Y-100239285D01*
X220716190Y-100334523D01*
X220811428Y-100429761D01*
X220954285Y-100477380D01*
X221192380Y-100477380D01*
X220192380Y-100477380D02*
X220192380Y-99477380D01*
X219382857Y-99953571D02*
X219716190Y-99953571D01*
X219716190Y-100477380D02*
X219716190Y-99477380D01*
X219240000Y-99477380D01*
X222049523Y-102227380D02*
X222144761Y-102179761D01*
X222192380Y-102132142D01*
X222240000Y-102036904D01*
X222240000Y-101751190D01*
X222192380Y-101655952D01*
X222144761Y-101608333D01*
X222049523Y-101560714D01*
X221906666Y-101560714D01*
X221811428Y-101608333D01*
X221763809Y-101655952D01*
X221716190Y-101751190D01*
X221716190Y-102036904D01*
X221763809Y-102132142D01*
X221811428Y-102179761D01*
X221906666Y-102227380D01*
X222049523Y-102227380D01*
X220859047Y-101560714D02*
X220859047Y-102227380D01*
X221287619Y-101560714D02*
X221287619Y-102084523D01*
X221240000Y-102179761D01*
X221144761Y-102227380D01*
X221001904Y-102227380D01*
X220906666Y-102179761D01*
X220859047Y-102132142D01*
X220525714Y-101560714D02*
X220144761Y-101560714D01*
X220382857Y-101227380D02*
X220382857Y-102084523D01*
X220335238Y-102179761D01*
X220240000Y-102227380D01*
X220144761Y-102227380D01*
D10*
X218180000Y-117575714D02*
X218141904Y-117499523D01*
X218141904Y-117385238D01*
X218180000Y-117270952D01*
X218256190Y-117194761D01*
X218332380Y-117156666D01*
X218484761Y-117118571D01*
X218599047Y-117118571D01*
X218751428Y-117156666D01*
X218827619Y-117194761D01*
X218903809Y-117270952D01*
X218941904Y-117385238D01*
X218941904Y-117461428D01*
X218903809Y-117575714D01*
X218865714Y-117613809D01*
X218599047Y-117613809D01*
X218599047Y-117461428D01*
X218941904Y-117956666D02*
X218141904Y-117956666D01*
X218941904Y-118413809D01*
X218141904Y-118413809D01*
X218941904Y-118794761D02*
X218141904Y-118794761D01*
X218141904Y-118985238D01*
X218180000Y-119099523D01*
X218256190Y-119175714D01*
X218332380Y-119213809D01*
X218484761Y-119251904D01*
X218599047Y-119251904D01*
X218751428Y-119213809D01*
X218827619Y-119175714D01*
X218903809Y-119099523D01*
X218941904Y-118985238D01*
X218941904Y-118794761D01*
X216637142Y-117156666D02*
X216637142Y-117766189D01*
X214637142Y-117156666D02*
X214637142Y-117766189D01*
X214941904Y-117461428D02*
X214332380Y-117461428D01*
D11*
X227182380Y-120809761D02*
X227039523Y-120857380D01*
X226801428Y-120857380D01*
X226706190Y-120809761D01*
X226658571Y-120762142D01*
X226610952Y-120666904D01*
X226610952Y-120571666D01*
X226658571Y-120476428D01*
X226706190Y-120428809D01*
X226801428Y-120381190D01*
X226991904Y-120333571D01*
X227087142Y-120285952D01*
X227134761Y-120238333D01*
X227182380Y-120143095D01*
X227182380Y-120047857D01*
X227134761Y-119952619D01*
X227087142Y-119905000D01*
X226991904Y-119857380D01*
X226753809Y-119857380D01*
X226610952Y-119905000D01*
X226182380Y-120190714D02*
X226182380Y-121190714D01*
X226182380Y-120238333D02*
X226087142Y-120190714D01*
X225896666Y-120190714D01*
X225801428Y-120238333D01*
X225753809Y-120285952D01*
X225706190Y-120381190D01*
X225706190Y-120666904D01*
X225753809Y-120762142D01*
X225801428Y-120809761D01*
X225896666Y-120857380D01*
X226087142Y-120857380D01*
X226182380Y-120809761D01*
X225277619Y-120857380D02*
X225277619Y-119857380D01*
X225182380Y-120476428D02*
X224896666Y-120857380D01*
X224896666Y-120190714D02*
X225277619Y-120571666D01*
X224468095Y-120857380D02*
X224468095Y-120190714D01*
X224468095Y-120381190D02*
X224420476Y-120285952D01*
X224372857Y-120238333D01*
X224277619Y-120190714D01*
X224182380Y-120190714D01*
X227420476Y-122607380D02*
X227515714Y-122559761D01*
X227563333Y-122512142D01*
X227610952Y-122416904D01*
X227610952Y-122131190D01*
X227563333Y-122035952D01*
X227515714Y-121988333D01*
X227420476Y-121940714D01*
X227277619Y-121940714D01*
X227182380Y-121988333D01*
X227134761Y-122035952D01*
X227087142Y-122131190D01*
X227087142Y-122416904D01*
X227134761Y-122512142D01*
X227182380Y-122559761D01*
X227277619Y-122607380D01*
X227420476Y-122607380D01*
X226230000Y-121940714D02*
X226230000Y-122607380D01*
X226658571Y-121940714D02*
X226658571Y-122464523D01*
X226610952Y-122559761D01*
X226515714Y-122607380D01*
X226372857Y-122607380D01*
X226277619Y-122559761D01*
X226230000Y-122512142D01*
X225896666Y-121940714D02*
X225515714Y-121940714D01*
X225753809Y-121607380D02*
X225753809Y-122464523D01*
X225706190Y-122559761D01*
X225610952Y-122607380D01*
X225515714Y-122607380D01*
X223849047Y-122607380D02*
X224182380Y-122131190D01*
X224420476Y-122607380D02*
X224420476Y-121607380D01*
X224039523Y-121607380D01*
X223944285Y-121655000D01*
X223896666Y-121702619D01*
X223849047Y-121797857D01*
X223849047Y-121940714D01*
X223896666Y-122035952D01*
X223944285Y-122083571D01*
X224039523Y-122131190D01*
X224420476Y-122131190D01*
X218022380Y-120809761D02*
X217879523Y-120857380D01*
X217641428Y-120857380D01*
X217546190Y-120809761D01*
X217498571Y-120762142D01*
X217450952Y-120666904D01*
X217450952Y-120571666D01*
X217498571Y-120476428D01*
X217546190Y-120428809D01*
X217641428Y-120381190D01*
X217831904Y-120333571D01*
X217927142Y-120285952D01*
X217974761Y-120238333D01*
X218022380Y-120143095D01*
X218022380Y-120047857D01*
X217974761Y-119952619D01*
X217927142Y-119905000D01*
X217831904Y-119857380D01*
X217593809Y-119857380D01*
X217450952Y-119905000D01*
X217022380Y-120190714D02*
X217022380Y-121190714D01*
X217022380Y-120238333D02*
X216927142Y-120190714D01*
X216736666Y-120190714D01*
X216641428Y-120238333D01*
X216593809Y-120285952D01*
X216546190Y-120381190D01*
X216546190Y-120666904D01*
X216593809Y-120762142D01*
X216641428Y-120809761D01*
X216736666Y-120857380D01*
X216927142Y-120857380D01*
X217022380Y-120809761D01*
X216117619Y-120857380D02*
X216117619Y-119857380D01*
X216022380Y-120476428D02*
X215736666Y-120857380D01*
X215736666Y-120190714D02*
X216117619Y-120571666D01*
X215308095Y-120857380D02*
X215308095Y-120190714D01*
X215308095Y-120381190D02*
X215260476Y-120285952D01*
X215212857Y-120238333D01*
X215117619Y-120190714D01*
X215022380Y-120190714D01*
X218165238Y-122607380D02*
X218260476Y-122559761D01*
X218308095Y-122512142D01*
X218355714Y-122416904D01*
X218355714Y-122131190D01*
X218308095Y-122035952D01*
X218260476Y-121988333D01*
X218165238Y-121940714D01*
X218022380Y-121940714D01*
X217927142Y-121988333D01*
X217879523Y-122035952D01*
X217831904Y-122131190D01*
X217831904Y-122416904D01*
X217879523Y-122512142D01*
X217927142Y-122559761D01*
X218022380Y-122607380D01*
X218165238Y-122607380D01*
X216974761Y-121940714D02*
X216974761Y-122607380D01*
X217403333Y-121940714D02*
X217403333Y-122464523D01*
X217355714Y-122559761D01*
X217260476Y-122607380D01*
X217117619Y-122607380D01*
X217022380Y-122559761D01*
X216974761Y-122512142D01*
X216641428Y-121940714D02*
X216260476Y-121940714D01*
X216498571Y-121607380D02*
X216498571Y-122464523D01*
X216450952Y-122559761D01*
X216355714Y-122607380D01*
X216260476Y-122607380D01*
X214689047Y-122607380D02*
X215165238Y-122607380D01*
X215165238Y-121607380D01*
D12*
G36*
X240636244Y-88405368D02*
G01*
X240498961Y-88499385D01*
X240420559Y-88604619D01*
X240345295Y-88799274D01*
X240345285Y-88994810D01*
X240414930Y-89173197D01*
X240548633Y-89316408D01*
X240661248Y-89379630D01*
X240813643Y-89428047D01*
X240945820Y-89424656D01*
X241088583Y-89375237D01*
X241204510Y-89297213D01*
X241303683Y-89186789D01*
X241310675Y-89175811D01*
X241385379Y-88983735D01*
X241385217Y-88795123D01*
X241319226Y-88624801D01*
X241196441Y-88487596D01*
X241025897Y-88398333D01*
X240820616Y-88371677D01*
X240636244Y-88405368D01*
G37*
X240636244Y-88405368D02*
X240498961Y-88499385D01*
X240420559Y-88604619D01*
X240345295Y-88799274D01*
X240345285Y-88994810D01*
X240414930Y-89173197D01*
X240548633Y-89316408D01*
X240661248Y-89379630D01*
X240813643Y-89428047D01*
X240945820Y-89424656D01*
X241088583Y-89375237D01*
X241204510Y-89297213D01*
X241303683Y-89186789D01*
X241310675Y-89175811D01*
X241385379Y-88983735D01*
X241385217Y-88795123D01*
X241319226Y-88624801D01*
X241196441Y-88487596D01*
X241025897Y-88398333D01*
X240820616Y-88371677D01*
X240636244Y-88405368D01*
G36*
X243892157Y-88456147D02*
G01*
X243747310Y-88555983D01*
X243649666Y-88697168D01*
X243602243Y-88863383D01*
X243608058Y-89038312D01*
X243670126Y-89205638D01*
X243791465Y-89349043D01*
X243895635Y-89417679D01*
X244063438Y-89472721D01*
X244236448Y-89457710D01*
X244348249Y-89417571D01*
X244464176Y-89339546D01*
X244563350Y-89229122D01*
X244570341Y-89218144D01*
X244644980Y-89026132D01*
X244644786Y-88837490D01*
X244578810Y-88667095D01*
X244456100Y-88529824D01*
X244285706Y-88440554D01*
X244081193Y-88413976D01*
X243892157Y-88456147D01*
G37*
X243892157Y-88456147D02*
X243747310Y-88555983D01*
X243649666Y-88697168D01*
X243602243Y-88863383D01*
X243608058Y-89038312D01*
X243670126Y-89205638D01*
X243791465Y-89349043D01*
X243895635Y-89417679D01*
X244063438Y-89472721D01*
X244236448Y-89457710D01*
X244348249Y-89417571D01*
X244464176Y-89339546D01*
X244563350Y-89229122D01*
X244570341Y-89218144D01*
X244644980Y-89026132D01*
X244644786Y-88837490D01*
X244578810Y-88667095D01*
X244456100Y-88529824D01*
X244285706Y-88440554D01*
X244081193Y-88413976D01*
X243892157Y-88456147D01*
G36*
X241480901Y-82972217D02*
G01*
X241417277Y-83013310D01*
X241344071Y-83108318D01*
X241312468Y-83157054D01*
X241225711Y-83316502D01*
X241191434Y-83456663D01*
X241207283Y-83608512D01*
X241264614Y-83786500D01*
X241329036Y-83988273D01*
X241392433Y-84239935D01*
X241447233Y-84506964D01*
X241485860Y-84754834D01*
X241494488Y-84834250D01*
X241501622Y-84956190D01*
X241489027Y-85015816D01*
X241449797Y-85034506D01*
X241429533Y-85035333D01*
X241353790Y-85043528D01*
X241217587Y-85065579D01*
X241043269Y-85097688D01*
X240926774Y-85120793D01*
X240195010Y-85312100D01*
X239492208Y-85579661D01*
X238824307Y-85918953D01*
X238197244Y-86325451D01*
X237616958Y-86794633D01*
X237089387Y-87321973D01*
X236620468Y-87902949D01*
X236216141Y-88533036D01*
X236057335Y-88830425D01*
X235964461Y-89008586D01*
X235882012Y-89142860D01*
X235791170Y-89256341D01*
X235673120Y-89372123D01*
X235509045Y-89513300D01*
X235483789Y-89534361D01*
X235156488Y-89834266D01*
X234829695Y-90183928D01*
X234521707Y-90560902D01*
X234250825Y-90942747D01*
X234035345Y-91307022D01*
X234029930Y-91317440D01*
X233932936Y-91527484D01*
X233827006Y-91794399D01*
X233719617Y-92095321D01*
X233618245Y-92407387D01*
X233530366Y-92707731D01*
X233463456Y-92973491D01*
X233428347Y-93157218D01*
X233403429Y-93390564D01*
X233410055Y-93564334D01*
X233452246Y-93699019D01*
X233534026Y-93815113D01*
X233563578Y-93846091D01*
X233643758Y-93915656D01*
X233726505Y-93952294D01*
X233843325Y-93966118D01*
X233942410Y-93967667D01*
X234054968Y-93966761D01*
X234130664Y-93973099D01*
X234174897Y-94000265D01*
X234193062Y-94061843D01*
X234190558Y-94171417D01*
X234172781Y-94342570D01*
X234154638Y-94501820D01*
X234134999Y-94697007D01*
X234128786Y-94828468D01*
X234136875Y-94916209D01*
X234160140Y-94980234D01*
X234176781Y-95008151D01*
X234249857Y-95086846D01*
X234332630Y-95100845D01*
X234437181Y-95047836D01*
X234567593Y-94933390D01*
X234666118Y-94842819D01*
X234739614Y-94786598D01*
X234768556Y-94776446D01*
X234780749Y-94825190D01*
X234795632Y-94937505D01*
X234810606Y-95092461D01*
X234815530Y-95154805D01*
X234842001Y-95421386D01*
X234877754Y-95614100D01*
X234925844Y-95743519D01*
X234989322Y-95820213D01*
X235011848Y-95834534D01*
X235144330Y-95862225D01*
X235304785Y-95832772D01*
X235465485Y-95752792D01*
X235516695Y-95714053D01*
X235627308Y-95588005D01*
X235737743Y-95407274D01*
X235833607Y-95200642D01*
X235900509Y-94996890D01*
X235917533Y-94912471D01*
X235939829Y-94801808D01*
X235963943Y-94736836D01*
X235972702Y-94729667D01*
X236005030Y-94764071D01*
X236064127Y-94854652D01*
X236137716Y-94982462D01*
X236144145Y-94994250D01*
X236518604Y-95601880D01*
X236961780Y-96178450D01*
X237461041Y-96709963D01*
X238003752Y-97182422D01*
X238343178Y-97430504D01*
X238697856Y-97671834D01*
X238669367Y-98222167D01*
X238645671Y-98586673D01*
X238613909Y-98935238D01*
X238575922Y-99254422D01*
X238533550Y-99530782D01*
X238488630Y-99750879D01*
X238443005Y-99901270D01*
X238437917Y-99913217D01*
X238350369Y-100071675D01*
X238209921Y-100277798D01*
X238024937Y-100520808D01*
X237803781Y-100789932D01*
X237554816Y-101074394D01*
X237433963Y-101206667D01*
X237210366Y-101451602D01*
X237041125Y-101646023D01*
X236919958Y-101798507D01*
X236840586Y-101917629D01*
X236796726Y-102011965D01*
X236782097Y-102090092D01*
X236782000Y-102096835D01*
X236798056Y-102205910D01*
X236851074Y-102277052D01*
X236948326Y-102310613D01*
X237097083Y-102306943D01*
X237304618Y-102266393D01*
X237578203Y-102189315D01*
X237726120Y-102142377D01*
X237930627Y-102077538D01*
X238110366Y-102023696D01*
X238247850Y-101985869D01*
X238325593Y-101969071D01*
X238331728Y-101968667D01*
X238407078Y-101986526D01*
X238527466Y-102032693D01*
X238630481Y-102079770D01*
X238797513Y-102152514D01*
X238952604Y-102195318D01*
X239115307Y-102208534D01*
X239305173Y-102192515D01*
X239541756Y-102147613D01*
X239743130Y-102099806D01*
X240027529Y-102032157D01*
X240245949Y-101989779D01*
X240413280Y-101972866D01*
X240544411Y-101981612D01*
X240654231Y-102016211D01*
X240757629Y-102076858D01*
X240807303Y-102113686D01*
X241105011Y-102294455D01*
X241470793Y-102428295D01*
X241684255Y-102478389D01*
X241835582Y-102504404D01*
X241933227Y-102507688D01*
X242005447Y-102486819D01*
X242051750Y-102459884D01*
X242137264Y-102367637D01*
X242158333Y-102288992D01*
X242124506Y-102174885D01*
X242026962Y-102018846D01*
X241871607Y-101827125D01*
X241664344Y-101605970D01*
X241411080Y-101361629D01*
X241117719Y-101100351D01*
X240790166Y-100828382D01*
X240740166Y-100788417D01*
X240465254Y-100567623D01*
X240249327Y-100388677D01*
X240083308Y-100243067D01*
X239958119Y-100122283D01*
X239864683Y-100017813D01*
X239793924Y-99921146D01*
X239764564Y-99873682D01*
X239685082Y-99686976D01*
X239627880Y-99433689D01*
X239592222Y-99108906D01*
X239577373Y-98707712D01*
X239576838Y-98619926D01*
X239576000Y-98128684D01*
X240052250Y-98289871D01*
X240385402Y-98398627D01*
X240677671Y-98483113D01*
X240948381Y-98546225D01*
X241216857Y-98590855D01*
X241502425Y-98619900D01*
X241824408Y-98636252D01*
X242202131Y-98642805D01*
X242412333Y-98643317D01*
X242800107Y-98640671D01*
X243122410Y-98631638D01*
X243398362Y-98613431D01*
X243647082Y-98583265D01*
X243887689Y-98538353D01*
X244139303Y-98475908D01*
X244421044Y-98393143D01*
X244668445Y-98314494D01*
X245121666Y-98167530D01*
X245120706Y-98364182D01*
X245114591Y-98587092D01*
X245099617Y-98834124D01*
X245077842Y-99086037D01*
X245051326Y-99323596D01*
X245022127Y-99527561D01*
X244992305Y-99678696D01*
X244973492Y-99739656D01*
X244911633Y-99858024D01*
X244817843Y-99986654D01*
X244684763Y-100132956D01*
X244505036Y-100304341D01*
X244271303Y-100508220D01*
X243976207Y-100752004D01*
X243936333Y-100784283D01*
X243608699Y-101057099D01*
X243311852Y-101320197D01*
X243051810Y-101567258D01*
X242834589Y-101791966D01*
X242666207Y-101988002D01*
X242552681Y-102149049D01*
X242500027Y-102268790D01*
X242497000Y-102295563D01*
X242534765Y-102398395D01*
X242637298Y-102469513D01*
X242788454Y-102502132D01*
X242962666Y-102491230D01*
X243225263Y-102422634D01*
X243504815Y-102315219D01*
X243758669Y-102186304D01*
X243839850Y-102135060D01*
X243965988Y-102055335D01*
X244079984Y-102002939D01*
X244198449Y-101977329D01*
X244337992Y-101977962D01*
X244515222Y-102004296D01*
X244746751Y-102055788D01*
X244923059Y-102099653D01*
X245211795Y-102166562D01*
X245441064Y-102202103D01*
X245630197Y-102205887D01*
X245798524Y-102177521D01*
X245965375Y-102116615D01*
X246048293Y-102076886D01*
X246180481Y-102016621D01*
X246292101Y-101977333D01*
X246339608Y-101968667D01*
X246410022Y-101981811D01*
X246540223Y-102017385D01*
X246710172Y-102069599D01*
X246859599Y-102118888D01*
X247144578Y-102212529D01*
X247362791Y-102275922D01*
X247525739Y-102311115D01*
X247644922Y-102320153D01*
X247731839Y-102305082D01*
X247778083Y-102282300D01*
X247856475Y-102185801D01*
X247867412Y-102048974D01*
X247812429Y-101889019D01*
X247764708Y-101820046D01*
X247670006Y-101701581D01*
X247538914Y-101546212D01*
X247382021Y-101366528D01*
X247235491Y-101203205D01*
X246955907Y-100892679D01*
X246729029Y-100631705D01*
X246548640Y-100409033D01*
X246408523Y-100213417D01*
X246302460Y-100033608D01*
X246224235Y-99858358D01*
X246167631Y-99676421D01*
X246126429Y-99476547D01*
X246094413Y-99247490D01*
X246079124Y-99111167D01*
X246053033Y-98853083D01*
X246028228Y-98584342D01*
X246007459Y-98336168D01*
X245993472Y-98139789D01*
X245993138Y-98134215D01*
X245970293Y-97749930D01*
X246360896Y-97493846D01*
X246958297Y-97052306D01*
X247508377Y-96544152D01*
X248003549Y-95977534D01*
X248436226Y-95360603D01*
X248593522Y-95095500D01*
X248733255Y-94847501D01*
X248806088Y-95082898D01*
X248895947Y-95320443D01*
X249005895Y-95529409D01*
X249123985Y-95689558D01*
X249207963Y-95763681D01*
X249324723Y-95813691D01*
X249467629Y-95842274D01*
X249489463Y-95843770D01*
X249617258Y-95834087D01*
X249709807Y-95784500D01*
X249773647Y-95684208D01*
X249815314Y-95522412D01*
X249841343Y-95288312D01*
X249843453Y-95258834D01*
X249859139Y-95041844D01*
X249875215Y-94900640D01*
X249898434Y-94826578D01*
X249935552Y-94811018D01*
X249993324Y-94845317D01*
X250078503Y-94920832D01*
X250095434Y-94936446D01*
X250209508Y-95029938D01*
X250310869Y-95093173D01*
X250364870Y-95110667D01*
X250439202Y-95099706D01*
X250489818Y-95059011D01*
X250519570Y-94976862D01*
X250531307Y-94841538D01*
X250527882Y-94641321D01*
X250519201Y-94476235D01*
X250488644Y-93967667D01*
X250707091Y-93967667D01*
X250926670Y-93947563D01*
X251085559Y-93882427D01*
X251189267Y-93765026D01*
X251243299Y-93588124D01*
X251253164Y-93344486D01*
X251248290Y-93256692D01*
X251214051Y-93009467D01*
X251146879Y-92709103D01*
X251053853Y-92377077D01*
X250942055Y-92034865D01*
X250818563Y-91703943D01*
X250690457Y-91405788D01*
X250564819Y-91161877D01*
X250548828Y-91134929D01*
X250371347Y-90862967D01*
X250159798Y-90572715D01*
X249930068Y-90283558D01*
X249698040Y-90014885D01*
X249479599Y-89786084D01*
X249333833Y-89651968D01*
X249199814Y-89536091D01*
X249097523Y-89438088D01*
X249013960Y-89340172D01*
X248936128Y-89224557D01*
X248892151Y-89146470D01*
X246628366Y-89146470D01*
X246616478Y-89249640D01*
X246524145Y-89636746D01*
X246370404Y-89972186D01*
X246162318Y-90251505D01*
X245906950Y-90470252D01*
X245611361Y-90623973D01*
X245282614Y-90708216D01*
X244927771Y-90718527D01*
X244553893Y-90650453D01*
X244447751Y-90617081D01*
X244097934Y-90453959D01*
X243776052Y-90220670D01*
X243490517Y-89929431D01*
X243249741Y-89592460D01*
X243062138Y-89221975D01*
X242936119Y-88830194D01*
X242884991Y-88464334D01*
X242062152Y-88464334D01*
X241992384Y-88896852D01*
X241849154Y-89305456D01*
X241639701Y-89680335D01*
X241371260Y-90011680D01*
X241051068Y-90289681D01*
X240686362Y-90504528D01*
X240500460Y-90581321D01*
X240270690Y-90637200D01*
X240001632Y-90661720D01*
X239727686Y-90654615D01*
X239483248Y-90615620D01*
X239398082Y-90589823D01*
X239085533Y-90432714D01*
X238820806Y-90209261D01*
X238610066Y-89926829D01*
X238459476Y-89592781D01*
X238408338Y-89407246D01*
X238358887Y-89000831D01*
X238385831Y-88595171D01*
X238482833Y-88200274D01*
X238643557Y-87826149D01*
X238861665Y-87482803D01*
X239130822Y-87180246D01*
X239444689Y-86928486D01*
X239796932Y-86737532D01*
X240173695Y-86618943D01*
X240533043Y-86582698D01*
X240870207Y-86623251D01*
X241178622Y-86734188D01*
X241451723Y-86909092D01*
X241682946Y-87141549D01*
X241865726Y-87425143D01*
X241993497Y-87753460D01*
X242059695Y-88120083D01*
X242062152Y-88464334D01*
X242884991Y-88464334D01*
X242880099Y-88429334D01*
X242878000Y-88337334D01*
X242914778Y-87930446D01*
X243023683Y-87564464D01*
X243202572Y-87243103D01*
X243449301Y-86970076D01*
X243761728Y-86749099D01*
X243809333Y-86723188D01*
X243905630Y-86677719D01*
X244001851Y-86648319D01*
X244120078Y-86631622D01*
X244282394Y-86624262D01*
X244467695Y-86622834D01*
X244675287Y-86624032D01*
X244824044Y-86631178D01*
X244939797Y-86649594D01*
X245048375Y-86684605D01*
X245175609Y-86741533D01*
X245272029Y-86788613D01*
X245619829Y-87003638D01*
X245927722Y-87280205D01*
X246188845Y-87605753D01*
X246396334Y-87967717D01*
X246543326Y-88353533D01*
X246622958Y-88750639D01*
X246628366Y-89146470D01*
X248892151Y-89146470D01*
X248851029Y-89073454D01*
X248745664Y-88869077D01*
X248709899Y-88798174D01*
X248336299Y-88148433D01*
X247897058Y-87548115D01*
X247397861Y-87001025D01*
X246844393Y-86510968D01*
X246242340Y-86081747D01*
X245597386Y-85717169D01*
X244915218Y-85421038D01*
X244201520Y-85197158D01*
X243461976Y-85049334D01*
X243036003Y-85000972D01*
X242848912Y-84984049D01*
X242695477Y-84967427D01*
X242593828Y-84953243D01*
X242561968Y-84945080D01*
X242573409Y-84902876D01*
X242617658Y-84800426D01*
X242687981Y-84652349D01*
X242777641Y-84473265D01*
X242794030Y-84441355D01*
X242939167Y-84155388D01*
X243045003Y-83931136D01*
X243113426Y-83756337D01*
X243146323Y-83618732D01*
X243145579Y-83506061D01*
X243113083Y-83406063D01*
X243050720Y-83306479D01*
X242981925Y-83220452D01*
X242863769Y-83080032D01*
X242661051Y-83306266D01*
X242458332Y-83532500D01*
X242456499Y-83334441D01*
X242433385Y-83167317D01*
X242372810Y-83052523D01*
X242282686Y-83004037D01*
X242269063Y-83003333D01*
X242203339Y-83035130D01*
X242113730Y-83115383D01*
X242022228Y-83221389D01*
X241950823Y-83330441D01*
X241949173Y-83333614D01*
X241919201Y-83383294D01*
X241891710Y-83387793D01*
X241853849Y-83337156D01*
X241792762Y-83221422D01*
X241785251Y-83206614D01*
X241708482Y-83071651D01*
X241640940Y-82998855D01*
X241565103Y-82970065D01*
X241555885Y-82968849D01*
X241480901Y-82972217D01*
G37*
X241480901Y-82972217D02*
X241417277Y-83013310D01*
X241344071Y-83108318D01*
X241312468Y-83157054D01*
X241225711Y-83316502D01*
X241191434Y-83456663D01*
X241207283Y-83608512D01*
X241264614Y-83786500D01*
X241329036Y-83988273D01*
X241392433Y-84239935D01*
X241447233Y-84506964D01*
X241485860Y-84754834D01*
X241494488Y-84834250D01*
X241501622Y-84956190D01*
X241489027Y-85015816D01*
X241449797Y-85034506D01*
X241429533Y-85035333D01*
X241353790Y-85043528D01*
X241217587Y-85065579D01*
X241043269Y-85097688D01*
X240926774Y-85120793D01*
X240195010Y-85312100D01*
X239492208Y-85579661D01*
X238824307Y-85918953D01*
X238197244Y-86325451D01*
X237616958Y-86794633D01*
X237089387Y-87321973D01*
X236620468Y-87902949D01*
X236216141Y-88533036D01*
X236057335Y-88830425D01*
X235964461Y-89008586D01*
X235882012Y-89142860D01*
X235791170Y-89256341D01*
X235673120Y-89372123D01*
X235509045Y-89513300D01*
X235483789Y-89534361D01*
X235156488Y-89834266D01*
X234829695Y-90183928D01*
X234521707Y-90560902D01*
X234250825Y-90942747D01*
X234035345Y-91307022D01*
X234029930Y-91317440D01*
X233932936Y-91527484D01*
X233827006Y-91794399D01*
X233719617Y-92095321D01*
X233618245Y-92407387D01*
X233530366Y-92707731D01*
X233463456Y-92973491D01*
X233428347Y-93157218D01*
X233403429Y-93390564D01*
X233410055Y-93564334D01*
X233452246Y-93699019D01*
X233534026Y-93815113D01*
X233563578Y-93846091D01*
X233643758Y-93915656D01*
X233726505Y-93952294D01*
X233843325Y-93966118D01*
X233942410Y-93967667D01*
X234054968Y-93966761D01*
X234130664Y-93973099D01*
X234174897Y-94000265D01*
X234193062Y-94061843D01*
X234190558Y-94171417D01*
X234172781Y-94342570D01*
X234154638Y-94501820D01*
X234134999Y-94697007D01*
X234128786Y-94828468D01*
X234136875Y-94916209D01*
X234160140Y-94980234D01*
X234176781Y-95008151D01*
X234249857Y-95086846D01*
X234332630Y-95100845D01*
X234437181Y-95047836D01*
X234567593Y-94933390D01*
X234666118Y-94842819D01*
X234739614Y-94786598D01*
X234768556Y-94776446D01*
X234780749Y-94825190D01*
X234795632Y-94937505D01*
X234810606Y-95092461D01*
X234815530Y-95154805D01*
X234842001Y-95421386D01*
X234877754Y-95614100D01*
X234925844Y-95743519D01*
X234989322Y-95820213D01*
X235011848Y-95834534D01*
X235144330Y-95862225D01*
X235304785Y-95832772D01*
X235465485Y-95752792D01*
X235516695Y-95714053D01*
X235627308Y-95588005D01*
X235737743Y-95407274D01*
X235833607Y-95200642D01*
X235900509Y-94996890D01*
X235917533Y-94912471D01*
X235939829Y-94801808D01*
X235963943Y-94736836D01*
X235972702Y-94729667D01*
X236005030Y-94764071D01*
X236064127Y-94854652D01*
X236137716Y-94982462D01*
X236144145Y-94994250D01*
X236518604Y-95601880D01*
X236961780Y-96178450D01*
X237461041Y-96709963D01*
X238003752Y-97182422D01*
X238343178Y-97430504D01*
X238697856Y-97671834D01*
X238669367Y-98222167D01*
X238645671Y-98586673D01*
X238613909Y-98935238D01*
X238575922Y-99254422D01*
X238533550Y-99530782D01*
X238488630Y-99750879D01*
X238443005Y-99901270D01*
X238437917Y-99913217D01*
X238350369Y-100071675D01*
X238209921Y-100277798D01*
X238024937Y-100520808D01*
X237803781Y-100789932D01*
X237554816Y-101074394D01*
X237433963Y-101206667D01*
X237210366Y-101451602D01*
X237041125Y-101646023D01*
X236919958Y-101798507D01*
X236840586Y-101917629D01*
X236796726Y-102011965D01*
X236782097Y-102090092D01*
X236782000Y-102096835D01*
X236798056Y-102205910D01*
X236851074Y-102277052D01*
X236948326Y-102310613D01*
X237097083Y-102306943D01*
X237304618Y-102266393D01*
X237578203Y-102189315D01*
X237726120Y-102142377D01*
X237930627Y-102077538D01*
X238110366Y-102023696D01*
X238247850Y-101985869D01*
X238325593Y-101969071D01*
X238331728Y-101968667D01*
X238407078Y-101986526D01*
X238527466Y-102032693D01*
X238630481Y-102079770D01*
X238797513Y-102152514D01*
X238952604Y-102195318D01*
X239115307Y-102208534D01*
X239305173Y-102192515D01*
X239541756Y-102147613D01*
X239743130Y-102099806D01*
X240027529Y-102032157D01*
X240245949Y-101989779D01*
X240413280Y-101972866D01*
X240544411Y-101981612D01*
X240654231Y-102016211D01*
X240757629Y-102076858D01*
X240807303Y-102113686D01*
X241105011Y-102294455D01*
X241470793Y-102428295D01*
X241684255Y-102478389D01*
X241835582Y-102504404D01*
X241933227Y-102507688D01*
X242005447Y-102486819D01*
X242051750Y-102459884D01*
X242137264Y-102367637D01*
X242158333Y-102288992D01*
X242124506Y-102174885D01*
X242026962Y-102018846D01*
X241871607Y-101827125D01*
X241664344Y-101605970D01*
X241411080Y-101361629D01*
X241117719Y-101100351D01*
X240790166Y-100828382D01*
X240740166Y-100788417D01*
X240465254Y-100567623D01*
X240249327Y-100388677D01*
X240083308Y-100243067D01*
X239958119Y-100122283D01*
X239864683Y-100017813D01*
X239793924Y-99921146D01*
X239764564Y-99873682D01*
X239685082Y-99686976D01*
X239627880Y-99433689D01*
X239592222Y-99108906D01*
X239577373Y-98707712D01*
X239576838Y-98619926D01*
X239576000Y-98128684D01*
X240052250Y-98289871D01*
X240385402Y-98398627D01*
X240677671Y-98483113D01*
X240948381Y-98546225D01*
X241216857Y-98590855D01*
X241502425Y-98619900D01*
X241824408Y-98636252D01*
X242202131Y-98642805D01*
X242412333Y-98643317D01*
X242800107Y-98640671D01*
X243122410Y-98631638D01*
X243398362Y-98613431D01*
X243647082Y-98583265D01*
X243887689Y-98538353D01*
X244139303Y-98475908D01*
X244421044Y-98393143D01*
X244668445Y-98314494D01*
X245121666Y-98167530D01*
X245120706Y-98364182D01*
X245114591Y-98587092D01*
X245099617Y-98834124D01*
X245077842Y-99086037D01*
X245051326Y-99323596D01*
X245022127Y-99527561D01*
X244992305Y-99678696D01*
X244973492Y-99739656D01*
X244911633Y-99858024D01*
X244817843Y-99986654D01*
X244684763Y-100132956D01*
X244505036Y-100304341D01*
X244271303Y-100508220D01*
X243976207Y-100752004D01*
X243936333Y-100784283D01*
X243608699Y-101057099D01*
X243311852Y-101320197D01*
X243051810Y-101567258D01*
X242834589Y-101791966D01*
X242666207Y-101988002D01*
X242552681Y-102149049D01*
X242500027Y-102268790D01*
X242497000Y-102295563D01*
X242534765Y-102398395D01*
X242637298Y-102469513D01*
X242788454Y-102502132D01*
X242962666Y-102491230D01*
X243225263Y-102422634D01*
X243504815Y-102315219D01*
X243758669Y-102186304D01*
X243839850Y-102135060D01*
X243965988Y-102055335D01*
X244079984Y-102002939D01*
X244198449Y-101977329D01*
X244337992Y-101977962D01*
X244515222Y-102004296D01*
X244746751Y-102055788D01*
X244923059Y-102099653D01*
X245211795Y-102166562D01*
X245441064Y-102202103D01*
X245630197Y-102205887D01*
X245798524Y-102177521D01*
X245965375Y-102116615D01*
X246048293Y-102076886D01*
X246180481Y-102016621D01*
X246292101Y-101977333D01*
X246339608Y-101968667D01*
X246410022Y-101981811D01*
X246540223Y-102017385D01*
X246710172Y-102069599D01*
X246859599Y-102118888D01*
X247144578Y-102212529D01*
X247362791Y-102275922D01*
X247525739Y-102311115D01*
X247644922Y-102320153D01*
X247731839Y-102305082D01*
X247778083Y-102282300D01*
X247856475Y-102185801D01*
X247867412Y-102048974D01*
X247812429Y-101889019D01*
X247764708Y-101820046D01*
X247670006Y-101701581D01*
X247538914Y-101546212D01*
X247382021Y-101366528D01*
X247235491Y-101203205D01*
X246955907Y-100892679D01*
X246729029Y-100631705D01*
X246548640Y-100409033D01*
X246408523Y-100213417D01*
X246302460Y-100033608D01*
X246224235Y-99858358D01*
X246167631Y-99676421D01*
X246126429Y-99476547D01*
X246094413Y-99247490D01*
X246079124Y-99111167D01*
X246053033Y-98853083D01*
X246028228Y-98584342D01*
X246007459Y-98336168D01*
X245993472Y-98139789D01*
X245993138Y-98134215D01*
X245970293Y-97749930D01*
X246360896Y-97493846D01*
X246958297Y-97052306D01*
X247508377Y-96544152D01*
X248003549Y-95977534D01*
X248436226Y-95360603D01*
X248593522Y-95095500D01*
X248733255Y-94847501D01*
X248806088Y-95082898D01*
X248895947Y-95320443D01*
X249005895Y-95529409D01*
X249123985Y-95689558D01*
X249207963Y-95763681D01*
X249324723Y-95813691D01*
X249467629Y-95842274D01*
X249489463Y-95843770D01*
X249617258Y-95834087D01*
X249709807Y-95784500D01*
X249773647Y-95684208D01*
X249815314Y-95522412D01*
X249841343Y-95288312D01*
X249843453Y-95258834D01*
X249859139Y-95041844D01*
X249875215Y-94900640D01*
X249898434Y-94826578D01*
X249935552Y-94811018D01*
X249993324Y-94845317D01*
X250078503Y-94920832D01*
X250095434Y-94936446D01*
X250209508Y-95029938D01*
X250310869Y-95093173D01*
X250364870Y-95110667D01*
X250439202Y-95099706D01*
X250489818Y-95059011D01*
X250519570Y-94976862D01*
X250531307Y-94841538D01*
X250527882Y-94641321D01*
X250519201Y-94476235D01*
X250488644Y-93967667D01*
X250707091Y-93967667D01*
X250926670Y-93947563D01*
X251085559Y-93882427D01*
X251189267Y-93765026D01*
X251243299Y-93588124D01*
X251253164Y-93344486D01*
X251248290Y-93256692D01*
X251214051Y-93009467D01*
X251146879Y-92709103D01*
X251053853Y-92377077D01*
X250942055Y-92034865D01*
X250818563Y-91703943D01*
X250690457Y-91405788D01*
X250564819Y-91161877D01*
X250548828Y-91134929D01*
X250371347Y-90862967D01*
X250159798Y-90572715D01*
X249930068Y-90283558D01*
X249698040Y-90014885D01*
X249479599Y-89786084D01*
X249333833Y-89651968D01*
X249199814Y-89536091D01*
X249097523Y-89438088D01*
X249013960Y-89340172D01*
X248936128Y-89224557D01*
X248892151Y-89146470D01*
X246628366Y-89146470D01*
X246616478Y-89249640D01*
X246524145Y-89636746D01*
X246370404Y-89972186D01*
X246162318Y-90251505D01*
X245906950Y-90470252D01*
X245611361Y-90623973D01*
X245282614Y-90708216D01*
X244927771Y-90718527D01*
X244553893Y-90650453D01*
X244447751Y-90617081D01*
X244097934Y-90453959D01*
X243776052Y-90220670D01*
X243490517Y-89929431D01*
X243249741Y-89592460D01*
X243062138Y-89221975D01*
X242936119Y-88830194D01*
X242884991Y-88464334D01*
X242062152Y-88464334D01*
X241992384Y-88896852D01*
X241849154Y-89305456D01*
X241639701Y-89680335D01*
X241371260Y-90011680D01*
X241051068Y-90289681D01*
X240686362Y-90504528D01*
X240500460Y-90581321D01*
X240270690Y-90637200D01*
X240001632Y-90661720D01*
X239727686Y-90654615D01*
X239483248Y-90615620D01*
X239398082Y-90589823D01*
X239085533Y-90432714D01*
X238820806Y-90209261D01*
X238610066Y-89926829D01*
X238459476Y-89592781D01*
X238408338Y-89407246D01*
X238358887Y-89000831D01*
X238385831Y-88595171D01*
X238482833Y-88200274D01*
X238643557Y-87826149D01*
X238861665Y-87482803D01*
X239130822Y-87180246D01*
X239444689Y-86928486D01*
X239796932Y-86737532D01*
X240173695Y-86618943D01*
X240533043Y-86582698D01*
X240870207Y-86623251D01*
X241178622Y-86734188D01*
X241451723Y-86909092D01*
X241682946Y-87141549D01*
X241865726Y-87425143D01*
X241993497Y-87753460D01*
X242059695Y-88120083D01*
X242062152Y-88464334D01*
X242884991Y-88464334D01*
X242880099Y-88429334D01*
X242878000Y-88337334D01*
X242914778Y-87930446D01*
X243023683Y-87564464D01*
X243202572Y-87243103D01*
X243449301Y-86970076D01*
X243761728Y-86749099D01*
X243809333Y-86723188D01*
X243905630Y-86677719D01*
X244001851Y-86648319D01*
X244120078Y-86631622D01*
X244282394Y-86624262D01*
X244467695Y-86622834D01*
X244675287Y-86624032D01*
X244824044Y-86631178D01*
X244939797Y-86649594D01*
X245048375Y-86684605D01*
X245175609Y-86741533D01*
X245272029Y-86788613D01*
X245619829Y-87003638D01*
X245927722Y-87280205D01*
X246188845Y-87605753D01*
X246396334Y-87967717D01*
X246543326Y-88353533D01*
X246622958Y-88750639D01*
X246628366Y-89146470D01*
X248892151Y-89146470D01*
X248851029Y-89073454D01*
X248745664Y-88869077D01*
X248709899Y-88798174D01*
X248336299Y-88148433D01*
X247897058Y-87548115D01*
X247397861Y-87001025D01*
X246844393Y-86510968D01*
X246242340Y-86081747D01*
X245597386Y-85717169D01*
X244915218Y-85421038D01*
X244201520Y-85197158D01*
X243461976Y-85049334D01*
X243036003Y-85000972D01*
X242848912Y-84984049D01*
X242695477Y-84967427D01*
X242593828Y-84953243D01*
X242561968Y-84945080D01*
X242573409Y-84902876D01*
X242617658Y-84800426D01*
X242687981Y-84652349D01*
X242777641Y-84473265D01*
X242794030Y-84441355D01*
X242939167Y-84155388D01*
X243045003Y-83931136D01*
X243113426Y-83756337D01*
X243146323Y-83618732D01*
X243145579Y-83506061D01*
X243113083Y-83406063D01*
X243050720Y-83306479D01*
X242981925Y-83220452D01*
X242863769Y-83080032D01*
X242661051Y-83306266D01*
X242458332Y-83532500D01*
X242456499Y-83334441D01*
X242433385Y-83167317D01*
X242372810Y-83052523D01*
X242282686Y-83004037D01*
X242269063Y-83003333D01*
X242203339Y-83035130D01*
X242113730Y-83115383D01*
X242022228Y-83221389D01*
X241950823Y-83330441D01*
X241949173Y-83333614D01*
X241919201Y-83383294D01*
X241891710Y-83387793D01*
X241853849Y-83337156D01*
X241792762Y-83221422D01*
X241785251Y-83206614D01*
X241708482Y-83071651D01*
X241640940Y-82998855D01*
X241565103Y-82970065D01*
X241555885Y-82968849D01*
X241480901Y-82972217D01*
D13*
X239835000Y-102685000D02*
X239835000Y-104970000D01*
X238365000Y-102685000D02*
X239835000Y-102685000D01*
X238365000Y-104970000D02*
X238365000Y-102685000D01*
X212230000Y-117040000D02*
X212230000Y-115790000D01*
X213480000Y-117040000D02*
X212230000Y-117040000D01*
X217590000Y-112630000D02*
X217590000Y-113130000D01*
X217690000Y-113130000D02*
X217690000Y-112630000D01*
X217490000Y-113130000D02*
X217690000Y-113130000D01*
X217490000Y-112630000D02*
X217490000Y-113130000D01*
X215590000Y-112630000D02*
X215590000Y-113130000D01*
X215690000Y-113130000D02*
X215690000Y-112630000D01*
X215490000Y-113130000D02*
X215690000Y-113130000D01*
X215490000Y-112630000D02*
X215490000Y-113130000D01*
X220650000Y-114130000D02*
X220040000Y-114130000D01*
X220650000Y-115430000D02*
X220040000Y-115430000D01*
X212530000Y-114130000D02*
X213140000Y-114130000D01*
X212530000Y-115430000D02*
X213140000Y-115430000D01*
X218090000Y-116130000D02*
X218090000Y-116740000D01*
X220040000Y-116130000D02*
X218090000Y-116130000D01*
X220040000Y-112630000D02*
X220040000Y-116130000D01*
X213140000Y-112630000D02*
X220040000Y-112630000D01*
X213140000Y-116130000D02*
X213140000Y-112630000D01*
X215090000Y-116130000D02*
X213140000Y-116130000D01*
X215090000Y-116740000D02*
X215090000Y-116130000D01*
X214290000Y-116840000D02*
X213990000Y-116840000D01*
X213990000Y-116940000D02*
X213990000Y-116740000D01*
X214290000Y-116940000D02*
X213990000Y-116940000D01*
X214290000Y-116740000D02*
X214290000Y-116940000D01*
X220650000Y-116740000D02*
X212530000Y-116740000D01*
X220650000Y-112020000D02*
X220650000Y-116740000D01*
X212530000Y-112020000D02*
X220650000Y-112020000D01*
X212530000Y-116740000D02*
X212530000Y-112020000D01*
X218710000Y-100980000D02*
X218710000Y-99710000D01*
X217440000Y-100980000D02*
X218710000Y-100980000D01*
X214520000Y-98667071D02*
X214520000Y-98270000D01*
X215280000Y-98667071D02*
X215280000Y-98270000D01*
X214520000Y-89610000D02*
X214520000Y-95610000D01*
X215280000Y-89610000D02*
X214520000Y-89610000D01*
X215280000Y-95610000D02*
X215280000Y-89610000D01*
X216170000Y-98270000D02*
X216170000Y-95610000D01*
X217060000Y-98600000D02*
X217060000Y-98270000D01*
X217820000Y-98600000D02*
X217820000Y-98270000D01*
X217160000Y-95610000D02*
X217160000Y-89610000D01*
X217280000Y-95610000D02*
X217280000Y-89610000D01*
X217400000Y-95610000D02*
X217400000Y-89610000D01*
X217520000Y-95610000D02*
X217520000Y-89610000D01*
X217640000Y-95610000D02*
X217640000Y-89610000D01*
X217760000Y-95610000D02*
X217760000Y-89610000D01*
X217060000Y-89610000D02*
X217060000Y-95610000D01*
X217820000Y-89610000D02*
X217060000Y-89610000D01*
X217820000Y-95610000D02*
X217820000Y-89610000D01*
X218770000Y-95610000D02*
X218770000Y-98270000D01*
X213570000Y-95610000D02*
X218770000Y-95610000D01*
X213570000Y-98270000D02*
X213570000Y-95610000D01*
X218770000Y-98270000D02*
X213570000Y-98270000D01*
X221740000Y-116740000D02*
X221740000Y-112020000D01*
X221740000Y-112020000D02*
X229860000Y-112020000D01*
X229860000Y-112020000D02*
X229860000Y-116740000D01*
X229860000Y-116740000D02*
X221740000Y-116740000D01*
X223500000Y-116740000D02*
X223500000Y-116940000D01*
X223500000Y-116940000D02*
X223200000Y-116940000D01*
X223200000Y-116940000D02*
X223200000Y-116740000D01*
X223500000Y-116840000D02*
X223200000Y-116840000D01*
X224300000Y-116740000D02*
X224300000Y-116130000D01*
X224300000Y-116130000D02*
X222350000Y-116130000D01*
X222350000Y-116130000D02*
X222350000Y-112630000D01*
X222350000Y-112630000D02*
X229250000Y-112630000D01*
X229250000Y-112630000D02*
X229250000Y-116130000D01*
X229250000Y-116130000D02*
X227300000Y-116130000D01*
X227300000Y-116130000D02*
X227300000Y-116740000D01*
X221740000Y-115430000D02*
X222350000Y-115430000D01*
X221740000Y-114130000D02*
X222350000Y-114130000D01*
X229860000Y-115430000D02*
X229250000Y-115430000D01*
X229860000Y-114130000D02*
X229250000Y-114130000D01*
X224700000Y-112630000D02*
X224700000Y-113130000D01*
X224700000Y-113130000D02*
X224900000Y-113130000D01*
X224900000Y-113130000D02*
X224900000Y-112630000D01*
X224800000Y-112630000D02*
X224800000Y-113130000D01*
X226700000Y-112630000D02*
X226700000Y-113130000D01*
X226700000Y-113130000D02*
X226900000Y-113130000D01*
X226900000Y-113130000D02*
X226900000Y-112630000D01*
X226800000Y-112630000D02*
X226800000Y-113130000D01*
X222690000Y-117040000D02*
X221440000Y-117040000D01*
X221440000Y-117040000D02*
X221440000Y-115790000D01*
X234080000Y-113120000D02*
X234080000Y-114450000D01*
X234080000Y-114450000D02*
X235410000Y-114450000D01*
X234080000Y-111850000D02*
X236680000Y-111850000D01*
X236680000Y-111850000D02*
X236680000Y-114450000D01*
X236680000Y-114450000D02*
X244360000Y-114450000D01*
X244360000Y-109250000D02*
X244360000Y-114450000D01*
X234080000Y-109250000D02*
X244360000Y-109250000D01*
X234080000Y-109250000D02*
X234080000Y-111850000D01*
X224600000Y-105880000D02*
X224600000Y-107130000D01*
X223350000Y-105880000D02*
X224600000Y-105880000D01*
X221240000Y-110290000D02*
X221240000Y-109790000D01*
X221140000Y-109790000D02*
X221140000Y-110290000D01*
X221340000Y-109790000D02*
X221140000Y-109790000D01*
X221340000Y-110290000D02*
X221340000Y-109790000D01*
X218180000Y-108790000D02*
X218790000Y-108790000D01*
X218180000Y-107490000D02*
X218790000Y-107490000D01*
X224300000Y-108790000D02*
X223690000Y-108790000D01*
X224300000Y-107490000D02*
X223690000Y-107490000D01*
X220740000Y-106790000D02*
X220740000Y-106180000D01*
X218790000Y-106790000D02*
X220740000Y-106790000D01*
X218790000Y-110290000D02*
X218790000Y-106790000D01*
X223690000Y-110290000D02*
X218790000Y-110290000D01*
X223690000Y-106790000D02*
X223690000Y-110290000D01*
X221740000Y-106790000D02*
X223690000Y-106790000D01*
X221740000Y-106180000D02*
X221740000Y-106790000D01*
X222540000Y-106080000D02*
X222840000Y-106080000D01*
X222840000Y-105980000D02*
X222840000Y-106180000D01*
X222540000Y-105980000D02*
X222840000Y-105980000D01*
X222540000Y-106180000D02*
X222540000Y-105980000D01*
X218180000Y-106180000D02*
X224300000Y-106180000D01*
X218180000Y-110900000D02*
X218180000Y-106180000D01*
X224300000Y-110900000D02*
X218180000Y-110900000D01*
X224300000Y-106180000D02*
X224300000Y-110900000D01*
X255630000Y-134560000D02*
X254300000Y-134560000D01*
X255630000Y-135890000D02*
X255630000Y-134560000D01*
X253030000Y-134560000D02*
X250430000Y-134560000D01*
X253030000Y-137160000D02*
X253030000Y-134560000D01*
X255630000Y-137160000D02*
X253030000Y-137160000D01*
X250430000Y-134560000D02*
X250430000Y-142300000D01*
X255630000Y-137160000D02*
X255630000Y-142300000D01*
X255630000Y-142300000D02*
X250430000Y-142300000D01*
X242960000Y-117920000D02*
X242960000Y-123940000D01*
X242960000Y-123940000D02*
X235120000Y-123940000D01*
X235120000Y-123940000D02*
X235120000Y-117920000D01*
X235120000Y-117920000D02*
X242960000Y-117920000D01*
X243250000Y-118950000D02*
X243250000Y-122950000D01*
X241580000Y-123940000D02*
X241580000Y-122940000D01*
X241580000Y-122940000D02*
X236500000Y-122940000D01*
X236500000Y-122940000D02*
X236500000Y-123940000D01*
X241580000Y-122940000D02*
X241330000Y-122410000D01*
X241330000Y-122410000D02*
X236750000Y-122410000D01*
X236750000Y-122410000D02*
X236500000Y-122940000D01*
X241330000Y-123940000D02*
X241330000Y-122940000D01*
X236750000Y-123940000D02*
X236750000Y-122940000D01*
X242380000Y-117920000D02*
X242380000Y-118520000D01*
X242380000Y-118520000D02*
X240780000Y-118520000D01*
X240780000Y-118520000D02*
X240780000Y-117920000D01*
X239840000Y-117920000D02*
X239840000Y-118520000D01*
X239840000Y-118520000D02*
X238240000Y-118520000D01*
X238240000Y-118520000D02*
X238240000Y-117920000D01*
X237300000Y-117920000D02*
X237300000Y-118520000D01*
X237300000Y-118520000D02*
X235700000Y-118520000D01*
X235700000Y-118520000D02*
X235700000Y-117920000D01*
X246800000Y-128130000D02*
X244060000Y-128130000D01*
X244060000Y-128130000D02*
X244060000Y-121590000D01*
X244060000Y-121590000D02*
X246800000Y-121590000D01*
X246800000Y-121590000D02*
X246800000Y-128130000D01*
X245430000Y-128900000D02*
X245430000Y-128130000D01*
X245430000Y-120820000D02*
X245430000Y-121590000D01*
D14*
X238048095Y-104862380D02*
X238048095Y-103862380D01*
X237810000Y-103862380D01*
X237667142Y-103910000D01*
X237571904Y-104005238D01*
X237524285Y-104100476D01*
X237476666Y-104290952D01*
X237476666Y-104433809D01*
X237524285Y-104624285D01*
X237571904Y-104719523D01*
X237667142Y-104814761D01*
X237810000Y-104862380D01*
X238048095Y-104862380D01*
X237095714Y-103957619D02*
X237048095Y-103910000D01*
X236952857Y-103862380D01*
X236714761Y-103862380D01*
X236619523Y-103910000D01*
X236571904Y-103957619D01*
X236524285Y-104052857D01*
X236524285Y-104148095D01*
X236571904Y-104290952D01*
X237143333Y-104862380D01*
X236524285Y-104862380D01*
X216983333Y-110292380D02*
X216983333Y-111006666D01*
X217030952Y-111149523D01*
X217126190Y-111244761D01*
X217269047Y-111292380D01*
X217364285Y-111292380D01*
X215983333Y-111292380D02*
X216554761Y-111292380D01*
X216269047Y-111292380D02*
X216269047Y-110292380D01*
X216364285Y-110435238D01*
X216459523Y-110530476D01*
X216554761Y-110578095D01*
X212773333Y-90602380D02*
X212773333Y-91316666D01*
X212820952Y-91459523D01*
X212916190Y-91554761D01*
X213059047Y-91602380D01*
X213154285Y-91602380D01*
X212392380Y-90602380D02*
X211773333Y-90602380D01*
X212106666Y-90983333D01*
X211963809Y-90983333D01*
X211868571Y-91030952D01*
X211820952Y-91078571D01*
X211773333Y-91173809D01*
X211773333Y-91411904D01*
X211820952Y-91507142D01*
X211868571Y-91554761D01*
X211963809Y-91602380D01*
X212249523Y-91602380D01*
X212344761Y-91554761D01*
X212392380Y-91507142D01*
X226273333Y-110292380D02*
X226273333Y-111006666D01*
X226320952Y-111149523D01*
X226416190Y-111244761D01*
X226559047Y-111292380D01*
X226654285Y-111292380D01*
X225320952Y-110292380D02*
X225797142Y-110292380D01*
X225844761Y-110768571D01*
X225797142Y-110720952D01*
X225701904Y-110673333D01*
X225463809Y-110673333D01*
X225368571Y-110720952D01*
X225320952Y-110768571D01*
X225273333Y-110863809D01*
X225273333Y-111101904D01*
X225320952Y-111197142D01*
X225368571Y-111244761D01*
X225463809Y-111292380D01*
X225701904Y-111292380D01*
X225797142Y-111244761D01*
X225844761Y-111197142D01*
X232092380Y-111516666D02*
X232806666Y-111516666D01*
X232949523Y-111469047D01*
X233044761Y-111373809D01*
X233092380Y-111230952D01*
X233092380Y-111135714D01*
X232092380Y-112421428D02*
X232092380Y-112230952D01*
X232140000Y-112135714D01*
X232187619Y-112088095D01*
X232330476Y-111992857D01*
X232520952Y-111945238D01*
X232901904Y-111945238D01*
X232997142Y-111992857D01*
X233044761Y-112040476D01*
X233092380Y-112135714D01*
X233092380Y-112326190D01*
X233044761Y-112421428D01*
X232997142Y-112469047D01*
X232901904Y-112516666D01*
X232663809Y-112516666D01*
X232568571Y-112469047D01*
X232520952Y-112421428D01*
X232473333Y-112326190D01*
X232473333Y-112135714D01*
X232520952Y-112040476D01*
X232568571Y-111992857D01*
X232663809Y-111945238D01*
X225883333Y-105372380D02*
X225883333Y-106086666D01*
X225930952Y-106229523D01*
X226026190Y-106324761D01*
X226169047Y-106372380D01*
X226264285Y-106372380D01*
X225502380Y-105372380D02*
X224835714Y-105372380D01*
X225264285Y-106372380D01*
X257849523Y-135382380D02*
X257849523Y-136096666D01*
X257897142Y-136239523D01*
X257992380Y-136334761D01*
X258135238Y-136382380D01*
X258230476Y-136382380D01*
X256849523Y-136382380D02*
X257420952Y-136382380D01*
X257135238Y-136382380D02*
X257135238Y-135382380D01*
X257230476Y-135525238D01*
X257325714Y-135620476D01*
X257420952Y-135668095D01*
X255944761Y-135382380D02*
X256420952Y-135382380D01*
X256468571Y-135858571D01*
X256420952Y-135810952D01*
X256325714Y-135763333D01*
X256087619Y-135763333D01*
X255992380Y-135810952D01*
X255944761Y-135858571D01*
X255897142Y-135953809D01*
X255897142Y-136191904D01*
X255944761Y-136287142D01*
X255992380Y-136334761D01*
X256087619Y-136382380D01*
X256325714Y-136382380D01*
X256420952Y-136334761D01*
X256468571Y-136287142D01*
X233999523Y-120382380D02*
X233999523Y-121096666D01*
X234047142Y-121239523D01*
X234142380Y-121334761D01*
X234285238Y-121382380D01*
X234380476Y-121382380D01*
X232999523Y-121382380D02*
X233570952Y-121382380D01*
X233285238Y-121382380D02*
X233285238Y-120382380D01*
X233380476Y-120525238D01*
X233475714Y-120620476D01*
X233570952Y-120668095D01*
X232666190Y-120382380D02*
X232047142Y-120382380D01*
X232380476Y-120763333D01*
X232237619Y-120763333D01*
X232142380Y-120810952D01*
X232094761Y-120858571D01*
X232047142Y-120953809D01*
X232047142Y-121191904D01*
X232094761Y-121287142D01*
X232142380Y-121334761D01*
X232237619Y-121382380D01*
X232523333Y-121382380D01*
X232618571Y-121334761D01*
X232666190Y-121287142D01*
X248123333Y-120978571D02*
X248456666Y-120978571D01*
X248456666Y-121502380D02*
X248456666Y-120502380D01*
X247980476Y-120502380D01*
X247075714Y-121502380D02*
X247647142Y-121502380D01*
X247361428Y-121502380D02*
X247361428Y-120502380D01*
X247456666Y-120645238D01*
X247551904Y-120740476D01*
X247647142Y-120788095D01*
M02*
