G04 #@! TF.GenerationSoftware,KiCad,Pcbnew,5.1.6*
G04 #@! TF.CreationDate,2020-09-07T17:12:55+08:00*
G04 #@! TF.ProjectId,bt_audio_rec,62745f61-7564-4696-9f5f-7265632e6b69,rev?*
G04 #@! TF.SameCoordinates,Original*
G04 #@! TF.FileFunction,Soldermask,Top*
G04 #@! TF.FilePolarity,Negative*
%FSLAX46Y46*%
G04 Gerber Fmt 4.6, Leading zero omitted, Abs format (unit mm)*
G04 Created by KiCad (PCBNEW 5.1.6) date 2020-09-07 17:12:55*
%MOMM*%
%LPD*%
G01*
G04 APERTURE LIST*
%ADD10C,0.100000*%
G04 APERTURE END LIST*
D10*
G36*
X253091343Y-156942706D02*
G01*
X253111863Y-156948931D01*
X253130776Y-156959040D01*
X253147354Y-156972646D01*
X253160960Y-156989224D01*
X253171069Y-157008137D01*
X253177294Y-157028657D01*
X253180000Y-157056138D01*
X253180000Y-157513862D01*
X253177294Y-157541343D01*
X253171069Y-157561863D01*
X253160960Y-157580776D01*
X253147354Y-157597354D01*
X253130776Y-157610960D01*
X253111863Y-157621069D01*
X253091343Y-157627294D01*
X253063862Y-157630000D01*
X252556138Y-157630000D01*
X252528657Y-157627294D01*
X252508137Y-157621069D01*
X252489224Y-157610960D01*
X252472646Y-157597354D01*
X252459040Y-157580776D01*
X252448931Y-157561863D01*
X252442706Y-157541343D01*
X252440000Y-157513862D01*
X252440000Y-157056138D01*
X252442706Y-157028657D01*
X252448931Y-157008137D01*
X252459040Y-156989224D01*
X252472646Y-156972646D01*
X252489224Y-156959040D01*
X252508137Y-156948931D01*
X252528657Y-156942706D01*
X252556138Y-156940000D01*
X253063862Y-156940000D01*
X253091343Y-156942706D01*
G37*
G36*
X256225000Y-157190000D02*
G01*
X255625000Y-157190000D01*
X255625000Y-154790000D01*
X256225000Y-154790000D01*
X256225000Y-157190000D01*
G37*
G36*
X254175000Y-157190000D02*
G01*
X253575000Y-157190000D01*
X253575000Y-154790000D01*
X254175000Y-154790000D01*
X254175000Y-157190000D01*
G37*
G36*
X253091343Y-155972706D02*
G01*
X253111863Y-155978931D01*
X253130776Y-155989040D01*
X253147354Y-156002646D01*
X253160960Y-156019224D01*
X253171069Y-156038137D01*
X253177294Y-156058657D01*
X253180000Y-156086138D01*
X253180000Y-156543862D01*
X253177294Y-156571343D01*
X253171069Y-156591863D01*
X253160960Y-156610776D01*
X253147354Y-156627354D01*
X253130776Y-156640960D01*
X253111863Y-156651069D01*
X253091343Y-156657294D01*
X253063862Y-156660000D01*
X252556138Y-156660000D01*
X252528657Y-156657294D01*
X252508137Y-156651069D01*
X252489224Y-156640960D01*
X252472646Y-156627354D01*
X252459040Y-156610776D01*
X252448931Y-156591863D01*
X252442706Y-156571343D01*
X252440000Y-156543862D01*
X252440000Y-156086138D01*
X252442706Y-156058657D01*
X252448931Y-156038137D01*
X252459040Y-156019224D01*
X252472646Y-156002646D01*
X252489224Y-155989040D01*
X252508137Y-155978931D01*
X252528657Y-155972706D01*
X252556138Y-155970000D01*
X253063862Y-155970000D01*
X253091343Y-155972706D01*
G37*
G36*
X253091343Y-154682706D02*
G01*
X253111863Y-154688931D01*
X253130776Y-154699040D01*
X253147354Y-154712646D01*
X253160960Y-154729224D01*
X253171069Y-154748137D01*
X253177294Y-154768657D01*
X253180000Y-154796138D01*
X253180000Y-155253862D01*
X253177294Y-155281343D01*
X253171069Y-155301863D01*
X253160960Y-155320776D01*
X253147354Y-155337354D01*
X253130776Y-155350960D01*
X253111863Y-155361069D01*
X253091343Y-155367294D01*
X253063862Y-155370000D01*
X252556138Y-155370000D01*
X252528657Y-155367294D01*
X252508137Y-155361069D01*
X252489224Y-155350960D01*
X252472646Y-155337354D01*
X252459040Y-155320776D01*
X252448931Y-155301863D01*
X252442706Y-155281343D01*
X252440000Y-155253862D01*
X252440000Y-154796138D01*
X252442706Y-154768657D01*
X252448931Y-154748137D01*
X252459040Y-154729224D01*
X252472646Y-154712646D01*
X252489224Y-154699040D01*
X252508137Y-154688931D01*
X252528657Y-154682706D01*
X252556138Y-154680000D01*
X253063862Y-154680000D01*
X253091343Y-154682706D01*
G37*
G36*
X253091343Y-153712706D02*
G01*
X253111863Y-153718931D01*
X253130776Y-153729040D01*
X253147354Y-153742646D01*
X253160960Y-153759224D01*
X253171069Y-153778137D01*
X253177294Y-153798657D01*
X253180000Y-153826138D01*
X253180000Y-154283862D01*
X253177294Y-154311343D01*
X253171069Y-154331863D01*
X253160960Y-154350776D01*
X253147354Y-154367354D01*
X253130776Y-154380960D01*
X253111863Y-154391069D01*
X253091343Y-154397294D01*
X253063862Y-154400000D01*
X252556138Y-154400000D01*
X252528657Y-154397294D01*
X252508137Y-154391069D01*
X252489224Y-154380960D01*
X252472646Y-154367354D01*
X252459040Y-154350776D01*
X252448931Y-154331863D01*
X252442706Y-154311343D01*
X252440000Y-154283862D01*
X252440000Y-153826138D01*
X252442706Y-153798657D01*
X252448931Y-153778137D01*
X252459040Y-153759224D01*
X252472646Y-153742646D01*
X252489224Y-153729040D01*
X252508137Y-153718931D01*
X252528657Y-153712706D01*
X252556138Y-153710000D01*
X253063862Y-153710000D01*
X253091343Y-153712706D01*
G37*
G36*
X257350000Y-150830000D02*
G01*
X256050000Y-150830000D01*
X256050000Y-149530000D01*
X257350000Y-149530000D01*
X257350000Y-150830000D01*
G37*
G36*
X255350000Y-150830000D02*
G01*
X254050000Y-150830000D01*
X254050000Y-149530000D01*
X255350000Y-149530000D01*
X255350000Y-150830000D01*
G37*
G36*
X252851491Y-149689075D02*
G01*
X252885379Y-149699355D01*
X252916612Y-149716050D01*
X252943986Y-149738514D01*
X252966450Y-149765888D01*
X252983145Y-149797121D01*
X252993425Y-149831009D01*
X252997500Y-149872388D01*
X252997500Y-150547612D01*
X252993425Y-150588991D01*
X252983145Y-150622879D01*
X252966450Y-150654112D01*
X252943986Y-150681486D01*
X252916612Y-150703950D01*
X252885379Y-150720645D01*
X252851491Y-150730925D01*
X252810112Y-150735000D01*
X252209888Y-150735000D01*
X252168509Y-150730925D01*
X252134621Y-150720645D01*
X252103388Y-150703950D01*
X252076014Y-150681486D01*
X252053550Y-150654112D01*
X252036855Y-150622879D01*
X252026575Y-150588991D01*
X252022500Y-150547612D01*
X252022500Y-149872388D01*
X252026575Y-149831009D01*
X252036855Y-149797121D01*
X252053550Y-149765888D01*
X252076014Y-149738514D01*
X252103388Y-149716050D01*
X252134621Y-149699355D01*
X252168509Y-149689075D01*
X252209888Y-149685000D01*
X252810112Y-149685000D01*
X252851491Y-149689075D01*
G37*
G36*
X251276491Y-149689075D02*
G01*
X251310379Y-149699355D01*
X251341612Y-149716050D01*
X251368986Y-149738514D01*
X251391450Y-149765888D01*
X251408145Y-149797121D01*
X251418425Y-149831009D01*
X251422500Y-149872388D01*
X251422500Y-150547612D01*
X251418425Y-150588991D01*
X251408145Y-150622879D01*
X251391450Y-150654112D01*
X251368986Y-150681486D01*
X251341612Y-150703950D01*
X251310379Y-150720645D01*
X251276491Y-150730925D01*
X251235112Y-150735000D01*
X250634888Y-150735000D01*
X250593509Y-150730925D01*
X250559621Y-150720645D01*
X250528388Y-150703950D01*
X250501014Y-150681486D01*
X250478550Y-150654112D01*
X250461855Y-150622879D01*
X250451575Y-150588991D01*
X250447500Y-150547612D01*
X250447500Y-149872388D01*
X250451575Y-149831009D01*
X250461855Y-149797121D01*
X250478550Y-149765888D01*
X250501014Y-149738514D01*
X250528388Y-149716050D01*
X250559621Y-149699355D01*
X250593509Y-149689075D01*
X250634888Y-149685000D01*
X251235112Y-149685000D01*
X251276491Y-149689075D01*
G37*
G36*
X257350000Y-149130000D02*
G01*
X256050000Y-149130000D01*
X256050000Y-147830000D01*
X257350000Y-147830000D01*
X257350000Y-149130000D01*
G37*
G36*
X255350000Y-149130000D02*
G01*
X254050000Y-149130000D01*
X254050000Y-147830000D01*
X255350000Y-147830000D01*
X255350000Y-149130000D01*
G37*
G36*
X251670000Y-149030000D02*
G01*
X250770000Y-149030000D01*
X250770000Y-148030000D01*
X251670000Y-148030000D01*
X251670000Y-149030000D01*
G37*
G36*
X253570000Y-149030000D02*
G01*
X252670000Y-149030000D01*
X252670000Y-148030000D01*
X253570000Y-148030000D01*
X253570000Y-149030000D01*
G37*
G36*
X257350000Y-147430000D02*
G01*
X256050000Y-147430000D01*
X256050000Y-146130000D01*
X257350000Y-146130000D01*
X257350000Y-147430000D01*
G37*
G36*
X255350000Y-147430000D02*
G01*
X254050000Y-147430000D01*
X254050000Y-146130000D01*
X255350000Y-146130000D01*
X255350000Y-147430000D01*
G37*
G36*
X252620000Y-147030000D02*
G01*
X251720000Y-147030000D01*
X251720000Y-146030000D01*
X252620000Y-146030000D01*
X252620000Y-147030000D01*
G37*
G36*
X255350000Y-145730000D02*
G01*
X254050000Y-145730000D01*
X254050000Y-144430000D01*
X255350000Y-144430000D01*
X255350000Y-145730000D01*
G37*
G36*
X257350000Y-145730000D02*
G01*
X256050000Y-145730000D01*
X256050000Y-144430000D01*
X257350000Y-144430000D01*
X257350000Y-145730000D01*
G37*
G36*
X251276491Y-144449075D02*
G01*
X251310379Y-144459355D01*
X251341612Y-144476050D01*
X251368986Y-144498514D01*
X251391450Y-144525888D01*
X251408145Y-144557121D01*
X251418425Y-144591009D01*
X251422500Y-144632388D01*
X251422500Y-145307612D01*
X251418425Y-145348991D01*
X251408145Y-145382879D01*
X251391450Y-145414112D01*
X251368986Y-145441486D01*
X251341612Y-145463950D01*
X251310379Y-145480645D01*
X251276491Y-145490925D01*
X251235112Y-145495000D01*
X250634888Y-145495000D01*
X250593509Y-145490925D01*
X250559621Y-145480645D01*
X250528388Y-145463950D01*
X250501014Y-145441486D01*
X250478550Y-145414112D01*
X250461855Y-145382879D01*
X250451575Y-145348991D01*
X250447500Y-145307612D01*
X250447500Y-144632388D01*
X250451575Y-144591009D01*
X250461855Y-144557121D01*
X250478550Y-144525888D01*
X250501014Y-144498514D01*
X250528388Y-144476050D01*
X250559621Y-144459355D01*
X250593509Y-144449075D01*
X250634888Y-144445000D01*
X251235112Y-144445000D01*
X251276491Y-144449075D01*
G37*
G36*
X252851491Y-144449075D02*
G01*
X252885379Y-144459355D01*
X252916612Y-144476050D01*
X252943986Y-144498514D01*
X252966450Y-144525888D01*
X252983145Y-144557121D01*
X252993425Y-144591009D01*
X252997500Y-144632388D01*
X252997500Y-145307612D01*
X252993425Y-145348991D01*
X252983145Y-145382879D01*
X252966450Y-145414112D01*
X252943986Y-145441486D01*
X252916612Y-145463950D01*
X252885379Y-145480645D01*
X252851491Y-145490925D01*
X252810112Y-145495000D01*
X252209888Y-145495000D01*
X252168509Y-145490925D01*
X252134621Y-145480645D01*
X252103388Y-145463950D01*
X252076014Y-145441486D01*
X252053550Y-145414112D01*
X252036855Y-145382879D01*
X252026575Y-145348991D01*
X252022500Y-145307612D01*
X252022500Y-144632388D01*
X252026575Y-144591009D01*
X252036855Y-144557121D01*
X252053550Y-144525888D01*
X252076014Y-144498514D01*
X252103388Y-144476050D01*
X252134621Y-144459355D01*
X252168509Y-144449075D01*
X252209888Y-144445000D01*
X252810112Y-144445000D01*
X252851491Y-144449075D01*
G37*
G36*
X255350000Y-144030000D02*
G01*
X254050000Y-144030000D01*
X254050000Y-142730000D01*
X255350000Y-142730000D01*
X255350000Y-144030000D01*
G37*
G36*
X257350000Y-144030000D02*
G01*
X256050000Y-144030000D01*
X256050000Y-142730000D01*
X257350000Y-142730000D01*
X257350000Y-144030000D01*
G37*
G36*
X252851491Y-142879075D02*
G01*
X252885379Y-142889355D01*
X252916612Y-142906050D01*
X252943986Y-142928514D01*
X252966450Y-142955888D01*
X252983145Y-142987121D01*
X252993425Y-143021009D01*
X252997500Y-143062388D01*
X252997500Y-143737612D01*
X252993425Y-143778991D01*
X252983145Y-143812879D01*
X252966450Y-143844112D01*
X252943986Y-143871486D01*
X252916612Y-143893950D01*
X252885379Y-143910645D01*
X252851491Y-143920925D01*
X252810112Y-143925000D01*
X252209888Y-143925000D01*
X252168509Y-143920925D01*
X252134621Y-143910645D01*
X252103388Y-143893950D01*
X252076014Y-143871486D01*
X252053550Y-143844112D01*
X252036855Y-143812879D01*
X252026575Y-143778991D01*
X252022500Y-143737612D01*
X252022500Y-143062388D01*
X252026575Y-143021009D01*
X252036855Y-142987121D01*
X252053550Y-142955888D01*
X252076014Y-142928514D01*
X252103388Y-142906050D01*
X252134621Y-142889355D01*
X252168509Y-142879075D01*
X252209888Y-142875000D01*
X252810112Y-142875000D01*
X252851491Y-142879075D01*
G37*
G36*
X251276491Y-142879075D02*
G01*
X251310379Y-142889355D01*
X251341612Y-142906050D01*
X251368986Y-142928514D01*
X251391450Y-142955888D01*
X251408145Y-142987121D01*
X251418425Y-143021009D01*
X251422500Y-143062388D01*
X251422500Y-143737612D01*
X251418425Y-143778991D01*
X251408145Y-143812879D01*
X251391450Y-143844112D01*
X251368986Y-143871486D01*
X251341612Y-143893950D01*
X251310379Y-143910645D01*
X251276491Y-143920925D01*
X251235112Y-143925000D01*
X250634888Y-143925000D01*
X250593509Y-143920925D01*
X250559621Y-143910645D01*
X250528388Y-143893950D01*
X250501014Y-143871486D01*
X250478550Y-143844112D01*
X250461855Y-143812879D01*
X250451575Y-143778991D01*
X250447500Y-143737612D01*
X250447500Y-143062388D01*
X250451575Y-143021009D01*
X250461855Y-142987121D01*
X250478550Y-142955888D01*
X250501014Y-142928514D01*
X250528388Y-142906050D01*
X250559621Y-142889355D01*
X250593509Y-142879075D01*
X250634888Y-142875000D01*
X251235112Y-142875000D01*
X251276491Y-142879075D01*
G37*
G36*
X254562520Y-140104586D02*
G01*
X254726310Y-140172430D01*
X254873717Y-140270924D01*
X254999076Y-140396283D01*
X255097570Y-140543690D01*
X255165414Y-140707480D01*
X255200000Y-140881358D01*
X255200000Y-141058642D01*
X255165414Y-141232520D01*
X255097570Y-141396310D01*
X254999076Y-141543717D01*
X254873717Y-141669076D01*
X254726310Y-141767570D01*
X254726309Y-141767571D01*
X254726308Y-141767571D01*
X254562520Y-141835414D01*
X254388644Y-141870000D01*
X254211356Y-141870000D01*
X254037480Y-141835414D01*
X253873692Y-141767571D01*
X253873691Y-141767571D01*
X253873690Y-141767570D01*
X253726283Y-141669076D01*
X253600924Y-141543717D01*
X253502430Y-141396310D01*
X253434586Y-141232520D01*
X253400000Y-141058642D01*
X253400000Y-140881358D01*
X253434586Y-140707480D01*
X253502430Y-140543690D01*
X253600924Y-140396283D01*
X253726283Y-140270924D01*
X253873690Y-140172430D01*
X254037480Y-140104586D01*
X254211356Y-140070000D01*
X254388644Y-140070000D01*
X254562520Y-140104586D01*
G37*
G36*
X252022520Y-140104586D02*
G01*
X252186310Y-140172430D01*
X252333717Y-140270924D01*
X252459076Y-140396283D01*
X252557570Y-140543690D01*
X252625414Y-140707480D01*
X252660000Y-140881358D01*
X252660000Y-141058642D01*
X252625414Y-141232520D01*
X252557570Y-141396310D01*
X252459076Y-141543717D01*
X252333717Y-141669076D01*
X252186310Y-141767570D01*
X252186309Y-141767571D01*
X252186308Y-141767571D01*
X252022520Y-141835414D01*
X251848644Y-141870000D01*
X251671356Y-141870000D01*
X251497480Y-141835414D01*
X251333692Y-141767571D01*
X251333691Y-141767571D01*
X251333690Y-141767570D01*
X251186283Y-141669076D01*
X251060924Y-141543717D01*
X250962430Y-141396310D01*
X250894586Y-141232520D01*
X250860000Y-141058642D01*
X250860000Y-140881358D01*
X250894586Y-140707480D01*
X250962430Y-140543690D01*
X251060924Y-140396283D01*
X251186283Y-140270924D01*
X251333690Y-140172430D01*
X251497480Y-140104586D01*
X251671356Y-140070000D01*
X251848644Y-140070000D01*
X252022520Y-140104586D01*
G37*
G36*
X254562520Y-137564586D02*
G01*
X254726310Y-137632430D01*
X254873717Y-137730924D01*
X254999076Y-137856283D01*
X255097570Y-138003690D01*
X255165414Y-138167480D01*
X255200000Y-138341358D01*
X255200000Y-138518642D01*
X255165414Y-138692520D01*
X255097570Y-138856310D01*
X254999076Y-139003717D01*
X254873717Y-139129076D01*
X254726310Y-139227570D01*
X254726309Y-139227571D01*
X254726308Y-139227571D01*
X254562520Y-139295414D01*
X254388644Y-139330000D01*
X254211356Y-139330000D01*
X254037480Y-139295414D01*
X253873692Y-139227571D01*
X253873691Y-139227571D01*
X253873690Y-139227570D01*
X253726283Y-139129076D01*
X253600924Y-139003717D01*
X253502430Y-138856310D01*
X253434586Y-138692520D01*
X253400000Y-138518642D01*
X253400000Y-138341358D01*
X253434586Y-138167480D01*
X253502430Y-138003690D01*
X253600924Y-137856283D01*
X253726283Y-137730924D01*
X253873690Y-137632430D01*
X254037480Y-137564586D01*
X254211356Y-137530000D01*
X254388644Y-137530000D01*
X254562520Y-137564586D01*
G37*
G36*
X252022520Y-137564586D02*
G01*
X252186310Y-137632430D01*
X252333717Y-137730924D01*
X252459076Y-137856283D01*
X252557570Y-138003690D01*
X252625414Y-138167480D01*
X252660000Y-138341358D01*
X252660000Y-138518642D01*
X252625414Y-138692520D01*
X252557570Y-138856310D01*
X252459076Y-139003717D01*
X252333717Y-139129076D01*
X252186310Y-139227570D01*
X252186309Y-139227571D01*
X252186308Y-139227571D01*
X252022520Y-139295414D01*
X251848644Y-139330000D01*
X251671356Y-139330000D01*
X251497480Y-139295414D01*
X251333692Y-139227571D01*
X251333691Y-139227571D01*
X251333690Y-139227570D01*
X251186283Y-139129076D01*
X251060924Y-139003717D01*
X250962430Y-138856310D01*
X250894586Y-138692520D01*
X250860000Y-138518642D01*
X250860000Y-138341358D01*
X250894586Y-138167480D01*
X250962430Y-138003690D01*
X251060924Y-137856283D01*
X251186283Y-137730924D01*
X251333690Y-137632430D01*
X251497480Y-137564586D01*
X251671356Y-137530000D01*
X251848644Y-137530000D01*
X252022520Y-137564586D01*
G37*
G36*
X256641343Y-136212706D02*
G01*
X256661863Y-136218931D01*
X256680776Y-136229040D01*
X256697354Y-136242646D01*
X256710960Y-136259224D01*
X256721069Y-136278137D01*
X256727294Y-136298657D01*
X256730000Y-136326138D01*
X256730000Y-136833862D01*
X256727294Y-136861343D01*
X256721069Y-136881863D01*
X256710960Y-136900776D01*
X256697354Y-136917354D01*
X256680776Y-136930960D01*
X256661863Y-136941069D01*
X256641343Y-136947294D01*
X256613862Y-136950000D01*
X256156138Y-136950000D01*
X256128657Y-136947294D01*
X256108137Y-136941069D01*
X256089224Y-136930960D01*
X256072646Y-136917354D01*
X256059040Y-136900776D01*
X256048931Y-136881863D01*
X256042706Y-136861343D01*
X256040000Y-136833862D01*
X256040000Y-136326138D01*
X256042706Y-136298657D01*
X256048931Y-136278137D01*
X256059040Y-136259224D01*
X256072646Y-136242646D01*
X256089224Y-136229040D01*
X256108137Y-136218931D01*
X256128657Y-136212706D01*
X256156138Y-136210000D01*
X256613862Y-136210000D01*
X256641343Y-136212706D01*
G37*
G36*
X257611343Y-136212706D02*
G01*
X257631863Y-136218931D01*
X257650776Y-136229040D01*
X257667354Y-136242646D01*
X257680960Y-136259224D01*
X257691069Y-136278137D01*
X257697294Y-136298657D01*
X257700000Y-136326138D01*
X257700000Y-136833862D01*
X257697294Y-136861343D01*
X257691069Y-136881863D01*
X257680960Y-136900776D01*
X257667354Y-136917354D01*
X257650776Y-136930960D01*
X257631863Y-136941069D01*
X257611343Y-136947294D01*
X257583862Y-136950000D01*
X257126138Y-136950000D01*
X257098657Y-136947294D01*
X257078137Y-136941069D01*
X257059224Y-136930960D01*
X257042646Y-136917354D01*
X257029040Y-136900776D01*
X257018931Y-136881863D01*
X257012706Y-136861343D01*
X257010000Y-136833862D01*
X257010000Y-136326138D01*
X257012706Y-136298657D01*
X257018931Y-136278137D01*
X257029040Y-136259224D01*
X257042646Y-136242646D01*
X257059224Y-136229040D01*
X257078137Y-136218931D01*
X257098657Y-136212706D01*
X257126138Y-136210000D01*
X257583862Y-136210000D01*
X257611343Y-136212706D01*
G37*
G36*
X252022520Y-135024586D02*
G01*
X252186310Y-135092430D01*
X252333717Y-135190924D01*
X252459076Y-135316283D01*
X252557570Y-135463690D01*
X252557571Y-135463692D01*
X252625414Y-135627480D01*
X252660000Y-135801356D01*
X252660000Y-135978644D01*
X252625414Y-136152520D01*
X252589564Y-136239071D01*
X252557570Y-136316310D01*
X252459076Y-136463717D01*
X252333717Y-136589076D01*
X252186310Y-136687570D01*
X252186309Y-136687571D01*
X252186308Y-136687571D01*
X252022520Y-136755414D01*
X251848644Y-136790000D01*
X251671356Y-136790000D01*
X251497480Y-136755414D01*
X251333692Y-136687571D01*
X251333691Y-136687571D01*
X251333690Y-136687570D01*
X251186283Y-136589076D01*
X251060924Y-136463717D01*
X250962430Y-136316310D01*
X250930437Y-136239071D01*
X250894586Y-136152520D01*
X250860000Y-135978644D01*
X250860000Y-135801356D01*
X250894586Y-135627480D01*
X250962429Y-135463692D01*
X250962430Y-135463690D01*
X251060924Y-135316283D01*
X251186283Y-135190924D01*
X251333690Y-135092430D01*
X251497480Y-135024586D01*
X251671356Y-134990000D01*
X251848644Y-134990000D01*
X252022520Y-135024586D01*
G37*
G36*
X255200000Y-136790000D02*
G01*
X253400000Y-136790000D01*
X253400000Y-134990000D01*
X255200000Y-134990000D01*
X255200000Y-136790000D01*
G37*
G36*
X220440000Y-133910000D02*
G01*
X219540000Y-133910000D01*
X219540000Y-132210000D01*
X220440000Y-132210000D01*
X220440000Y-133910000D01*
G37*
G36*
X221640000Y-133910000D02*
G01*
X220740000Y-133910000D01*
X220740000Y-132210000D01*
X221640000Y-132210000D01*
X221640000Y-133910000D01*
G37*
G36*
X216840000Y-133910000D02*
G01*
X215940000Y-133910000D01*
X215940000Y-132210000D01*
X216840000Y-132210000D01*
X216840000Y-133910000D01*
G37*
G36*
X222840000Y-133910000D02*
G01*
X221940000Y-133910000D01*
X221940000Y-132210000D01*
X222840000Y-132210000D01*
X222840000Y-133910000D01*
G37*
G36*
X224040000Y-133910000D02*
G01*
X223140000Y-133910000D01*
X223140000Y-132210000D01*
X224040000Y-132210000D01*
X224040000Y-133910000D01*
G37*
G36*
X225240000Y-133910000D02*
G01*
X224340000Y-133910000D01*
X224340000Y-132210000D01*
X225240000Y-132210000D01*
X225240000Y-133910000D01*
G37*
G36*
X226440000Y-133910000D02*
G01*
X225540000Y-133910000D01*
X225540000Y-132210000D01*
X226440000Y-132210000D01*
X226440000Y-133910000D01*
G37*
G36*
X227640000Y-133910000D02*
G01*
X226740000Y-133910000D01*
X226740000Y-132210000D01*
X227640000Y-132210000D01*
X227640000Y-133910000D01*
G37*
G36*
X215640000Y-133910000D02*
G01*
X214740000Y-133910000D01*
X214740000Y-132210000D01*
X215640000Y-132210000D01*
X215640000Y-133910000D01*
G37*
G36*
X218040000Y-133910000D02*
G01*
X217140000Y-133910000D01*
X217140000Y-132210000D01*
X218040000Y-132210000D01*
X218040000Y-133910000D01*
G37*
G36*
X219240000Y-133910000D02*
G01*
X218340000Y-133910000D01*
X218340000Y-132210000D01*
X219240000Y-132210000D01*
X219240000Y-133910000D01*
G37*
G36*
X209640000Y-133910000D02*
G01*
X208740000Y-133910000D01*
X208740000Y-132210000D01*
X209640000Y-132210000D01*
X209640000Y-133910000D01*
G37*
G36*
X210840000Y-133910000D02*
G01*
X209940000Y-133910000D01*
X209940000Y-132210000D01*
X210840000Y-132210000D01*
X210840000Y-133910000D01*
G37*
G36*
X212040000Y-133910000D02*
G01*
X211140000Y-133910000D01*
X211140000Y-132210000D01*
X212040000Y-132210000D01*
X212040000Y-133910000D01*
G37*
G36*
X213240000Y-133910000D02*
G01*
X212340000Y-133910000D01*
X212340000Y-132210000D01*
X213240000Y-132210000D01*
X213240000Y-133910000D01*
G37*
G36*
X214440000Y-133910000D02*
G01*
X213540000Y-133910000D01*
X213540000Y-132210000D01*
X214440000Y-132210000D01*
X214440000Y-133910000D01*
G37*
G36*
X208440000Y-133910000D02*
G01*
X207540000Y-133910000D01*
X207540000Y-132210000D01*
X208440000Y-132210000D01*
X208440000Y-133910000D01*
G37*
G36*
X230040000Y-132660000D02*
G01*
X228340000Y-132660000D01*
X228340000Y-131760000D01*
X230040000Y-131760000D01*
X230040000Y-132660000D01*
G37*
G36*
X230040000Y-130960000D02*
G01*
X228340000Y-130960000D01*
X228340000Y-130060000D01*
X230040000Y-130060000D01*
X230040000Y-130960000D01*
G37*
G36*
X245677935Y-129122664D02*
G01*
X245832624Y-129186739D01*
X245832626Y-129186740D01*
X245971844Y-129279762D01*
X246090238Y-129398156D01*
X246131157Y-129459396D01*
X246183261Y-129537376D01*
X246247336Y-129692065D01*
X246280000Y-129856281D01*
X246280000Y-130023719D01*
X246247336Y-130187935D01*
X246226924Y-130237213D01*
X246183260Y-130342626D01*
X246090238Y-130481844D01*
X245971844Y-130600238D01*
X245832626Y-130693260D01*
X245832625Y-130693261D01*
X245832624Y-130693261D01*
X245677935Y-130757336D01*
X245513719Y-130790000D01*
X245346281Y-130790000D01*
X245182065Y-130757336D01*
X245027376Y-130693261D01*
X245027375Y-130693261D01*
X245027374Y-130693260D01*
X244888156Y-130600238D01*
X244769762Y-130481844D01*
X244676740Y-130342626D01*
X244633076Y-130237213D01*
X244612664Y-130187935D01*
X244580000Y-130023719D01*
X244580000Y-129856281D01*
X244612664Y-129692065D01*
X244676739Y-129537376D01*
X244728843Y-129459396D01*
X244769762Y-129398156D01*
X244888156Y-129279762D01*
X245027374Y-129186740D01*
X245027376Y-129186739D01*
X245182065Y-129122664D01*
X245346281Y-129090000D01*
X245513719Y-129090000D01*
X245677935Y-129122664D01*
G37*
G36*
X208815009Y-129274091D02*
G01*
X208850429Y-129281136D01*
X208900476Y-129301866D01*
X208950524Y-129322597D01*
X209040602Y-129382785D01*
X209117215Y-129459398D01*
X209177403Y-129549476D01*
X209218864Y-129649572D01*
X209240000Y-129755828D01*
X209240000Y-129864172D01*
X209218864Y-129970428D01*
X209177403Y-130070524D01*
X209117215Y-130160602D01*
X209040602Y-130237215D01*
X208950524Y-130297403D01*
X208900476Y-130318134D01*
X208850429Y-130338864D01*
X208815009Y-130345909D01*
X208744172Y-130360000D01*
X208635828Y-130360000D01*
X208564991Y-130345909D01*
X208529571Y-130338864D01*
X208479524Y-130318134D01*
X208429476Y-130297403D01*
X208339398Y-130237215D01*
X208262785Y-130160602D01*
X208202597Y-130070524D01*
X208161136Y-129970428D01*
X208140000Y-129864172D01*
X208140000Y-129755828D01*
X208161136Y-129649572D01*
X208202597Y-129549476D01*
X208262785Y-129459398D01*
X208339398Y-129382785D01*
X208429476Y-129322597D01*
X208479524Y-129301866D01*
X208529571Y-129281136D01*
X208564991Y-129274091D01*
X208635828Y-129260000D01*
X208744172Y-129260000D01*
X208815009Y-129274091D01*
G37*
G36*
X230040000Y-129760000D02*
G01*
X228340000Y-129760000D01*
X228340000Y-128860000D01*
X230040000Y-128860000D01*
X230040000Y-129760000D01*
G37*
G36*
X208815009Y-127874091D02*
G01*
X208850429Y-127881136D01*
X208900476Y-127901867D01*
X208950524Y-127922597D01*
X209040602Y-127982785D01*
X209117215Y-128059398D01*
X209177403Y-128149476D01*
X209218864Y-128249572D01*
X209240000Y-128355828D01*
X209240000Y-128464172D01*
X209218864Y-128570428D01*
X209177403Y-128670524D01*
X209117215Y-128760602D01*
X209040602Y-128837215D01*
X208950524Y-128897403D01*
X208900476Y-128918134D01*
X208850429Y-128938864D01*
X208815009Y-128945909D01*
X208744172Y-128960000D01*
X208635828Y-128960000D01*
X208564991Y-128945909D01*
X208529571Y-128938864D01*
X208479524Y-128918134D01*
X208429476Y-128897403D01*
X208339398Y-128837215D01*
X208262785Y-128760602D01*
X208202597Y-128670524D01*
X208161136Y-128570428D01*
X208140000Y-128464172D01*
X208140000Y-128355828D01*
X208161136Y-128249572D01*
X208202597Y-128149476D01*
X208262785Y-128059398D01*
X208339398Y-127982785D01*
X208429476Y-127922597D01*
X208479524Y-127901867D01*
X208529571Y-127881136D01*
X208564991Y-127874091D01*
X208635828Y-127860000D01*
X208744172Y-127860000D01*
X208815009Y-127874091D01*
G37*
G36*
X230040000Y-128560000D02*
G01*
X228340000Y-128560000D01*
X228340000Y-127660000D01*
X230040000Y-127660000D01*
X230040000Y-128560000D01*
G37*
G36*
X237013867Y-126744556D02*
G01*
X237052448Y-126756259D01*
X237088001Y-126775263D01*
X237119163Y-126800837D01*
X237144737Y-126831999D01*
X237163741Y-126867552D01*
X237175444Y-126906133D01*
X237180000Y-126952390D01*
X237180000Y-127602610D01*
X237175444Y-127648867D01*
X237163741Y-127687448D01*
X237144737Y-127723001D01*
X237119163Y-127754163D01*
X237088001Y-127779737D01*
X237052448Y-127798741D01*
X237013867Y-127810444D01*
X236967610Y-127815000D01*
X235892390Y-127815000D01*
X235846133Y-127810444D01*
X235807552Y-127798741D01*
X235771999Y-127779737D01*
X235740837Y-127754163D01*
X235715263Y-127723001D01*
X235696259Y-127687448D01*
X235684556Y-127648867D01*
X235680000Y-127602610D01*
X235680000Y-126952390D01*
X235684556Y-126906133D01*
X235696259Y-126867552D01*
X235715263Y-126831999D01*
X235740837Y-126800837D01*
X235771999Y-126775263D01*
X235807552Y-126756259D01*
X235846133Y-126744556D01*
X235892390Y-126740000D01*
X236967610Y-126740000D01*
X237013867Y-126744556D01*
G37*
G36*
X232900000Y-127735000D02*
G01*
X231740000Y-127735000D01*
X231740000Y-125085000D01*
X232900000Y-125085000D01*
X232900000Y-127735000D01*
G37*
G36*
X235100000Y-127735000D02*
G01*
X233940000Y-127735000D01*
X233940000Y-125085000D01*
X235100000Y-125085000D01*
X235100000Y-127735000D01*
G37*
G36*
X208815009Y-126474091D02*
G01*
X208850429Y-126481136D01*
X208900476Y-126501866D01*
X208950524Y-126522597D01*
X209040602Y-126582785D01*
X209117215Y-126659398D01*
X209177403Y-126749476D01*
X209218864Y-126849572D01*
X209240000Y-126955828D01*
X209240000Y-127064172D01*
X209218864Y-127170428D01*
X209177403Y-127270524D01*
X209117215Y-127360602D01*
X209040602Y-127437215D01*
X208950524Y-127497403D01*
X208900476Y-127518133D01*
X208850429Y-127538864D01*
X208815009Y-127545909D01*
X208744172Y-127560000D01*
X208635828Y-127560000D01*
X208564991Y-127545909D01*
X208529571Y-127538864D01*
X208479524Y-127518133D01*
X208429476Y-127497403D01*
X208339398Y-127437215D01*
X208262785Y-127360602D01*
X208202597Y-127270524D01*
X208161136Y-127170428D01*
X208140000Y-127064172D01*
X208140000Y-126955828D01*
X208161136Y-126849572D01*
X208202597Y-126749476D01*
X208262785Y-126659398D01*
X208339398Y-126582785D01*
X208429476Y-126522597D01*
X208479524Y-126501866D01*
X208529571Y-126481136D01*
X208564991Y-126474091D01*
X208635828Y-126460000D01*
X208744172Y-126460000D01*
X208815009Y-126474091D01*
G37*
G36*
X241525000Y-127410000D02*
G01*
X240975000Y-127410000D01*
X240975000Y-126610000D01*
X241525000Y-126610000D01*
X241525000Y-127410000D01*
G37*
G36*
X230040000Y-127360000D02*
G01*
X228340000Y-127360000D01*
X228340000Y-126460000D01*
X230040000Y-126460000D01*
X230040000Y-127360000D01*
G37*
G36*
X230040000Y-126160000D02*
G01*
X228340000Y-126160000D01*
X228340000Y-125260000D01*
X230040000Y-125260000D01*
X230040000Y-126160000D01*
G37*
G36*
X208815009Y-125074091D02*
G01*
X208850429Y-125081136D01*
X208859757Y-125085000D01*
X208950524Y-125122597D01*
X209040602Y-125182785D01*
X209117215Y-125259398D01*
X209177403Y-125349476D01*
X209177403Y-125349477D01*
X209216394Y-125443607D01*
X209218864Y-125449572D01*
X209240000Y-125555828D01*
X209240000Y-125664172D01*
X209218864Y-125770428D01*
X209177403Y-125870524D01*
X209117215Y-125960602D01*
X209040602Y-126037215D01*
X208950524Y-126097403D01*
X208900476Y-126118134D01*
X208850429Y-126138864D01*
X208815009Y-126145909D01*
X208744172Y-126160000D01*
X208635828Y-126160000D01*
X208564991Y-126145909D01*
X208529571Y-126138864D01*
X208479524Y-126118134D01*
X208429476Y-126097403D01*
X208339398Y-126037215D01*
X208262785Y-125960602D01*
X208202597Y-125870524D01*
X208161136Y-125770428D01*
X208140000Y-125664172D01*
X208140000Y-125555828D01*
X208161136Y-125449572D01*
X208163607Y-125443607D01*
X208202597Y-125349477D01*
X208202597Y-125349476D01*
X208262785Y-125259398D01*
X208339398Y-125182785D01*
X208429476Y-125122597D01*
X208520243Y-125085000D01*
X208529571Y-125081136D01*
X208564991Y-125074091D01*
X208635828Y-125060000D01*
X208744172Y-125060000D01*
X208815009Y-125074091D01*
G37*
G36*
X237013867Y-124869556D02*
G01*
X237052448Y-124881259D01*
X237088001Y-124900263D01*
X237119163Y-124925837D01*
X237144737Y-124956999D01*
X237163741Y-124992552D01*
X237175444Y-125031133D01*
X237180000Y-125077390D01*
X237180000Y-125727610D01*
X237175444Y-125773867D01*
X237163741Y-125812448D01*
X237144737Y-125848001D01*
X237119163Y-125879163D01*
X237088001Y-125904737D01*
X237052448Y-125923741D01*
X237013867Y-125935444D01*
X236967610Y-125940000D01*
X235892390Y-125940000D01*
X235846133Y-125935444D01*
X235807552Y-125923741D01*
X235771999Y-125904737D01*
X235740837Y-125879163D01*
X235715263Y-125848001D01*
X235696259Y-125812448D01*
X235684556Y-125773867D01*
X235680000Y-125727610D01*
X235680000Y-125077390D01*
X235684556Y-125031133D01*
X235696259Y-124992552D01*
X235715263Y-124956999D01*
X235740837Y-124925837D01*
X235771999Y-124900263D01*
X235807552Y-124881259D01*
X235846133Y-124869556D01*
X235892390Y-124865000D01*
X236967610Y-124865000D01*
X237013867Y-124869556D01*
G37*
G36*
X253912520Y-124084586D02*
G01*
X254061864Y-124146446D01*
X254076310Y-124152430D01*
X254223717Y-124250924D01*
X254349076Y-124376283D01*
X254447570Y-124523690D01*
X254447571Y-124523692D01*
X254462860Y-124560604D01*
X254515414Y-124687480D01*
X254550000Y-124861358D01*
X254550000Y-125038642D01*
X254515414Y-125212520D01*
X254447570Y-125376310D01*
X254349076Y-125523717D01*
X254223717Y-125649076D01*
X254076310Y-125747570D01*
X254076309Y-125747571D01*
X254076308Y-125747571D01*
X253912520Y-125815414D01*
X253738644Y-125850000D01*
X253561356Y-125850000D01*
X253387480Y-125815414D01*
X253223692Y-125747571D01*
X253223691Y-125747571D01*
X253223690Y-125747570D01*
X253076283Y-125649076D01*
X252950924Y-125523717D01*
X252852430Y-125376310D01*
X252784586Y-125212520D01*
X252750000Y-125038642D01*
X252750000Y-124861358D01*
X252784586Y-124687480D01*
X252837140Y-124560604D01*
X252852429Y-124523692D01*
X252852430Y-124523690D01*
X252950924Y-124376283D01*
X253076283Y-124250924D01*
X253223690Y-124152430D01*
X253238137Y-124146446D01*
X253387480Y-124084586D01*
X253561356Y-124050000D01*
X253738644Y-124050000D01*
X253912520Y-124084586D01*
G37*
G36*
X256452520Y-124084586D02*
G01*
X256601864Y-124146446D01*
X256616310Y-124152430D01*
X256763717Y-124250924D01*
X256889076Y-124376283D01*
X256987570Y-124523690D01*
X256987571Y-124523692D01*
X257002860Y-124560604D01*
X257055414Y-124687480D01*
X257090000Y-124861358D01*
X257090000Y-125038642D01*
X257055414Y-125212520D01*
X256987570Y-125376310D01*
X256889076Y-125523717D01*
X256763717Y-125649076D01*
X256616310Y-125747570D01*
X256616309Y-125747571D01*
X256616308Y-125747571D01*
X256452520Y-125815414D01*
X256278644Y-125850000D01*
X256101356Y-125850000D01*
X255927480Y-125815414D01*
X255763692Y-125747571D01*
X255763691Y-125747571D01*
X255763690Y-125747570D01*
X255616283Y-125649076D01*
X255490924Y-125523717D01*
X255392430Y-125376310D01*
X255324586Y-125212520D01*
X255290000Y-125038642D01*
X255290000Y-124861358D01*
X255324586Y-124687480D01*
X255377140Y-124560604D01*
X255392429Y-124523692D01*
X255392430Y-124523690D01*
X255490924Y-124376283D01*
X255616283Y-124250924D01*
X255763690Y-124152430D01*
X255778137Y-124146446D01*
X255927480Y-124084586D01*
X256101356Y-124050000D01*
X256278644Y-124050000D01*
X256452520Y-124084586D01*
G37*
G36*
X239168991Y-124544075D02*
G01*
X239202879Y-124554355D01*
X239234112Y-124571050D01*
X239261486Y-124593514D01*
X239283950Y-124620888D01*
X239300645Y-124652121D01*
X239310925Y-124686009D01*
X239315000Y-124727388D01*
X239315000Y-125327612D01*
X239310925Y-125368991D01*
X239300645Y-125402879D01*
X239283950Y-125434112D01*
X239261486Y-125461486D01*
X239234112Y-125483950D01*
X239202879Y-125500645D01*
X239168991Y-125510925D01*
X239127612Y-125515000D01*
X238452388Y-125515000D01*
X238411009Y-125510925D01*
X238377121Y-125500645D01*
X238345888Y-125483950D01*
X238318514Y-125461486D01*
X238296050Y-125434112D01*
X238279355Y-125402879D01*
X238269075Y-125368991D01*
X238265000Y-125327612D01*
X238265000Y-124727388D01*
X238269075Y-124686009D01*
X238279355Y-124652121D01*
X238296050Y-124620888D01*
X238318514Y-124593514D01*
X238345888Y-124571050D01*
X238377121Y-124554355D01*
X238411009Y-124544075D01*
X238452388Y-124540000D01*
X239127612Y-124540000D01*
X239168991Y-124544075D01*
G37*
G36*
X242175000Y-125410000D02*
G01*
X241625000Y-125410000D01*
X241625000Y-124610000D01*
X242175000Y-124610000D01*
X242175000Y-125410000D01*
G37*
G36*
X240875000Y-125410000D02*
G01*
X240325000Y-125410000D01*
X240325000Y-124610000D01*
X240875000Y-124610000D01*
X240875000Y-125410000D01*
G37*
G36*
X230040000Y-124960000D02*
G01*
X228340000Y-124960000D01*
X228340000Y-124060000D01*
X230040000Y-124060000D01*
X230040000Y-124960000D01*
G37*
G36*
X208815009Y-123674091D02*
G01*
X208850429Y-123681136D01*
X208886917Y-123696250D01*
X208950524Y-123722597D01*
X209040602Y-123782785D01*
X209117215Y-123859398D01*
X209177403Y-123949476D01*
X209218864Y-124049572D01*
X209238134Y-124146446D01*
X209240000Y-124155830D01*
X209240000Y-124264170D01*
X209218864Y-124370429D01*
X209198134Y-124420476D01*
X209177403Y-124470524D01*
X209117215Y-124560602D01*
X209040602Y-124637215D01*
X208950524Y-124697403D01*
X208900476Y-124718134D01*
X208850429Y-124738864D01*
X208815009Y-124745909D01*
X208744172Y-124760000D01*
X208635828Y-124760000D01*
X208564991Y-124745909D01*
X208529571Y-124738864D01*
X208479524Y-124718134D01*
X208429476Y-124697403D01*
X208339398Y-124637215D01*
X208262785Y-124560602D01*
X208202597Y-124470524D01*
X208181866Y-124420476D01*
X208161136Y-124370429D01*
X208140000Y-124264170D01*
X208140000Y-124155830D01*
X208141867Y-124146446D01*
X208161136Y-124049572D01*
X208202597Y-123949476D01*
X208262785Y-123859398D01*
X208339398Y-123782785D01*
X208429476Y-123722597D01*
X208493083Y-123696250D01*
X208529571Y-123681136D01*
X208564991Y-123674091D01*
X208635828Y-123660000D01*
X208744172Y-123660000D01*
X208815009Y-123674091D01*
G37*
G36*
X232543991Y-123119075D02*
G01*
X232577879Y-123129355D01*
X232609112Y-123146050D01*
X232636486Y-123168514D01*
X232658950Y-123195888D01*
X232675645Y-123227121D01*
X232685925Y-123261009D01*
X232690000Y-123302388D01*
X232690000Y-123977612D01*
X232685925Y-124018991D01*
X232675645Y-124052879D01*
X232658950Y-124084112D01*
X232636486Y-124111486D01*
X232609112Y-124133950D01*
X232577879Y-124150645D01*
X232543991Y-124160925D01*
X232502612Y-124165000D01*
X231902388Y-124165000D01*
X231861009Y-124160925D01*
X231827121Y-124150645D01*
X231795888Y-124133950D01*
X231768514Y-124111486D01*
X231746050Y-124084112D01*
X231729355Y-124052879D01*
X231719075Y-124018991D01*
X231715000Y-123977612D01*
X231715000Y-123302388D01*
X231719075Y-123261009D01*
X231729355Y-123227121D01*
X231746050Y-123195888D01*
X231768514Y-123168514D01*
X231795888Y-123146050D01*
X231827121Y-123129355D01*
X231861009Y-123119075D01*
X231902388Y-123115000D01*
X232502612Y-123115000D01*
X232543991Y-123119075D01*
G37*
G36*
X234118991Y-123119075D02*
G01*
X234152879Y-123129355D01*
X234184112Y-123146050D01*
X234211486Y-123168514D01*
X234233950Y-123195888D01*
X234250645Y-123227121D01*
X234260925Y-123261009D01*
X234265000Y-123302388D01*
X234265000Y-123977612D01*
X234260925Y-124018991D01*
X234250645Y-124052879D01*
X234233950Y-124084112D01*
X234211486Y-124111486D01*
X234184112Y-124133950D01*
X234152879Y-124150645D01*
X234118991Y-124160925D01*
X234077612Y-124165000D01*
X233477388Y-124165000D01*
X233436009Y-124160925D01*
X233402121Y-124150645D01*
X233370888Y-124133950D01*
X233343514Y-124111486D01*
X233321050Y-124084112D01*
X233304355Y-124052879D01*
X233294075Y-124018991D01*
X233290000Y-123977612D01*
X233290000Y-123302388D01*
X233294075Y-123261009D01*
X233304355Y-123227121D01*
X233321050Y-123195888D01*
X233343514Y-123168514D01*
X233370888Y-123146050D01*
X233402121Y-123129355D01*
X233436009Y-123119075D01*
X233477388Y-123115000D01*
X234077612Y-123115000D01*
X234118991Y-123119075D01*
G37*
G36*
X242248991Y-122929075D02*
G01*
X242282879Y-122939355D01*
X242314112Y-122956050D01*
X242341486Y-122978514D01*
X242363950Y-123005888D01*
X242380645Y-123037121D01*
X242390925Y-123071009D01*
X242395000Y-123112388D01*
X242395000Y-123787612D01*
X242390925Y-123828991D01*
X242380645Y-123862879D01*
X242363950Y-123894112D01*
X242341486Y-123921486D01*
X242314112Y-123943950D01*
X242282879Y-123960645D01*
X242248991Y-123970925D01*
X242207612Y-123975000D01*
X241607388Y-123975000D01*
X241566009Y-123970925D01*
X241532121Y-123960645D01*
X241500888Y-123943950D01*
X241473514Y-123921486D01*
X241451050Y-123894112D01*
X241434355Y-123862879D01*
X241424075Y-123828991D01*
X241420000Y-123787612D01*
X241420000Y-123112388D01*
X241424075Y-123071009D01*
X241434355Y-123037121D01*
X241451050Y-123005888D01*
X241473514Y-122978514D01*
X241500888Y-122956050D01*
X241532121Y-122939355D01*
X241566009Y-122929075D01*
X241607388Y-122925000D01*
X242207612Y-122925000D01*
X242248991Y-122929075D01*
G37*
G36*
X240673991Y-122929075D02*
G01*
X240707879Y-122939355D01*
X240739112Y-122956050D01*
X240766486Y-122978514D01*
X240788950Y-123005888D01*
X240805645Y-123037121D01*
X240815925Y-123071009D01*
X240820000Y-123112388D01*
X240820000Y-123787612D01*
X240815925Y-123828991D01*
X240805645Y-123862879D01*
X240788950Y-123894112D01*
X240766486Y-123921486D01*
X240739112Y-123943950D01*
X240707879Y-123960645D01*
X240673991Y-123970925D01*
X240632612Y-123975000D01*
X240032388Y-123975000D01*
X239991009Y-123970925D01*
X239957121Y-123960645D01*
X239925888Y-123943950D01*
X239898514Y-123921486D01*
X239876050Y-123894112D01*
X239859355Y-123862879D01*
X239849075Y-123828991D01*
X239845000Y-123787612D01*
X239845000Y-123112388D01*
X239849075Y-123071009D01*
X239859355Y-123037121D01*
X239876050Y-123005888D01*
X239898514Y-122978514D01*
X239925888Y-122956050D01*
X239957121Y-122939355D01*
X239991009Y-122929075D01*
X240032388Y-122925000D01*
X240632612Y-122925000D01*
X240673991Y-122929075D01*
G37*
G36*
X239168991Y-122969075D02*
G01*
X239202879Y-122979355D01*
X239234112Y-122996050D01*
X239261486Y-123018514D01*
X239283950Y-123045888D01*
X239300645Y-123077121D01*
X239310925Y-123111009D01*
X239315000Y-123152388D01*
X239315000Y-123752612D01*
X239310925Y-123793991D01*
X239300645Y-123827879D01*
X239283950Y-123859112D01*
X239261486Y-123886486D01*
X239234112Y-123908950D01*
X239202879Y-123925645D01*
X239168991Y-123935925D01*
X239127612Y-123940000D01*
X238452388Y-123940000D01*
X238411009Y-123935925D01*
X238377121Y-123925645D01*
X238345888Y-123908950D01*
X238318514Y-123886486D01*
X238296050Y-123859112D01*
X238279355Y-123827879D01*
X238269075Y-123793991D01*
X238265000Y-123752612D01*
X238265000Y-123152388D01*
X238269075Y-123111009D01*
X238279355Y-123077121D01*
X238296050Y-123045888D01*
X238318514Y-123018514D01*
X238345888Y-122996050D01*
X238377121Y-122979355D01*
X238411009Y-122969075D01*
X238452388Y-122965000D01*
X239127612Y-122965000D01*
X239168991Y-122969075D01*
G37*
G36*
X230040000Y-123760000D02*
G01*
X228340000Y-123760000D01*
X228340000Y-122860000D01*
X230040000Y-122860000D01*
X230040000Y-123760000D01*
G37*
G36*
X208815009Y-122274091D02*
G01*
X208850429Y-122281136D01*
X208900476Y-122301866D01*
X208950524Y-122322597D01*
X209040602Y-122382785D01*
X209117215Y-122459398D01*
X209177403Y-122549476D01*
X209177403Y-122549477D01*
X209218864Y-122649571D01*
X209240000Y-122755830D01*
X209240000Y-122864170D01*
X209218864Y-122970429D01*
X209213427Y-122983554D01*
X209177403Y-123070524D01*
X209117215Y-123160602D01*
X209040602Y-123237215D01*
X208950524Y-123297403D01*
X208920112Y-123310000D01*
X208850429Y-123338864D01*
X208815009Y-123345909D01*
X208744172Y-123360000D01*
X208635828Y-123360000D01*
X208564991Y-123345909D01*
X208529571Y-123338864D01*
X208459888Y-123310000D01*
X208429476Y-123297403D01*
X208339398Y-123237215D01*
X208262785Y-123160602D01*
X208202597Y-123070524D01*
X208166573Y-122983554D01*
X208161136Y-122970429D01*
X208140000Y-122864170D01*
X208140000Y-122755830D01*
X208161136Y-122649571D01*
X208202597Y-122549477D01*
X208202597Y-122549476D01*
X208262785Y-122459398D01*
X208339398Y-122382785D01*
X208429476Y-122322597D01*
X208479524Y-122301866D01*
X208529571Y-122281136D01*
X208564991Y-122274091D01*
X208635828Y-122260000D01*
X208744172Y-122260000D01*
X208815009Y-122274091D01*
G37*
G36*
X256452520Y-121544586D02*
G01*
X256616310Y-121612430D01*
X256763717Y-121710924D01*
X256889076Y-121836283D01*
X256987570Y-121983690D01*
X256987571Y-121983692D01*
X257055414Y-122147480D01*
X257090000Y-122321356D01*
X257090000Y-122498644D01*
X257059979Y-122649571D01*
X257055414Y-122672520D01*
X256987570Y-122836310D01*
X256889076Y-122983717D01*
X256763717Y-123109076D01*
X256616310Y-123207570D01*
X256616309Y-123207571D01*
X256616308Y-123207571D01*
X256452520Y-123275414D01*
X256278644Y-123310000D01*
X256101356Y-123310000D01*
X255927480Y-123275414D01*
X255763692Y-123207571D01*
X255763691Y-123207571D01*
X255763690Y-123207570D01*
X255616283Y-123109076D01*
X255490924Y-122983717D01*
X255392430Y-122836310D01*
X255324586Y-122672520D01*
X255320021Y-122649571D01*
X255290000Y-122498644D01*
X255290000Y-122321356D01*
X255324586Y-122147480D01*
X255392429Y-121983692D01*
X255392430Y-121983690D01*
X255490924Y-121836283D01*
X255616283Y-121710924D01*
X255763690Y-121612430D01*
X255927480Y-121544586D01*
X256101356Y-121510000D01*
X256278644Y-121510000D01*
X256452520Y-121544586D01*
G37*
G36*
X253912520Y-121544586D02*
G01*
X254076310Y-121612430D01*
X254223717Y-121710924D01*
X254349076Y-121836283D01*
X254447570Y-121983690D01*
X254447571Y-121983692D01*
X254515414Y-122147480D01*
X254550000Y-122321356D01*
X254550000Y-122498644D01*
X254519979Y-122649571D01*
X254515414Y-122672520D01*
X254447570Y-122836310D01*
X254349076Y-122983717D01*
X254223717Y-123109076D01*
X254076310Y-123207570D01*
X254076309Y-123207571D01*
X254076308Y-123207571D01*
X253912520Y-123275414D01*
X253738644Y-123310000D01*
X253561356Y-123310000D01*
X253387480Y-123275414D01*
X253223692Y-123207571D01*
X253223691Y-123207571D01*
X253223690Y-123207570D01*
X253076283Y-123109076D01*
X252950924Y-122983717D01*
X252852430Y-122836310D01*
X252784586Y-122672520D01*
X252780021Y-122649571D01*
X252750000Y-122498644D01*
X252750000Y-122321356D01*
X252784586Y-122147480D01*
X252852429Y-121983692D01*
X252852430Y-121983690D01*
X252950924Y-121836283D01*
X253076283Y-121710924D01*
X253223690Y-121612430D01*
X253387480Y-121544586D01*
X253561356Y-121510000D01*
X253738644Y-121510000D01*
X253912520Y-121544586D01*
G37*
G36*
X230040000Y-122560000D02*
G01*
X228340000Y-122560000D01*
X228340000Y-121660000D01*
X230040000Y-121660000D01*
X230040000Y-122560000D01*
G37*
G36*
X236680351Y-119818312D02*
G01*
X236830037Y-119863719D01*
X236853775Y-119870920D01*
X237013593Y-119956344D01*
X237013596Y-119956346D01*
X237013597Y-119956347D01*
X237153686Y-120071314D01*
X237268653Y-120211403D01*
X237268656Y-120211407D01*
X237354080Y-120371225D01*
X237354081Y-120371228D01*
X237406688Y-120544649D01*
X237406688Y-120544651D01*
X237420000Y-120679808D01*
X237420000Y-121220193D01*
X237406688Y-121355350D01*
X237354080Y-121528775D01*
X237268656Y-121688593D01*
X237268654Y-121688596D01*
X237268653Y-121688597D01*
X237153686Y-121828686D01*
X237050249Y-121913573D01*
X237013593Y-121943656D01*
X236853775Y-122029080D01*
X236807125Y-122043231D01*
X236680350Y-122081688D01*
X236500000Y-122099451D01*
X236319649Y-122081688D01*
X236146228Y-122029081D01*
X236146225Y-122029080D01*
X235986407Y-121943656D01*
X235986403Y-121943653D01*
X235846314Y-121828686D01*
X235749671Y-121710924D01*
X235731344Y-121688593D01*
X235645920Y-121528775D01*
X235624195Y-121457157D01*
X235593312Y-121355350D01*
X235580000Y-121220191D01*
X235580000Y-120679808D01*
X235593312Y-120544649D01*
X235624985Y-120440238D01*
X235645919Y-120371227D01*
X235731347Y-120211405D01*
X235731348Y-120211403D01*
X235846315Y-120071314D01*
X235986404Y-119956347D01*
X235986405Y-119956346D01*
X235986408Y-119956344D01*
X236146226Y-119870920D01*
X236169964Y-119863719D01*
X236319650Y-119818312D01*
X236500000Y-119800549D01*
X236680351Y-119818312D01*
G37*
G36*
X239220351Y-119818312D02*
G01*
X239370037Y-119863719D01*
X239393775Y-119870920D01*
X239553593Y-119956344D01*
X239553596Y-119956346D01*
X239553597Y-119956347D01*
X239693686Y-120071314D01*
X239808653Y-120211403D01*
X239808656Y-120211407D01*
X239894080Y-120371225D01*
X239894081Y-120371228D01*
X239946688Y-120544649D01*
X239946688Y-120544651D01*
X239960000Y-120679808D01*
X239960000Y-121220193D01*
X239946688Y-121355350D01*
X239894080Y-121528775D01*
X239808656Y-121688593D01*
X239808654Y-121688596D01*
X239808653Y-121688597D01*
X239693686Y-121828686D01*
X239590249Y-121913573D01*
X239553593Y-121943656D01*
X239393775Y-122029080D01*
X239347125Y-122043231D01*
X239220350Y-122081688D01*
X239040000Y-122099451D01*
X238859649Y-122081688D01*
X238686228Y-122029081D01*
X238686225Y-122029080D01*
X238526407Y-121943656D01*
X238526403Y-121943653D01*
X238386314Y-121828686D01*
X238289671Y-121710924D01*
X238271344Y-121688593D01*
X238185920Y-121528775D01*
X238164195Y-121457157D01*
X238133312Y-121355350D01*
X238120000Y-121220191D01*
X238120000Y-120679808D01*
X238133312Y-120544649D01*
X238164985Y-120440238D01*
X238185919Y-120371227D01*
X238271347Y-120211405D01*
X238271348Y-120211403D01*
X238386315Y-120071314D01*
X238526404Y-119956347D01*
X238526405Y-119956346D01*
X238526408Y-119956344D01*
X238686226Y-119870920D01*
X238709964Y-119863719D01*
X238859650Y-119818312D01*
X239040000Y-119800549D01*
X239220351Y-119818312D01*
G37*
G36*
X242358793Y-119808961D02*
G01*
X242391559Y-119818901D01*
X242421759Y-119835043D01*
X242448231Y-119856769D01*
X242469957Y-119883241D01*
X242486099Y-119913441D01*
X242496039Y-119946207D01*
X242500000Y-119986427D01*
X242500000Y-121913573D01*
X242496039Y-121953793D01*
X242486099Y-121986559D01*
X242469957Y-122016759D01*
X242448231Y-122043231D01*
X242421759Y-122064957D01*
X242391559Y-122081099D01*
X242358793Y-122091039D01*
X242318573Y-122095000D01*
X240841427Y-122095000D01*
X240801207Y-122091039D01*
X240768441Y-122081099D01*
X240738241Y-122064957D01*
X240711769Y-122043231D01*
X240690043Y-122016759D01*
X240673901Y-121986559D01*
X240663961Y-121953793D01*
X240660000Y-121913573D01*
X240660000Y-119986427D01*
X240663961Y-119946207D01*
X240673901Y-119913441D01*
X240690043Y-119883241D01*
X240711769Y-119856769D01*
X240738241Y-119835043D01*
X240768441Y-119818901D01*
X240801207Y-119808961D01*
X240841427Y-119805000D01*
X242318573Y-119805000D01*
X242358793Y-119808961D01*
G37*
G36*
X230040000Y-120860000D02*
G01*
X228340000Y-120860000D01*
X228340000Y-119960000D01*
X230040000Y-119960000D01*
X230040000Y-120860000D01*
G37*
G36*
X257090000Y-120770000D02*
G01*
X255290000Y-120770000D01*
X255290000Y-118970000D01*
X257090000Y-118970000D01*
X257090000Y-120770000D01*
G37*
G36*
X253912520Y-119004586D02*
G01*
X254076310Y-119072430D01*
X254223717Y-119170924D01*
X254349076Y-119296283D01*
X254403259Y-119377374D01*
X254447571Y-119443692D01*
X254515414Y-119607480D01*
X254550000Y-119781356D01*
X254550000Y-119958644D01*
X254527588Y-120071315D01*
X254515414Y-120132520D01*
X254447570Y-120296310D01*
X254349076Y-120443717D01*
X254223717Y-120569076D01*
X254076310Y-120667570D01*
X254076309Y-120667571D01*
X254076308Y-120667571D01*
X253912520Y-120735414D01*
X253738644Y-120770000D01*
X253561356Y-120770000D01*
X253387480Y-120735414D01*
X253223692Y-120667571D01*
X253223691Y-120667571D01*
X253223690Y-120667570D01*
X253076283Y-120569076D01*
X252950924Y-120443717D01*
X252852430Y-120296310D01*
X252784586Y-120132520D01*
X252772412Y-120071315D01*
X252750000Y-119958644D01*
X252750000Y-119781356D01*
X252784586Y-119607480D01*
X252852429Y-119443692D01*
X252896741Y-119377374D01*
X252950924Y-119296283D01*
X253076283Y-119170924D01*
X253223690Y-119072430D01*
X253387480Y-119004586D01*
X253561356Y-118970000D01*
X253738644Y-118970000D01*
X253912520Y-119004586D01*
G37*
G36*
X245677935Y-118962664D02*
G01*
X245832624Y-119026739D01*
X245832626Y-119026740D01*
X245971844Y-119119762D01*
X246090238Y-119238156D01*
X246183260Y-119377374D01*
X246183261Y-119377376D01*
X246247336Y-119532065D01*
X246280000Y-119696281D01*
X246280000Y-119863719D01*
X246247336Y-120027935D01*
X246229367Y-120071315D01*
X246183260Y-120182626D01*
X246090238Y-120321844D01*
X245971844Y-120440238D01*
X245832626Y-120533260D01*
X245832625Y-120533261D01*
X245832624Y-120533261D01*
X245677935Y-120597336D01*
X245513719Y-120630000D01*
X245346281Y-120630000D01*
X245182065Y-120597336D01*
X245027376Y-120533261D01*
X245027375Y-120533261D01*
X245027374Y-120533260D01*
X244888156Y-120440238D01*
X244769762Y-120321844D01*
X244676740Y-120182626D01*
X244630633Y-120071315D01*
X244612664Y-120027935D01*
X244580000Y-119863719D01*
X244580000Y-119696281D01*
X244612664Y-119532065D01*
X244676739Y-119377376D01*
X244676740Y-119377374D01*
X244769762Y-119238156D01*
X244888156Y-119119762D01*
X245027374Y-119026740D01*
X245027376Y-119026739D01*
X245182065Y-118962664D01*
X245346281Y-118930000D01*
X245513719Y-118930000D01*
X245677935Y-118962664D01*
G37*
G36*
X210840000Y-120410000D02*
G01*
X209940000Y-120410000D01*
X209940000Y-118710000D01*
X210840000Y-118710000D01*
X210840000Y-120410000D01*
G37*
G36*
X209640000Y-120410000D02*
G01*
X208740000Y-120410000D01*
X208740000Y-118710000D01*
X209640000Y-118710000D01*
X209640000Y-120410000D01*
G37*
G36*
X213240000Y-120410000D02*
G01*
X212340000Y-120410000D01*
X212340000Y-118710000D01*
X213240000Y-118710000D01*
X213240000Y-120410000D01*
G37*
G36*
X222840000Y-120410000D02*
G01*
X221940000Y-120410000D01*
X221940000Y-118710000D01*
X222840000Y-118710000D01*
X222840000Y-120410000D01*
G37*
G36*
X214440000Y-120410000D02*
G01*
X213540000Y-120410000D01*
X213540000Y-118710000D01*
X214440000Y-118710000D01*
X214440000Y-120410000D01*
G37*
G36*
X215640000Y-120410000D02*
G01*
X214740000Y-120410000D01*
X214740000Y-118710000D01*
X215640000Y-118710000D01*
X215640000Y-120410000D01*
G37*
G36*
X216840000Y-120410000D02*
G01*
X215940000Y-120410000D01*
X215940000Y-118710000D01*
X216840000Y-118710000D01*
X216840000Y-120410000D01*
G37*
G36*
X218040000Y-120410000D02*
G01*
X217140000Y-120410000D01*
X217140000Y-118710000D01*
X218040000Y-118710000D01*
X218040000Y-120410000D01*
G37*
G36*
X219240000Y-120410000D02*
G01*
X218340000Y-120410000D01*
X218340000Y-118710000D01*
X219240000Y-118710000D01*
X219240000Y-120410000D01*
G37*
G36*
X212040000Y-120410000D02*
G01*
X211140000Y-120410000D01*
X211140000Y-118710000D01*
X212040000Y-118710000D01*
X212040000Y-120410000D01*
G37*
G36*
X227640000Y-120410000D02*
G01*
X226740000Y-120410000D01*
X226740000Y-118710000D01*
X227640000Y-118710000D01*
X227640000Y-120410000D01*
G37*
G36*
X226440000Y-120410000D02*
G01*
X225540000Y-120410000D01*
X225540000Y-118710000D01*
X226440000Y-118710000D01*
X226440000Y-120410000D01*
G37*
G36*
X225240000Y-120410000D02*
G01*
X224340000Y-120410000D01*
X224340000Y-118710000D01*
X225240000Y-118710000D01*
X225240000Y-120410000D01*
G37*
G36*
X224040000Y-120410000D02*
G01*
X223140000Y-120410000D01*
X223140000Y-118710000D01*
X224040000Y-118710000D01*
X224040000Y-120410000D01*
G37*
G36*
X221640000Y-120410000D02*
G01*
X220740000Y-120410000D01*
X220740000Y-118710000D01*
X221640000Y-118710000D01*
X221640000Y-120410000D01*
G37*
G36*
X208440000Y-120410000D02*
G01*
X207540000Y-120410000D01*
X207540000Y-118710000D01*
X208440000Y-118710000D01*
X208440000Y-120410000D01*
G37*
G36*
X220440000Y-120410000D02*
G01*
X219540000Y-120410000D01*
X219540000Y-118710000D01*
X220440000Y-118710000D01*
X220440000Y-120410000D01*
G37*
G36*
X257588991Y-116519075D02*
G01*
X257622879Y-116529355D01*
X257654112Y-116546050D01*
X257681486Y-116568514D01*
X257703950Y-116595888D01*
X257720645Y-116627121D01*
X257730925Y-116661009D01*
X257735000Y-116702388D01*
X257735000Y-117377612D01*
X257730925Y-117418991D01*
X257720645Y-117452879D01*
X257703950Y-117484112D01*
X257681486Y-117511486D01*
X257654112Y-117533950D01*
X257622879Y-117550645D01*
X257588991Y-117560925D01*
X257547612Y-117565000D01*
X256947388Y-117565000D01*
X256906009Y-117560925D01*
X256872121Y-117550645D01*
X256840888Y-117533950D01*
X256813514Y-117511486D01*
X256791050Y-117484112D01*
X256774355Y-117452879D01*
X256764075Y-117418991D01*
X256760000Y-117377612D01*
X256760000Y-116702388D01*
X256764075Y-116661009D01*
X256774355Y-116627121D01*
X256791050Y-116595888D01*
X256813514Y-116568514D01*
X256840888Y-116546050D01*
X256872121Y-116529355D01*
X256906009Y-116519075D01*
X256947388Y-116515000D01*
X257547612Y-116515000D01*
X257588991Y-116519075D01*
G37*
G36*
X256013991Y-116519075D02*
G01*
X256047879Y-116529355D01*
X256079112Y-116546050D01*
X256106486Y-116568514D01*
X256128950Y-116595888D01*
X256145645Y-116627121D01*
X256155925Y-116661009D01*
X256160000Y-116702388D01*
X256160000Y-117377612D01*
X256155925Y-117418991D01*
X256145645Y-117452879D01*
X256128950Y-117484112D01*
X256106486Y-117511486D01*
X256079112Y-117533950D01*
X256047879Y-117550645D01*
X256013991Y-117560925D01*
X255972612Y-117565000D01*
X255372388Y-117565000D01*
X255331009Y-117560925D01*
X255297121Y-117550645D01*
X255265888Y-117533950D01*
X255238514Y-117511486D01*
X255216050Y-117484112D01*
X255199355Y-117452879D01*
X255189075Y-117418991D01*
X255185000Y-117377612D01*
X255185000Y-116702388D01*
X255189075Y-116661009D01*
X255199355Y-116627121D01*
X255216050Y-116595888D01*
X255238514Y-116568514D01*
X255265888Y-116546050D01*
X255297121Y-116529355D01*
X255331009Y-116519075D01*
X255372388Y-116515000D01*
X255972612Y-116515000D01*
X256013991Y-116519075D01*
G37*
G36*
X257578991Y-114929075D02*
G01*
X257612879Y-114939355D01*
X257644112Y-114956050D01*
X257671486Y-114978514D01*
X257693950Y-115005888D01*
X257710645Y-115037121D01*
X257720925Y-115071009D01*
X257725000Y-115112388D01*
X257725000Y-115787612D01*
X257720925Y-115828991D01*
X257710645Y-115862879D01*
X257693950Y-115894112D01*
X257671486Y-115921486D01*
X257644112Y-115943950D01*
X257612879Y-115960645D01*
X257578991Y-115970925D01*
X257537612Y-115975000D01*
X256937388Y-115975000D01*
X256896009Y-115970925D01*
X256862121Y-115960645D01*
X256830888Y-115943950D01*
X256803514Y-115921486D01*
X256781050Y-115894112D01*
X256764355Y-115862879D01*
X256754075Y-115828991D01*
X256750000Y-115787612D01*
X256750000Y-115112388D01*
X256754075Y-115071009D01*
X256764355Y-115037121D01*
X256781050Y-115005888D01*
X256803514Y-114978514D01*
X256830888Y-114956050D01*
X256862121Y-114939355D01*
X256896009Y-114929075D01*
X256937388Y-114925000D01*
X257537612Y-114925000D01*
X257578991Y-114929075D01*
G37*
G36*
X256003991Y-114929075D02*
G01*
X256037879Y-114939355D01*
X256069112Y-114956050D01*
X256096486Y-114978514D01*
X256118950Y-115005888D01*
X256135645Y-115037121D01*
X256145925Y-115071009D01*
X256150000Y-115112388D01*
X256150000Y-115787612D01*
X256145925Y-115828991D01*
X256135645Y-115862879D01*
X256118950Y-115894112D01*
X256096486Y-115921486D01*
X256069112Y-115943950D01*
X256037879Y-115960645D01*
X256003991Y-115970925D01*
X255962612Y-115975000D01*
X255362388Y-115975000D01*
X255321009Y-115970925D01*
X255287121Y-115960645D01*
X255255888Y-115943950D01*
X255228514Y-115921486D01*
X255206050Y-115894112D01*
X255189355Y-115862879D01*
X255179075Y-115828991D01*
X255175000Y-115787612D01*
X255175000Y-115112388D01*
X255179075Y-115071009D01*
X255189355Y-115037121D01*
X255206050Y-115005888D01*
X255228514Y-114978514D01*
X255255888Y-114956050D01*
X255287121Y-114939355D01*
X255321009Y-114929075D01*
X255362388Y-114925000D01*
X255962612Y-114925000D01*
X256003991Y-114929075D01*
G37*
G36*
X216705997Y-114013280D02*
G01*
X216717422Y-114014405D01*
X216754379Y-114025616D01*
X216839947Y-114051573D01*
X216952867Y-114111930D01*
X217051843Y-114193157D01*
X217133070Y-114292132D01*
X217193427Y-114405052D01*
X217230595Y-114527578D01*
X217240000Y-114623068D01*
X217240000Y-115236932D01*
X217230595Y-115332422D01*
X217193427Y-115454948D01*
X217133070Y-115567868D01*
X217051843Y-115666843D01*
X216952868Y-115748070D01*
X216839948Y-115808427D01*
X216798032Y-115821142D01*
X216717423Y-115845595D01*
X216705998Y-115846720D01*
X216590000Y-115858145D01*
X216474003Y-115846720D01*
X216462578Y-115845595D01*
X216381969Y-115821142D01*
X216340053Y-115808427D01*
X216227133Y-115748070D01*
X216128158Y-115666843D01*
X216046930Y-115567868D01*
X215986573Y-115454948D01*
X215949405Y-115332422D01*
X215940000Y-115236932D01*
X215940000Y-114623069D01*
X215949405Y-114527579D01*
X215949406Y-114527577D01*
X215986573Y-114405054D01*
X215986573Y-114405053D01*
X216046930Y-114292133D01*
X216128157Y-114193157D01*
X216227132Y-114111930D01*
X216340052Y-114051573D01*
X216425620Y-114025616D01*
X216462577Y-114014405D01*
X216474002Y-114013280D01*
X216590000Y-114001855D01*
X216705997Y-114013280D01*
G37*
G36*
X227915997Y-114013280D02*
G01*
X227927422Y-114014405D01*
X227964379Y-114025616D01*
X228049947Y-114051573D01*
X228162867Y-114111930D01*
X228261843Y-114193157D01*
X228343070Y-114292132D01*
X228403427Y-114405052D01*
X228440595Y-114527578D01*
X228450000Y-114623068D01*
X228450000Y-115236932D01*
X228440595Y-115332422D01*
X228403427Y-115454948D01*
X228343070Y-115567868D01*
X228261843Y-115666843D01*
X228162868Y-115748070D01*
X228049948Y-115808427D01*
X228008032Y-115821142D01*
X227927423Y-115845595D01*
X227915998Y-115846720D01*
X227800000Y-115858145D01*
X227684003Y-115846720D01*
X227672578Y-115845595D01*
X227591969Y-115821142D01*
X227550053Y-115808427D01*
X227437133Y-115748070D01*
X227338158Y-115666843D01*
X227256930Y-115567868D01*
X227196573Y-115454948D01*
X227159405Y-115332422D01*
X227150000Y-115236932D01*
X227150000Y-114623069D01*
X227159405Y-114527579D01*
X227159406Y-114527577D01*
X227196573Y-114405054D01*
X227196573Y-114405053D01*
X227256930Y-114292133D01*
X227338157Y-114193157D01*
X227437132Y-114111930D01*
X227550052Y-114051573D01*
X227635620Y-114025616D01*
X227672577Y-114014405D01*
X227684002Y-114013280D01*
X227800000Y-114001855D01*
X227915997Y-114013280D01*
G37*
G36*
X225915997Y-114013280D02*
G01*
X225927422Y-114014405D01*
X225964379Y-114025616D01*
X226049947Y-114051573D01*
X226162867Y-114111930D01*
X226261843Y-114193157D01*
X226343070Y-114292132D01*
X226403427Y-114405052D01*
X226440595Y-114527578D01*
X226450000Y-114623068D01*
X226450000Y-115236932D01*
X226440595Y-115332422D01*
X226403427Y-115454948D01*
X226343070Y-115567868D01*
X226261843Y-115666843D01*
X226162868Y-115748070D01*
X226049948Y-115808427D01*
X226008032Y-115821142D01*
X225927423Y-115845595D01*
X225915998Y-115846720D01*
X225800000Y-115858145D01*
X225684003Y-115846720D01*
X225672578Y-115845595D01*
X225591969Y-115821142D01*
X225550053Y-115808427D01*
X225437133Y-115748070D01*
X225338158Y-115666843D01*
X225256930Y-115567868D01*
X225196573Y-115454948D01*
X225159405Y-115332422D01*
X225150000Y-115236932D01*
X225150000Y-114623069D01*
X225159405Y-114527579D01*
X225159406Y-114527577D01*
X225196573Y-114405054D01*
X225196573Y-114405053D01*
X225256930Y-114292133D01*
X225338157Y-114193157D01*
X225437132Y-114111930D01*
X225550052Y-114051573D01*
X225635620Y-114025616D01*
X225672577Y-114014405D01*
X225684002Y-114013280D01*
X225800000Y-114001855D01*
X225915997Y-114013280D01*
G37*
G36*
X218705997Y-114013280D02*
G01*
X218717422Y-114014405D01*
X218754379Y-114025616D01*
X218839947Y-114051573D01*
X218952867Y-114111930D01*
X219051843Y-114193157D01*
X219133070Y-114292132D01*
X219193427Y-114405052D01*
X219230595Y-114527578D01*
X219240000Y-114623068D01*
X219240000Y-115236932D01*
X219230595Y-115332422D01*
X219193427Y-115454948D01*
X219133070Y-115567868D01*
X219051843Y-115666843D01*
X218952868Y-115748070D01*
X218839948Y-115808427D01*
X218798032Y-115821142D01*
X218717423Y-115845595D01*
X218705998Y-115846720D01*
X218590000Y-115858145D01*
X218474003Y-115846720D01*
X218462578Y-115845595D01*
X218381969Y-115821142D01*
X218340053Y-115808427D01*
X218227133Y-115748070D01*
X218128158Y-115666843D01*
X218046930Y-115567868D01*
X217986573Y-115454948D01*
X217949405Y-115332422D01*
X217940000Y-115236932D01*
X217940000Y-114623069D01*
X217949405Y-114527579D01*
X217949406Y-114527577D01*
X217986573Y-114405054D01*
X217986573Y-114405053D01*
X218046930Y-114292133D01*
X218128157Y-114193157D01*
X218227132Y-114111930D01*
X218340052Y-114051573D01*
X218425620Y-114025616D01*
X218462577Y-114014405D01*
X218474002Y-114013280D01*
X218590000Y-114001855D01*
X218705997Y-114013280D01*
G37*
G36*
X224290578Y-114009396D02*
G01*
X224327591Y-114020624D01*
X224361705Y-114038858D01*
X224391604Y-114063396D01*
X224416142Y-114093295D01*
X224434376Y-114127409D01*
X224445604Y-114164422D01*
X224450000Y-114209057D01*
X224450000Y-115650943D01*
X224445604Y-115695578D01*
X224434376Y-115732591D01*
X224416142Y-115766705D01*
X224391604Y-115796604D01*
X224361705Y-115821142D01*
X224327591Y-115839376D01*
X224290578Y-115850604D01*
X224245943Y-115855000D01*
X223354057Y-115855000D01*
X223309422Y-115850604D01*
X223272409Y-115839376D01*
X223238295Y-115821142D01*
X223208396Y-115796604D01*
X223183858Y-115766705D01*
X223165624Y-115732591D01*
X223154396Y-115695578D01*
X223150000Y-115650943D01*
X223150000Y-114209057D01*
X223154396Y-114164422D01*
X223165624Y-114127409D01*
X223183858Y-114093295D01*
X223208396Y-114063396D01*
X223238295Y-114038858D01*
X223272409Y-114020624D01*
X223309422Y-114009396D01*
X223354057Y-114005000D01*
X224245943Y-114005000D01*
X224290578Y-114009396D01*
G37*
G36*
X215080578Y-114009396D02*
G01*
X215117591Y-114020624D01*
X215151705Y-114038858D01*
X215181604Y-114063396D01*
X215206142Y-114093295D01*
X215224376Y-114127409D01*
X215235604Y-114164422D01*
X215240000Y-114209057D01*
X215240000Y-115650943D01*
X215235604Y-115695578D01*
X215224376Y-115732591D01*
X215206142Y-115766705D01*
X215181604Y-115796604D01*
X215151705Y-115821142D01*
X215117591Y-115839376D01*
X215080578Y-115850604D01*
X215035943Y-115855000D01*
X214144057Y-115855000D01*
X214099422Y-115850604D01*
X214062409Y-115839376D01*
X214028295Y-115821142D01*
X213998396Y-115796604D01*
X213973858Y-115766705D01*
X213955624Y-115732591D01*
X213944396Y-115695578D01*
X213940000Y-115650943D01*
X213940000Y-114209057D01*
X213944396Y-114164422D01*
X213955624Y-114127409D01*
X213973858Y-114093295D01*
X213998396Y-114063396D01*
X214028295Y-114038858D01*
X214062409Y-114020624D01*
X214099422Y-114009396D01*
X214144057Y-114005000D01*
X215035943Y-114005000D01*
X215080578Y-114009396D01*
G37*
G36*
X236310000Y-114020000D02*
G01*
X234510000Y-114020000D01*
X234510000Y-112220000D01*
X236310000Y-112220000D01*
X236310000Y-114020000D01*
G37*
G36*
X243292520Y-112254586D02*
G01*
X243456310Y-112322430D01*
X243603717Y-112420924D01*
X243729076Y-112546283D01*
X243827570Y-112693690D01*
X243895414Y-112857480D01*
X243930000Y-113031358D01*
X243930000Y-113208642D01*
X243895414Y-113382520D01*
X243827570Y-113546310D01*
X243729076Y-113693717D01*
X243603717Y-113819076D01*
X243456310Y-113917570D01*
X243456309Y-113917571D01*
X243456308Y-113917571D01*
X243292520Y-113985414D01*
X243118644Y-114020000D01*
X242941356Y-114020000D01*
X242767480Y-113985414D01*
X242603692Y-113917571D01*
X242603691Y-113917571D01*
X242603690Y-113917570D01*
X242456283Y-113819076D01*
X242330924Y-113693717D01*
X242232430Y-113546310D01*
X242164586Y-113382520D01*
X242130000Y-113208642D01*
X242130000Y-113031358D01*
X242164586Y-112857480D01*
X242232430Y-112693690D01*
X242330924Y-112546283D01*
X242456283Y-112420924D01*
X242603690Y-112322430D01*
X242767480Y-112254586D01*
X242941356Y-112220000D01*
X243118644Y-112220000D01*
X243292520Y-112254586D01*
G37*
G36*
X240752520Y-112254586D02*
G01*
X240916310Y-112322430D01*
X241063717Y-112420924D01*
X241189076Y-112546283D01*
X241287570Y-112693690D01*
X241355414Y-112857480D01*
X241390000Y-113031358D01*
X241390000Y-113208642D01*
X241355414Y-113382520D01*
X241287570Y-113546310D01*
X241189076Y-113693717D01*
X241063717Y-113819076D01*
X240916310Y-113917570D01*
X240916309Y-113917571D01*
X240916308Y-113917571D01*
X240752520Y-113985414D01*
X240578644Y-114020000D01*
X240401356Y-114020000D01*
X240227480Y-113985414D01*
X240063692Y-113917571D01*
X240063691Y-113917571D01*
X240063690Y-113917570D01*
X239916283Y-113819076D01*
X239790924Y-113693717D01*
X239692430Y-113546310D01*
X239624586Y-113382520D01*
X239590000Y-113208642D01*
X239590000Y-113031358D01*
X239624586Y-112857480D01*
X239692430Y-112693690D01*
X239790924Y-112546283D01*
X239916283Y-112420924D01*
X240063690Y-112322430D01*
X240227480Y-112254586D01*
X240401356Y-112220000D01*
X240578644Y-112220000D01*
X240752520Y-112254586D01*
G37*
G36*
X238212520Y-112254586D02*
G01*
X238376310Y-112322430D01*
X238523717Y-112420924D01*
X238649076Y-112546283D01*
X238747570Y-112693690D01*
X238815414Y-112857480D01*
X238850000Y-113031358D01*
X238850000Y-113208642D01*
X238815414Y-113382520D01*
X238747570Y-113546310D01*
X238649076Y-113693717D01*
X238523717Y-113819076D01*
X238376310Y-113917570D01*
X238376309Y-113917571D01*
X238376308Y-113917571D01*
X238212520Y-113985414D01*
X238038644Y-114020000D01*
X237861356Y-114020000D01*
X237687480Y-113985414D01*
X237523692Y-113917571D01*
X237523691Y-113917571D01*
X237523690Y-113917570D01*
X237376283Y-113819076D01*
X237250924Y-113693717D01*
X237152430Y-113546310D01*
X237084586Y-113382520D01*
X237050000Y-113208642D01*
X237050000Y-113031358D01*
X237084586Y-112857480D01*
X237152430Y-112693690D01*
X237250924Y-112546283D01*
X237376283Y-112420924D01*
X237523690Y-112322430D01*
X237687480Y-112254586D01*
X237861356Y-112220000D01*
X238038644Y-112220000D01*
X238212520Y-112254586D01*
G37*
G36*
X235672520Y-109714586D02*
G01*
X235836310Y-109782430D01*
X235983717Y-109880924D01*
X236109076Y-110006283D01*
X236207570Y-110153690D01*
X236275414Y-110317480D01*
X236310000Y-110491358D01*
X236310000Y-110668642D01*
X236275414Y-110842520D01*
X236207570Y-111006310D01*
X236109076Y-111153717D01*
X235983717Y-111279076D01*
X235836310Y-111377570D01*
X235836309Y-111377571D01*
X235836308Y-111377571D01*
X235672520Y-111445414D01*
X235498644Y-111480000D01*
X235321356Y-111480000D01*
X235147480Y-111445414D01*
X234983692Y-111377571D01*
X234983691Y-111377571D01*
X234983690Y-111377570D01*
X234836283Y-111279076D01*
X234710924Y-111153717D01*
X234612430Y-111006310D01*
X234544586Y-110842520D01*
X234510000Y-110668642D01*
X234510000Y-110491358D01*
X234544586Y-110317480D01*
X234612430Y-110153690D01*
X234710924Y-110006283D01*
X234836283Y-109880924D01*
X234983690Y-109782430D01*
X235147480Y-109714586D01*
X235321356Y-109680000D01*
X235498644Y-109680000D01*
X235672520Y-109714586D01*
G37*
G36*
X240752520Y-109714586D02*
G01*
X240916310Y-109782430D01*
X241063717Y-109880924D01*
X241189076Y-110006283D01*
X241287570Y-110153690D01*
X241355414Y-110317480D01*
X241390000Y-110491358D01*
X241390000Y-110668642D01*
X241355414Y-110842520D01*
X241287570Y-111006310D01*
X241189076Y-111153717D01*
X241063717Y-111279076D01*
X240916310Y-111377570D01*
X240916309Y-111377571D01*
X240916308Y-111377571D01*
X240752520Y-111445414D01*
X240578644Y-111480000D01*
X240401356Y-111480000D01*
X240227480Y-111445414D01*
X240063692Y-111377571D01*
X240063691Y-111377571D01*
X240063690Y-111377570D01*
X239916283Y-111279076D01*
X239790924Y-111153717D01*
X239692430Y-111006310D01*
X239624586Y-110842520D01*
X239590000Y-110668642D01*
X239590000Y-110491358D01*
X239624586Y-110317480D01*
X239692430Y-110153690D01*
X239790924Y-110006283D01*
X239916283Y-109880924D01*
X240063690Y-109782430D01*
X240227480Y-109714586D01*
X240401356Y-109680000D01*
X240578644Y-109680000D01*
X240752520Y-109714586D01*
G37*
G36*
X238212520Y-109714586D02*
G01*
X238376310Y-109782430D01*
X238523717Y-109880924D01*
X238649076Y-110006283D01*
X238747570Y-110153690D01*
X238815414Y-110317480D01*
X238850000Y-110491358D01*
X238850000Y-110668642D01*
X238815414Y-110842520D01*
X238747570Y-111006310D01*
X238649076Y-111153717D01*
X238523717Y-111279076D01*
X238376310Y-111377570D01*
X238376309Y-111377571D01*
X238376308Y-111377571D01*
X238212520Y-111445414D01*
X238038644Y-111480000D01*
X237861356Y-111480000D01*
X237687480Y-111445414D01*
X237523692Y-111377571D01*
X237523691Y-111377571D01*
X237523690Y-111377570D01*
X237376283Y-111279076D01*
X237250924Y-111153717D01*
X237152430Y-111006310D01*
X237084586Y-110842520D01*
X237050000Y-110668642D01*
X237050000Y-110491358D01*
X237084586Y-110317480D01*
X237152430Y-110153690D01*
X237250924Y-110006283D01*
X237376283Y-109880924D01*
X237523690Y-109782430D01*
X237687480Y-109714586D01*
X237861356Y-109680000D01*
X238038644Y-109680000D01*
X238212520Y-109714586D01*
G37*
G36*
X243292520Y-109714586D02*
G01*
X243456310Y-109782430D01*
X243603717Y-109880924D01*
X243729076Y-110006283D01*
X243827570Y-110153690D01*
X243895414Y-110317480D01*
X243930000Y-110491358D01*
X243930000Y-110668642D01*
X243895414Y-110842520D01*
X243827570Y-111006310D01*
X243729076Y-111153717D01*
X243603717Y-111279076D01*
X243456310Y-111377570D01*
X243456309Y-111377571D01*
X243456308Y-111377571D01*
X243292520Y-111445414D01*
X243118644Y-111480000D01*
X242941356Y-111480000D01*
X242767480Y-111445414D01*
X242603692Y-111377571D01*
X242603691Y-111377571D01*
X242603690Y-111377570D01*
X242456283Y-111279076D01*
X242330924Y-111153717D01*
X242232430Y-111006310D01*
X242164586Y-110842520D01*
X242130000Y-110668642D01*
X242130000Y-110491358D01*
X242164586Y-110317480D01*
X242232430Y-110153690D01*
X242330924Y-110006283D01*
X242456283Y-109880924D01*
X242603690Y-109782430D01*
X242767480Y-109714586D01*
X242941356Y-109680000D01*
X243118644Y-109680000D01*
X243292520Y-109714586D01*
G37*
G36*
X234271343Y-109312706D02*
G01*
X234291863Y-109318931D01*
X234310776Y-109329040D01*
X234327354Y-109342646D01*
X234340960Y-109359224D01*
X234351069Y-109378137D01*
X234357294Y-109398657D01*
X234360000Y-109426138D01*
X234360000Y-109883862D01*
X234357294Y-109911343D01*
X234351069Y-109931863D01*
X234340960Y-109950776D01*
X234327354Y-109967354D01*
X234310776Y-109980960D01*
X234291863Y-109991069D01*
X234271343Y-109997294D01*
X234243862Y-110000000D01*
X233736138Y-110000000D01*
X233708657Y-109997294D01*
X233688137Y-109991069D01*
X233669224Y-109980960D01*
X233652646Y-109967354D01*
X233639040Y-109950776D01*
X233628931Y-109931863D01*
X233622706Y-109911343D01*
X233620000Y-109883862D01*
X233620000Y-109426138D01*
X233622706Y-109398657D01*
X233628931Y-109378137D01*
X233639040Y-109359224D01*
X233652646Y-109342646D01*
X233669224Y-109329040D01*
X233688137Y-109318931D01*
X233708657Y-109312706D01*
X233736138Y-109310000D01*
X234243862Y-109310000D01*
X234271343Y-109312706D01*
G37*
G36*
X234271343Y-108342706D02*
G01*
X234291863Y-108348931D01*
X234310776Y-108359040D01*
X234327354Y-108372646D01*
X234340960Y-108389224D01*
X234351069Y-108408137D01*
X234357294Y-108428657D01*
X234360000Y-108456138D01*
X234360000Y-108913862D01*
X234357294Y-108941343D01*
X234351069Y-108961863D01*
X234340960Y-108980776D01*
X234327354Y-108997354D01*
X234310776Y-109010960D01*
X234291863Y-109021069D01*
X234271343Y-109027294D01*
X234243862Y-109030000D01*
X233736138Y-109030000D01*
X233708657Y-109027294D01*
X233688137Y-109021069D01*
X233669224Y-109010960D01*
X233652646Y-108997354D01*
X233639040Y-108980776D01*
X233628931Y-108961863D01*
X233622706Y-108941343D01*
X233620000Y-108913862D01*
X233620000Y-108456138D01*
X233622706Y-108428657D01*
X233628931Y-108408137D01*
X233639040Y-108389224D01*
X233652646Y-108372646D01*
X233669224Y-108359040D01*
X233688137Y-108348931D01*
X233708657Y-108342706D01*
X233736138Y-108340000D01*
X234243862Y-108340000D01*
X234271343Y-108342706D01*
G37*
G36*
X220355998Y-107073280D02*
G01*
X220367423Y-107074405D01*
X220404380Y-107085616D01*
X220489948Y-107111573D01*
X220602868Y-107171930D01*
X220701843Y-107253157D01*
X220783070Y-107352132D01*
X220843427Y-107465052D01*
X220880595Y-107587578D01*
X220890000Y-107683068D01*
X220890000Y-108296932D01*
X220884465Y-108353131D01*
X220880595Y-108392423D01*
X220862011Y-108453685D01*
X220843427Y-108514948D01*
X220783070Y-108627868D01*
X220701843Y-108726843D01*
X220602867Y-108808070D01*
X220489947Y-108868427D01*
X220448031Y-108881142D01*
X220367422Y-108905595D01*
X220355997Y-108906720D01*
X220240000Y-108918145D01*
X220124002Y-108906720D01*
X220112577Y-108905595D01*
X220031968Y-108881142D01*
X219990052Y-108868427D01*
X219877132Y-108808070D01*
X219778157Y-108726843D01*
X219696930Y-108627867D01*
X219636573Y-108514947D01*
X219604172Y-108408137D01*
X219599405Y-108392422D01*
X219595122Y-108348931D01*
X219590000Y-108296931D01*
X219590000Y-107683068D01*
X219599405Y-107587578D01*
X219636573Y-107465052D01*
X219696930Y-107352132D01*
X219778158Y-107253157D01*
X219877133Y-107171930D01*
X219990053Y-107111573D01*
X220075621Y-107085616D01*
X220112578Y-107074405D01*
X220124003Y-107073280D01*
X220240000Y-107061855D01*
X220355998Y-107073280D01*
G37*
G36*
X222730578Y-107069396D02*
G01*
X222767591Y-107080624D01*
X222801705Y-107098858D01*
X222831604Y-107123396D01*
X222856142Y-107153295D01*
X222874376Y-107187409D01*
X222885604Y-107224422D01*
X222890000Y-107269057D01*
X222890000Y-108710943D01*
X222885604Y-108755578D01*
X222874376Y-108792591D01*
X222856142Y-108826705D01*
X222831604Y-108856604D01*
X222801705Y-108881142D01*
X222767591Y-108899376D01*
X222730578Y-108910604D01*
X222685943Y-108915000D01*
X221794057Y-108915000D01*
X221749422Y-108910604D01*
X221712409Y-108899376D01*
X221678295Y-108881142D01*
X221648396Y-108856604D01*
X221623858Y-108826705D01*
X221605624Y-108792591D01*
X221594396Y-108755578D01*
X221590000Y-108710943D01*
X221590000Y-107269057D01*
X221594396Y-107224422D01*
X221605624Y-107187409D01*
X221623858Y-107153295D01*
X221648396Y-107123396D01*
X221678295Y-107098858D01*
X221712409Y-107080624D01*
X221749422Y-107069396D01*
X221794057Y-107065000D01*
X222685943Y-107065000D01*
X222730578Y-107069396D01*
G37*
G36*
X245980000Y-107890000D02*
G01*
X245080000Y-107890000D01*
X245080000Y-107290000D01*
X245980000Y-107290000D01*
X245980000Y-107890000D01*
G37*
G36*
X247180000Y-107890000D02*
G01*
X246280000Y-107890000D01*
X246280000Y-107290000D01*
X247180000Y-107290000D01*
X247180000Y-107890000D01*
G37*
G36*
X247180000Y-106990000D02*
G01*
X246280000Y-106990000D01*
X246280000Y-106390000D01*
X247180000Y-106390000D01*
X247180000Y-106990000D01*
G37*
G36*
X245980000Y-106990000D02*
G01*
X245080000Y-106990000D01*
X245080000Y-106390000D01*
X245980000Y-106390000D01*
X245980000Y-106990000D01*
G37*
G36*
X248251343Y-105447706D02*
G01*
X248271863Y-105453931D01*
X248290776Y-105464040D01*
X248307354Y-105477646D01*
X248320960Y-105494224D01*
X248331069Y-105513137D01*
X248337294Y-105533657D01*
X248340000Y-105561138D01*
X248340000Y-106018862D01*
X248337294Y-106046343D01*
X248331069Y-106066863D01*
X248320960Y-106085776D01*
X248307354Y-106102354D01*
X248290776Y-106115960D01*
X248271863Y-106126069D01*
X248251343Y-106132294D01*
X248223862Y-106135000D01*
X247716138Y-106135000D01*
X247688657Y-106132294D01*
X247668137Y-106126069D01*
X247649224Y-106115960D01*
X247632646Y-106102354D01*
X247619040Y-106085776D01*
X247608931Y-106066863D01*
X247602706Y-106046343D01*
X247600000Y-106018862D01*
X247600000Y-105561138D01*
X247602706Y-105533657D01*
X247608931Y-105513137D01*
X247619040Y-105494224D01*
X247632646Y-105477646D01*
X247649224Y-105464040D01*
X247668137Y-105453931D01*
X247688657Y-105447706D01*
X247716138Y-105445000D01*
X248223862Y-105445000D01*
X248251343Y-105447706D01*
G37*
G36*
X245980000Y-106090000D02*
G01*
X245080000Y-106090000D01*
X245080000Y-105490000D01*
X245980000Y-105490000D01*
X245980000Y-106090000D01*
G37*
G36*
X247180000Y-106090000D02*
G01*
X246280000Y-106090000D01*
X246280000Y-105490000D01*
X247180000Y-105490000D01*
X247180000Y-106090000D01*
G37*
G36*
X245980000Y-105190000D02*
G01*
X245080000Y-105190000D01*
X245080000Y-104590000D01*
X245980000Y-104590000D01*
X245980000Y-105190000D01*
G37*
G36*
X247180000Y-105190000D02*
G01*
X246280000Y-105190000D01*
X246280000Y-104590000D01*
X247180000Y-104590000D01*
X247180000Y-105190000D01*
G37*
G36*
X248251343Y-104477706D02*
G01*
X248271863Y-104483931D01*
X248290776Y-104494040D01*
X248307354Y-104507646D01*
X248320960Y-104524224D01*
X248331069Y-104543137D01*
X248337294Y-104563657D01*
X248340000Y-104591138D01*
X248340000Y-105048862D01*
X248337294Y-105076343D01*
X248331069Y-105096863D01*
X248320960Y-105115776D01*
X248307354Y-105132354D01*
X248290776Y-105145960D01*
X248271863Y-105156069D01*
X248251343Y-105162294D01*
X248223862Y-105165000D01*
X247716138Y-105165000D01*
X247688657Y-105162294D01*
X247668137Y-105156069D01*
X247649224Y-105145960D01*
X247632646Y-105132354D01*
X247619040Y-105115776D01*
X247608931Y-105096863D01*
X247602706Y-105076343D01*
X247600000Y-105048862D01*
X247600000Y-104591138D01*
X247602706Y-104563657D01*
X247608931Y-104543137D01*
X247619040Y-104524224D01*
X247632646Y-104507646D01*
X247649224Y-104494040D01*
X247668137Y-104483931D01*
X247688657Y-104477706D01*
X247716138Y-104475000D01*
X248223862Y-104475000D01*
X248251343Y-104477706D01*
G37*
G36*
X234941343Y-103452706D02*
G01*
X234961863Y-103458931D01*
X234980776Y-103469040D01*
X234997354Y-103482646D01*
X235010960Y-103499224D01*
X235021069Y-103518137D01*
X235027294Y-103538657D01*
X235030000Y-103566138D01*
X235030000Y-104073862D01*
X235027294Y-104101343D01*
X235021069Y-104121863D01*
X235010960Y-104140776D01*
X234997354Y-104157354D01*
X234980776Y-104170960D01*
X234961863Y-104181069D01*
X234941343Y-104187294D01*
X234913862Y-104190000D01*
X234456138Y-104190000D01*
X234428657Y-104187294D01*
X234408137Y-104181069D01*
X234389224Y-104170960D01*
X234372646Y-104157354D01*
X234359040Y-104140776D01*
X234348931Y-104121863D01*
X234342706Y-104101343D01*
X234340000Y-104073862D01*
X234340000Y-103566138D01*
X234342706Y-103538657D01*
X234348931Y-103518137D01*
X234359040Y-103499224D01*
X234372646Y-103482646D01*
X234389224Y-103469040D01*
X234408137Y-103458931D01*
X234428657Y-103452706D01*
X234456138Y-103450000D01*
X234913862Y-103450000D01*
X234941343Y-103452706D01*
G37*
G36*
X235911343Y-103452706D02*
G01*
X235931863Y-103458931D01*
X235950776Y-103469040D01*
X235967354Y-103482646D01*
X235980960Y-103499224D01*
X235991069Y-103518137D01*
X235997294Y-103538657D01*
X236000000Y-103566138D01*
X236000000Y-104073862D01*
X235997294Y-104101343D01*
X235991069Y-104121863D01*
X235980960Y-104140776D01*
X235967354Y-104157354D01*
X235950776Y-104170960D01*
X235931863Y-104181069D01*
X235911343Y-104187294D01*
X235883862Y-104190000D01*
X235426138Y-104190000D01*
X235398657Y-104187294D01*
X235378137Y-104181069D01*
X235359224Y-104170960D01*
X235342646Y-104157354D01*
X235329040Y-104140776D01*
X235318931Y-104121863D01*
X235312706Y-104101343D01*
X235310000Y-104073862D01*
X235310000Y-103566138D01*
X235312706Y-103538657D01*
X235318931Y-103518137D01*
X235329040Y-103499224D01*
X235342646Y-103482646D01*
X235359224Y-103469040D01*
X235378137Y-103458931D01*
X235398657Y-103452706D01*
X235426138Y-103450000D01*
X235883862Y-103450000D01*
X235911343Y-103452706D01*
G37*
G36*
X242750000Y-104140000D02*
G01*
X240650000Y-104140000D01*
X240650000Y-99540000D01*
X242750000Y-99540000D01*
X242750000Y-104140000D01*
G37*
G36*
X237538991Y-102916575D02*
G01*
X237572879Y-102926855D01*
X237604112Y-102943550D01*
X237631486Y-102966014D01*
X237653950Y-102993388D01*
X237670645Y-103024621D01*
X237680925Y-103058509D01*
X237685000Y-103099888D01*
X237685000Y-103700112D01*
X237680925Y-103741491D01*
X237670645Y-103775379D01*
X237653950Y-103806612D01*
X237631486Y-103833986D01*
X237604112Y-103856450D01*
X237572879Y-103873145D01*
X237538991Y-103883425D01*
X237497612Y-103887500D01*
X236822388Y-103887500D01*
X236781009Y-103883425D01*
X236747121Y-103873145D01*
X236715888Y-103856450D01*
X236688514Y-103833986D01*
X236666050Y-103806612D01*
X236649355Y-103775379D01*
X236639075Y-103741491D01*
X236635000Y-103700112D01*
X236635000Y-103099888D01*
X236639075Y-103058509D01*
X236649355Y-103024621D01*
X236666050Y-102993388D01*
X236688514Y-102966014D01*
X236715888Y-102943550D01*
X236747121Y-102926855D01*
X236781009Y-102916575D01*
X236822388Y-102912500D01*
X237497612Y-102912500D01*
X237538991Y-102916575D01*
G37*
G36*
X217348991Y-101929075D02*
G01*
X217382879Y-101939355D01*
X217414112Y-101956050D01*
X217441486Y-101978514D01*
X217463950Y-102005888D01*
X217480645Y-102037121D01*
X217490925Y-102071009D01*
X217495000Y-102112388D01*
X217495000Y-102787612D01*
X217490925Y-102828991D01*
X217480645Y-102862879D01*
X217463950Y-102894112D01*
X217441486Y-102921486D01*
X217414112Y-102943950D01*
X217382879Y-102960645D01*
X217348991Y-102970925D01*
X217307612Y-102975000D01*
X216707388Y-102975000D01*
X216666009Y-102970925D01*
X216632121Y-102960645D01*
X216600888Y-102943950D01*
X216573514Y-102921486D01*
X216551050Y-102894112D01*
X216534355Y-102862879D01*
X216524075Y-102828991D01*
X216520000Y-102787612D01*
X216520000Y-102112388D01*
X216524075Y-102071009D01*
X216534355Y-102037121D01*
X216551050Y-102005888D01*
X216573514Y-101978514D01*
X216600888Y-101956050D01*
X216632121Y-101939355D01*
X216666009Y-101929075D01*
X216707388Y-101925000D01*
X217307612Y-101925000D01*
X217348991Y-101929075D01*
G37*
G36*
X215773991Y-101929075D02*
G01*
X215807879Y-101939355D01*
X215839112Y-101956050D01*
X215866486Y-101978514D01*
X215888950Y-102005888D01*
X215905645Y-102037121D01*
X215915925Y-102071009D01*
X215920000Y-102112388D01*
X215920000Y-102787612D01*
X215915925Y-102828991D01*
X215905645Y-102862879D01*
X215888950Y-102894112D01*
X215866486Y-102921486D01*
X215839112Y-102943950D01*
X215807879Y-102960645D01*
X215773991Y-102970925D01*
X215732612Y-102975000D01*
X215132388Y-102975000D01*
X215091009Y-102970925D01*
X215057121Y-102960645D01*
X215025888Y-102943950D01*
X214998514Y-102921486D01*
X214976050Y-102894112D01*
X214959355Y-102862879D01*
X214949075Y-102828991D01*
X214945000Y-102787612D01*
X214945000Y-102112388D01*
X214949075Y-102071009D01*
X214959355Y-102037121D01*
X214976050Y-102005888D01*
X214998514Y-101978514D01*
X215025888Y-101956050D01*
X215057121Y-101939355D01*
X215091009Y-101929075D01*
X215132388Y-101925000D01*
X215732612Y-101925000D01*
X215773991Y-101929075D01*
G37*
G36*
X227821343Y-102222706D02*
G01*
X227841863Y-102228931D01*
X227860776Y-102239040D01*
X227877354Y-102252646D01*
X227890960Y-102269224D01*
X227901069Y-102288137D01*
X227907294Y-102308657D01*
X227910000Y-102336138D01*
X227910000Y-102793862D01*
X227907294Y-102821343D01*
X227901069Y-102841863D01*
X227890960Y-102860776D01*
X227877354Y-102877354D01*
X227860776Y-102890960D01*
X227841863Y-102901069D01*
X227821343Y-102907294D01*
X227793862Y-102910000D01*
X227286138Y-102910000D01*
X227258657Y-102907294D01*
X227238137Y-102901069D01*
X227219224Y-102890960D01*
X227202646Y-102877354D01*
X227189040Y-102860776D01*
X227178931Y-102841863D01*
X227172706Y-102821343D01*
X227170000Y-102793862D01*
X227170000Y-102336138D01*
X227172706Y-102308657D01*
X227178931Y-102288137D01*
X227189040Y-102269224D01*
X227202646Y-102252646D01*
X227219224Y-102239040D01*
X227238137Y-102228931D01*
X227258657Y-102222706D01*
X227286138Y-102220000D01*
X227793862Y-102220000D01*
X227821343Y-102222706D01*
G37*
G36*
X229359696Y-101193813D02*
G01*
X229366620Y-101195913D01*
X229381075Y-101203640D01*
X229403713Y-101213017D01*
X229427746Y-101217798D01*
X229452251Y-101217798D01*
X229476284Y-101213018D01*
X229498925Y-101203640D01*
X229513380Y-101195913D01*
X229520304Y-101193813D01*
X229533638Y-101192500D01*
X229846362Y-101192500D01*
X229859696Y-101193813D01*
X229866620Y-101195913D01*
X229881075Y-101203640D01*
X229903713Y-101213017D01*
X229927746Y-101217798D01*
X229952251Y-101217798D01*
X229976284Y-101213018D01*
X229998925Y-101203640D01*
X230013380Y-101195913D01*
X230020304Y-101193813D01*
X230033638Y-101192500D01*
X230346362Y-101192500D01*
X230359696Y-101193813D01*
X230366620Y-101195913D01*
X230381075Y-101203640D01*
X230403713Y-101213017D01*
X230427746Y-101217798D01*
X230452251Y-101217798D01*
X230476284Y-101213018D01*
X230498925Y-101203640D01*
X230513380Y-101195913D01*
X230520304Y-101193813D01*
X230533638Y-101192500D01*
X230846362Y-101192500D01*
X230859696Y-101193813D01*
X230866620Y-101195913D01*
X230881075Y-101203640D01*
X230903713Y-101213017D01*
X230927746Y-101217798D01*
X230952251Y-101217798D01*
X230976284Y-101213018D01*
X230998925Y-101203640D01*
X231013380Y-101195913D01*
X231020304Y-101193813D01*
X231033638Y-101192500D01*
X231346362Y-101192500D01*
X231359696Y-101193813D01*
X231366620Y-101195913D01*
X231381075Y-101203640D01*
X231403713Y-101213017D01*
X231427746Y-101217798D01*
X231452251Y-101217798D01*
X231476284Y-101213018D01*
X231498925Y-101203640D01*
X231513380Y-101195913D01*
X231520304Y-101193813D01*
X231533638Y-101192500D01*
X231846362Y-101192500D01*
X231859696Y-101193813D01*
X231866620Y-101195913D01*
X231881075Y-101203640D01*
X231903713Y-101213017D01*
X231927746Y-101217798D01*
X231952251Y-101217798D01*
X231976284Y-101213018D01*
X231998925Y-101203640D01*
X232013380Y-101195913D01*
X232020304Y-101193813D01*
X232033638Y-101192500D01*
X232346362Y-101192500D01*
X232359696Y-101193813D01*
X232366620Y-101195913D01*
X232381075Y-101203640D01*
X232403713Y-101213017D01*
X232427746Y-101217798D01*
X232452251Y-101217798D01*
X232476284Y-101213018D01*
X232498925Y-101203640D01*
X232513380Y-101195913D01*
X232520304Y-101193813D01*
X232533638Y-101192500D01*
X232846362Y-101192500D01*
X232859696Y-101193813D01*
X232866620Y-101195913D01*
X232881075Y-101203640D01*
X232903713Y-101213017D01*
X232927746Y-101217798D01*
X232952251Y-101217798D01*
X232976284Y-101213018D01*
X232998925Y-101203640D01*
X233013380Y-101195913D01*
X233020304Y-101193813D01*
X233033638Y-101192500D01*
X233346362Y-101192500D01*
X233359696Y-101193813D01*
X233366620Y-101195913D01*
X233381075Y-101203640D01*
X233403713Y-101213017D01*
X233427746Y-101217798D01*
X233452251Y-101217798D01*
X233476284Y-101213018D01*
X233498925Y-101203640D01*
X233513380Y-101195913D01*
X233520304Y-101193813D01*
X233533638Y-101192500D01*
X233846362Y-101192500D01*
X233859696Y-101193813D01*
X233866620Y-101195913D01*
X233881075Y-101203640D01*
X233903713Y-101213017D01*
X233927746Y-101217798D01*
X233952251Y-101217798D01*
X233976284Y-101213018D01*
X233998925Y-101203640D01*
X234013380Y-101195913D01*
X234020304Y-101193813D01*
X234033638Y-101192500D01*
X234346362Y-101192500D01*
X234359696Y-101193813D01*
X234366620Y-101195913D01*
X234381075Y-101203640D01*
X234403713Y-101213017D01*
X234427746Y-101217798D01*
X234452251Y-101217798D01*
X234476284Y-101213018D01*
X234498925Y-101203640D01*
X234513380Y-101195913D01*
X234520304Y-101193813D01*
X234533638Y-101192500D01*
X234846362Y-101192500D01*
X234859696Y-101193813D01*
X234866620Y-101195913D01*
X234872999Y-101199323D01*
X234878589Y-101203911D01*
X234883177Y-101209501D01*
X234886587Y-101215880D01*
X234888687Y-101222804D01*
X234890000Y-101236138D01*
X234890000Y-102723862D01*
X234888687Y-102737196D01*
X234886587Y-102744120D01*
X234883177Y-102750499D01*
X234878589Y-102756089D01*
X234872999Y-102760677D01*
X234866620Y-102764087D01*
X234859696Y-102766187D01*
X234846362Y-102767500D01*
X234533638Y-102767500D01*
X234520304Y-102766187D01*
X234513380Y-102764087D01*
X234498925Y-102756360D01*
X234476287Y-102746983D01*
X234452254Y-102742202D01*
X234427749Y-102742202D01*
X234403716Y-102746982D01*
X234381075Y-102756360D01*
X234366620Y-102764087D01*
X234359696Y-102766187D01*
X234346362Y-102767500D01*
X234033638Y-102767500D01*
X234020304Y-102766187D01*
X234013380Y-102764087D01*
X233998925Y-102756360D01*
X233976287Y-102746983D01*
X233952254Y-102742202D01*
X233927749Y-102742202D01*
X233903716Y-102746982D01*
X233881075Y-102756360D01*
X233866620Y-102764087D01*
X233859696Y-102766187D01*
X233846362Y-102767500D01*
X233533638Y-102767500D01*
X233520304Y-102766187D01*
X233513380Y-102764087D01*
X233498925Y-102756360D01*
X233476287Y-102746983D01*
X233452254Y-102742202D01*
X233427749Y-102742202D01*
X233403716Y-102746982D01*
X233381075Y-102756360D01*
X233366620Y-102764087D01*
X233359696Y-102766187D01*
X233346362Y-102767500D01*
X233033638Y-102767500D01*
X233020304Y-102766187D01*
X233013380Y-102764087D01*
X232998925Y-102756360D01*
X232976287Y-102746983D01*
X232952254Y-102742202D01*
X232927749Y-102742202D01*
X232903716Y-102746982D01*
X232881075Y-102756360D01*
X232866620Y-102764087D01*
X232859696Y-102766187D01*
X232846362Y-102767500D01*
X232533638Y-102767500D01*
X232520304Y-102766187D01*
X232513380Y-102764087D01*
X232498925Y-102756360D01*
X232476287Y-102746983D01*
X232452254Y-102742202D01*
X232427749Y-102742202D01*
X232403716Y-102746982D01*
X232381075Y-102756360D01*
X232366620Y-102764087D01*
X232359696Y-102766187D01*
X232346362Y-102767500D01*
X232033638Y-102767500D01*
X232020304Y-102766187D01*
X232013380Y-102764087D01*
X231998925Y-102756360D01*
X231976287Y-102746983D01*
X231952254Y-102742202D01*
X231927749Y-102742202D01*
X231903716Y-102746982D01*
X231881075Y-102756360D01*
X231866620Y-102764087D01*
X231859696Y-102766187D01*
X231846362Y-102767500D01*
X231533638Y-102767500D01*
X231520304Y-102766187D01*
X231513380Y-102764087D01*
X231498925Y-102756360D01*
X231476287Y-102746983D01*
X231452254Y-102742202D01*
X231427749Y-102742202D01*
X231403716Y-102746982D01*
X231381075Y-102756360D01*
X231366620Y-102764087D01*
X231359696Y-102766187D01*
X231346362Y-102767500D01*
X231033638Y-102767500D01*
X231020304Y-102766187D01*
X231013380Y-102764087D01*
X230998925Y-102756360D01*
X230976287Y-102746983D01*
X230952254Y-102742202D01*
X230927749Y-102742202D01*
X230903716Y-102746982D01*
X230881075Y-102756360D01*
X230866620Y-102764087D01*
X230859696Y-102766187D01*
X230846362Y-102767500D01*
X230533638Y-102767500D01*
X230520304Y-102766187D01*
X230513380Y-102764087D01*
X230498925Y-102756360D01*
X230476287Y-102746983D01*
X230452254Y-102742202D01*
X230427749Y-102742202D01*
X230403716Y-102746982D01*
X230381075Y-102756360D01*
X230366620Y-102764087D01*
X230359696Y-102766187D01*
X230346362Y-102767500D01*
X230033638Y-102767500D01*
X230020304Y-102766187D01*
X230013380Y-102764087D01*
X229998925Y-102756360D01*
X229976287Y-102746983D01*
X229952254Y-102742202D01*
X229927749Y-102742202D01*
X229903716Y-102746982D01*
X229881075Y-102756360D01*
X229866620Y-102764087D01*
X229859696Y-102766187D01*
X229846362Y-102767500D01*
X229533638Y-102767500D01*
X229520304Y-102766187D01*
X229513380Y-102764087D01*
X229498925Y-102756360D01*
X229476287Y-102746983D01*
X229452254Y-102742202D01*
X229427749Y-102742202D01*
X229403716Y-102746982D01*
X229381075Y-102756360D01*
X229366620Y-102764087D01*
X229359696Y-102766187D01*
X229346362Y-102767500D01*
X229033638Y-102767500D01*
X229020304Y-102766187D01*
X229013380Y-102764087D01*
X229007001Y-102760677D01*
X229001411Y-102756089D01*
X228996823Y-102750499D01*
X228993413Y-102744120D01*
X228991313Y-102737196D01*
X228990000Y-102723862D01*
X228990000Y-101236138D01*
X228991313Y-101222804D01*
X228993413Y-101215880D01*
X228996823Y-101209501D01*
X229001411Y-101203911D01*
X229007001Y-101199323D01*
X229013380Y-101195913D01*
X229020304Y-101193813D01*
X229033638Y-101192500D01*
X229346362Y-101192500D01*
X229359696Y-101193813D01*
G37*
G36*
X237538991Y-101341575D02*
G01*
X237572879Y-101351855D01*
X237604112Y-101368550D01*
X237631486Y-101391014D01*
X237653950Y-101418388D01*
X237670645Y-101449621D01*
X237680925Y-101483509D01*
X237685000Y-101524888D01*
X237685000Y-102125112D01*
X237680925Y-102166491D01*
X237670645Y-102200379D01*
X237653950Y-102231612D01*
X237631486Y-102258986D01*
X237604112Y-102281450D01*
X237572879Y-102298145D01*
X237538991Y-102308425D01*
X237497612Y-102312500D01*
X236822388Y-102312500D01*
X236781009Y-102308425D01*
X236747121Y-102298145D01*
X236715888Y-102281450D01*
X236688514Y-102258986D01*
X236666050Y-102231612D01*
X236649355Y-102200379D01*
X236639075Y-102166491D01*
X236635000Y-102125112D01*
X236635000Y-101524888D01*
X236639075Y-101483509D01*
X236649355Y-101449621D01*
X236666050Y-101418388D01*
X236688514Y-101391014D01*
X236715888Y-101368550D01*
X236747121Y-101351855D01*
X236781009Y-101341575D01*
X236822388Y-101337500D01*
X237497612Y-101337500D01*
X237538991Y-101341575D01*
G37*
G36*
X227821343Y-101252706D02*
G01*
X227841863Y-101258931D01*
X227860776Y-101269040D01*
X227877354Y-101282646D01*
X227890960Y-101299224D01*
X227901069Y-101318137D01*
X227907294Y-101338657D01*
X227910000Y-101366138D01*
X227910000Y-101823862D01*
X227907294Y-101851343D01*
X227901069Y-101871863D01*
X227890960Y-101890776D01*
X227877354Y-101907354D01*
X227860776Y-101920960D01*
X227841863Y-101931069D01*
X227821343Y-101937294D01*
X227793862Y-101940000D01*
X227286138Y-101940000D01*
X227258657Y-101937294D01*
X227238137Y-101931069D01*
X227219224Y-101920960D01*
X227202646Y-101907354D01*
X227189040Y-101890776D01*
X227178931Y-101871863D01*
X227172706Y-101851343D01*
X227170000Y-101823862D01*
X227170000Y-101366138D01*
X227172706Y-101338657D01*
X227178931Y-101318137D01*
X227189040Y-101299224D01*
X227202646Y-101282646D01*
X227219224Y-101269040D01*
X227238137Y-101258931D01*
X227258657Y-101252706D01*
X227286138Y-101250000D01*
X227793862Y-101250000D01*
X227821343Y-101252706D01*
G37*
G36*
X238821343Y-100242706D02*
G01*
X238841863Y-100248931D01*
X238860776Y-100259040D01*
X238877354Y-100272646D01*
X238890960Y-100289224D01*
X238901069Y-100308137D01*
X238907294Y-100328657D01*
X238910000Y-100356138D01*
X238910000Y-100813862D01*
X238907294Y-100841343D01*
X238901069Y-100861863D01*
X238890960Y-100880776D01*
X238877354Y-100897354D01*
X238860776Y-100910960D01*
X238841863Y-100921069D01*
X238821343Y-100927294D01*
X238793862Y-100930000D01*
X238286138Y-100930000D01*
X238258657Y-100927294D01*
X238238137Y-100921069D01*
X238219224Y-100910960D01*
X238202646Y-100897354D01*
X238189040Y-100880776D01*
X238178931Y-100861863D01*
X238172706Y-100841343D01*
X238170000Y-100813862D01*
X238170000Y-100356138D01*
X238172706Y-100328657D01*
X238178931Y-100308137D01*
X238189040Y-100289224D01*
X238202646Y-100272646D01*
X238219224Y-100259040D01*
X238238137Y-100248931D01*
X238258657Y-100242706D01*
X238286138Y-100240000D01*
X238793862Y-100240000D01*
X238821343Y-100242706D01*
G37*
G36*
X228534696Y-94868813D02*
G01*
X228541620Y-94870913D01*
X228547999Y-94874323D01*
X228553589Y-94878911D01*
X228558177Y-94884501D01*
X228561587Y-94890880D01*
X228563687Y-94897804D01*
X228565000Y-94911138D01*
X228565000Y-95223862D01*
X228563687Y-95237196D01*
X228561587Y-95244120D01*
X228553860Y-95258575D01*
X228544483Y-95281213D01*
X228539702Y-95305246D01*
X228539702Y-95329751D01*
X228544482Y-95353784D01*
X228553860Y-95376425D01*
X228561587Y-95390880D01*
X228563687Y-95397804D01*
X228565000Y-95411138D01*
X228565000Y-95723862D01*
X228563687Y-95737196D01*
X228561587Y-95744120D01*
X228553860Y-95758575D01*
X228544483Y-95781213D01*
X228539702Y-95805246D01*
X228539702Y-95829751D01*
X228544482Y-95853784D01*
X228553860Y-95876425D01*
X228561587Y-95890880D01*
X228563687Y-95897804D01*
X228565000Y-95911138D01*
X228565000Y-96223862D01*
X228563687Y-96237196D01*
X228561587Y-96244120D01*
X228553860Y-96258575D01*
X228544483Y-96281213D01*
X228539702Y-96305246D01*
X228539702Y-96329751D01*
X228544482Y-96353784D01*
X228553860Y-96376425D01*
X228561587Y-96390880D01*
X228563687Y-96397804D01*
X228565000Y-96411138D01*
X228565000Y-96723862D01*
X228563687Y-96737196D01*
X228561587Y-96744120D01*
X228553860Y-96758575D01*
X228544483Y-96781213D01*
X228539702Y-96805246D01*
X228539702Y-96829751D01*
X228544482Y-96853784D01*
X228553860Y-96876425D01*
X228561587Y-96890880D01*
X228563687Y-96897804D01*
X228565000Y-96911138D01*
X228565000Y-97223862D01*
X228563687Y-97237196D01*
X228561587Y-97244120D01*
X228553860Y-97258575D01*
X228544483Y-97281213D01*
X228539702Y-97305246D01*
X228539702Y-97329751D01*
X228544482Y-97353784D01*
X228553860Y-97376425D01*
X228561587Y-97390880D01*
X228563687Y-97397804D01*
X228565000Y-97411138D01*
X228565000Y-97723862D01*
X228563687Y-97737196D01*
X228561587Y-97744120D01*
X228553860Y-97758575D01*
X228544483Y-97781213D01*
X228539702Y-97805246D01*
X228539702Y-97829751D01*
X228544482Y-97853784D01*
X228553860Y-97876425D01*
X228561587Y-97890880D01*
X228563687Y-97897804D01*
X228565000Y-97911138D01*
X228565000Y-98223862D01*
X228563687Y-98237196D01*
X228561587Y-98244120D01*
X228553860Y-98258575D01*
X228544483Y-98281213D01*
X228539702Y-98305246D01*
X228539702Y-98329751D01*
X228544482Y-98353784D01*
X228553860Y-98376425D01*
X228561587Y-98390880D01*
X228563687Y-98397804D01*
X228565000Y-98411138D01*
X228565000Y-98723862D01*
X228563687Y-98737196D01*
X228561587Y-98744120D01*
X228553860Y-98758575D01*
X228544483Y-98781213D01*
X228539702Y-98805246D01*
X228539702Y-98829751D01*
X228544482Y-98853784D01*
X228553860Y-98876425D01*
X228561587Y-98890880D01*
X228563687Y-98897804D01*
X228565000Y-98911138D01*
X228565000Y-99223862D01*
X228563687Y-99237196D01*
X228561587Y-99244120D01*
X228553860Y-99258575D01*
X228544483Y-99281213D01*
X228539702Y-99305246D01*
X228539702Y-99329751D01*
X228544482Y-99353784D01*
X228553860Y-99376425D01*
X228561587Y-99390880D01*
X228563687Y-99397804D01*
X228565000Y-99411138D01*
X228565000Y-99723862D01*
X228563687Y-99737196D01*
X228561587Y-99744120D01*
X228553860Y-99758575D01*
X228544483Y-99781213D01*
X228539702Y-99805246D01*
X228539702Y-99829751D01*
X228544482Y-99853784D01*
X228553860Y-99876425D01*
X228561587Y-99890880D01*
X228563687Y-99897804D01*
X228565000Y-99911138D01*
X228565000Y-100223862D01*
X228563687Y-100237196D01*
X228561587Y-100244120D01*
X228553860Y-100258575D01*
X228544483Y-100281213D01*
X228539702Y-100305246D01*
X228539702Y-100329751D01*
X228544482Y-100353784D01*
X228553860Y-100376425D01*
X228561587Y-100390880D01*
X228563687Y-100397804D01*
X228565000Y-100411138D01*
X228565000Y-100723862D01*
X228563687Y-100737196D01*
X228561587Y-100744120D01*
X228558177Y-100750499D01*
X228553589Y-100756089D01*
X228547999Y-100760677D01*
X228541620Y-100764087D01*
X228534696Y-100766187D01*
X228521362Y-100767500D01*
X227033638Y-100767500D01*
X227020304Y-100766187D01*
X227013380Y-100764087D01*
X227007001Y-100760677D01*
X227001411Y-100756089D01*
X226996823Y-100750499D01*
X226993413Y-100744120D01*
X226991313Y-100737196D01*
X226990000Y-100723862D01*
X226990000Y-100411138D01*
X226991313Y-100397804D01*
X226993413Y-100390880D01*
X227001140Y-100376425D01*
X227010517Y-100353787D01*
X227015298Y-100329754D01*
X227015298Y-100305249D01*
X227010518Y-100281216D01*
X227001140Y-100258575D01*
X226993413Y-100244120D01*
X226991313Y-100237196D01*
X226990000Y-100223862D01*
X226990000Y-99911138D01*
X226991313Y-99897804D01*
X226993413Y-99890880D01*
X227001140Y-99876425D01*
X227010517Y-99853787D01*
X227015298Y-99829754D01*
X227015298Y-99805249D01*
X227010518Y-99781216D01*
X227001140Y-99758575D01*
X226993413Y-99744120D01*
X226991313Y-99737196D01*
X226990000Y-99723862D01*
X226990000Y-99411138D01*
X226991313Y-99397804D01*
X226993413Y-99390880D01*
X227001140Y-99376425D01*
X227010517Y-99353787D01*
X227015298Y-99329754D01*
X227015298Y-99305249D01*
X227010518Y-99281216D01*
X227001140Y-99258575D01*
X226993413Y-99244120D01*
X226991313Y-99237196D01*
X226990000Y-99223862D01*
X226990000Y-98911138D01*
X226991313Y-98897804D01*
X226993413Y-98890880D01*
X227001140Y-98876425D01*
X227010517Y-98853787D01*
X227015298Y-98829754D01*
X227015298Y-98805249D01*
X227010518Y-98781216D01*
X227001140Y-98758575D01*
X226993413Y-98744120D01*
X226991313Y-98737196D01*
X226990000Y-98723862D01*
X226990000Y-98411138D01*
X226991313Y-98397804D01*
X226993413Y-98390880D01*
X227001140Y-98376425D01*
X227010517Y-98353787D01*
X227015298Y-98329754D01*
X227015298Y-98305249D01*
X227010518Y-98281216D01*
X227001140Y-98258575D01*
X226993413Y-98244120D01*
X226991313Y-98237196D01*
X226990000Y-98223862D01*
X226990000Y-97911138D01*
X226991313Y-97897804D01*
X226993413Y-97890880D01*
X227001140Y-97876425D01*
X227010517Y-97853787D01*
X227015298Y-97829754D01*
X227015298Y-97805249D01*
X227010518Y-97781216D01*
X227001140Y-97758575D01*
X226993413Y-97744120D01*
X226991313Y-97737196D01*
X226990000Y-97723862D01*
X226990000Y-97411138D01*
X226991313Y-97397804D01*
X226993413Y-97390880D01*
X227001140Y-97376425D01*
X227010517Y-97353787D01*
X227015298Y-97329754D01*
X227015298Y-97305249D01*
X227010518Y-97281216D01*
X227001140Y-97258575D01*
X226993413Y-97244120D01*
X226991313Y-97237196D01*
X226990000Y-97223862D01*
X226990000Y-96911138D01*
X226991313Y-96897804D01*
X226993413Y-96890880D01*
X227001140Y-96876425D01*
X227010517Y-96853787D01*
X227015298Y-96829754D01*
X227015298Y-96805249D01*
X227010518Y-96781216D01*
X227001140Y-96758575D01*
X226993413Y-96744120D01*
X226991313Y-96737196D01*
X226990000Y-96723862D01*
X226990000Y-96411138D01*
X226991313Y-96397804D01*
X226993413Y-96390880D01*
X227001140Y-96376425D01*
X227010517Y-96353787D01*
X227015298Y-96329754D01*
X227015298Y-96305249D01*
X227010518Y-96281216D01*
X227001140Y-96258575D01*
X226993413Y-96244120D01*
X226991313Y-96237196D01*
X226990000Y-96223862D01*
X226990000Y-95911138D01*
X226991313Y-95897804D01*
X226993413Y-95890880D01*
X227001140Y-95876425D01*
X227010517Y-95853787D01*
X227015298Y-95829754D01*
X227015298Y-95805249D01*
X227010518Y-95781216D01*
X227001140Y-95758575D01*
X226993413Y-95744120D01*
X226991313Y-95737196D01*
X226990000Y-95723862D01*
X226990000Y-95411138D01*
X226991313Y-95397804D01*
X226993413Y-95390880D01*
X227001140Y-95376425D01*
X227010517Y-95353787D01*
X227015298Y-95329754D01*
X227015298Y-95305249D01*
X227010518Y-95281216D01*
X227001140Y-95258575D01*
X226993413Y-95244120D01*
X226991313Y-95237196D01*
X226990000Y-95223862D01*
X226990000Y-94911138D01*
X226991313Y-94897804D01*
X226993413Y-94890880D01*
X226996823Y-94884501D01*
X227001411Y-94878911D01*
X227007001Y-94874323D01*
X227013380Y-94870913D01*
X227020304Y-94868813D01*
X227033638Y-94867500D01*
X228521362Y-94867500D01*
X228534696Y-94868813D01*
G37*
G36*
X236859696Y-94868813D02*
G01*
X236866620Y-94870913D01*
X236872999Y-94874323D01*
X236878589Y-94878911D01*
X236883177Y-94884501D01*
X236886587Y-94890880D01*
X236888687Y-94897804D01*
X236890000Y-94911138D01*
X236890000Y-95223862D01*
X236888687Y-95237196D01*
X236886587Y-95244120D01*
X236878860Y-95258575D01*
X236869483Y-95281213D01*
X236864702Y-95305246D01*
X236864702Y-95329751D01*
X236869482Y-95353784D01*
X236878860Y-95376425D01*
X236886587Y-95390880D01*
X236888687Y-95397804D01*
X236890000Y-95411138D01*
X236890000Y-95723862D01*
X236888687Y-95737196D01*
X236886587Y-95744120D01*
X236878860Y-95758575D01*
X236869483Y-95781213D01*
X236864702Y-95805246D01*
X236864702Y-95829751D01*
X236869482Y-95853784D01*
X236878860Y-95876425D01*
X236886587Y-95890880D01*
X236888687Y-95897804D01*
X236890000Y-95911138D01*
X236890000Y-96223862D01*
X236888687Y-96237196D01*
X236886587Y-96244120D01*
X236878860Y-96258575D01*
X236869483Y-96281213D01*
X236864702Y-96305246D01*
X236864702Y-96329751D01*
X236869482Y-96353784D01*
X236878860Y-96376425D01*
X236886587Y-96390880D01*
X236888687Y-96397804D01*
X236890000Y-96411138D01*
X236890000Y-96723862D01*
X236888687Y-96737196D01*
X236886587Y-96744120D01*
X236878860Y-96758575D01*
X236869483Y-96781213D01*
X236864702Y-96805246D01*
X236864702Y-96829751D01*
X236869482Y-96853784D01*
X236878860Y-96876425D01*
X236886587Y-96890880D01*
X236888687Y-96897804D01*
X236890000Y-96911138D01*
X236890000Y-97223862D01*
X236888687Y-97237196D01*
X236886587Y-97244120D01*
X236878860Y-97258575D01*
X236869483Y-97281213D01*
X236864702Y-97305246D01*
X236864702Y-97329751D01*
X236869482Y-97353784D01*
X236878860Y-97376425D01*
X236886587Y-97390880D01*
X236888687Y-97397804D01*
X236890000Y-97411138D01*
X236890000Y-97723862D01*
X236888687Y-97737196D01*
X236886587Y-97744120D01*
X236878860Y-97758575D01*
X236869483Y-97781213D01*
X236864702Y-97805246D01*
X236864702Y-97829751D01*
X236869482Y-97853784D01*
X236878860Y-97876425D01*
X236886587Y-97890880D01*
X236888687Y-97897804D01*
X236890000Y-97911138D01*
X236890000Y-98223862D01*
X236888687Y-98237196D01*
X236886587Y-98244120D01*
X236878860Y-98258575D01*
X236869483Y-98281213D01*
X236864702Y-98305246D01*
X236864702Y-98329751D01*
X236869482Y-98353784D01*
X236878860Y-98376425D01*
X236886587Y-98390880D01*
X236888687Y-98397804D01*
X236890000Y-98411138D01*
X236890000Y-98723862D01*
X236888687Y-98737196D01*
X236886587Y-98744120D01*
X236878860Y-98758575D01*
X236869483Y-98781213D01*
X236864702Y-98805246D01*
X236864702Y-98829751D01*
X236869482Y-98853784D01*
X236878860Y-98876425D01*
X236886587Y-98890880D01*
X236888687Y-98897804D01*
X236890000Y-98911138D01*
X236890000Y-99223862D01*
X236888687Y-99237196D01*
X236886587Y-99244120D01*
X236878860Y-99258575D01*
X236869483Y-99281213D01*
X236864702Y-99305246D01*
X236864702Y-99329751D01*
X236869482Y-99353784D01*
X236878860Y-99376425D01*
X236886587Y-99390880D01*
X236888687Y-99397804D01*
X236890000Y-99411138D01*
X236890000Y-99723862D01*
X236888687Y-99737196D01*
X236886587Y-99744120D01*
X236878860Y-99758575D01*
X236869483Y-99781213D01*
X236864702Y-99805246D01*
X236864702Y-99829751D01*
X236869482Y-99853784D01*
X236878860Y-99876425D01*
X236886587Y-99890880D01*
X236888687Y-99897804D01*
X236890000Y-99911138D01*
X236890000Y-100223862D01*
X236888687Y-100237196D01*
X236886587Y-100244120D01*
X236878860Y-100258575D01*
X236869483Y-100281213D01*
X236864702Y-100305246D01*
X236864702Y-100329751D01*
X236869482Y-100353784D01*
X236878860Y-100376425D01*
X236886587Y-100390880D01*
X236888687Y-100397804D01*
X236890000Y-100411138D01*
X236890000Y-100723862D01*
X236888687Y-100737196D01*
X236886587Y-100744120D01*
X236883177Y-100750499D01*
X236878589Y-100756089D01*
X236872999Y-100760677D01*
X236866620Y-100764087D01*
X236859696Y-100766187D01*
X236846362Y-100767500D01*
X235358638Y-100767500D01*
X235345304Y-100766187D01*
X235338380Y-100764087D01*
X235332001Y-100760677D01*
X235326411Y-100756089D01*
X235321823Y-100750499D01*
X235318413Y-100744120D01*
X235316313Y-100737196D01*
X235315000Y-100723862D01*
X235315000Y-100411138D01*
X235316313Y-100397804D01*
X235318413Y-100390880D01*
X235326140Y-100376425D01*
X235335517Y-100353787D01*
X235340298Y-100329754D01*
X235340298Y-100305249D01*
X235335518Y-100281216D01*
X235326140Y-100258575D01*
X235318413Y-100244120D01*
X235316313Y-100237196D01*
X235315000Y-100223862D01*
X235315000Y-99911138D01*
X235316313Y-99897804D01*
X235318413Y-99890880D01*
X235326140Y-99876425D01*
X235335517Y-99853787D01*
X235340298Y-99829754D01*
X235340298Y-99805249D01*
X235335518Y-99781216D01*
X235326140Y-99758575D01*
X235318413Y-99744120D01*
X235316313Y-99737196D01*
X235315000Y-99723862D01*
X235315000Y-99411138D01*
X235316313Y-99397804D01*
X235318413Y-99390880D01*
X235326140Y-99376425D01*
X235335517Y-99353787D01*
X235340298Y-99329754D01*
X235340298Y-99305249D01*
X235335518Y-99281216D01*
X235326140Y-99258575D01*
X235318413Y-99244120D01*
X235316313Y-99237196D01*
X235315000Y-99223862D01*
X235315000Y-98911138D01*
X235316313Y-98897804D01*
X235318413Y-98890880D01*
X235326140Y-98876425D01*
X235335517Y-98853787D01*
X235340298Y-98829754D01*
X235340298Y-98805249D01*
X235335518Y-98781216D01*
X235326140Y-98758575D01*
X235318413Y-98744120D01*
X235316313Y-98737196D01*
X235315000Y-98723862D01*
X235315000Y-98411138D01*
X235316313Y-98397804D01*
X235318413Y-98390880D01*
X235326140Y-98376425D01*
X235335517Y-98353787D01*
X235340298Y-98329754D01*
X235340298Y-98305249D01*
X235335518Y-98281216D01*
X235326140Y-98258575D01*
X235318413Y-98244120D01*
X235316313Y-98237196D01*
X235315000Y-98223862D01*
X235315000Y-97911138D01*
X235316313Y-97897804D01*
X235318413Y-97890880D01*
X235326140Y-97876425D01*
X235335517Y-97853787D01*
X235340298Y-97829754D01*
X235340298Y-97805249D01*
X235335518Y-97781216D01*
X235326140Y-97758575D01*
X235318413Y-97744120D01*
X235316313Y-97737196D01*
X235315000Y-97723862D01*
X235315000Y-97411138D01*
X235316313Y-97397804D01*
X235318413Y-97390880D01*
X235326140Y-97376425D01*
X235335517Y-97353787D01*
X235340298Y-97329754D01*
X235340298Y-97305249D01*
X235335518Y-97281216D01*
X235326140Y-97258575D01*
X235318413Y-97244120D01*
X235316313Y-97237196D01*
X235315000Y-97223862D01*
X235315000Y-96911138D01*
X235316313Y-96897804D01*
X235318413Y-96890880D01*
X235326140Y-96876425D01*
X235335517Y-96853787D01*
X235340298Y-96829754D01*
X235340298Y-96805249D01*
X235335518Y-96781216D01*
X235326140Y-96758575D01*
X235318413Y-96744120D01*
X235316313Y-96737196D01*
X235315000Y-96723862D01*
X235315000Y-96411138D01*
X235316313Y-96397804D01*
X235318413Y-96390880D01*
X235326140Y-96376425D01*
X235335517Y-96353787D01*
X235340298Y-96329754D01*
X235340298Y-96305249D01*
X235335518Y-96281216D01*
X235326140Y-96258575D01*
X235318413Y-96244120D01*
X235316313Y-96237196D01*
X235315000Y-96223862D01*
X235315000Y-95911138D01*
X235316313Y-95897804D01*
X235318413Y-95890880D01*
X235326140Y-95876425D01*
X235335517Y-95853787D01*
X235340298Y-95829754D01*
X235340298Y-95805249D01*
X235335518Y-95781216D01*
X235326140Y-95758575D01*
X235318413Y-95744120D01*
X235316313Y-95737196D01*
X235315000Y-95723862D01*
X235315000Y-95411138D01*
X235316313Y-95397804D01*
X235318413Y-95390880D01*
X235326140Y-95376425D01*
X235335517Y-95353787D01*
X235340298Y-95329754D01*
X235340298Y-95305249D01*
X235335518Y-95281216D01*
X235326140Y-95258575D01*
X235318413Y-95244120D01*
X235316313Y-95237196D01*
X235315000Y-95223862D01*
X235315000Y-94911138D01*
X235316313Y-94897804D01*
X235318413Y-94890880D01*
X235321823Y-94884501D01*
X235326411Y-94878911D01*
X235332001Y-94874323D01*
X235338380Y-94870913D01*
X235345304Y-94868813D01*
X235358638Y-94867500D01*
X236846362Y-94867500D01*
X236859696Y-94868813D01*
G37*
G36*
X215162520Y-98844586D02*
G01*
X215325135Y-98911943D01*
X215326310Y-98912430D01*
X215473717Y-99010924D01*
X215599076Y-99136283D01*
X215694390Y-99278931D01*
X215697571Y-99283692D01*
X215765414Y-99447480D01*
X215800000Y-99621356D01*
X215800000Y-99798644D01*
X215777463Y-99911943D01*
X215765414Y-99972520D01*
X215697570Y-100136310D01*
X215599076Y-100283717D01*
X215473717Y-100409076D01*
X215326310Y-100507570D01*
X215326309Y-100507571D01*
X215326308Y-100507571D01*
X215162520Y-100575414D01*
X214988644Y-100610000D01*
X214811356Y-100610000D01*
X214637480Y-100575414D01*
X214473692Y-100507571D01*
X214473691Y-100507571D01*
X214473690Y-100507570D01*
X214326283Y-100409076D01*
X214200924Y-100283717D01*
X214102430Y-100136310D01*
X214034586Y-99972520D01*
X214022537Y-99911943D01*
X214000000Y-99798644D01*
X214000000Y-99621356D01*
X214034586Y-99447480D01*
X214102429Y-99283692D01*
X214105610Y-99278931D01*
X214200924Y-99136283D01*
X214326283Y-99010924D01*
X214473690Y-98912430D01*
X214474866Y-98911943D01*
X214637480Y-98844586D01*
X214811356Y-98810000D01*
X214988644Y-98810000D01*
X215162520Y-98844586D01*
G37*
G36*
X218340000Y-100610000D02*
G01*
X216540000Y-100610000D01*
X216540000Y-98810000D01*
X218340000Y-98810000D01*
X218340000Y-100610000D01*
G37*
G36*
X238821343Y-99272706D02*
G01*
X238841863Y-99278931D01*
X238860776Y-99289040D01*
X238877354Y-99302646D01*
X238890960Y-99319224D01*
X238901069Y-99338137D01*
X238907294Y-99358657D01*
X238910000Y-99386138D01*
X238910000Y-99843862D01*
X238907294Y-99871343D01*
X238901069Y-99891863D01*
X238890960Y-99910776D01*
X238877354Y-99927354D01*
X238860776Y-99940960D01*
X238841863Y-99951069D01*
X238821343Y-99957294D01*
X238793862Y-99960000D01*
X238286138Y-99960000D01*
X238258657Y-99957294D01*
X238238137Y-99951069D01*
X238219224Y-99940960D01*
X238202646Y-99927354D01*
X238189040Y-99910776D01*
X238178931Y-99891863D01*
X238172706Y-99871343D01*
X238170000Y-99843862D01*
X238170000Y-99386138D01*
X238172706Y-99358657D01*
X238178931Y-99338137D01*
X238189040Y-99319224D01*
X238202646Y-99302646D01*
X238219224Y-99289040D01*
X238238137Y-99278931D01*
X238258657Y-99272706D01*
X238286138Y-99270000D01*
X238793862Y-99270000D01*
X238821343Y-99272706D01*
G37*
G36*
X238831343Y-98212706D02*
G01*
X238851863Y-98218931D01*
X238870776Y-98229040D01*
X238887354Y-98242646D01*
X238900960Y-98259224D01*
X238911069Y-98278137D01*
X238917294Y-98298657D01*
X238920000Y-98326138D01*
X238920000Y-98783862D01*
X238917294Y-98811343D01*
X238911069Y-98831863D01*
X238900960Y-98850776D01*
X238887354Y-98867354D01*
X238870776Y-98880960D01*
X238851863Y-98891069D01*
X238831343Y-98897294D01*
X238803862Y-98900000D01*
X238296138Y-98900000D01*
X238268657Y-98897294D01*
X238248137Y-98891069D01*
X238229224Y-98880960D01*
X238212646Y-98867354D01*
X238199040Y-98850776D01*
X238188931Y-98831863D01*
X238182706Y-98811343D01*
X238180000Y-98783862D01*
X238180000Y-98326138D01*
X238182706Y-98298657D01*
X238188931Y-98278137D01*
X238199040Y-98259224D01*
X238212646Y-98242646D01*
X238229224Y-98229040D01*
X238248137Y-98218931D01*
X238268657Y-98212706D01*
X238296138Y-98210000D01*
X238803862Y-98210000D01*
X238831343Y-98212706D01*
G37*
G36*
X238831343Y-97242706D02*
G01*
X238851863Y-97248931D01*
X238870776Y-97259040D01*
X238887354Y-97272646D01*
X238900960Y-97289224D01*
X238911069Y-97308137D01*
X238917294Y-97328657D01*
X238920000Y-97356138D01*
X238920000Y-97813862D01*
X238917294Y-97841343D01*
X238911069Y-97861863D01*
X238900960Y-97880776D01*
X238887354Y-97897354D01*
X238870776Y-97910960D01*
X238851863Y-97921069D01*
X238831343Y-97927294D01*
X238803862Y-97930000D01*
X238296138Y-97930000D01*
X238268657Y-97927294D01*
X238248137Y-97921069D01*
X238229224Y-97910960D01*
X238212646Y-97897354D01*
X238199040Y-97880776D01*
X238188931Y-97861863D01*
X238182706Y-97841343D01*
X238180000Y-97813862D01*
X238180000Y-97356138D01*
X238182706Y-97328657D01*
X238188931Y-97308137D01*
X238199040Y-97289224D01*
X238212646Y-97272646D01*
X238229224Y-97259040D01*
X238248137Y-97248931D01*
X238268657Y-97242706D01*
X238296138Y-97240000D01*
X238803862Y-97240000D01*
X238831343Y-97242706D01*
G37*
G36*
X237871343Y-96052706D02*
G01*
X237891863Y-96058931D01*
X237910776Y-96069040D01*
X237927354Y-96082646D01*
X237940960Y-96099224D01*
X237951069Y-96118137D01*
X237957294Y-96138657D01*
X237960000Y-96166138D01*
X237960000Y-96673862D01*
X237957294Y-96701343D01*
X237951069Y-96721863D01*
X237940960Y-96740776D01*
X237927354Y-96757354D01*
X237910776Y-96770960D01*
X237891863Y-96781069D01*
X237871343Y-96787294D01*
X237843862Y-96790000D01*
X237386138Y-96790000D01*
X237358657Y-96787294D01*
X237338137Y-96781069D01*
X237319224Y-96770960D01*
X237302646Y-96757354D01*
X237289040Y-96740776D01*
X237278931Y-96721863D01*
X237272706Y-96701343D01*
X237270000Y-96673862D01*
X237270000Y-96166138D01*
X237272706Y-96138657D01*
X237278931Y-96118137D01*
X237289040Y-96099224D01*
X237302646Y-96082646D01*
X237319224Y-96069040D01*
X237338137Y-96058931D01*
X237358657Y-96052706D01*
X237386138Y-96050000D01*
X237843862Y-96050000D01*
X237871343Y-96052706D01*
G37*
G36*
X238841343Y-96052706D02*
G01*
X238861863Y-96058931D01*
X238880776Y-96069040D01*
X238897354Y-96082646D01*
X238910960Y-96099224D01*
X238921069Y-96118137D01*
X238927294Y-96138657D01*
X238930000Y-96166138D01*
X238930000Y-96673862D01*
X238927294Y-96701343D01*
X238921069Y-96721863D01*
X238910960Y-96740776D01*
X238897354Y-96757354D01*
X238880776Y-96770960D01*
X238861863Y-96781069D01*
X238841343Y-96787294D01*
X238813862Y-96790000D01*
X238356138Y-96790000D01*
X238328657Y-96787294D01*
X238308137Y-96781069D01*
X238289224Y-96770960D01*
X238272646Y-96757354D01*
X238259040Y-96740776D01*
X238248931Y-96721863D01*
X238242706Y-96701343D01*
X238240000Y-96673862D01*
X238240000Y-96166138D01*
X238242706Y-96138657D01*
X238248931Y-96118137D01*
X238259040Y-96099224D01*
X238272646Y-96082646D01*
X238289224Y-96069040D01*
X238308137Y-96058931D01*
X238328657Y-96052706D01*
X238356138Y-96050000D01*
X238813862Y-96050000D01*
X238841343Y-96052706D01*
G37*
G36*
X257570000Y-96530000D02*
G01*
X255770000Y-96530000D01*
X255770000Y-94730000D01*
X257570000Y-94730000D01*
X257570000Y-96530000D01*
G37*
G36*
X242750000Y-95640000D02*
G01*
X240650000Y-95640000D01*
X240650000Y-91040000D01*
X242750000Y-91040000D01*
X242750000Y-95640000D01*
G37*
G36*
X229359696Y-92868813D02*
G01*
X229366620Y-92870913D01*
X229381075Y-92878640D01*
X229403713Y-92888017D01*
X229427746Y-92892798D01*
X229452251Y-92892798D01*
X229476284Y-92888018D01*
X229498925Y-92878640D01*
X229513380Y-92870913D01*
X229520304Y-92868813D01*
X229533638Y-92867500D01*
X229846362Y-92867500D01*
X229859696Y-92868813D01*
X229866620Y-92870913D01*
X229881075Y-92878640D01*
X229903713Y-92888017D01*
X229927746Y-92892798D01*
X229952251Y-92892798D01*
X229976284Y-92888018D01*
X229998925Y-92878640D01*
X230013380Y-92870913D01*
X230020304Y-92868813D01*
X230033638Y-92867500D01*
X230346362Y-92867500D01*
X230359696Y-92868813D01*
X230366620Y-92870913D01*
X230381075Y-92878640D01*
X230403713Y-92888017D01*
X230427746Y-92892798D01*
X230452251Y-92892798D01*
X230476284Y-92888018D01*
X230498925Y-92878640D01*
X230513380Y-92870913D01*
X230520304Y-92868813D01*
X230533638Y-92867500D01*
X230846362Y-92867500D01*
X230859696Y-92868813D01*
X230866620Y-92870913D01*
X230881075Y-92878640D01*
X230903713Y-92888017D01*
X230927746Y-92892798D01*
X230952251Y-92892798D01*
X230976284Y-92888018D01*
X230998925Y-92878640D01*
X231013380Y-92870913D01*
X231020304Y-92868813D01*
X231033638Y-92867500D01*
X231346362Y-92867500D01*
X231359696Y-92868813D01*
X231366620Y-92870913D01*
X231381075Y-92878640D01*
X231403713Y-92888017D01*
X231427746Y-92892798D01*
X231452251Y-92892798D01*
X231476284Y-92888018D01*
X231498925Y-92878640D01*
X231513380Y-92870913D01*
X231520304Y-92868813D01*
X231533638Y-92867500D01*
X231846362Y-92867500D01*
X231859696Y-92868813D01*
X231866620Y-92870913D01*
X231881075Y-92878640D01*
X231903713Y-92888017D01*
X231927746Y-92892798D01*
X231952251Y-92892798D01*
X231976284Y-92888018D01*
X231998925Y-92878640D01*
X232013380Y-92870913D01*
X232020304Y-92868813D01*
X232033638Y-92867500D01*
X232346362Y-92867500D01*
X232359696Y-92868813D01*
X232366620Y-92870913D01*
X232381075Y-92878640D01*
X232403713Y-92888017D01*
X232427746Y-92892798D01*
X232452251Y-92892798D01*
X232476284Y-92888018D01*
X232498925Y-92878640D01*
X232513380Y-92870913D01*
X232520304Y-92868813D01*
X232533638Y-92867500D01*
X232846362Y-92867500D01*
X232859696Y-92868813D01*
X232866620Y-92870913D01*
X232881075Y-92878640D01*
X232903713Y-92888017D01*
X232927746Y-92892798D01*
X232952251Y-92892798D01*
X232976284Y-92888018D01*
X232998925Y-92878640D01*
X233013380Y-92870913D01*
X233020304Y-92868813D01*
X233033638Y-92867500D01*
X233346362Y-92867500D01*
X233359696Y-92868813D01*
X233366620Y-92870913D01*
X233381075Y-92878640D01*
X233403713Y-92888017D01*
X233427746Y-92892798D01*
X233452251Y-92892798D01*
X233476284Y-92888018D01*
X233498925Y-92878640D01*
X233513380Y-92870913D01*
X233520304Y-92868813D01*
X233533638Y-92867500D01*
X233846362Y-92867500D01*
X233859696Y-92868813D01*
X233866620Y-92870913D01*
X233881075Y-92878640D01*
X233903713Y-92888017D01*
X233927746Y-92892798D01*
X233952251Y-92892798D01*
X233976284Y-92888018D01*
X233998925Y-92878640D01*
X234013380Y-92870913D01*
X234020304Y-92868813D01*
X234033638Y-92867500D01*
X234346362Y-92867500D01*
X234359696Y-92868813D01*
X234366620Y-92870913D01*
X234381075Y-92878640D01*
X234403713Y-92888017D01*
X234427746Y-92892798D01*
X234452251Y-92892798D01*
X234476284Y-92888018D01*
X234498925Y-92878640D01*
X234513380Y-92870913D01*
X234520304Y-92868813D01*
X234533638Y-92867500D01*
X234846362Y-92867500D01*
X234859696Y-92868813D01*
X234866620Y-92870913D01*
X234872999Y-92874323D01*
X234878589Y-92878911D01*
X234883177Y-92884501D01*
X234886587Y-92890880D01*
X234888687Y-92897804D01*
X234890000Y-92911138D01*
X234890000Y-94398862D01*
X234888687Y-94412196D01*
X234886587Y-94419120D01*
X234883177Y-94425499D01*
X234878589Y-94431089D01*
X234872999Y-94435677D01*
X234866620Y-94439087D01*
X234859696Y-94441187D01*
X234846362Y-94442500D01*
X234533638Y-94442500D01*
X234520304Y-94441187D01*
X234513380Y-94439087D01*
X234498925Y-94431360D01*
X234476287Y-94421983D01*
X234452254Y-94417202D01*
X234427749Y-94417202D01*
X234403716Y-94421982D01*
X234381075Y-94431360D01*
X234366620Y-94439087D01*
X234359696Y-94441187D01*
X234346362Y-94442500D01*
X234033638Y-94442500D01*
X234020304Y-94441187D01*
X234013380Y-94439087D01*
X233998925Y-94431360D01*
X233976287Y-94421983D01*
X233952254Y-94417202D01*
X233927749Y-94417202D01*
X233903716Y-94421982D01*
X233881075Y-94431360D01*
X233866620Y-94439087D01*
X233859696Y-94441187D01*
X233846362Y-94442500D01*
X233533638Y-94442500D01*
X233520304Y-94441187D01*
X233513380Y-94439087D01*
X233498925Y-94431360D01*
X233476287Y-94421983D01*
X233452254Y-94417202D01*
X233427749Y-94417202D01*
X233403716Y-94421982D01*
X233381075Y-94431360D01*
X233366620Y-94439087D01*
X233359696Y-94441187D01*
X233346362Y-94442500D01*
X233033638Y-94442500D01*
X233020304Y-94441187D01*
X233013380Y-94439087D01*
X232998925Y-94431360D01*
X232976287Y-94421983D01*
X232952254Y-94417202D01*
X232927749Y-94417202D01*
X232903716Y-94421982D01*
X232881075Y-94431360D01*
X232866620Y-94439087D01*
X232859696Y-94441187D01*
X232846362Y-94442500D01*
X232533638Y-94442500D01*
X232520304Y-94441187D01*
X232513380Y-94439087D01*
X232498925Y-94431360D01*
X232476287Y-94421983D01*
X232452254Y-94417202D01*
X232427749Y-94417202D01*
X232403716Y-94421982D01*
X232381075Y-94431360D01*
X232366620Y-94439087D01*
X232359696Y-94441187D01*
X232346362Y-94442500D01*
X232033638Y-94442500D01*
X232020304Y-94441187D01*
X232013380Y-94439087D01*
X231998925Y-94431360D01*
X231976287Y-94421983D01*
X231952254Y-94417202D01*
X231927749Y-94417202D01*
X231903716Y-94421982D01*
X231881075Y-94431360D01*
X231866620Y-94439087D01*
X231859696Y-94441187D01*
X231846362Y-94442500D01*
X231533638Y-94442500D01*
X231520304Y-94441187D01*
X231513380Y-94439087D01*
X231498925Y-94431360D01*
X231476287Y-94421983D01*
X231452254Y-94417202D01*
X231427749Y-94417202D01*
X231403716Y-94421982D01*
X231381075Y-94431360D01*
X231366620Y-94439087D01*
X231359696Y-94441187D01*
X231346362Y-94442500D01*
X231033638Y-94442500D01*
X231020304Y-94441187D01*
X231013380Y-94439087D01*
X230998925Y-94431360D01*
X230976287Y-94421983D01*
X230952254Y-94417202D01*
X230927749Y-94417202D01*
X230903716Y-94421982D01*
X230881075Y-94431360D01*
X230866620Y-94439087D01*
X230859696Y-94441187D01*
X230846362Y-94442500D01*
X230533638Y-94442500D01*
X230520304Y-94441187D01*
X230513380Y-94439087D01*
X230498925Y-94431360D01*
X230476287Y-94421983D01*
X230452254Y-94417202D01*
X230427749Y-94417202D01*
X230403716Y-94421982D01*
X230381075Y-94431360D01*
X230366620Y-94439087D01*
X230359696Y-94441187D01*
X230346362Y-94442500D01*
X230033638Y-94442500D01*
X230020304Y-94441187D01*
X230013380Y-94439087D01*
X229998925Y-94431360D01*
X229976287Y-94421983D01*
X229952254Y-94417202D01*
X229927749Y-94417202D01*
X229903716Y-94421982D01*
X229881075Y-94431360D01*
X229866620Y-94439087D01*
X229859696Y-94441187D01*
X229846362Y-94442500D01*
X229533638Y-94442500D01*
X229520304Y-94441187D01*
X229513380Y-94439087D01*
X229498925Y-94431360D01*
X229476287Y-94421983D01*
X229452254Y-94417202D01*
X229427749Y-94417202D01*
X229403716Y-94421982D01*
X229381075Y-94431360D01*
X229366620Y-94439087D01*
X229359696Y-94441187D01*
X229346362Y-94442500D01*
X229033638Y-94442500D01*
X229020304Y-94441187D01*
X229013380Y-94439087D01*
X229007001Y-94435677D01*
X229001411Y-94431089D01*
X228996823Y-94425499D01*
X228993413Y-94419120D01*
X228991313Y-94412196D01*
X228990000Y-94398862D01*
X228990000Y-92911138D01*
X228991313Y-92897804D01*
X228993413Y-92890880D01*
X228996823Y-92884501D01*
X229001411Y-92878911D01*
X229007001Y-92874323D01*
X229013380Y-92870913D01*
X229020304Y-92868813D01*
X229033638Y-92867500D01*
X229346362Y-92867500D01*
X229359696Y-92868813D01*
G37*
G36*
X256932520Y-92224586D02*
G01*
X257096310Y-92292430D01*
X257243717Y-92390924D01*
X257369076Y-92516283D01*
X257467570Y-92663690D01*
X257467571Y-92663692D01*
X257535414Y-92827480D01*
X257563266Y-92967500D01*
X257570000Y-93001358D01*
X257570000Y-93178642D01*
X257535414Y-93352520D01*
X257467570Y-93516310D01*
X257369076Y-93663717D01*
X257243717Y-93789076D01*
X257096310Y-93887570D01*
X257096309Y-93887571D01*
X257096308Y-93887571D01*
X256932520Y-93955414D01*
X256758644Y-93990000D01*
X256581356Y-93990000D01*
X256407480Y-93955414D01*
X256243692Y-93887571D01*
X256243691Y-93887571D01*
X256243690Y-93887570D01*
X256096283Y-93789076D01*
X255970924Y-93663717D01*
X255872430Y-93516310D01*
X255804586Y-93352520D01*
X255770000Y-93178642D01*
X255770000Y-93001358D01*
X255776735Y-92967500D01*
X255804586Y-92827480D01*
X255872429Y-92663692D01*
X255872430Y-92663690D01*
X255970924Y-92516283D01*
X256096283Y-92390924D01*
X256243690Y-92292430D01*
X256407480Y-92224586D01*
X256581356Y-92190000D01*
X256758644Y-92190000D01*
X256932520Y-92224586D01*
G37*
G36*
X228501343Y-92362706D02*
G01*
X228521863Y-92368931D01*
X228540776Y-92379040D01*
X228557354Y-92392646D01*
X228570960Y-92409224D01*
X228581069Y-92428137D01*
X228587294Y-92448657D01*
X228590000Y-92476138D01*
X228590000Y-92983862D01*
X228587294Y-93011343D01*
X228581069Y-93031863D01*
X228570960Y-93050776D01*
X228557354Y-93067354D01*
X228540776Y-93080960D01*
X228521863Y-93091069D01*
X228501343Y-93097294D01*
X228473862Y-93100000D01*
X228016138Y-93100000D01*
X227988657Y-93097294D01*
X227968137Y-93091069D01*
X227949224Y-93080960D01*
X227932646Y-93067354D01*
X227919040Y-93050776D01*
X227908931Y-93031863D01*
X227902706Y-93011343D01*
X227900000Y-92983862D01*
X227900000Y-92476138D01*
X227902706Y-92448657D01*
X227908931Y-92428137D01*
X227919040Y-92409224D01*
X227932646Y-92392646D01*
X227949224Y-92379040D01*
X227968137Y-92368931D01*
X227988657Y-92362706D01*
X228016138Y-92360000D01*
X228473862Y-92360000D01*
X228501343Y-92362706D01*
G37*
G36*
X227531343Y-92362706D02*
G01*
X227551863Y-92368931D01*
X227570776Y-92379040D01*
X227587354Y-92392646D01*
X227600960Y-92409224D01*
X227611069Y-92428137D01*
X227617294Y-92448657D01*
X227620000Y-92476138D01*
X227620000Y-92983862D01*
X227617294Y-93011343D01*
X227611069Y-93031863D01*
X227600960Y-93050776D01*
X227587354Y-93067354D01*
X227570776Y-93080960D01*
X227551863Y-93091069D01*
X227531343Y-93097294D01*
X227503862Y-93100000D01*
X227046138Y-93100000D01*
X227018657Y-93097294D01*
X226998137Y-93091069D01*
X226979224Y-93080960D01*
X226962646Y-93067354D01*
X226949040Y-93050776D01*
X226938931Y-93031863D01*
X226932706Y-93011343D01*
X226930000Y-92983862D01*
X226930000Y-92476138D01*
X226932706Y-92448657D01*
X226938931Y-92428137D01*
X226949040Y-92409224D01*
X226962646Y-92392646D01*
X226979224Y-92379040D01*
X226998137Y-92368931D01*
X227018657Y-92362706D01*
X227046138Y-92360000D01*
X227503862Y-92360000D01*
X227531343Y-92362706D01*
G37*
G36*
X256198991Y-90396575D02*
G01*
X256232879Y-90406855D01*
X256264112Y-90423550D01*
X256291486Y-90446014D01*
X256313950Y-90473388D01*
X256330645Y-90504621D01*
X256340925Y-90538509D01*
X256345000Y-90579888D01*
X256345000Y-91180112D01*
X256340925Y-91221491D01*
X256330645Y-91255379D01*
X256313950Y-91286612D01*
X256291486Y-91313986D01*
X256264112Y-91336450D01*
X256232879Y-91353145D01*
X256198991Y-91363425D01*
X256157612Y-91367500D01*
X255482388Y-91367500D01*
X255441009Y-91363425D01*
X255407121Y-91353145D01*
X255375888Y-91336450D01*
X255348514Y-91313986D01*
X255326050Y-91286612D01*
X255309355Y-91255379D01*
X255299075Y-91221491D01*
X255295000Y-91180112D01*
X255295000Y-90579888D01*
X255299075Y-90538509D01*
X255309355Y-90504621D01*
X255326050Y-90473388D01*
X255348514Y-90446014D01*
X255375888Y-90423550D01*
X255407121Y-90406855D01*
X255441009Y-90396575D01*
X255482388Y-90392500D01*
X256157612Y-90392500D01*
X256198991Y-90396575D01*
G37*
G36*
X257658991Y-90394075D02*
G01*
X257692879Y-90404355D01*
X257724112Y-90421050D01*
X257751486Y-90443514D01*
X257773950Y-90470888D01*
X257790645Y-90502121D01*
X257800925Y-90536009D01*
X257805000Y-90577388D01*
X257805000Y-91177612D01*
X257800925Y-91218991D01*
X257790645Y-91252879D01*
X257773950Y-91284112D01*
X257751486Y-91311486D01*
X257724112Y-91333950D01*
X257692879Y-91350645D01*
X257658991Y-91360925D01*
X257617612Y-91365000D01*
X256942388Y-91365000D01*
X256901009Y-91360925D01*
X256867121Y-91350645D01*
X256835888Y-91333950D01*
X256808514Y-91311486D01*
X256786050Y-91284112D01*
X256769355Y-91252879D01*
X256759075Y-91218991D01*
X256755000Y-91177612D01*
X256755000Y-90577388D01*
X256759075Y-90536009D01*
X256769355Y-90502121D01*
X256786050Y-90470888D01*
X256808514Y-90443514D01*
X256835888Y-90421050D01*
X256867121Y-90404355D01*
X256901009Y-90394075D01*
X256942388Y-90390000D01*
X257617612Y-90390000D01*
X257658991Y-90394075D01*
G37*
G36*
X253268991Y-90394075D02*
G01*
X253302879Y-90404355D01*
X253334112Y-90421050D01*
X253361486Y-90443514D01*
X253383950Y-90470888D01*
X253400645Y-90502121D01*
X253410925Y-90536009D01*
X253415000Y-90577388D01*
X253415000Y-91177612D01*
X253410925Y-91218991D01*
X253400645Y-91252879D01*
X253383950Y-91284112D01*
X253361486Y-91311486D01*
X253334112Y-91333950D01*
X253302879Y-91350645D01*
X253268991Y-91360925D01*
X253227612Y-91365000D01*
X252552388Y-91365000D01*
X252511009Y-91360925D01*
X252477121Y-91350645D01*
X252445888Y-91333950D01*
X252418514Y-91311486D01*
X252396050Y-91284112D01*
X252379355Y-91252879D01*
X252369075Y-91218991D01*
X252365000Y-91177612D01*
X252365000Y-90577388D01*
X252369075Y-90536009D01*
X252379355Y-90502121D01*
X252396050Y-90470888D01*
X252418514Y-90443514D01*
X252445888Y-90421050D01*
X252477121Y-90404355D01*
X252511009Y-90394075D01*
X252552388Y-90390000D01*
X253227612Y-90390000D01*
X253268991Y-90394075D01*
G37*
G36*
X254748991Y-90394075D02*
G01*
X254782879Y-90404355D01*
X254814112Y-90421050D01*
X254841486Y-90443514D01*
X254863950Y-90470888D01*
X254880645Y-90502121D01*
X254890925Y-90536009D01*
X254895000Y-90577388D01*
X254895000Y-91177612D01*
X254890925Y-91218991D01*
X254880645Y-91252879D01*
X254863950Y-91284112D01*
X254841486Y-91311486D01*
X254814112Y-91333950D01*
X254782879Y-91350645D01*
X254748991Y-91360925D01*
X254707612Y-91365000D01*
X254032388Y-91365000D01*
X253991009Y-91360925D01*
X253957121Y-91350645D01*
X253925888Y-91333950D01*
X253898514Y-91311486D01*
X253876050Y-91284112D01*
X253859355Y-91252879D01*
X253849075Y-91218991D01*
X253845000Y-91177612D01*
X253845000Y-90577388D01*
X253849075Y-90536009D01*
X253859355Y-90502121D01*
X253876050Y-90470888D01*
X253898514Y-90443514D01*
X253925888Y-90421050D01*
X253957121Y-90404355D01*
X253991009Y-90394075D01*
X254032388Y-90390000D01*
X254707612Y-90390000D01*
X254748991Y-90394075D01*
G37*
G36*
X248481491Y-89999075D02*
G01*
X248515379Y-90009355D01*
X248546612Y-90026050D01*
X248573986Y-90048514D01*
X248596450Y-90075888D01*
X248613145Y-90107121D01*
X248623425Y-90141009D01*
X248627500Y-90182388D01*
X248627500Y-90857612D01*
X248623425Y-90898991D01*
X248613145Y-90932879D01*
X248596450Y-90964112D01*
X248573986Y-90991486D01*
X248546612Y-91013950D01*
X248515379Y-91030645D01*
X248481491Y-91040925D01*
X248440112Y-91045000D01*
X247839888Y-91045000D01*
X247798509Y-91040925D01*
X247764621Y-91030645D01*
X247733388Y-91013950D01*
X247706014Y-90991486D01*
X247683550Y-90964112D01*
X247666855Y-90932879D01*
X247656575Y-90898991D01*
X247652500Y-90857612D01*
X247652500Y-90182388D01*
X247656575Y-90141009D01*
X247666855Y-90107121D01*
X247683550Y-90075888D01*
X247706014Y-90048514D01*
X247733388Y-90026050D01*
X247764621Y-90009355D01*
X247798509Y-89999075D01*
X247839888Y-89995000D01*
X248440112Y-89995000D01*
X248481491Y-89999075D01*
G37*
G36*
X246906491Y-89999075D02*
G01*
X246940379Y-90009355D01*
X246971612Y-90026050D01*
X246998986Y-90048514D01*
X247021450Y-90075888D01*
X247038145Y-90107121D01*
X247048425Y-90141009D01*
X247052500Y-90182388D01*
X247052500Y-90857612D01*
X247048425Y-90898991D01*
X247038145Y-90932879D01*
X247021450Y-90964112D01*
X246998986Y-90991486D01*
X246971612Y-91013950D01*
X246940379Y-91030645D01*
X246906491Y-91040925D01*
X246865112Y-91045000D01*
X246264888Y-91045000D01*
X246223509Y-91040925D01*
X246189621Y-91030645D01*
X246158388Y-91013950D01*
X246131014Y-90991486D01*
X246108550Y-90964112D01*
X246091855Y-90932879D01*
X246081575Y-90898991D01*
X246077500Y-90857612D01*
X246077500Y-90182388D01*
X246081575Y-90141009D01*
X246091855Y-90107121D01*
X246108550Y-90075888D01*
X246131014Y-90048514D01*
X246158388Y-90026050D01*
X246189621Y-90009355D01*
X246223509Y-89999075D01*
X246264888Y-89995000D01*
X246865112Y-89995000D01*
X246906491Y-89999075D01*
G37*
G36*
X249973991Y-89959075D02*
G01*
X250007879Y-89969355D01*
X250039112Y-89986050D01*
X250066486Y-90008514D01*
X250088950Y-90035888D01*
X250105645Y-90067121D01*
X250115925Y-90101009D01*
X250120000Y-90142388D01*
X250120000Y-90817612D01*
X250115925Y-90858991D01*
X250105645Y-90892879D01*
X250088950Y-90924112D01*
X250066486Y-90951486D01*
X250039112Y-90973950D01*
X250007879Y-90990645D01*
X249973991Y-91000925D01*
X249932612Y-91005000D01*
X249332388Y-91005000D01*
X249291009Y-91000925D01*
X249257121Y-90990645D01*
X249225888Y-90973950D01*
X249198514Y-90951486D01*
X249176050Y-90924112D01*
X249159355Y-90892879D01*
X249149075Y-90858991D01*
X249145000Y-90817612D01*
X249145000Y-90142388D01*
X249149075Y-90101009D01*
X249159355Y-90067121D01*
X249176050Y-90035888D01*
X249198514Y-90008514D01*
X249225888Y-89986050D01*
X249257121Y-89969355D01*
X249291009Y-89959075D01*
X249332388Y-89955000D01*
X249932612Y-89955000D01*
X249973991Y-89959075D01*
G37*
G36*
X251548991Y-89959075D02*
G01*
X251582879Y-89969355D01*
X251614112Y-89986050D01*
X251641486Y-90008514D01*
X251663950Y-90035888D01*
X251680645Y-90067121D01*
X251690925Y-90101009D01*
X251695000Y-90142388D01*
X251695000Y-90817612D01*
X251690925Y-90858991D01*
X251680645Y-90892879D01*
X251663950Y-90924112D01*
X251641486Y-90951486D01*
X251614112Y-90973950D01*
X251582879Y-90990645D01*
X251548991Y-91000925D01*
X251507612Y-91005000D01*
X250907388Y-91005000D01*
X250866009Y-91000925D01*
X250832121Y-90990645D01*
X250800888Y-90973950D01*
X250773514Y-90951486D01*
X250751050Y-90924112D01*
X250734355Y-90892879D01*
X250724075Y-90858991D01*
X250720000Y-90817612D01*
X250720000Y-90142388D01*
X250724075Y-90101009D01*
X250734355Y-90067121D01*
X250751050Y-90035888D01*
X250773514Y-90008514D01*
X250800888Y-89986050D01*
X250832121Y-89969355D01*
X250866009Y-89959075D01*
X250907388Y-89955000D01*
X251507612Y-89955000D01*
X251548991Y-89959075D01*
G37*
G36*
X256198991Y-88821575D02*
G01*
X256232879Y-88831855D01*
X256264112Y-88848550D01*
X256291486Y-88871014D01*
X256313950Y-88898388D01*
X256330645Y-88929621D01*
X256340925Y-88963509D01*
X256345000Y-89004888D01*
X256345000Y-89605112D01*
X256340925Y-89646491D01*
X256330645Y-89680379D01*
X256313950Y-89711612D01*
X256291486Y-89738986D01*
X256264112Y-89761450D01*
X256232879Y-89778145D01*
X256198991Y-89788425D01*
X256157612Y-89792500D01*
X255482388Y-89792500D01*
X255441009Y-89788425D01*
X255407121Y-89778145D01*
X255375888Y-89761450D01*
X255348514Y-89738986D01*
X255326050Y-89711612D01*
X255309355Y-89680379D01*
X255299075Y-89646491D01*
X255295000Y-89605112D01*
X255295000Y-89004888D01*
X255299075Y-88963509D01*
X255309355Y-88929621D01*
X255326050Y-88898388D01*
X255348514Y-88871014D01*
X255375888Y-88848550D01*
X255407121Y-88831855D01*
X255441009Y-88821575D01*
X255482388Y-88817500D01*
X256157612Y-88817500D01*
X256198991Y-88821575D01*
G37*
G36*
X254748991Y-88819075D02*
G01*
X254782879Y-88829355D01*
X254814112Y-88846050D01*
X254841486Y-88868514D01*
X254863950Y-88895888D01*
X254880645Y-88927121D01*
X254890925Y-88961009D01*
X254895000Y-89002388D01*
X254895000Y-89602612D01*
X254890925Y-89643991D01*
X254880645Y-89677879D01*
X254863950Y-89709112D01*
X254841486Y-89736486D01*
X254814112Y-89758950D01*
X254782879Y-89775645D01*
X254748991Y-89785925D01*
X254707612Y-89790000D01*
X254032388Y-89790000D01*
X253991009Y-89785925D01*
X253957121Y-89775645D01*
X253925888Y-89758950D01*
X253898514Y-89736486D01*
X253876050Y-89709112D01*
X253859355Y-89677879D01*
X253849075Y-89643991D01*
X253845000Y-89602612D01*
X253845000Y-89002388D01*
X253849075Y-88961009D01*
X253859355Y-88927121D01*
X253876050Y-88895888D01*
X253898514Y-88868514D01*
X253925888Y-88846050D01*
X253957121Y-88829355D01*
X253991009Y-88819075D01*
X254032388Y-88815000D01*
X254707612Y-88815000D01*
X254748991Y-88819075D01*
G37*
G36*
X253268991Y-88819075D02*
G01*
X253302879Y-88829355D01*
X253334112Y-88846050D01*
X253361486Y-88868514D01*
X253383950Y-88895888D01*
X253400645Y-88927121D01*
X253410925Y-88961009D01*
X253415000Y-89002388D01*
X253415000Y-89602612D01*
X253410925Y-89643991D01*
X253400645Y-89677879D01*
X253383950Y-89709112D01*
X253361486Y-89736486D01*
X253334112Y-89758950D01*
X253302879Y-89775645D01*
X253268991Y-89785925D01*
X253227612Y-89790000D01*
X252552388Y-89790000D01*
X252511009Y-89785925D01*
X252477121Y-89775645D01*
X252445888Y-89758950D01*
X252418514Y-89736486D01*
X252396050Y-89709112D01*
X252379355Y-89677879D01*
X252369075Y-89643991D01*
X252365000Y-89602612D01*
X252365000Y-89002388D01*
X252369075Y-88961009D01*
X252379355Y-88927121D01*
X252396050Y-88895888D01*
X252418514Y-88868514D01*
X252445888Y-88846050D01*
X252477121Y-88829355D01*
X252511009Y-88819075D01*
X252552388Y-88815000D01*
X253227612Y-88815000D01*
X253268991Y-88819075D01*
G37*
G36*
X257658991Y-88819075D02*
G01*
X257692879Y-88829355D01*
X257724112Y-88846050D01*
X257751486Y-88868514D01*
X257773950Y-88895888D01*
X257790645Y-88927121D01*
X257800925Y-88961009D01*
X257805000Y-89002388D01*
X257805000Y-89602612D01*
X257800925Y-89643991D01*
X257790645Y-89677879D01*
X257773950Y-89709112D01*
X257751486Y-89736486D01*
X257724112Y-89758950D01*
X257692879Y-89775645D01*
X257658991Y-89785925D01*
X257617612Y-89790000D01*
X256942388Y-89790000D01*
X256901009Y-89785925D01*
X256867121Y-89775645D01*
X256835888Y-89758950D01*
X256808514Y-89736486D01*
X256786050Y-89709112D01*
X256769355Y-89677879D01*
X256759075Y-89643991D01*
X256755000Y-89602612D01*
X256755000Y-89002388D01*
X256759075Y-88961009D01*
X256769355Y-88927121D01*
X256786050Y-88895888D01*
X256808514Y-88868514D01*
X256835888Y-88846050D01*
X256867121Y-88829355D01*
X256901009Y-88819075D01*
X256942388Y-88815000D01*
X257617612Y-88815000D01*
X257658991Y-88819075D01*
G37*
G36*
X246938991Y-88304075D02*
G01*
X246972879Y-88314355D01*
X247004112Y-88331050D01*
X247031486Y-88353514D01*
X247053950Y-88380888D01*
X247070645Y-88412121D01*
X247080925Y-88446009D01*
X247085000Y-88487388D01*
X247085000Y-89087612D01*
X247080925Y-89128991D01*
X247070645Y-89162879D01*
X247053950Y-89194112D01*
X247031486Y-89221486D01*
X247004112Y-89243950D01*
X246972879Y-89260645D01*
X246938991Y-89270925D01*
X246897612Y-89275000D01*
X246222388Y-89275000D01*
X246181009Y-89270925D01*
X246147121Y-89260645D01*
X246115888Y-89243950D01*
X246088514Y-89221486D01*
X246066050Y-89194112D01*
X246049355Y-89162879D01*
X246039075Y-89128991D01*
X246035000Y-89087612D01*
X246035000Y-88487388D01*
X246039075Y-88446009D01*
X246049355Y-88412121D01*
X246066050Y-88380888D01*
X246088514Y-88353514D01*
X246115888Y-88331050D01*
X246147121Y-88314355D01*
X246181009Y-88304075D01*
X246222388Y-88300000D01*
X246897612Y-88300000D01*
X246938991Y-88304075D01*
G37*
G36*
X248700000Y-88805000D02*
G01*
X247900000Y-88805000D01*
X247900000Y-88255000D01*
X248700000Y-88255000D01*
X248700000Y-88805000D01*
G37*
G36*
X250700000Y-88155000D02*
G01*
X249900000Y-88155000D01*
X249900000Y-87605000D01*
X250700000Y-87605000D01*
X250700000Y-88155000D01*
G37*
G36*
X246938991Y-86729075D02*
G01*
X246972879Y-86739355D01*
X247004112Y-86756050D01*
X247031486Y-86778514D01*
X247053950Y-86805888D01*
X247070645Y-86837121D01*
X247080925Y-86871009D01*
X247085000Y-86912388D01*
X247085000Y-87512612D01*
X247080925Y-87553991D01*
X247070645Y-87587879D01*
X247053950Y-87619112D01*
X247031486Y-87646486D01*
X247004112Y-87668950D01*
X246972879Y-87685645D01*
X246938991Y-87695925D01*
X246897612Y-87700000D01*
X246222388Y-87700000D01*
X246181009Y-87695925D01*
X246147121Y-87685645D01*
X246115888Y-87668950D01*
X246088514Y-87646486D01*
X246066050Y-87619112D01*
X246049355Y-87587879D01*
X246039075Y-87553991D01*
X246035000Y-87512612D01*
X246035000Y-86912388D01*
X246039075Y-86871009D01*
X246049355Y-86837121D01*
X246066050Y-86805888D01*
X246088514Y-86778514D01*
X246115888Y-86756050D01*
X246147121Y-86739355D01*
X246181009Y-86729075D01*
X246222388Y-86725000D01*
X246897612Y-86725000D01*
X246938991Y-86729075D01*
G37*
G36*
X248700000Y-87505000D02*
G01*
X247900000Y-87505000D01*
X247900000Y-86955000D01*
X248700000Y-86955000D01*
X248700000Y-87505000D01*
G37*
G36*
X257375000Y-86475000D02*
G01*
X256835000Y-86475000D01*
X256835000Y-86145000D01*
X257375000Y-86145000D01*
X257375000Y-86475000D01*
G37*
G36*
X254565000Y-86175000D02*
G01*
X254125000Y-86175000D01*
X254125000Y-85845000D01*
X254565000Y-85845000D01*
X254565000Y-86175000D01*
G37*
G36*
X257375000Y-85875000D02*
G01*
X256835000Y-85875000D01*
X256835000Y-85545000D01*
X257375000Y-85545000D01*
X257375000Y-85875000D01*
G37*
G36*
X254565000Y-85575000D02*
G01*
X254125000Y-85575000D01*
X254125000Y-85245000D01*
X254565000Y-85245000D01*
X254565000Y-85575000D01*
G37*
G36*
X242580000Y-85290000D02*
G01*
X241280000Y-85290000D01*
X241280000Y-84290000D01*
X242580000Y-84290000D01*
X242580000Y-85290000D01*
G37*
G36*
X257375000Y-85275000D02*
G01*
X256835000Y-85275000D01*
X256835000Y-84945000D01*
X257375000Y-84945000D01*
X257375000Y-85275000D01*
G37*
G36*
X254565000Y-84975000D02*
G01*
X254125000Y-84975000D01*
X254125000Y-84645000D01*
X254565000Y-84645000D01*
X254565000Y-84975000D01*
G37*
G36*
X257375000Y-84675000D02*
G01*
X256835000Y-84675000D01*
X256835000Y-84345000D01*
X257375000Y-84345000D01*
X257375000Y-84675000D01*
G37*
G36*
X244818991Y-83494075D02*
G01*
X244852879Y-83504355D01*
X244884112Y-83521050D01*
X244911486Y-83543514D01*
X244933950Y-83570888D01*
X244950645Y-83602121D01*
X244960925Y-83636009D01*
X244965000Y-83677388D01*
X244965000Y-84277612D01*
X244960925Y-84318991D01*
X244950645Y-84352879D01*
X244933950Y-84384112D01*
X244911486Y-84411486D01*
X244884112Y-84433950D01*
X244852879Y-84450645D01*
X244818991Y-84460925D01*
X244777612Y-84465000D01*
X244102388Y-84465000D01*
X244061009Y-84460925D01*
X244027121Y-84450645D01*
X243995888Y-84433950D01*
X243968514Y-84411486D01*
X243946050Y-84384112D01*
X243929355Y-84352879D01*
X243919075Y-84318991D01*
X243915000Y-84277612D01*
X243915000Y-83677388D01*
X243919075Y-83636009D01*
X243929355Y-83602121D01*
X243946050Y-83570888D01*
X243968514Y-83543514D01*
X243995888Y-83521050D01*
X244027121Y-83504355D01*
X244061009Y-83494075D01*
X244102388Y-83490000D01*
X244777612Y-83490000D01*
X244818991Y-83494075D01*
G37*
G36*
X254565000Y-84375000D02*
G01*
X254125000Y-84375000D01*
X254125000Y-84045000D01*
X254565000Y-84045000D01*
X254565000Y-84375000D01*
G37*
G36*
X257375000Y-84075000D02*
G01*
X256835000Y-84075000D01*
X256835000Y-83745000D01*
X257375000Y-83745000D01*
X257375000Y-84075000D01*
G37*
G36*
X254565000Y-83775000D02*
G01*
X254125000Y-83775000D01*
X254125000Y-83445000D01*
X254565000Y-83445000D01*
X254565000Y-83775000D01*
G37*
G36*
X257375000Y-83475000D02*
G01*
X256835000Y-83475000D01*
X256835000Y-83145000D01*
X257375000Y-83145000D01*
X257375000Y-83475000D01*
G37*
G36*
X254565000Y-83175000D02*
G01*
X254125000Y-83175000D01*
X254125000Y-82845000D01*
X254565000Y-82845000D01*
X254565000Y-83175000D01*
G37*
G36*
X244818991Y-81919075D02*
G01*
X244852879Y-81929355D01*
X244884112Y-81946050D01*
X244911486Y-81968514D01*
X244933950Y-81995888D01*
X244950645Y-82027121D01*
X244960925Y-82061009D01*
X244965000Y-82102388D01*
X244965000Y-82702612D01*
X244960925Y-82743991D01*
X244950645Y-82777879D01*
X244933950Y-82809112D01*
X244911486Y-82836486D01*
X244884112Y-82858950D01*
X244852879Y-82875645D01*
X244818991Y-82885925D01*
X244777612Y-82890000D01*
X244102388Y-82890000D01*
X244061009Y-82885925D01*
X244027121Y-82875645D01*
X243995888Y-82858950D01*
X243968514Y-82836486D01*
X243946050Y-82809112D01*
X243929355Y-82777879D01*
X243919075Y-82743991D01*
X243915000Y-82702612D01*
X243915000Y-82102388D01*
X243919075Y-82061009D01*
X243929355Y-82027121D01*
X243946050Y-81995888D01*
X243968514Y-81968514D01*
X243995888Y-81946050D01*
X244027121Y-81929355D01*
X244061009Y-81919075D01*
X244102388Y-81915000D01*
X244777612Y-81915000D01*
X244818991Y-81919075D01*
G37*
G36*
X257375000Y-82875000D02*
G01*
X256835000Y-82875000D01*
X256835000Y-82545000D01*
X257375000Y-82545000D01*
X257375000Y-82875000D01*
G37*
G36*
X230043991Y-81639075D02*
G01*
X230077879Y-81649355D01*
X230109112Y-81666050D01*
X230136486Y-81688514D01*
X230158950Y-81715888D01*
X230175645Y-81747121D01*
X230185925Y-81781009D01*
X230190000Y-81822388D01*
X230190000Y-82497612D01*
X230185925Y-82538991D01*
X230175645Y-82572879D01*
X230158950Y-82604112D01*
X230136486Y-82631486D01*
X230109112Y-82653950D01*
X230077879Y-82670645D01*
X230043991Y-82680925D01*
X230002612Y-82685000D01*
X229402388Y-82685000D01*
X229361009Y-82680925D01*
X229327121Y-82670645D01*
X229295888Y-82653950D01*
X229268514Y-82631486D01*
X229246050Y-82604112D01*
X229229355Y-82572879D01*
X229219075Y-82538991D01*
X229215000Y-82497612D01*
X229215000Y-81822388D01*
X229219075Y-81781009D01*
X229229355Y-81747121D01*
X229246050Y-81715888D01*
X229268514Y-81688514D01*
X229295888Y-81666050D01*
X229327121Y-81649355D01*
X229361009Y-81639075D01*
X229402388Y-81635000D01*
X230002612Y-81635000D01*
X230043991Y-81639075D01*
G37*
G36*
X231618991Y-81639075D02*
G01*
X231652879Y-81649355D01*
X231684112Y-81666050D01*
X231711486Y-81688514D01*
X231733950Y-81715888D01*
X231750645Y-81747121D01*
X231760925Y-81781009D01*
X231765000Y-81822388D01*
X231765000Y-82497612D01*
X231760925Y-82538991D01*
X231750645Y-82572879D01*
X231733950Y-82604112D01*
X231711486Y-82631486D01*
X231684112Y-82653950D01*
X231652879Y-82670645D01*
X231618991Y-82680925D01*
X231577612Y-82685000D01*
X230977388Y-82685000D01*
X230936009Y-82680925D01*
X230902121Y-82670645D01*
X230870888Y-82653950D01*
X230843514Y-82631486D01*
X230821050Y-82604112D01*
X230804355Y-82572879D01*
X230794075Y-82538991D01*
X230790000Y-82497612D01*
X230790000Y-81822388D01*
X230794075Y-81781009D01*
X230804355Y-81747121D01*
X230821050Y-81715888D01*
X230843514Y-81688514D01*
X230870888Y-81666050D01*
X230902121Y-81649355D01*
X230936009Y-81639075D01*
X230977388Y-81635000D01*
X231577612Y-81635000D01*
X231618991Y-81639075D01*
G37*
G36*
X233158991Y-81624075D02*
G01*
X233192879Y-81634355D01*
X233224112Y-81651050D01*
X233251486Y-81673514D01*
X233273950Y-81700888D01*
X233290645Y-81732121D01*
X233300925Y-81766009D01*
X233305000Y-81807388D01*
X233305000Y-82407612D01*
X233300925Y-82448991D01*
X233290645Y-82482879D01*
X233273950Y-82514112D01*
X233251486Y-82541486D01*
X233224112Y-82563950D01*
X233192879Y-82580645D01*
X233158991Y-82590925D01*
X233117612Y-82595000D01*
X232442388Y-82595000D01*
X232401009Y-82590925D01*
X232367121Y-82580645D01*
X232335888Y-82563950D01*
X232308514Y-82541486D01*
X232286050Y-82514112D01*
X232269355Y-82482879D01*
X232259075Y-82448991D01*
X232255000Y-82407612D01*
X232255000Y-81807388D01*
X232259075Y-81766009D01*
X232269355Y-81732121D01*
X232286050Y-81700888D01*
X232308514Y-81673514D01*
X232335888Y-81651050D01*
X232367121Y-81634355D01*
X232401009Y-81624075D01*
X232442388Y-81620000D01*
X233117612Y-81620000D01*
X233158991Y-81624075D01*
G37*
G36*
X254565000Y-82575000D02*
G01*
X254125000Y-82575000D01*
X254125000Y-82245000D01*
X254565000Y-82245000D01*
X254565000Y-82575000D01*
G37*
G36*
X240350000Y-82300000D02*
G01*
X236350000Y-82300000D01*
X236350000Y-80600000D01*
X240350000Y-80600000D01*
X240350000Y-82300000D01*
G37*
G36*
X257375000Y-82275000D02*
G01*
X256835000Y-82275000D01*
X256835000Y-81945000D01*
X257375000Y-81945000D01*
X257375000Y-82275000D01*
G37*
G36*
X242580000Y-81990000D02*
G01*
X241280000Y-81990000D01*
X241280000Y-80990000D01*
X242580000Y-80990000D01*
X242580000Y-81990000D01*
G37*
G36*
X254565000Y-81975000D02*
G01*
X254125000Y-81975000D01*
X254125000Y-81645000D01*
X254565000Y-81645000D01*
X254565000Y-81975000D01*
G37*
G36*
X257375000Y-81675000D02*
G01*
X256835000Y-81675000D01*
X256835000Y-81345000D01*
X257375000Y-81345000D01*
X257375000Y-81675000D01*
G37*
G36*
X245765000Y-81430000D02*
G01*
X243115000Y-81430000D01*
X243115000Y-80270000D01*
X245765000Y-80270000D01*
X245765000Y-81430000D01*
G37*
G36*
X254565000Y-81375000D02*
G01*
X254125000Y-81375000D01*
X254125000Y-81045000D01*
X254565000Y-81045000D01*
X254565000Y-81375000D01*
G37*
G36*
X247313991Y-80309075D02*
G01*
X247347879Y-80319355D01*
X247379112Y-80336050D01*
X247406486Y-80358514D01*
X247428950Y-80385888D01*
X247445645Y-80417121D01*
X247455925Y-80451009D01*
X247460000Y-80492388D01*
X247460000Y-81167612D01*
X247455925Y-81208991D01*
X247445645Y-81242879D01*
X247428950Y-81274112D01*
X247406486Y-81301486D01*
X247379112Y-81323950D01*
X247347879Y-81340645D01*
X247313991Y-81350925D01*
X247272612Y-81355000D01*
X246672388Y-81355000D01*
X246631009Y-81350925D01*
X246597121Y-81340645D01*
X246565888Y-81323950D01*
X246538514Y-81301486D01*
X246516050Y-81274112D01*
X246499355Y-81242879D01*
X246489075Y-81208991D01*
X246485000Y-81167612D01*
X246485000Y-80492388D01*
X246489075Y-80451009D01*
X246499355Y-80417121D01*
X246516050Y-80385888D01*
X246538514Y-80358514D01*
X246565888Y-80336050D01*
X246597121Y-80319355D01*
X246631009Y-80309075D01*
X246672388Y-80305000D01*
X247272612Y-80305000D01*
X247313991Y-80309075D01*
G37*
G36*
X248888991Y-80309075D02*
G01*
X248922879Y-80319355D01*
X248954112Y-80336050D01*
X248981486Y-80358514D01*
X249003950Y-80385888D01*
X249020645Y-80417121D01*
X249030925Y-80451009D01*
X249035000Y-80492388D01*
X249035000Y-81167612D01*
X249030925Y-81208991D01*
X249020645Y-81242879D01*
X249003950Y-81274112D01*
X248981486Y-81301486D01*
X248954112Y-81323950D01*
X248922879Y-81340645D01*
X248888991Y-81350925D01*
X248847612Y-81355000D01*
X248247388Y-81355000D01*
X248206009Y-81350925D01*
X248172121Y-81340645D01*
X248140888Y-81323950D01*
X248113514Y-81301486D01*
X248091050Y-81274112D01*
X248074355Y-81242879D01*
X248064075Y-81208991D01*
X248060000Y-81167612D01*
X248060000Y-80492388D01*
X248064075Y-80451009D01*
X248074355Y-80417121D01*
X248091050Y-80385888D01*
X248113514Y-80358514D01*
X248140888Y-80336050D01*
X248172121Y-80319355D01*
X248206009Y-80309075D01*
X248247388Y-80305000D01*
X248847612Y-80305000D01*
X248888991Y-80309075D01*
G37*
G36*
X257375000Y-81075000D02*
G01*
X256835000Y-81075000D01*
X256835000Y-80745000D01*
X257375000Y-80745000D01*
X257375000Y-81075000D01*
G37*
G36*
X233158991Y-80049075D02*
G01*
X233192879Y-80059355D01*
X233224112Y-80076050D01*
X233251486Y-80098514D01*
X233273950Y-80125888D01*
X233290645Y-80157121D01*
X233300925Y-80191009D01*
X233305000Y-80232388D01*
X233305000Y-80832612D01*
X233300925Y-80873991D01*
X233290645Y-80907879D01*
X233273950Y-80939112D01*
X233251486Y-80966486D01*
X233224112Y-80988950D01*
X233192879Y-81005645D01*
X233158991Y-81015925D01*
X233117612Y-81020000D01*
X232442388Y-81020000D01*
X232401009Y-81015925D01*
X232367121Y-81005645D01*
X232335888Y-80988950D01*
X232308514Y-80966486D01*
X232286050Y-80939112D01*
X232269355Y-80907879D01*
X232259075Y-80873991D01*
X232255000Y-80832612D01*
X232255000Y-80232388D01*
X232259075Y-80191009D01*
X232269355Y-80157121D01*
X232286050Y-80125888D01*
X232308514Y-80098514D01*
X232335888Y-80076050D01*
X232367121Y-80059355D01*
X232401009Y-80049075D01*
X232442388Y-80045000D01*
X233117612Y-80045000D01*
X233158991Y-80049075D01*
G37*
G36*
X230015000Y-80970000D02*
G01*
X229465000Y-80970000D01*
X229465000Y-80170000D01*
X230015000Y-80170000D01*
X230015000Y-80970000D01*
G37*
G36*
X231315000Y-80970000D02*
G01*
X230765000Y-80970000D01*
X230765000Y-80170000D01*
X231315000Y-80170000D01*
X231315000Y-80970000D01*
G37*
G36*
X254565000Y-80775000D02*
G01*
X254125000Y-80775000D01*
X254125000Y-80445000D01*
X254565000Y-80445000D01*
X254565000Y-80775000D01*
G37*
G36*
X257375000Y-80475000D02*
G01*
X256835000Y-80475000D01*
X256835000Y-80145000D01*
X257375000Y-80145000D01*
X257375000Y-80475000D01*
G37*
G36*
X212482520Y-78544586D02*
G01*
X212646310Y-78612430D01*
X212793717Y-78710924D01*
X212919076Y-78836283D01*
X213017570Y-78983690D01*
X213017571Y-78983692D01*
X213085414Y-79147480D01*
X213120000Y-79321356D01*
X213120000Y-79498644D01*
X213085414Y-79672520D01*
X213067127Y-79716670D01*
X213017570Y-79836310D01*
X212919076Y-79983717D01*
X212793717Y-80109076D01*
X212646310Y-80207570D01*
X212646309Y-80207571D01*
X212646308Y-80207571D01*
X212482520Y-80275414D01*
X212308644Y-80310000D01*
X212131356Y-80310000D01*
X211957480Y-80275414D01*
X211793692Y-80207571D01*
X211793691Y-80207571D01*
X211793690Y-80207570D01*
X211646283Y-80109076D01*
X211520924Y-79983717D01*
X211422430Y-79836310D01*
X211372874Y-79716670D01*
X211354586Y-79672520D01*
X211320000Y-79498644D01*
X211320000Y-79321356D01*
X211354586Y-79147480D01*
X211422429Y-78983692D01*
X211422430Y-78983690D01*
X211520924Y-78836283D01*
X211646283Y-78710924D01*
X211793690Y-78612430D01*
X211957480Y-78544586D01*
X212131356Y-78510000D01*
X212308644Y-78510000D01*
X212482520Y-78544586D01*
G37*
G36*
X209942520Y-78544586D02*
G01*
X210106310Y-78612430D01*
X210253717Y-78710924D01*
X210379076Y-78836283D01*
X210477570Y-78983690D01*
X210477571Y-78983692D01*
X210545414Y-79147480D01*
X210580000Y-79321356D01*
X210580000Y-79498644D01*
X210545414Y-79672520D01*
X210527127Y-79716670D01*
X210477570Y-79836310D01*
X210379076Y-79983717D01*
X210253717Y-80109076D01*
X210106310Y-80207570D01*
X210106309Y-80207571D01*
X210106308Y-80207571D01*
X209942520Y-80275414D01*
X209768644Y-80310000D01*
X209591356Y-80310000D01*
X209417480Y-80275414D01*
X209253692Y-80207571D01*
X209253691Y-80207571D01*
X209253690Y-80207570D01*
X209106283Y-80109076D01*
X208980924Y-79983717D01*
X208882430Y-79836310D01*
X208832874Y-79716670D01*
X208814586Y-79672520D01*
X208780000Y-79498644D01*
X208780000Y-79321356D01*
X208814586Y-79147480D01*
X208882429Y-78983692D01*
X208882430Y-78983690D01*
X208980924Y-78836283D01*
X209106283Y-78710924D01*
X209253690Y-78612430D01*
X209417480Y-78544586D01*
X209591356Y-78510000D01*
X209768644Y-78510000D01*
X209942520Y-78544586D01*
G37*
G36*
X207402520Y-78544586D02*
G01*
X207566310Y-78612430D01*
X207713717Y-78710924D01*
X207839076Y-78836283D01*
X207937570Y-78983690D01*
X207937571Y-78983692D01*
X208005414Y-79147480D01*
X208040000Y-79321356D01*
X208040000Y-79498644D01*
X208005414Y-79672520D01*
X207987127Y-79716670D01*
X207937570Y-79836310D01*
X207839076Y-79983717D01*
X207713717Y-80109076D01*
X207566310Y-80207570D01*
X207566309Y-80207571D01*
X207566308Y-80207571D01*
X207402520Y-80275414D01*
X207228644Y-80310000D01*
X207051356Y-80310000D01*
X206877480Y-80275414D01*
X206713692Y-80207571D01*
X206713691Y-80207571D01*
X206713690Y-80207570D01*
X206566283Y-80109076D01*
X206440924Y-79983717D01*
X206342430Y-79836310D01*
X206292874Y-79716670D01*
X206274586Y-79672520D01*
X206240000Y-79498644D01*
X206240000Y-79321356D01*
X206274586Y-79147480D01*
X206342429Y-78983692D01*
X206342430Y-78983690D01*
X206440924Y-78836283D01*
X206566283Y-78710924D01*
X206713690Y-78612430D01*
X206877480Y-78544586D01*
X207051356Y-78510000D01*
X207228644Y-78510000D01*
X207402520Y-78544586D01*
G37*
G36*
X215022520Y-78544586D02*
G01*
X215186310Y-78612430D01*
X215333717Y-78710924D01*
X215459076Y-78836283D01*
X215557570Y-78983690D01*
X215557571Y-78983692D01*
X215625414Y-79147480D01*
X215660000Y-79321356D01*
X215660000Y-79498644D01*
X215625414Y-79672520D01*
X215607127Y-79716670D01*
X215557570Y-79836310D01*
X215459076Y-79983717D01*
X215333717Y-80109076D01*
X215186310Y-80207570D01*
X215186309Y-80207571D01*
X215186308Y-80207571D01*
X215022520Y-80275414D01*
X214848644Y-80310000D01*
X214671356Y-80310000D01*
X214497480Y-80275414D01*
X214333692Y-80207571D01*
X214333691Y-80207571D01*
X214333690Y-80207570D01*
X214186283Y-80109076D01*
X214060924Y-79983717D01*
X213962430Y-79836310D01*
X213912874Y-79716670D01*
X213894586Y-79672520D01*
X213860000Y-79498644D01*
X213860000Y-79321356D01*
X213894586Y-79147480D01*
X213962429Y-78983692D01*
X213962430Y-78983690D01*
X214060924Y-78836283D01*
X214186283Y-78710924D01*
X214333690Y-78612430D01*
X214497480Y-78544586D01*
X214671356Y-78510000D01*
X214848644Y-78510000D01*
X215022520Y-78544586D01*
G37*
G36*
X217562520Y-78544586D02*
G01*
X217726310Y-78612430D01*
X217873717Y-78710924D01*
X217999076Y-78836283D01*
X218097570Y-78983690D01*
X218097571Y-78983692D01*
X218165414Y-79147480D01*
X218200000Y-79321356D01*
X218200000Y-79498644D01*
X218165414Y-79672520D01*
X218147127Y-79716670D01*
X218097570Y-79836310D01*
X217999076Y-79983717D01*
X217873717Y-80109076D01*
X217726310Y-80207570D01*
X217726309Y-80207571D01*
X217726308Y-80207571D01*
X217562520Y-80275414D01*
X217388644Y-80310000D01*
X217211356Y-80310000D01*
X217037480Y-80275414D01*
X216873692Y-80207571D01*
X216873691Y-80207571D01*
X216873690Y-80207570D01*
X216726283Y-80109076D01*
X216600924Y-79983717D01*
X216502430Y-79836310D01*
X216452874Y-79716670D01*
X216434586Y-79672520D01*
X216400000Y-79498644D01*
X216400000Y-79321356D01*
X216434586Y-79147480D01*
X216502429Y-78983692D01*
X216502430Y-78983690D01*
X216600924Y-78836283D01*
X216726283Y-78710924D01*
X216873690Y-78612430D01*
X217037480Y-78544586D01*
X217211356Y-78510000D01*
X217388644Y-78510000D01*
X217562520Y-78544586D01*
G37*
G36*
X220102520Y-78544586D02*
G01*
X220266310Y-78612430D01*
X220413717Y-78710924D01*
X220539076Y-78836283D01*
X220637570Y-78983690D01*
X220637571Y-78983692D01*
X220705414Y-79147480D01*
X220740000Y-79321356D01*
X220740000Y-79498644D01*
X220705414Y-79672520D01*
X220687127Y-79716670D01*
X220637570Y-79836310D01*
X220539076Y-79983717D01*
X220413717Y-80109076D01*
X220266310Y-80207570D01*
X220266309Y-80207571D01*
X220266308Y-80207571D01*
X220102520Y-80275414D01*
X219928644Y-80310000D01*
X219751356Y-80310000D01*
X219577480Y-80275414D01*
X219413692Y-80207571D01*
X219413691Y-80207571D01*
X219413690Y-80207570D01*
X219266283Y-80109076D01*
X219140924Y-79983717D01*
X219042430Y-79836310D01*
X218992874Y-79716670D01*
X218974586Y-79672520D01*
X218940000Y-79498644D01*
X218940000Y-79321356D01*
X218974586Y-79147480D01*
X219042429Y-78983692D01*
X219042430Y-78983690D01*
X219140924Y-78836283D01*
X219266283Y-78710924D01*
X219413690Y-78612430D01*
X219577480Y-78544586D01*
X219751356Y-78510000D01*
X219928644Y-78510000D01*
X220102520Y-78544586D01*
G37*
G36*
X222642520Y-78544586D02*
G01*
X222806310Y-78612430D01*
X222953717Y-78710924D01*
X223079076Y-78836283D01*
X223177570Y-78983690D01*
X223177571Y-78983692D01*
X223245414Y-79147480D01*
X223280000Y-79321356D01*
X223280000Y-79498644D01*
X223245414Y-79672520D01*
X223227127Y-79716670D01*
X223177570Y-79836310D01*
X223079076Y-79983717D01*
X222953717Y-80109076D01*
X222806310Y-80207570D01*
X222806309Y-80207571D01*
X222806308Y-80207571D01*
X222642520Y-80275414D01*
X222468644Y-80310000D01*
X222291356Y-80310000D01*
X222117480Y-80275414D01*
X221953692Y-80207571D01*
X221953691Y-80207571D01*
X221953690Y-80207570D01*
X221806283Y-80109076D01*
X221680924Y-79983717D01*
X221582430Y-79836310D01*
X221532874Y-79716670D01*
X221514586Y-79672520D01*
X221480000Y-79498644D01*
X221480000Y-79321356D01*
X221514586Y-79147480D01*
X221582429Y-78983692D01*
X221582430Y-78983690D01*
X221680924Y-78836283D01*
X221806283Y-78710924D01*
X221953690Y-78612430D01*
X222117480Y-78544586D01*
X222291356Y-78510000D01*
X222468644Y-78510000D01*
X222642520Y-78544586D01*
G37*
G36*
X225820000Y-80310000D02*
G01*
X224020000Y-80310000D01*
X224020000Y-78510000D01*
X225820000Y-78510000D01*
X225820000Y-80310000D01*
G37*
G36*
X242218991Y-79264075D02*
G01*
X242252879Y-79274355D01*
X242284112Y-79291050D01*
X242311486Y-79313514D01*
X242333950Y-79340888D01*
X242350645Y-79372121D01*
X242360925Y-79406009D01*
X242365000Y-79447388D01*
X242365000Y-80047612D01*
X242360925Y-80088991D01*
X242350645Y-80122879D01*
X242333950Y-80154112D01*
X242311486Y-80181486D01*
X242284112Y-80203950D01*
X242252879Y-80220645D01*
X242218991Y-80230925D01*
X242177612Y-80235000D01*
X241502388Y-80235000D01*
X241461009Y-80230925D01*
X241427121Y-80220645D01*
X241395888Y-80203950D01*
X241368514Y-80181486D01*
X241346050Y-80154112D01*
X241329355Y-80122879D01*
X241319075Y-80088991D01*
X241315000Y-80047612D01*
X241315000Y-79447388D01*
X241319075Y-79406009D01*
X241329355Y-79372121D01*
X241346050Y-79340888D01*
X241368514Y-79313514D01*
X241395888Y-79291050D01*
X241427121Y-79274355D01*
X241461009Y-79264075D01*
X241502388Y-79260000D01*
X242177612Y-79260000D01*
X242218991Y-79264075D01*
G37*
G36*
X254565000Y-80175000D02*
G01*
X254125000Y-80175000D01*
X254125000Y-79845000D01*
X254565000Y-79845000D01*
X254565000Y-80175000D01*
G37*
G36*
X257375000Y-79875000D02*
G01*
X256835000Y-79875000D01*
X256835000Y-79545000D01*
X257375000Y-79545000D01*
X257375000Y-79875000D01*
G37*
G36*
X247331491Y-78779075D02*
G01*
X247365379Y-78789355D01*
X247396612Y-78806050D01*
X247423986Y-78828514D01*
X247446450Y-78855888D01*
X247463145Y-78887121D01*
X247473425Y-78921009D01*
X247477500Y-78962388D01*
X247477500Y-79637612D01*
X247473425Y-79678991D01*
X247463145Y-79712879D01*
X247446450Y-79744112D01*
X247423986Y-79771486D01*
X247396612Y-79793950D01*
X247365379Y-79810645D01*
X247331491Y-79820925D01*
X247290112Y-79825000D01*
X246689888Y-79825000D01*
X246648509Y-79820925D01*
X246614621Y-79810645D01*
X246583388Y-79793950D01*
X246556014Y-79771486D01*
X246533550Y-79744112D01*
X246516855Y-79712879D01*
X246506575Y-79678991D01*
X246502500Y-79637612D01*
X246502500Y-78962388D01*
X246506575Y-78921009D01*
X246516855Y-78887121D01*
X246533550Y-78855888D01*
X246556014Y-78828514D01*
X246583388Y-78806050D01*
X246614621Y-78789355D01*
X246648509Y-78779075D01*
X246689888Y-78775000D01*
X247290112Y-78775000D01*
X247331491Y-78779075D01*
G37*
G36*
X248906491Y-78779075D02*
G01*
X248940379Y-78789355D01*
X248971612Y-78806050D01*
X248998986Y-78828514D01*
X249021450Y-78855888D01*
X249038145Y-78887121D01*
X249048425Y-78921009D01*
X249052500Y-78962388D01*
X249052500Y-79637612D01*
X249048425Y-79678991D01*
X249038145Y-79712879D01*
X249021450Y-79744112D01*
X248998986Y-79771486D01*
X248971612Y-79793950D01*
X248940379Y-79810645D01*
X248906491Y-79820925D01*
X248865112Y-79825000D01*
X248264888Y-79825000D01*
X248223509Y-79820925D01*
X248189621Y-79810645D01*
X248158388Y-79793950D01*
X248131014Y-79771486D01*
X248108550Y-79744112D01*
X248091855Y-79712879D01*
X248081575Y-79678991D01*
X248077500Y-79637612D01*
X248077500Y-78962388D01*
X248081575Y-78921009D01*
X248091855Y-78887121D01*
X248108550Y-78855888D01*
X248131014Y-78828514D01*
X248158388Y-78806050D01*
X248189621Y-78789355D01*
X248223509Y-78779075D01*
X248264888Y-78775000D01*
X248865112Y-78775000D01*
X248906491Y-78779075D01*
G37*
G36*
X254565000Y-79575000D02*
G01*
X254125000Y-79575000D01*
X254125000Y-79245000D01*
X254565000Y-79245000D01*
X254565000Y-79575000D01*
G37*
G36*
X240350000Y-79400000D02*
G01*
X236350000Y-79400000D01*
X236350000Y-77700000D01*
X240350000Y-77700000D01*
X240350000Y-79400000D01*
G37*
G36*
X257375000Y-79275000D02*
G01*
X256835000Y-79275000D01*
X256835000Y-78945000D01*
X257375000Y-78945000D01*
X257375000Y-79275000D01*
G37*
G36*
X243865000Y-79230000D02*
G01*
X243115000Y-79230000D01*
X243115000Y-78070000D01*
X243865000Y-78070000D01*
X243865000Y-79230000D01*
G37*
G36*
X245765000Y-79230000D02*
G01*
X245015000Y-79230000D01*
X245015000Y-78070000D01*
X245765000Y-78070000D01*
X245765000Y-79230000D01*
G37*
G36*
X254565000Y-78975000D02*
G01*
X254125000Y-78975000D01*
X254125000Y-78645000D01*
X254565000Y-78645000D01*
X254565000Y-78975000D01*
G37*
G36*
X230665000Y-78970000D02*
G01*
X230115000Y-78970000D01*
X230115000Y-78170000D01*
X230665000Y-78170000D01*
X230665000Y-78970000D01*
G37*
G36*
X257375000Y-78675000D02*
G01*
X256835000Y-78675000D01*
X256835000Y-78345000D01*
X257375000Y-78345000D01*
X257375000Y-78675000D01*
G37*
G36*
X242218991Y-77689075D02*
G01*
X242252879Y-77699355D01*
X242284112Y-77716050D01*
X242311486Y-77738514D01*
X242333950Y-77765888D01*
X242350645Y-77797121D01*
X242360925Y-77831009D01*
X242365000Y-77872388D01*
X242365000Y-78472612D01*
X242360925Y-78513991D01*
X242350645Y-78547879D01*
X242333950Y-78579112D01*
X242311486Y-78606486D01*
X242284112Y-78628950D01*
X242252879Y-78645645D01*
X242218991Y-78655925D01*
X242177612Y-78660000D01*
X241502388Y-78660000D01*
X241461009Y-78655925D01*
X241427121Y-78645645D01*
X241395888Y-78628950D01*
X241368514Y-78606486D01*
X241346050Y-78579112D01*
X241329355Y-78547879D01*
X241319075Y-78513991D01*
X241315000Y-78472612D01*
X241315000Y-77872388D01*
X241319075Y-77831009D01*
X241329355Y-77797121D01*
X241346050Y-77765888D01*
X241368514Y-77738514D01*
X241395888Y-77716050D01*
X241427121Y-77699355D01*
X241461009Y-77689075D01*
X241502388Y-77685000D01*
X242177612Y-77685000D01*
X242218991Y-77689075D01*
G37*
G36*
X254565000Y-78375000D02*
G01*
X254125000Y-78375000D01*
X254125000Y-78045000D01*
X254565000Y-78045000D01*
X254565000Y-78375000D01*
G37*
G36*
X257375000Y-78075000D02*
G01*
X256835000Y-78075000D01*
X256835000Y-77745000D01*
X257375000Y-77745000D01*
X257375000Y-78075000D01*
G37*
G36*
X254565000Y-77775000D02*
G01*
X254125000Y-77775000D01*
X254125000Y-77445000D01*
X254565000Y-77445000D01*
X254565000Y-77775000D01*
G37*
G36*
X257375000Y-77475000D02*
G01*
X256835000Y-77475000D01*
X256835000Y-77145000D01*
X257375000Y-77145000D01*
X257375000Y-77475000D01*
G37*
M02*
