G04 #@! TF.GenerationSoftware,KiCad,Pcbnew,5.1.6*
G04 #@! TF.CreationDate,2020-09-07T17:12:55+08:00*
G04 #@! TF.ProjectId,bt_audio_rec,62745f61-7564-4696-9f5f-7265632e6b69,rev?*
G04 #@! TF.SameCoordinates,Original*
G04 #@! TF.FileFunction,Copper,L2,Bot*
G04 #@! TF.FilePolarity,Positive*
%FSLAX46Y46*%
G04 Gerber Fmt 4.6, Leading zero omitted, Abs format (unit mm)*
G04 Created by KiCad (PCBNEW 5.1.6) date 2020-09-07 17:12:55*
%MOMM*%
%LPD*%
G01*
G04 APERTURE LIST*
G04 #@! TA.AperFunction,ComponentPad*
%ADD10O,1.200000X1.750000*%
G04 #@! TD*
G04 #@! TA.AperFunction,ComponentPad*
%ADD11R,1.700000X1.700000*%
G04 #@! TD*
G04 #@! TA.AperFunction,ComponentPad*
%ADD12O,1.700000X1.700000*%
G04 #@! TD*
G04 #@! TA.AperFunction,ComponentPad*
%ADD13O,1.740000X2.190000*%
G04 #@! TD*
G04 #@! TA.AperFunction,ComponentPad*
%ADD14C,1.600000*%
G04 #@! TD*
G04 #@! TA.AperFunction,ComponentPad*
%ADD15O,1.600000X1.600000*%
G04 #@! TD*
G04 #@! TA.AperFunction,ViaPad*
%ADD16C,0.800000*%
G04 #@! TD*
G04 #@! TA.AperFunction,ViaPad*
%ADD17C,0.600000*%
G04 #@! TD*
G04 #@! TA.AperFunction,Conductor*
%ADD18C,0.300000*%
G04 #@! TD*
G04 #@! TA.AperFunction,Conductor*
%ADD19C,0.500000*%
G04 #@! TD*
G04 #@! TA.AperFunction,Conductor*
%ADD20C,1.000000*%
G04 #@! TD*
G04 #@! TA.AperFunction,Conductor*
%ADD21C,0.250000*%
G04 #@! TD*
G04 #@! TA.AperFunction,Conductor*
%ADD22C,0.700000*%
G04 #@! TD*
G04 #@! TA.AperFunction,Conductor*
%ADD23C,0.400000*%
G04 #@! TD*
G04 #@! TA.AperFunction,Conductor*
%ADD24C,0.200000*%
G04 #@! TD*
G04 APERTURE END LIST*
G04 #@! TA.AperFunction,SMDPad,CuDef*
G36*
G01*
X238843750Y-102945000D02*
X239356250Y-102945000D01*
G75*
G02*
X239575000Y-103163750I0J-218750D01*
G01*
X239575000Y-103601250D01*
G75*
G02*
X239356250Y-103820000I-218750J0D01*
G01*
X238843750Y-103820000D01*
G75*
G02*
X238625000Y-103601250I0J218750D01*
G01*
X238625000Y-103163750D01*
G75*
G02*
X238843750Y-102945000I218750J0D01*
G01*
G37*
G04 #@! TD.AperFunction*
G04 #@! TA.AperFunction,SMDPad,CuDef*
G36*
G01*
X238843750Y-104520000D02*
X239356250Y-104520000D01*
G75*
G02*
X239575000Y-104738750I0J-218750D01*
G01*
X239575000Y-105176250D01*
G75*
G02*
X239356250Y-105395000I-218750J0D01*
G01*
X238843750Y-105395000D01*
G75*
G02*
X238625000Y-105176250I0J218750D01*
G01*
X238625000Y-104738750D01*
G75*
G02*
X238843750Y-104520000I218750J0D01*
G01*
G37*
G04 #@! TD.AperFunction*
G04 #@! TA.AperFunction,ComponentPad*
G36*
G01*
X213990000Y-115555001D02*
X213990000Y-114304999D01*
G75*
G02*
X214239999Y-114055000I249999J0D01*
G01*
X214940001Y-114055000D01*
G75*
G02*
X215190000Y-114304999I0J-249999D01*
G01*
X215190000Y-115555001D01*
G75*
G02*
X214940001Y-115805000I-249999J0D01*
G01*
X214239999Y-115805000D01*
G75*
G02*
X213990000Y-115555001I0J249999D01*
G01*
G37*
G04 #@! TD.AperFunction*
D10*
X216590000Y-114930000D03*
X218590000Y-114930000D03*
D11*
X217440000Y-99710000D03*
D12*
X214900000Y-99710000D03*
D10*
X227800000Y-114930000D03*
X225800000Y-114930000D03*
G04 #@! TA.AperFunction,ComponentPad*
G36*
G01*
X223200000Y-115555001D02*
X223200000Y-114304999D01*
G75*
G02*
X223449999Y-114055000I249999J0D01*
G01*
X224150001Y-114055000D01*
G75*
G02*
X224400000Y-114304999I0J-249999D01*
G01*
X224400000Y-115555001D01*
G75*
G02*
X224150001Y-115805000I-249999J0D01*
G01*
X223449999Y-115805000D01*
G75*
G02*
X223200000Y-115555001I0J249999D01*
G01*
G37*
G04 #@! TD.AperFunction*
D11*
X235410000Y-113120000D03*
D12*
X235410000Y-110580000D03*
X237950000Y-113120000D03*
X237950000Y-110580000D03*
X240490000Y-113120000D03*
X240490000Y-110580000D03*
X243030000Y-113120000D03*
X243030000Y-110580000D03*
G04 #@! TA.AperFunction,ComponentPad*
G36*
G01*
X222840000Y-107364999D02*
X222840000Y-108615001D01*
G75*
G02*
X222590001Y-108865000I-249999J0D01*
G01*
X221889999Y-108865000D01*
G75*
G02*
X221640000Y-108615001I0J249999D01*
G01*
X221640000Y-107364999D01*
G75*
G02*
X221889999Y-107115000I249999J0D01*
G01*
X222590001Y-107115000D01*
G75*
G02*
X222840000Y-107364999I0J-249999D01*
G01*
G37*
G04 #@! TD.AperFunction*
D10*
X220240000Y-107990000D03*
D11*
X256190000Y-119870000D03*
D12*
X253650000Y-119870000D03*
X256190000Y-122410000D03*
X253650000Y-122410000D03*
X256190000Y-124950000D03*
X253650000Y-124950000D03*
D11*
X254300000Y-135890000D03*
D12*
X251760000Y-135890000D03*
X254300000Y-138430000D03*
X251760000Y-138430000D03*
X254300000Y-140970000D03*
X251760000Y-140970000D03*
G04 #@! TA.AperFunction,ComponentPad*
G36*
G01*
X242450000Y-120104999D02*
X242450000Y-121795001D01*
G75*
G02*
X242200001Y-122045000I-249999J0D01*
G01*
X240959999Y-122045000D01*
G75*
G02*
X240710000Y-121795001I0J249999D01*
G01*
X240710000Y-120104999D01*
G75*
G02*
X240959999Y-119855000I249999J0D01*
G01*
X242200001Y-119855000D01*
G75*
G02*
X242450000Y-120104999I0J-249999D01*
G01*
G37*
G04 #@! TD.AperFunction*
D13*
X239040000Y-120950000D03*
X236500000Y-120950000D03*
D14*
X245430000Y-129940000D03*
D15*
X245430000Y-119780000D03*
D11*
X224920000Y-79410000D03*
D12*
X222380000Y-79410000D03*
X219840000Y-79410000D03*
X217300000Y-79410000D03*
X214760000Y-79410000D03*
X212220000Y-79410000D03*
X209680000Y-79410000D03*
X207140000Y-79410000D03*
D11*
X256670000Y-95630000D03*
D12*
X256670000Y-93090000D03*
D16*
X244440000Y-79750000D03*
X229800000Y-111040000D03*
X229800000Y-114525000D03*
X229170000Y-118120000D03*
X214640000Y-118120000D03*
X209600000Y-114090000D03*
X243170000Y-79750000D03*
X245710000Y-79750000D03*
X231930000Y-100190000D03*
X232690000Y-98320000D03*
X234080000Y-95380000D03*
X229450000Y-97790000D03*
X219483333Y-118120000D03*
X224180000Y-118170000D03*
X208170000Y-118120000D03*
X213000000Y-111040000D03*
X217200000Y-111040000D03*
X225600000Y-111040000D03*
X225720000Y-105720000D03*
X218160000Y-105710000D03*
X221910000Y-105730000D03*
X224310000Y-130860000D03*
X224370000Y-126270000D03*
X224850000Y-121080000D03*
X219420000Y-130860000D03*
X219370000Y-125640000D03*
X219420000Y-121460000D03*
X208170000Y-131260000D03*
X208170000Y-121300000D03*
X209770000Y-123338333D03*
X209770000Y-124776666D03*
X209770000Y-126214999D03*
X209770000Y-127653332D03*
X209770000Y-129091665D03*
X209770000Y-130530000D03*
X209770000Y-121900000D03*
X208170000Y-113080000D03*
X208170000Y-115580000D03*
X208110000Y-126305000D03*
X208110000Y-127707500D03*
X208110000Y-129110000D03*
X232190000Y-131100000D03*
X241260000Y-131090000D03*
X251640000Y-131110000D03*
X250520000Y-101360000D03*
X250520000Y-109610000D03*
X254910000Y-113640000D03*
X253890000Y-97950000D03*
X234650000Y-80130000D03*
X234810000Y-76960000D03*
X238547500Y-76960000D03*
X242285000Y-76960000D03*
X246022500Y-76960000D03*
X249760000Y-76960000D03*
X235390000Y-84360000D03*
X238670000Y-85130000D03*
X244190000Y-85670000D03*
X247770000Y-84740000D03*
X250500000Y-82100000D03*
X250520000Y-79710000D03*
X241540000Y-85800000D03*
X233140000Y-107850000D03*
X233850000Y-110930000D03*
X208110000Y-124902500D03*
X208110000Y-123500000D03*
X244800000Y-97890000D03*
X244800000Y-94860000D03*
X244800000Y-91830000D03*
X244800000Y-100920000D03*
X244800000Y-103950000D03*
X243860000Y-105010000D03*
X240500000Y-105010000D03*
X238320000Y-90190000D03*
X236650000Y-92240000D03*
X243930000Y-90190000D03*
X241125000Y-90190000D03*
X221240000Y-94070000D03*
X207220000Y-92840000D03*
X228300000Y-85850000D03*
X212060000Y-82360000D03*
X220900000Y-82510000D03*
X249070000Y-121270000D03*
X243930000Y-106840000D03*
X220420000Y-111030000D03*
X234580000Y-98410000D03*
X237560000Y-97330000D03*
X228250000Y-93650000D03*
X237990000Y-115900000D03*
X254420000Y-115470000D03*
X236150000Y-102350000D03*
X249140000Y-110190000D03*
X238140000Y-103380000D03*
X226000000Y-121180000D03*
X224899990Y-99490010D03*
X226790001Y-123120001D03*
X225480000Y-97860000D03*
X228340000Y-124470000D03*
X211621758Y-118681758D03*
X256840000Y-150530000D03*
X253549998Y-148600000D03*
X233060000Y-110230000D03*
X254860000Y-118320000D03*
X245050000Y-108210000D03*
X245260000Y-110290000D03*
X256060000Y-81890000D03*
X231660000Y-89510000D03*
X250260000Y-84660000D03*
X237390000Y-87250000D03*
X233470000Y-88749516D03*
X256108910Y-80867710D03*
X250420000Y-83530000D03*
X239960000Y-86489991D03*
X256140000Y-79710000D03*
X235210000Y-87996341D03*
X229750000Y-108340000D03*
X229060000Y-99560000D03*
X237220800Y-94270835D03*
X235590000Y-93630000D03*
X237610000Y-123430000D03*
X233026144Y-103999934D03*
X245370000Y-90530000D03*
X237930000Y-92630000D03*
X250950000Y-142260000D03*
X253060000Y-142250000D03*
D17*
X255540000Y-138840000D03*
D16*
X254620000Y-154040000D03*
X256820000Y-153920000D03*
X251280000Y-157500000D03*
X251370000Y-154620000D03*
X256650000Y-151700000D03*
X257410000Y-157500000D03*
X251610000Y-151490000D03*
X257850000Y-134930000D03*
X257490000Y-138260000D03*
X252850000Y-134840000D03*
X256360000Y-137530000D03*
X252740000Y-146400000D03*
X252740000Y-155670000D03*
X256840000Y-146660000D03*
X257300000Y-139780000D03*
X251550000Y-148110000D03*
X252194479Y-145424136D03*
X255650000Y-84190000D03*
X256080000Y-77310000D03*
X236810000Y-79430000D03*
X255130000Y-79270000D03*
X248560000Y-78020000D03*
X231200000Y-124780000D03*
X233800000Y-122970000D03*
X231609990Y-108966527D03*
X221910000Y-100874315D03*
X211500000Y-130830000D03*
X217610000Y-122990000D03*
X215680000Y-108710000D03*
X221230000Y-122750000D03*
X221555372Y-103885372D03*
D18*
X235410000Y-99480000D02*
X235410000Y-110580000D01*
X237560000Y-97330000D02*
X235410000Y-99480000D01*
D19*
X226460000Y-93650000D02*
X228250000Y-93650000D01*
X212220000Y-79410000D02*
X226460000Y-93650000D01*
D20*
X237990000Y-113160000D02*
X237950000Y-113120000D01*
X237990000Y-115900000D02*
X237990000Y-113160000D01*
X253990000Y-115900000D02*
X254420000Y-115470000D01*
D19*
X237950000Y-113120000D02*
X239200001Y-111869999D01*
X236150000Y-102915685D02*
X236150000Y-102350000D01*
X239200001Y-111869999D02*
X239200001Y-105965686D01*
X239200001Y-105965686D02*
X236150000Y-102915685D01*
D18*
X239100000Y-105865685D02*
X239200001Y-105965686D01*
X239100000Y-104957500D02*
X239100000Y-105865685D01*
D20*
X249140000Y-111490000D02*
X244730000Y-115900000D01*
X249140000Y-110190000D02*
X249140000Y-111490000D01*
X244730000Y-115900000D02*
X253990000Y-115900000D01*
X237990000Y-115900000D02*
X244730000Y-115900000D01*
D21*
X220400000Y-99710000D02*
X226460000Y-93650000D01*
X217440000Y-99710000D02*
X220400000Y-99710000D01*
D18*
X238142500Y-103382500D02*
X238140000Y-103380000D01*
X239100000Y-103382500D02*
X238142500Y-103382500D01*
X224899990Y-100120010D02*
X224900000Y-100120000D01*
X224899990Y-120079990D02*
X224899990Y-100120010D01*
X226000000Y-121180000D02*
X224899990Y-120079990D01*
X224899990Y-100120010D02*
X224899990Y-100030590D01*
X224899990Y-100120010D02*
X224899990Y-99490010D01*
X226790001Y-123120001D02*
X226790001Y-123120001D01*
X225480000Y-97860000D02*
X225160000Y-98180000D01*
X225160000Y-98560000D02*
X226790001Y-100190001D01*
X225160000Y-98180000D02*
X225160000Y-98560000D01*
X226790001Y-123120001D02*
X226790001Y-100190001D01*
X222240000Y-119630000D02*
X227070000Y-124460000D01*
X222240000Y-107990000D02*
X222240000Y-119630000D01*
X228330000Y-124460000D02*
X228340000Y-124470000D01*
X227070000Y-124460000D02*
X228330000Y-124460000D01*
D22*
X211621758Y-118681758D02*
X213893516Y-116410000D01*
X215145678Y-116410000D02*
X216590000Y-114965678D01*
X216590000Y-114965678D02*
X216590000Y-114930000D01*
X213893516Y-116410000D02*
X215145678Y-116410000D01*
X254910000Y-148600000D02*
X256840000Y-150530000D01*
X253549998Y-148600000D02*
X254910000Y-148600000D01*
D18*
X236190000Y-117450000D02*
X233050010Y-114310010D01*
X248690000Y-117450000D02*
X236190000Y-117450000D01*
X253650000Y-122410000D02*
X248690000Y-117450000D01*
X233050010Y-110239990D02*
X233060000Y-110230000D01*
X233050010Y-114310010D02*
X233050010Y-110239990D01*
X254860000Y-123620000D02*
X256190000Y-124950000D01*
X254860000Y-118320000D02*
X254860000Y-123620000D01*
X245260000Y-108420000D02*
X245050000Y-108210000D01*
X245260000Y-110290000D02*
X245260000Y-108420000D01*
D21*
X248567306Y-89502694D02*
X256110000Y-81960000D01*
X231777306Y-89502694D02*
X248567306Y-89502694D01*
X231660000Y-89620000D02*
X231777306Y-89502694D01*
X250260000Y-84660000D02*
X247754999Y-87165001D01*
X237396834Y-87243166D02*
X237390000Y-87250000D01*
X237474999Y-87165001D02*
X237390000Y-87250000D01*
X247754999Y-87165001D02*
X237474999Y-87165001D01*
X233470000Y-88749516D02*
X233470000Y-88749516D01*
X233470000Y-88749516D02*
X248227104Y-88749516D01*
X248227104Y-88749516D02*
X256108910Y-80867710D01*
X250420000Y-83530000D02*
X247460009Y-86489991D01*
X247460009Y-86489991D02*
X239960000Y-86489991D01*
X255498515Y-80391485D02*
X247893659Y-87996341D01*
X256140000Y-79710000D02*
X255498515Y-80351485D01*
X247893659Y-87996341D02*
X235210000Y-87996341D01*
X255498515Y-80351485D02*
X255498515Y-80391485D01*
D18*
X229750000Y-108340000D02*
X229750000Y-100560000D01*
X229750000Y-100250000D02*
X229060000Y-99560000D01*
X229750000Y-100560000D02*
X229750000Y-100250000D01*
X243030000Y-100080035D02*
X237220800Y-94270835D01*
X243030000Y-110580000D02*
X243030000Y-100080035D01*
X241640001Y-111730001D02*
X243030000Y-113120000D01*
X241640001Y-99680001D02*
X241640001Y-111730001D01*
X235590000Y-93630000D02*
X241640001Y-99680001D01*
X232310000Y-104716078D02*
X233026144Y-103999934D01*
X237610000Y-123430000D02*
X237044315Y-123430000D01*
X232310000Y-118695685D02*
X232310000Y-104716078D01*
X237044315Y-123430000D02*
X232310000Y-118695685D01*
D21*
X244745001Y-91154999D02*
X245370000Y-90530000D01*
X239405001Y-91154999D02*
X244745001Y-91154999D01*
X237930000Y-92630000D02*
X239405001Y-91154999D01*
D22*
X252740000Y-146400000D02*
X256360000Y-142780000D01*
X256360000Y-137530000D02*
X256360000Y-142780000D01*
D21*
X252740000Y-146400000D02*
X252740000Y-155670000D01*
X257575001Y-145924999D02*
X257575001Y-140039999D01*
X256840000Y-146660000D02*
X257575001Y-145924999D01*
X257559999Y-140039999D02*
X257575001Y-140039999D01*
X257300000Y-139780000D02*
X257559999Y-140039999D01*
D23*
X251550000Y-148110000D02*
X251550000Y-146068615D01*
X251550000Y-146068615D02*
X252194479Y-145424136D01*
X255650000Y-84190000D02*
X256980000Y-82860000D01*
X256980000Y-78210000D02*
X256080000Y-77310000D01*
X256980000Y-82860000D02*
X256980000Y-78210000D01*
X253880000Y-78020000D02*
X255130000Y-79270000D01*
X248560000Y-78020000D02*
X253880000Y-78020000D01*
D22*
X230700000Y-123680000D02*
X230700000Y-85540000D01*
X230700000Y-85540000D02*
X236810000Y-79430000D01*
X230700000Y-124280000D02*
X231200000Y-124780000D01*
X230700000Y-123680000D02*
X230700000Y-124280000D01*
D18*
X231609990Y-120779990D02*
X231609990Y-108966527D01*
X233800000Y-122970000D02*
X231609990Y-120779990D01*
X210380000Y-112404315D02*
X221910000Y-100874315D01*
X211500000Y-120300000D02*
X210380000Y-119180000D01*
X211500000Y-130830000D02*
X211500000Y-120300000D01*
X210380000Y-119180000D02*
X210380000Y-112404315D01*
X215680000Y-112472194D02*
X215680000Y-108710000D01*
X217610000Y-114402194D02*
X215680000Y-112472194D01*
X217610000Y-122990000D02*
X217610000Y-114402194D01*
X221230000Y-122750000D02*
X221230000Y-106086002D01*
X221209999Y-104230745D02*
X221555372Y-103885372D01*
X221230000Y-106086002D02*
X221209999Y-106066001D01*
X221209999Y-106066001D02*
X221209999Y-104230745D01*
D24*
G36*
X258125001Y-157895000D02*
G01*
X250675000Y-157895000D01*
X250675000Y-153240086D01*
X252315001Y-153241300D01*
X252315001Y-155112092D01*
X252293776Y-155126274D01*
X252196274Y-155223776D01*
X252119668Y-155338426D01*
X252066901Y-155465818D01*
X252040000Y-155601056D01*
X252040000Y-155738944D01*
X252066901Y-155874182D01*
X252119668Y-156001574D01*
X252196274Y-156116224D01*
X252293776Y-156213726D01*
X252408426Y-156290332D01*
X252535818Y-156343099D01*
X252671056Y-156370000D01*
X252808944Y-156370000D01*
X252944182Y-156343099D01*
X253071574Y-156290332D01*
X253186224Y-156213726D01*
X253283726Y-156116224D01*
X253360332Y-156001574D01*
X253413099Y-155874182D01*
X253440000Y-155738944D01*
X253440000Y-155601056D01*
X253413099Y-155465818D01*
X253360332Y-155338426D01*
X253283726Y-155223776D01*
X253186224Y-155126274D01*
X253165000Y-155112093D01*
X253165000Y-153241930D01*
X257080048Y-153244830D01*
X257099631Y-153242909D01*
X257118390Y-153237218D01*
X257135679Y-153227977D01*
X257150833Y-153215541D01*
X257163269Y-153200387D01*
X257172510Y-153183098D01*
X257178201Y-153164339D01*
X257180122Y-153144830D01*
X257180122Y-152434830D01*
X257178215Y-152415394D01*
X257172538Y-152396630D01*
X257163310Y-152379335D01*
X257150885Y-152364172D01*
X257135741Y-152351724D01*
X257118459Y-152342470D01*
X257099704Y-152336766D01*
X257080196Y-152334830D01*
X253165000Y-152331930D01*
X253165000Y-149184636D01*
X253218424Y-149220332D01*
X253345816Y-149273099D01*
X253481054Y-149300000D01*
X253618942Y-149300000D01*
X253754180Y-149273099D01*
X253809946Y-149250000D01*
X254640762Y-149250000D01*
X256196569Y-150805808D01*
X256219668Y-150861574D01*
X256296274Y-150976224D01*
X256393776Y-151073726D01*
X256508426Y-151150332D01*
X256635818Y-151203099D01*
X256771056Y-151230000D01*
X256908944Y-151230000D01*
X257044182Y-151203099D01*
X257171574Y-151150332D01*
X257286224Y-151073726D01*
X257383726Y-150976224D01*
X257460332Y-150861574D01*
X257513099Y-150734182D01*
X257540000Y-150598944D01*
X257540000Y-150461056D01*
X257513099Y-150325818D01*
X257460332Y-150198426D01*
X257383726Y-150083776D01*
X257286224Y-149986274D01*
X257171574Y-149909668D01*
X257115808Y-149886569D01*
X255392200Y-148162962D01*
X255371843Y-148138157D01*
X255272868Y-148056930D01*
X255159948Y-147996573D01*
X255037422Y-147959405D01*
X254941932Y-147950000D01*
X254941921Y-147950000D01*
X254910000Y-147946856D01*
X254878079Y-147950000D01*
X253809946Y-147950000D01*
X253754180Y-147926901D01*
X253618942Y-147900000D01*
X253481054Y-147900000D01*
X253345816Y-147926901D01*
X253218424Y-147979668D01*
X253165000Y-148015364D01*
X253165000Y-146957907D01*
X253186224Y-146943726D01*
X253283726Y-146846224D01*
X253360332Y-146731574D01*
X253383431Y-146675807D01*
X256797043Y-143262196D01*
X256821843Y-143241843D01*
X256903070Y-143142868D01*
X256963427Y-143029948D01*
X257000595Y-142907422D01*
X257010000Y-142811932D01*
X257010000Y-142811922D01*
X257013144Y-142780001D01*
X257010000Y-142748080D01*
X257010000Y-140417552D01*
X257095818Y-140453099D01*
X257150002Y-140463877D01*
X257150001Y-145748958D01*
X256933980Y-145964980D01*
X256908944Y-145960000D01*
X256771056Y-145960000D01*
X256635818Y-145986901D01*
X256508426Y-146039668D01*
X256393776Y-146116274D01*
X256296274Y-146213776D01*
X256219668Y-146328426D01*
X256166901Y-146455818D01*
X256140000Y-146591056D01*
X256140000Y-146728944D01*
X256166901Y-146864182D01*
X256219668Y-146991574D01*
X256296274Y-147106224D01*
X256393776Y-147203726D01*
X256508426Y-147280332D01*
X256635818Y-147333099D01*
X256771056Y-147360000D01*
X256908944Y-147360000D01*
X257044182Y-147333099D01*
X257171574Y-147280332D01*
X257286224Y-147203726D01*
X257383726Y-147106224D01*
X257460332Y-146991574D01*
X257513099Y-146864182D01*
X257540000Y-146728944D01*
X257540000Y-146591056D01*
X257535020Y-146566020D01*
X257860764Y-146240277D01*
X257876975Y-146226973D01*
X257930085Y-146162259D01*
X257969549Y-146088426D01*
X257993851Y-146008313D01*
X258000001Y-145945873D01*
X258000001Y-145945867D01*
X258002056Y-145925000D01*
X258000001Y-145904133D01*
X258000001Y-140060873D01*
X258002057Y-140039999D01*
X257993851Y-139956685D01*
X257984621Y-139926258D01*
X258000000Y-139848944D01*
X258000000Y-139711056D01*
X257973099Y-139575818D01*
X257920332Y-139448426D01*
X257843726Y-139333776D01*
X257746224Y-139236274D01*
X257631574Y-139159668D01*
X257504182Y-139106901D01*
X257368944Y-139080000D01*
X257231056Y-139080000D01*
X257095818Y-139106901D01*
X257010000Y-139142448D01*
X257010000Y-137789948D01*
X257033099Y-137734182D01*
X257060000Y-137598944D01*
X257060000Y-137461056D01*
X257033099Y-137325818D01*
X256980332Y-137198426D01*
X256903726Y-137083776D01*
X256806224Y-136986274D01*
X256691574Y-136909668D01*
X256564182Y-136856901D01*
X256428944Y-136830000D01*
X256291056Y-136830000D01*
X256155818Y-136856901D01*
X256028426Y-136909668D01*
X255913776Y-136986274D01*
X255816274Y-137083776D01*
X255739668Y-137198426D01*
X255686901Y-137325818D01*
X255660000Y-137461056D01*
X255660000Y-137598944D01*
X255686901Y-137734182D01*
X255710000Y-137789949D01*
X255710001Y-142510760D01*
X252889683Y-145331079D01*
X252867578Y-145219954D01*
X252814811Y-145092562D01*
X252738205Y-144977912D01*
X252640703Y-144880410D01*
X252526053Y-144803804D01*
X252398661Y-144751037D01*
X252263423Y-144724136D01*
X252125535Y-144724136D01*
X251990297Y-144751037D01*
X251862905Y-144803804D01*
X251748255Y-144880410D01*
X251650753Y-144977912D01*
X251574147Y-145092562D01*
X251521380Y-145219954D01*
X251494479Y-145355192D01*
X251494479Y-145417031D01*
X251213819Y-145697691D01*
X251194737Y-145713351D01*
X251132255Y-145789486D01*
X251096556Y-145856274D01*
X251085826Y-145876348D01*
X251057235Y-145970598D01*
X251047581Y-146068615D01*
X251050001Y-146093185D01*
X251050000Y-147620050D01*
X251006274Y-147663776D01*
X250929668Y-147778426D01*
X250876901Y-147905818D01*
X250850000Y-148041056D01*
X250850000Y-148178944D01*
X250876901Y-148314182D01*
X250929668Y-148441574D01*
X251006274Y-148556224D01*
X251103776Y-148653726D01*
X251218426Y-148730332D01*
X251345818Y-148783099D01*
X251481056Y-148810000D01*
X251618944Y-148810000D01*
X251754182Y-148783099D01*
X251881574Y-148730332D01*
X251996224Y-148653726D01*
X252093726Y-148556224D01*
X252170332Y-148441574D01*
X252223099Y-148314182D01*
X252250000Y-148178944D01*
X252250000Y-148041056D01*
X252223099Y-147905818D01*
X252170332Y-147778426D01*
X252093726Y-147663776D01*
X252050000Y-147620050D01*
X252050000Y-146519216D01*
X252066901Y-146604182D01*
X252119668Y-146731574D01*
X252196274Y-146846224D01*
X252293776Y-146943726D01*
X252315000Y-146957907D01*
X252315001Y-152331300D01*
X250675000Y-152330085D01*
X250675000Y-141469996D01*
X250708621Y-141548462D01*
X250841675Y-141742461D01*
X251010020Y-141906775D01*
X251207186Y-142035089D01*
X251425597Y-142122472D01*
X251610000Y-142073095D01*
X251610000Y-141120000D01*
X251910000Y-141120000D01*
X251910000Y-142073095D01*
X252094403Y-142122472D01*
X252312814Y-142035089D01*
X252509980Y-141906775D01*
X252678325Y-141742461D01*
X252811379Y-141548462D01*
X252904029Y-141332233D01*
X252912465Y-141304402D01*
X252862341Y-141120000D01*
X251910000Y-141120000D01*
X251610000Y-141120000D01*
X251590000Y-141120000D01*
X251590000Y-140856735D01*
X253150000Y-140856735D01*
X253150000Y-141083265D01*
X253194194Y-141305443D01*
X253280884Y-141514729D01*
X253406737Y-141703082D01*
X253566918Y-141863263D01*
X253755271Y-141989116D01*
X253964557Y-142075806D01*
X254186735Y-142120000D01*
X254413265Y-142120000D01*
X254635443Y-142075806D01*
X254844729Y-141989116D01*
X255033082Y-141863263D01*
X255193263Y-141703082D01*
X255319116Y-141514729D01*
X255405806Y-141305443D01*
X255450000Y-141083265D01*
X255450000Y-140856735D01*
X255405806Y-140634557D01*
X255319116Y-140425271D01*
X255193263Y-140236918D01*
X255033082Y-140076737D01*
X254844729Y-139950884D01*
X254635443Y-139864194D01*
X254413265Y-139820000D01*
X254186735Y-139820000D01*
X253964557Y-139864194D01*
X253755271Y-139950884D01*
X253566918Y-140076737D01*
X253406737Y-140236918D01*
X253280884Y-140425271D01*
X253194194Y-140634557D01*
X253150000Y-140856735D01*
X251590000Y-140856735D01*
X251590000Y-140820000D01*
X251610000Y-140820000D01*
X251610000Y-139866905D01*
X251910000Y-139866905D01*
X251910000Y-140820000D01*
X252862341Y-140820000D01*
X252912465Y-140635598D01*
X252904029Y-140607767D01*
X252811379Y-140391538D01*
X252678325Y-140197539D01*
X252509980Y-140033225D01*
X252312814Y-139904911D01*
X252094403Y-139817528D01*
X251910000Y-139866905D01*
X251610000Y-139866905D01*
X251425597Y-139817528D01*
X251207186Y-139904911D01*
X251010020Y-140033225D01*
X250841675Y-140197539D01*
X250708621Y-140391538D01*
X250675000Y-140470004D01*
X250675000Y-138815673D01*
X250740884Y-138974729D01*
X250866737Y-139163082D01*
X251026918Y-139323263D01*
X251215271Y-139449116D01*
X251424557Y-139535806D01*
X251646735Y-139580000D01*
X251873265Y-139580000D01*
X252095443Y-139535806D01*
X252304729Y-139449116D01*
X252493082Y-139323263D01*
X252653263Y-139163082D01*
X252779116Y-138974729D01*
X252865806Y-138765443D01*
X252910000Y-138543265D01*
X252910000Y-138316735D01*
X253150000Y-138316735D01*
X253150000Y-138543265D01*
X253194194Y-138765443D01*
X253280884Y-138974729D01*
X253406737Y-139163082D01*
X253566918Y-139323263D01*
X253755271Y-139449116D01*
X253964557Y-139535806D01*
X254186735Y-139580000D01*
X254413265Y-139580000D01*
X254635443Y-139535806D01*
X254844729Y-139449116D01*
X255033082Y-139323263D01*
X255193263Y-139163082D01*
X255319116Y-138974729D01*
X255405806Y-138765443D01*
X255450000Y-138543265D01*
X255450000Y-138316735D01*
X255405806Y-138094557D01*
X255319116Y-137885271D01*
X255193263Y-137696918D01*
X255033082Y-137536737D01*
X254844729Y-137410884D01*
X254635443Y-137324194D01*
X254413265Y-137280000D01*
X254186735Y-137280000D01*
X253964557Y-137324194D01*
X253755271Y-137410884D01*
X253566918Y-137536737D01*
X253406737Y-137696918D01*
X253280884Y-137885271D01*
X253194194Y-138094557D01*
X253150000Y-138316735D01*
X252910000Y-138316735D01*
X252865806Y-138094557D01*
X252779116Y-137885271D01*
X252653263Y-137696918D01*
X252493082Y-137536737D01*
X252304729Y-137410884D01*
X252095443Y-137324194D01*
X251873265Y-137280000D01*
X251646735Y-137280000D01*
X251424557Y-137324194D01*
X251215271Y-137410884D01*
X251026918Y-137536737D01*
X250866737Y-137696918D01*
X250740884Y-137885271D01*
X250675000Y-138044327D01*
X250675000Y-136389996D01*
X250708621Y-136468462D01*
X250841675Y-136662461D01*
X251010020Y-136826775D01*
X251207186Y-136955089D01*
X251425597Y-137042472D01*
X251610000Y-136993095D01*
X251610000Y-136040000D01*
X251910000Y-136040000D01*
X251910000Y-136993095D01*
X252094403Y-137042472D01*
X252312814Y-136955089D01*
X252509980Y-136826775D01*
X252678325Y-136662461D01*
X252811379Y-136468462D01*
X252904029Y-136252233D01*
X252912465Y-136224402D01*
X252862341Y-136040000D01*
X251910000Y-136040000D01*
X251610000Y-136040000D01*
X251590000Y-136040000D01*
X251590000Y-135740000D01*
X251610000Y-135740000D01*
X251610000Y-134786905D01*
X251910000Y-134786905D01*
X251910000Y-135740000D01*
X252862341Y-135740000D01*
X252912465Y-135555598D01*
X252904029Y-135527767D01*
X252811379Y-135311538D01*
X252678325Y-135117539D01*
X252598884Y-135040000D01*
X253148549Y-135040000D01*
X253148549Y-136740000D01*
X253154341Y-136798810D01*
X253171496Y-136855360D01*
X253199353Y-136907477D01*
X253236842Y-136953158D01*
X253282523Y-136990647D01*
X253334640Y-137018504D01*
X253391190Y-137035659D01*
X253450000Y-137041451D01*
X255150000Y-137041451D01*
X255208810Y-137035659D01*
X255265360Y-137018504D01*
X255317477Y-136990647D01*
X255363158Y-136953158D01*
X255400647Y-136907477D01*
X255428504Y-136855360D01*
X255445659Y-136798810D01*
X255451451Y-136740000D01*
X255451451Y-135040000D01*
X255445659Y-134981190D01*
X255428504Y-134924640D01*
X255400647Y-134872523D01*
X255363158Y-134826842D01*
X255317477Y-134789353D01*
X255265360Y-134761496D01*
X255208810Y-134744341D01*
X255150000Y-134738549D01*
X253450000Y-134738549D01*
X253391190Y-134744341D01*
X253334640Y-134761496D01*
X253282523Y-134789353D01*
X253236842Y-134826842D01*
X253199353Y-134872523D01*
X253171496Y-134924640D01*
X253154341Y-134981190D01*
X253148549Y-135040000D01*
X252598884Y-135040000D01*
X252509980Y-134953225D01*
X252312814Y-134824911D01*
X252094403Y-134737528D01*
X251910000Y-134786905D01*
X251610000Y-134786905D01*
X251425597Y-134737528D01*
X251207186Y-134824911D01*
X251010020Y-134953225D01*
X250841675Y-135117539D01*
X250708621Y-135311538D01*
X250675000Y-135390004D01*
X250675000Y-134520000D01*
X258125000Y-134520000D01*
X258125001Y-157895000D01*
G37*
X258125001Y-157895000D02*
X250675000Y-157895000D01*
X250675000Y-153240086D01*
X252315001Y-153241300D01*
X252315001Y-155112092D01*
X252293776Y-155126274D01*
X252196274Y-155223776D01*
X252119668Y-155338426D01*
X252066901Y-155465818D01*
X252040000Y-155601056D01*
X252040000Y-155738944D01*
X252066901Y-155874182D01*
X252119668Y-156001574D01*
X252196274Y-156116224D01*
X252293776Y-156213726D01*
X252408426Y-156290332D01*
X252535818Y-156343099D01*
X252671056Y-156370000D01*
X252808944Y-156370000D01*
X252944182Y-156343099D01*
X253071574Y-156290332D01*
X253186224Y-156213726D01*
X253283726Y-156116224D01*
X253360332Y-156001574D01*
X253413099Y-155874182D01*
X253440000Y-155738944D01*
X253440000Y-155601056D01*
X253413099Y-155465818D01*
X253360332Y-155338426D01*
X253283726Y-155223776D01*
X253186224Y-155126274D01*
X253165000Y-155112093D01*
X253165000Y-153241930D01*
X257080048Y-153244830D01*
X257099631Y-153242909D01*
X257118390Y-153237218D01*
X257135679Y-153227977D01*
X257150833Y-153215541D01*
X257163269Y-153200387D01*
X257172510Y-153183098D01*
X257178201Y-153164339D01*
X257180122Y-153144830D01*
X257180122Y-152434830D01*
X257178215Y-152415394D01*
X257172538Y-152396630D01*
X257163310Y-152379335D01*
X257150885Y-152364172D01*
X257135741Y-152351724D01*
X257118459Y-152342470D01*
X257099704Y-152336766D01*
X257080196Y-152334830D01*
X253165000Y-152331930D01*
X253165000Y-149184636D01*
X253218424Y-149220332D01*
X253345816Y-149273099D01*
X253481054Y-149300000D01*
X253618942Y-149300000D01*
X253754180Y-149273099D01*
X253809946Y-149250000D01*
X254640762Y-149250000D01*
X256196569Y-150805808D01*
X256219668Y-150861574D01*
X256296274Y-150976224D01*
X256393776Y-151073726D01*
X256508426Y-151150332D01*
X256635818Y-151203099D01*
X256771056Y-151230000D01*
X256908944Y-151230000D01*
X257044182Y-151203099D01*
X257171574Y-151150332D01*
X257286224Y-151073726D01*
X257383726Y-150976224D01*
X257460332Y-150861574D01*
X257513099Y-150734182D01*
X257540000Y-150598944D01*
X257540000Y-150461056D01*
X257513099Y-150325818D01*
X257460332Y-150198426D01*
X257383726Y-150083776D01*
X257286224Y-149986274D01*
X257171574Y-149909668D01*
X257115808Y-149886569D01*
X255392200Y-148162962D01*
X255371843Y-148138157D01*
X255272868Y-148056930D01*
X255159948Y-147996573D01*
X255037422Y-147959405D01*
X254941932Y-147950000D01*
X254941921Y-147950000D01*
X254910000Y-147946856D01*
X254878079Y-147950000D01*
X253809946Y-147950000D01*
X253754180Y-147926901D01*
X253618942Y-147900000D01*
X253481054Y-147900000D01*
X253345816Y-147926901D01*
X253218424Y-147979668D01*
X253165000Y-148015364D01*
X253165000Y-146957907D01*
X253186224Y-146943726D01*
X253283726Y-146846224D01*
X253360332Y-146731574D01*
X253383431Y-146675807D01*
X256797043Y-143262196D01*
X256821843Y-143241843D01*
X256903070Y-143142868D01*
X256963427Y-143029948D01*
X257000595Y-142907422D01*
X257010000Y-142811932D01*
X257010000Y-142811922D01*
X257013144Y-142780001D01*
X257010000Y-142748080D01*
X257010000Y-140417552D01*
X257095818Y-140453099D01*
X257150002Y-140463877D01*
X257150001Y-145748958D01*
X256933980Y-145964980D01*
X256908944Y-145960000D01*
X256771056Y-145960000D01*
X256635818Y-145986901D01*
X256508426Y-146039668D01*
X256393776Y-146116274D01*
X256296274Y-146213776D01*
X256219668Y-146328426D01*
X256166901Y-146455818D01*
X256140000Y-146591056D01*
X256140000Y-146728944D01*
X256166901Y-146864182D01*
X256219668Y-146991574D01*
X256296274Y-147106224D01*
X256393776Y-147203726D01*
X256508426Y-147280332D01*
X256635818Y-147333099D01*
X256771056Y-147360000D01*
X256908944Y-147360000D01*
X257044182Y-147333099D01*
X257171574Y-147280332D01*
X257286224Y-147203726D01*
X257383726Y-147106224D01*
X257460332Y-146991574D01*
X257513099Y-146864182D01*
X257540000Y-146728944D01*
X257540000Y-146591056D01*
X257535020Y-146566020D01*
X257860764Y-146240277D01*
X257876975Y-146226973D01*
X257930085Y-146162259D01*
X257969549Y-146088426D01*
X257993851Y-146008313D01*
X258000001Y-145945873D01*
X258000001Y-145945867D01*
X258002056Y-145925000D01*
X258000001Y-145904133D01*
X258000001Y-140060873D01*
X258002057Y-140039999D01*
X257993851Y-139956685D01*
X257984621Y-139926258D01*
X258000000Y-139848944D01*
X258000000Y-139711056D01*
X257973099Y-139575818D01*
X257920332Y-139448426D01*
X257843726Y-139333776D01*
X257746224Y-139236274D01*
X257631574Y-139159668D01*
X257504182Y-139106901D01*
X257368944Y-139080000D01*
X257231056Y-139080000D01*
X257095818Y-139106901D01*
X257010000Y-139142448D01*
X257010000Y-137789948D01*
X257033099Y-137734182D01*
X257060000Y-137598944D01*
X257060000Y-137461056D01*
X257033099Y-137325818D01*
X256980332Y-137198426D01*
X256903726Y-137083776D01*
X256806224Y-136986274D01*
X256691574Y-136909668D01*
X256564182Y-136856901D01*
X256428944Y-136830000D01*
X256291056Y-136830000D01*
X256155818Y-136856901D01*
X256028426Y-136909668D01*
X255913776Y-136986274D01*
X255816274Y-137083776D01*
X255739668Y-137198426D01*
X255686901Y-137325818D01*
X255660000Y-137461056D01*
X255660000Y-137598944D01*
X255686901Y-137734182D01*
X255710000Y-137789949D01*
X255710001Y-142510760D01*
X252889683Y-145331079D01*
X252867578Y-145219954D01*
X252814811Y-145092562D01*
X252738205Y-144977912D01*
X252640703Y-144880410D01*
X252526053Y-144803804D01*
X252398661Y-144751037D01*
X252263423Y-144724136D01*
X252125535Y-144724136D01*
X251990297Y-144751037D01*
X251862905Y-144803804D01*
X251748255Y-144880410D01*
X251650753Y-144977912D01*
X251574147Y-145092562D01*
X251521380Y-145219954D01*
X251494479Y-145355192D01*
X251494479Y-145417031D01*
X251213819Y-145697691D01*
X251194737Y-145713351D01*
X251132255Y-145789486D01*
X251096556Y-145856274D01*
X251085826Y-145876348D01*
X251057235Y-145970598D01*
X251047581Y-146068615D01*
X251050001Y-146093185D01*
X251050000Y-147620050D01*
X251006274Y-147663776D01*
X250929668Y-147778426D01*
X250876901Y-147905818D01*
X250850000Y-148041056D01*
X250850000Y-148178944D01*
X250876901Y-148314182D01*
X250929668Y-148441574D01*
X251006274Y-148556224D01*
X251103776Y-148653726D01*
X251218426Y-148730332D01*
X251345818Y-148783099D01*
X251481056Y-148810000D01*
X251618944Y-148810000D01*
X251754182Y-148783099D01*
X251881574Y-148730332D01*
X251996224Y-148653726D01*
X252093726Y-148556224D01*
X252170332Y-148441574D01*
X252223099Y-148314182D01*
X252250000Y-148178944D01*
X252250000Y-148041056D01*
X252223099Y-147905818D01*
X252170332Y-147778426D01*
X252093726Y-147663776D01*
X252050000Y-147620050D01*
X252050000Y-146519216D01*
X252066901Y-146604182D01*
X252119668Y-146731574D01*
X252196274Y-146846224D01*
X252293776Y-146943726D01*
X252315000Y-146957907D01*
X252315001Y-152331300D01*
X250675000Y-152330085D01*
X250675000Y-141469996D01*
X250708621Y-141548462D01*
X250841675Y-141742461D01*
X251010020Y-141906775D01*
X251207186Y-142035089D01*
X251425597Y-142122472D01*
X251610000Y-142073095D01*
X251610000Y-141120000D01*
X251910000Y-141120000D01*
X251910000Y-142073095D01*
X252094403Y-142122472D01*
X252312814Y-142035089D01*
X252509980Y-141906775D01*
X252678325Y-141742461D01*
X252811379Y-141548462D01*
X252904029Y-141332233D01*
X252912465Y-141304402D01*
X252862341Y-141120000D01*
X251910000Y-141120000D01*
X251610000Y-141120000D01*
X251590000Y-141120000D01*
X251590000Y-140856735D01*
X253150000Y-140856735D01*
X253150000Y-141083265D01*
X253194194Y-141305443D01*
X253280884Y-141514729D01*
X253406737Y-141703082D01*
X253566918Y-141863263D01*
X253755271Y-141989116D01*
X253964557Y-142075806D01*
X254186735Y-142120000D01*
X254413265Y-142120000D01*
X254635443Y-142075806D01*
X254844729Y-141989116D01*
X255033082Y-141863263D01*
X255193263Y-141703082D01*
X255319116Y-141514729D01*
X255405806Y-141305443D01*
X255450000Y-141083265D01*
X255450000Y-140856735D01*
X255405806Y-140634557D01*
X255319116Y-140425271D01*
X255193263Y-140236918D01*
X255033082Y-140076737D01*
X254844729Y-139950884D01*
X254635443Y-139864194D01*
X254413265Y-139820000D01*
X254186735Y-139820000D01*
X253964557Y-139864194D01*
X253755271Y-139950884D01*
X253566918Y-140076737D01*
X253406737Y-140236918D01*
X253280884Y-140425271D01*
X253194194Y-140634557D01*
X253150000Y-140856735D01*
X251590000Y-140856735D01*
X251590000Y-140820000D01*
X251610000Y-140820000D01*
X251610000Y-139866905D01*
X251910000Y-139866905D01*
X251910000Y-140820000D01*
X252862341Y-140820000D01*
X252912465Y-140635598D01*
X252904029Y-140607767D01*
X252811379Y-140391538D01*
X252678325Y-140197539D01*
X252509980Y-140033225D01*
X252312814Y-139904911D01*
X252094403Y-139817528D01*
X251910000Y-139866905D01*
X251610000Y-139866905D01*
X251425597Y-139817528D01*
X251207186Y-139904911D01*
X251010020Y-140033225D01*
X250841675Y-140197539D01*
X250708621Y-140391538D01*
X250675000Y-140470004D01*
X250675000Y-138815673D01*
X250740884Y-138974729D01*
X250866737Y-139163082D01*
X251026918Y-139323263D01*
X251215271Y-139449116D01*
X251424557Y-139535806D01*
X251646735Y-139580000D01*
X251873265Y-139580000D01*
X252095443Y-139535806D01*
X252304729Y-139449116D01*
X252493082Y-139323263D01*
X252653263Y-139163082D01*
X252779116Y-138974729D01*
X252865806Y-138765443D01*
X252910000Y-138543265D01*
X252910000Y-138316735D01*
X253150000Y-138316735D01*
X253150000Y-138543265D01*
X253194194Y-138765443D01*
X253280884Y-138974729D01*
X253406737Y-139163082D01*
X253566918Y-139323263D01*
X253755271Y-139449116D01*
X253964557Y-139535806D01*
X254186735Y-139580000D01*
X254413265Y-139580000D01*
X254635443Y-139535806D01*
X254844729Y-139449116D01*
X255033082Y-139323263D01*
X255193263Y-139163082D01*
X255319116Y-138974729D01*
X255405806Y-138765443D01*
X255450000Y-138543265D01*
X255450000Y-138316735D01*
X255405806Y-138094557D01*
X255319116Y-137885271D01*
X255193263Y-137696918D01*
X255033082Y-137536737D01*
X254844729Y-137410884D01*
X254635443Y-137324194D01*
X254413265Y-137280000D01*
X254186735Y-137280000D01*
X253964557Y-137324194D01*
X253755271Y-137410884D01*
X253566918Y-137536737D01*
X253406737Y-137696918D01*
X253280884Y-137885271D01*
X253194194Y-138094557D01*
X253150000Y-138316735D01*
X252910000Y-138316735D01*
X252865806Y-138094557D01*
X252779116Y-137885271D01*
X252653263Y-137696918D01*
X252493082Y-137536737D01*
X252304729Y-137410884D01*
X252095443Y-137324194D01*
X251873265Y-137280000D01*
X251646735Y-137280000D01*
X251424557Y-137324194D01*
X251215271Y-137410884D01*
X251026918Y-137536737D01*
X250866737Y-137696918D01*
X250740884Y-137885271D01*
X250675000Y-138044327D01*
X250675000Y-136389996D01*
X250708621Y-136468462D01*
X250841675Y-136662461D01*
X251010020Y-136826775D01*
X251207186Y-136955089D01*
X251425597Y-137042472D01*
X251610000Y-136993095D01*
X251610000Y-136040000D01*
X251910000Y-136040000D01*
X251910000Y-136993095D01*
X252094403Y-137042472D01*
X252312814Y-136955089D01*
X252509980Y-136826775D01*
X252678325Y-136662461D01*
X252811379Y-136468462D01*
X252904029Y-136252233D01*
X252912465Y-136224402D01*
X252862341Y-136040000D01*
X251910000Y-136040000D01*
X251610000Y-136040000D01*
X251590000Y-136040000D01*
X251590000Y-135740000D01*
X251610000Y-135740000D01*
X251610000Y-134786905D01*
X251910000Y-134786905D01*
X251910000Y-135740000D01*
X252862341Y-135740000D01*
X252912465Y-135555598D01*
X252904029Y-135527767D01*
X252811379Y-135311538D01*
X252678325Y-135117539D01*
X252598884Y-135040000D01*
X253148549Y-135040000D01*
X253148549Y-136740000D01*
X253154341Y-136798810D01*
X253171496Y-136855360D01*
X253199353Y-136907477D01*
X253236842Y-136953158D01*
X253282523Y-136990647D01*
X253334640Y-137018504D01*
X253391190Y-137035659D01*
X253450000Y-137041451D01*
X255150000Y-137041451D01*
X255208810Y-137035659D01*
X255265360Y-137018504D01*
X255317477Y-136990647D01*
X255363158Y-136953158D01*
X255400647Y-136907477D01*
X255428504Y-136855360D01*
X255445659Y-136798810D01*
X255451451Y-136740000D01*
X255451451Y-135040000D01*
X255445659Y-134981190D01*
X255428504Y-134924640D01*
X255400647Y-134872523D01*
X255363158Y-134826842D01*
X255317477Y-134789353D01*
X255265360Y-134761496D01*
X255208810Y-134744341D01*
X255150000Y-134738549D01*
X253450000Y-134738549D01*
X253391190Y-134744341D01*
X253334640Y-134761496D01*
X253282523Y-134789353D01*
X253236842Y-134826842D01*
X253199353Y-134872523D01*
X253171496Y-134924640D01*
X253154341Y-134981190D01*
X253148549Y-135040000D01*
X252598884Y-135040000D01*
X252509980Y-134953225D01*
X252312814Y-134824911D01*
X252094403Y-134737528D01*
X251910000Y-134786905D01*
X251610000Y-134786905D01*
X251425597Y-134737528D01*
X251207186Y-134824911D01*
X251010020Y-134953225D01*
X250841675Y-135117539D01*
X250708621Y-135311538D01*
X250675000Y-135390004D01*
X250675000Y-134520000D01*
X258125000Y-134520000D01*
X258125001Y-157895000D01*
G36*
X255748426Y-76689668D02*
G01*
X255633776Y-76766274D01*
X255536274Y-76863776D01*
X255459668Y-76978426D01*
X255406901Y-77105818D01*
X255380000Y-77241056D01*
X255380000Y-77378944D01*
X255406901Y-77514182D01*
X255459668Y-77641574D01*
X255536274Y-77756224D01*
X255633776Y-77853726D01*
X255748426Y-77930332D01*
X255875818Y-77983099D01*
X256011056Y-78010000D01*
X256072895Y-78010000D01*
X256480001Y-78417107D01*
X256480001Y-79095299D01*
X256471574Y-79089668D01*
X256344182Y-79036901D01*
X256208944Y-79010000D01*
X256071056Y-79010000D01*
X255935818Y-79036901D01*
X255808426Y-79089668D01*
X255807912Y-79090012D01*
X255803099Y-79065818D01*
X255750332Y-78938426D01*
X255673726Y-78823776D01*
X255576224Y-78726274D01*
X255461574Y-78649668D01*
X255334182Y-78596901D01*
X255198944Y-78570000D01*
X255137106Y-78570000D01*
X254250929Y-77683824D01*
X254235264Y-77664736D01*
X254159129Y-77602254D01*
X254072267Y-77555825D01*
X253978017Y-77527235D01*
X253904560Y-77520000D01*
X253880000Y-77517581D01*
X253855440Y-77520000D01*
X249049950Y-77520000D01*
X249006224Y-77476274D01*
X248891574Y-77399668D01*
X248764182Y-77346901D01*
X248628944Y-77320000D01*
X248491056Y-77320000D01*
X248355818Y-77346901D01*
X248228426Y-77399668D01*
X248113776Y-77476274D01*
X248016274Y-77573776D01*
X247939668Y-77688426D01*
X247886901Y-77815818D01*
X247860000Y-77951056D01*
X247860000Y-78088944D01*
X247886901Y-78224182D01*
X247939668Y-78351574D01*
X248016274Y-78466224D01*
X248113776Y-78563726D01*
X248228426Y-78640332D01*
X248355818Y-78693099D01*
X248491056Y-78720000D01*
X248628944Y-78720000D01*
X248764182Y-78693099D01*
X248891574Y-78640332D01*
X249006224Y-78563726D01*
X249049950Y-78520000D01*
X253672895Y-78520000D01*
X254430000Y-79277106D01*
X254430000Y-79338944D01*
X254456901Y-79474182D01*
X254509668Y-79601574D01*
X254586274Y-79716224D01*
X254683776Y-79813726D01*
X254798426Y-79890332D01*
X254925818Y-79943099D01*
X255061056Y-79970000D01*
X255198944Y-79970000D01*
X255298828Y-79950131D01*
X255212758Y-80036202D01*
X255196541Y-80049511D01*
X255143431Y-80114226D01*
X255107489Y-80181470D01*
X250903822Y-84385137D01*
X250880332Y-84328426D01*
X250803726Y-84213776D01*
X250743589Y-84153639D01*
X250751574Y-84150332D01*
X250866224Y-84073726D01*
X250963726Y-83976224D01*
X251040332Y-83861574D01*
X251093099Y-83734182D01*
X251120000Y-83598944D01*
X251120000Y-83461056D01*
X251093099Y-83325818D01*
X251040332Y-83198426D01*
X250963726Y-83083776D01*
X250866224Y-82986274D01*
X250751574Y-82909668D01*
X250624182Y-82856901D01*
X250488944Y-82830000D01*
X250351056Y-82830000D01*
X250215818Y-82856901D01*
X250088426Y-82909668D01*
X249973776Y-82986274D01*
X249876274Y-83083776D01*
X249799668Y-83198426D01*
X249746901Y-83325818D01*
X249720000Y-83461056D01*
X249720000Y-83598944D01*
X249724980Y-83623979D01*
X247283969Y-86064991D01*
X240517907Y-86064991D01*
X240503726Y-86043767D01*
X240406224Y-85946265D01*
X240291574Y-85869659D01*
X240164182Y-85816892D01*
X240028944Y-85789991D01*
X239891056Y-85789991D01*
X239755818Y-85816892D01*
X239628426Y-85869659D01*
X239513776Y-85946265D01*
X239416274Y-86043767D01*
X239339668Y-86158417D01*
X239286901Y-86285809D01*
X239260000Y-86421047D01*
X239260000Y-86558935D01*
X239286901Y-86694173D01*
X239305883Y-86740001D01*
X237869951Y-86740001D01*
X237836224Y-86706274D01*
X237721574Y-86629668D01*
X237594182Y-86576901D01*
X237458944Y-86550000D01*
X237321056Y-86550000D01*
X237185818Y-86576901D01*
X237058426Y-86629668D01*
X236943776Y-86706274D01*
X236846274Y-86803776D01*
X236769668Y-86918426D01*
X236716901Y-87045818D01*
X236690000Y-87181056D01*
X236690000Y-87318944D01*
X236716901Y-87454182D01*
X236765429Y-87571341D01*
X235767907Y-87571341D01*
X235753726Y-87550117D01*
X235656224Y-87452615D01*
X235541574Y-87376009D01*
X235414182Y-87323242D01*
X235278944Y-87296341D01*
X235141056Y-87296341D01*
X235005818Y-87323242D01*
X234878426Y-87376009D01*
X234763776Y-87452615D01*
X234666274Y-87550117D01*
X234589668Y-87664767D01*
X234536901Y-87792159D01*
X234510000Y-87927397D01*
X234510000Y-88065285D01*
X234536901Y-88200523D01*
X234588260Y-88324516D01*
X234027907Y-88324516D01*
X234013726Y-88303292D01*
X233916224Y-88205790D01*
X233801574Y-88129184D01*
X233674182Y-88076417D01*
X233538944Y-88049516D01*
X233401056Y-88049516D01*
X233265818Y-88076417D01*
X233138426Y-88129184D01*
X233023776Y-88205790D01*
X232926274Y-88303292D01*
X232849668Y-88417942D01*
X232796901Y-88545334D01*
X232770000Y-88680572D01*
X232770000Y-88818460D01*
X232796901Y-88953698D01*
X232848261Y-89077694D01*
X232213026Y-89077694D01*
X232203726Y-89063776D01*
X232106224Y-88966274D01*
X231991574Y-88889668D01*
X231864182Y-88836901D01*
X231728944Y-88810000D01*
X231591056Y-88810000D01*
X231455818Y-88836901D01*
X231350000Y-88880732D01*
X231350000Y-85809238D01*
X237085807Y-80073431D01*
X237141574Y-80050332D01*
X237256224Y-79973726D01*
X237353726Y-79876224D01*
X237430332Y-79761574D01*
X237483099Y-79634182D01*
X237510000Y-79498944D01*
X237510000Y-79361056D01*
X237483099Y-79225818D01*
X237430332Y-79098426D01*
X237353726Y-78983776D01*
X237256224Y-78886274D01*
X237141574Y-78809668D01*
X237014182Y-78756901D01*
X236878944Y-78730000D01*
X236741056Y-78730000D01*
X236605818Y-78756901D01*
X236478426Y-78809668D01*
X236363776Y-78886274D01*
X236266274Y-78983776D01*
X236189668Y-79098426D01*
X236166569Y-79154193D01*
X230262958Y-85057804D01*
X230238158Y-85078157D01*
X230217805Y-85102957D01*
X230217802Y-85102960D01*
X230156930Y-85177132D01*
X230096573Y-85290053D01*
X230059406Y-85412578D01*
X230046856Y-85540000D01*
X230050001Y-85571932D01*
X230050001Y-99913605D01*
X229760000Y-99623604D01*
X229760000Y-99491056D01*
X229733099Y-99355818D01*
X229680332Y-99228426D01*
X229603726Y-99113776D01*
X229506224Y-99016274D01*
X229391574Y-98939668D01*
X229264182Y-98886901D01*
X229128944Y-98860000D01*
X228991056Y-98860000D01*
X228855818Y-98886901D01*
X228728426Y-98939668D01*
X228613776Y-99016274D01*
X228516274Y-99113776D01*
X228439668Y-99228426D01*
X228386901Y-99355818D01*
X228360000Y-99491056D01*
X228360000Y-99628944D01*
X228386901Y-99764182D01*
X228439668Y-99891574D01*
X228516274Y-100006224D01*
X228613776Y-100103726D01*
X228728426Y-100180332D01*
X228855818Y-100233099D01*
X228991056Y-100260000D01*
X229123604Y-100260000D01*
X229300000Y-100436396D01*
X229300000Y-100582104D01*
X229300001Y-100582114D01*
X229300000Y-107800050D01*
X229206274Y-107893776D01*
X229129668Y-108008426D01*
X229076901Y-108135818D01*
X229050000Y-108271056D01*
X229050000Y-108408944D01*
X229076901Y-108544182D01*
X229129668Y-108671574D01*
X229206274Y-108786224D01*
X229303776Y-108883726D01*
X229418426Y-108960332D01*
X229545818Y-109013099D01*
X229681056Y-109040000D01*
X229818944Y-109040000D01*
X229954182Y-109013099D01*
X230050000Y-108973410D01*
X230050000Y-124248079D01*
X230046856Y-124280000D01*
X230050000Y-124311921D01*
X230050000Y-124311932D01*
X230059405Y-124407422D01*
X230096573Y-124529948D01*
X230096629Y-124530052D01*
X230156930Y-124642868D01*
X230217802Y-124717040D01*
X230217805Y-124717043D01*
X230238158Y-124741843D01*
X230262958Y-124762196D01*
X230556569Y-125055807D01*
X230579668Y-125111574D01*
X230656274Y-125226224D01*
X230753776Y-125323726D01*
X230868426Y-125400332D01*
X230995818Y-125453099D01*
X231131056Y-125480000D01*
X231268944Y-125480000D01*
X231404182Y-125453099D01*
X231531574Y-125400332D01*
X231646224Y-125323726D01*
X231685548Y-125284402D01*
X252497535Y-125284402D01*
X252505971Y-125312233D01*
X252598621Y-125528462D01*
X252731675Y-125722461D01*
X252900020Y-125886775D01*
X253097186Y-126015089D01*
X253315597Y-126102472D01*
X253500000Y-126053095D01*
X253500000Y-125100000D01*
X253800000Y-125100000D01*
X253800000Y-126053095D01*
X253984403Y-126102472D01*
X254202814Y-126015089D01*
X254399980Y-125886775D01*
X254568325Y-125722461D01*
X254701379Y-125528462D01*
X254794029Y-125312233D01*
X254802465Y-125284402D01*
X254752341Y-125100000D01*
X253800000Y-125100000D01*
X253500000Y-125100000D01*
X252547659Y-125100000D01*
X252497535Y-125284402D01*
X231685548Y-125284402D01*
X231743726Y-125226224D01*
X231820332Y-125111574D01*
X231873099Y-124984182D01*
X231900000Y-124848944D01*
X231900000Y-124711056D01*
X231881012Y-124615598D01*
X252497535Y-124615598D01*
X252547659Y-124800000D01*
X253500000Y-124800000D01*
X253500000Y-123846905D01*
X253800000Y-123846905D01*
X253800000Y-124800000D01*
X254752341Y-124800000D01*
X254802465Y-124615598D01*
X254794029Y-124587767D01*
X254701379Y-124371538D01*
X254568325Y-124177539D01*
X254399980Y-124013225D01*
X254202814Y-123884911D01*
X253984403Y-123797528D01*
X253800000Y-123846905D01*
X253500000Y-123846905D01*
X253315597Y-123797528D01*
X253097186Y-123884911D01*
X252900020Y-124013225D01*
X252731675Y-124177539D01*
X252598621Y-124371538D01*
X252505971Y-124587767D01*
X252497535Y-124615598D01*
X231881012Y-124615598D01*
X231873099Y-124575818D01*
X231820332Y-124448426D01*
X231743726Y-124333776D01*
X231646224Y-124236274D01*
X231531574Y-124159668D01*
X231475807Y-124136569D01*
X231350000Y-124010762D01*
X231350000Y-121156395D01*
X233100000Y-122906396D01*
X233100000Y-123038944D01*
X233126901Y-123174182D01*
X233179668Y-123301574D01*
X233256274Y-123416224D01*
X233353776Y-123513726D01*
X233468426Y-123590332D01*
X233595818Y-123643099D01*
X233731056Y-123670000D01*
X233868944Y-123670000D01*
X234004182Y-123643099D01*
X234131574Y-123590332D01*
X234246224Y-123513726D01*
X234343726Y-123416224D01*
X234420332Y-123301574D01*
X234473099Y-123174182D01*
X234500000Y-123038944D01*
X234500000Y-122901056D01*
X234473099Y-122765818D01*
X234420332Y-122638426D01*
X234343726Y-122523776D01*
X234246224Y-122426274D01*
X234131574Y-122349668D01*
X234004182Y-122296901D01*
X233868944Y-122270000D01*
X233736396Y-122270000D01*
X232059990Y-120593595D01*
X232059990Y-119082070D01*
X236710491Y-123732572D01*
X236724578Y-123749737D01*
X236741743Y-123763824D01*
X236741747Y-123763828D01*
X236793098Y-123805971D01*
X236815897Y-123818157D01*
X236871274Y-123847757D01*
X236956100Y-123873489D01*
X237022210Y-123880000D01*
X237022222Y-123880000D01*
X237044314Y-123882176D01*
X237066406Y-123880000D01*
X237070050Y-123880000D01*
X237163776Y-123973726D01*
X237278426Y-124050332D01*
X237405818Y-124103099D01*
X237541056Y-124130000D01*
X237678944Y-124130000D01*
X237814182Y-124103099D01*
X237941574Y-124050332D01*
X238056224Y-123973726D01*
X238153726Y-123876224D01*
X238230332Y-123761574D01*
X238283099Y-123634182D01*
X238310000Y-123498944D01*
X238310000Y-123361056D01*
X238283099Y-123225818D01*
X238230332Y-123098426D01*
X238153726Y-122983776D01*
X238056224Y-122886274D01*
X237941574Y-122809668D01*
X237814182Y-122756901D01*
X237678944Y-122730000D01*
X237541056Y-122730000D01*
X237405818Y-122756901D01*
X237278426Y-122809668D01*
X237163776Y-122886274D01*
X237150380Y-122899670D01*
X236592283Y-122341572D01*
X236729359Y-122328071D01*
X236949905Y-122261169D01*
X237153161Y-122152526D01*
X237331318Y-122006318D01*
X237477526Y-121828162D01*
X237586169Y-121624906D01*
X237653071Y-121404360D01*
X237664088Y-121292493D01*
X237818745Y-121292493D01*
X237865133Y-121528490D01*
X237956670Y-121750903D01*
X238089839Y-121951184D01*
X238259522Y-122121637D01*
X238459198Y-122255711D01*
X238702445Y-122347373D01*
X238890000Y-122297522D01*
X238890000Y-121100000D01*
X239190000Y-121100000D01*
X239190000Y-122297522D01*
X239377555Y-122347373D01*
X239620802Y-122255711D01*
X239820478Y-122121637D01*
X239990161Y-121951184D01*
X240123330Y-121750903D01*
X240214867Y-121528490D01*
X240261255Y-121292493D01*
X240177099Y-121100000D01*
X239190000Y-121100000D01*
X238890000Y-121100000D01*
X237902901Y-121100000D01*
X237818745Y-121292493D01*
X237664088Y-121292493D01*
X237670000Y-121232477D01*
X237670000Y-120667524D01*
X237664089Y-120607507D01*
X237818745Y-120607507D01*
X237902901Y-120800000D01*
X238890000Y-120800000D01*
X238890000Y-119602478D01*
X239190000Y-119602478D01*
X239190000Y-120800000D01*
X240177099Y-120800000D01*
X240261255Y-120607507D01*
X240214867Y-120371510D01*
X240123330Y-120149097D01*
X240094009Y-120104999D01*
X240408549Y-120104999D01*
X240408549Y-121795001D01*
X240419145Y-121902584D01*
X240450526Y-122006032D01*
X240501485Y-122101370D01*
X240570065Y-122184935D01*
X240653630Y-122253515D01*
X240748968Y-122304474D01*
X240852416Y-122335855D01*
X240959999Y-122346451D01*
X242200001Y-122346451D01*
X242307584Y-122335855D01*
X242411032Y-122304474D01*
X242506370Y-122253515D01*
X242589935Y-122184935D01*
X242658515Y-122101370D01*
X242709474Y-122006032D01*
X242740855Y-121902584D01*
X242751451Y-121795001D01*
X242751451Y-120104999D01*
X242740855Y-119997416D01*
X242709474Y-119893968D01*
X242658515Y-119798630D01*
X242589935Y-119715065D01*
X242537045Y-119671659D01*
X244330000Y-119671659D01*
X244330000Y-119888341D01*
X244372273Y-120100858D01*
X244455193Y-120301045D01*
X244575575Y-120481209D01*
X244728791Y-120634425D01*
X244908955Y-120754807D01*
X245109142Y-120837727D01*
X245321659Y-120880000D01*
X245538341Y-120880000D01*
X245750858Y-120837727D01*
X245951045Y-120754807D01*
X246131209Y-120634425D01*
X246284425Y-120481209D01*
X246404807Y-120301045D01*
X246487727Y-120100858D01*
X246530000Y-119888341D01*
X246530000Y-119671659D01*
X246487727Y-119459142D01*
X246404807Y-119258955D01*
X246284425Y-119078791D01*
X246131209Y-118925575D01*
X245951045Y-118805193D01*
X245750858Y-118722273D01*
X245538341Y-118680000D01*
X245321659Y-118680000D01*
X245109142Y-118722273D01*
X244908955Y-118805193D01*
X244728791Y-118925575D01*
X244575575Y-119078791D01*
X244455193Y-119258955D01*
X244372273Y-119459142D01*
X244330000Y-119671659D01*
X242537045Y-119671659D01*
X242506370Y-119646485D01*
X242411032Y-119595526D01*
X242307584Y-119564145D01*
X242200001Y-119553549D01*
X240959999Y-119553549D01*
X240852416Y-119564145D01*
X240748968Y-119595526D01*
X240653630Y-119646485D01*
X240570065Y-119715065D01*
X240501485Y-119798630D01*
X240450526Y-119893968D01*
X240419145Y-119997416D01*
X240408549Y-120104999D01*
X240094009Y-120104999D01*
X239990161Y-119948816D01*
X239820478Y-119778363D01*
X239620802Y-119644289D01*
X239377555Y-119552627D01*
X239190000Y-119602478D01*
X238890000Y-119602478D01*
X238702445Y-119552627D01*
X238459198Y-119644289D01*
X238259522Y-119778363D01*
X238089839Y-119948816D01*
X237956670Y-120149097D01*
X237865133Y-120371510D01*
X237818745Y-120607507D01*
X237664089Y-120607507D01*
X237653071Y-120495641D01*
X237586169Y-120275095D01*
X237477526Y-120071838D01*
X237331318Y-119893682D01*
X237153162Y-119747474D01*
X236949906Y-119638831D01*
X236729360Y-119571929D01*
X236500000Y-119549339D01*
X236270641Y-119571929D01*
X236050095Y-119638831D01*
X235846839Y-119747474D01*
X235668683Y-119893682D01*
X235522475Y-120071838D01*
X235413831Y-120275094D01*
X235346929Y-120495640D01*
X235330000Y-120667523D01*
X235330000Y-121079289D01*
X232760000Y-118509290D01*
X232760000Y-114656395D01*
X235856176Y-117752572D01*
X235870263Y-117769737D01*
X235887428Y-117783824D01*
X235887432Y-117783828D01*
X235938783Y-117825971D01*
X235966014Y-117840526D01*
X236016959Y-117867757D01*
X236101785Y-117893489D01*
X236167895Y-117900000D01*
X236167907Y-117900000D01*
X236189999Y-117902176D01*
X236212091Y-117900000D01*
X248503605Y-117900000D01*
X252583432Y-121979828D01*
X252544194Y-122074557D01*
X252500000Y-122296735D01*
X252500000Y-122523265D01*
X252544194Y-122745443D01*
X252630884Y-122954729D01*
X252756737Y-123143082D01*
X252916918Y-123303263D01*
X253105271Y-123429116D01*
X253314557Y-123515806D01*
X253536735Y-123560000D01*
X253763265Y-123560000D01*
X253985443Y-123515806D01*
X254194729Y-123429116D01*
X254383082Y-123303263D01*
X254410001Y-123276344D01*
X254410001Y-123597896D01*
X254407824Y-123620000D01*
X254410001Y-123642105D01*
X254412748Y-123670000D01*
X254416512Y-123708215D01*
X254442243Y-123793040D01*
X254484029Y-123871216D01*
X254526172Y-123922567D01*
X254526177Y-123922572D01*
X254540264Y-123939737D01*
X254557429Y-123953824D01*
X255123432Y-124519828D01*
X255084194Y-124614557D01*
X255040000Y-124836735D01*
X255040000Y-125063265D01*
X255084194Y-125285443D01*
X255170884Y-125494729D01*
X255296737Y-125683082D01*
X255456918Y-125843263D01*
X255645271Y-125969116D01*
X255854557Y-126055806D01*
X256076735Y-126100000D01*
X256303265Y-126100000D01*
X256525443Y-126055806D01*
X256734729Y-125969116D01*
X256923082Y-125843263D01*
X257083263Y-125683082D01*
X257209116Y-125494729D01*
X257295806Y-125285443D01*
X257340000Y-125063265D01*
X257340000Y-124836735D01*
X257295806Y-124614557D01*
X257209116Y-124405271D01*
X257083263Y-124216918D01*
X256923082Y-124056737D01*
X256734729Y-123930884D01*
X256525443Y-123844194D01*
X256303265Y-123800000D01*
X256076735Y-123800000D01*
X255854557Y-123844194D01*
X255759828Y-123883432D01*
X255310000Y-123433605D01*
X255310000Y-123156345D01*
X255456918Y-123303263D01*
X255645271Y-123429116D01*
X255854557Y-123515806D01*
X256076735Y-123560000D01*
X256303265Y-123560000D01*
X256525443Y-123515806D01*
X256734729Y-123429116D01*
X256923082Y-123303263D01*
X257083263Y-123143082D01*
X257209116Y-122954729D01*
X257295806Y-122745443D01*
X257340000Y-122523265D01*
X257340000Y-122296735D01*
X257295806Y-122074557D01*
X257209116Y-121865271D01*
X257083263Y-121676918D01*
X256923082Y-121516737D01*
X256734729Y-121390884D01*
X256525443Y-121304194D01*
X256303265Y-121260000D01*
X256076735Y-121260000D01*
X255854557Y-121304194D01*
X255645271Y-121390884D01*
X255456918Y-121516737D01*
X255310000Y-121663655D01*
X255310000Y-121018496D01*
X255340000Y-121021451D01*
X257040000Y-121021451D01*
X257098810Y-121015659D01*
X257155360Y-120998504D01*
X257207477Y-120970647D01*
X257253158Y-120933158D01*
X257290647Y-120887477D01*
X257318504Y-120835360D01*
X257335659Y-120778810D01*
X257341451Y-120720000D01*
X257341451Y-119020000D01*
X257335659Y-118961190D01*
X257318504Y-118904640D01*
X257290647Y-118852523D01*
X257253158Y-118806842D01*
X257207477Y-118769353D01*
X257155360Y-118741496D01*
X257098810Y-118724341D01*
X257040000Y-118718549D01*
X255435581Y-118718549D01*
X255480332Y-118651574D01*
X255533099Y-118524182D01*
X255560000Y-118388944D01*
X255560000Y-118251056D01*
X255533099Y-118115818D01*
X255480332Y-117988426D01*
X255403726Y-117873776D01*
X255306224Y-117776274D01*
X255191574Y-117699668D01*
X255064182Y-117646901D01*
X254928944Y-117620000D01*
X254791056Y-117620000D01*
X254655818Y-117646901D01*
X254528426Y-117699668D01*
X254413776Y-117776274D01*
X254316274Y-117873776D01*
X254239668Y-117988426D01*
X254186901Y-118115818D01*
X254160000Y-118251056D01*
X254160000Y-118388944D01*
X254186901Y-118524182D01*
X254239668Y-118651574D01*
X254316274Y-118766224D01*
X254410000Y-118859950D01*
X254410000Y-118943005D01*
X254399980Y-118933225D01*
X254202814Y-118804911D01*
X253984403Y-118717528D01*
X253800000Y-118766905D01*
X253800000Y-119720000D01*
X253820000Y-119720000D01*
X253820000Y-120020000D01*
X253800000Y-120020000D01*
X253800000Y-120973095D01*
X253984403Y-121022472D01*
X254202814Y-120935089D01*
X254399980Y-120806775D01*
X254410000Y-120796994D01*
X254410001Y-121543656D01*
X254383082Y-121516737D01*
X254194729Y-121390884D01*
X253985443Y-121304194D01*
X253763265Y-121260000D01*
X253536735Y-121260000D01*
X253314557Y-121304194D01*
X253219828Y-121343432D01*
X252080798Y-120204402D01*
X252497535Y-120204402D01*
X252505971Y-120232233D01*
X252598621Y-120448462D01*
X252731675Y-120642461D01*
X252900020Y-120806775D01*
X253097186Y-120935089D01*
X253315597Y-121022472D01*
X253500000Y-120973095D01*
X253500000Y-120020000D01*
X252547659Y-120020000D01*
X252497535Y-120204402D01*
X252080798Y-120204402D01*
X251411994Y-119535598D01*
X252497535Y-119535598D01*
X252547659Y-119720000D01*
X253500000Y-119720000D01*
X253500000Y-118766905D01*
X253315597Y-118717528D01*
X253097186Y-118804911D01*
X252900020Y-118933225D01*
X252731675Y-119097539D01*
X252598621Y-119291538D01*
X252505971Y-119507767D01*
X252497535Y-119535598D01*
X251411994Y-119535598D01*
X249023827Y-117147432D01*
X249009737Y-117130263D01*
X248941216Y-117074029D01*
X248863041Y-117032243D01*
X248778215Y-117006511D01*
X248712105Y-117000000D01*
X248712094Y-117000000D01*
X248690000Y-116997824D01*
X248667906Y-117000000D01*
X236376396Y-117000000D01*
X233500010Y-114123615D01*
X233500010Y-113970000D01*
X234208306Y-113970000D01*
X234215064Y-114038612D01*
X234235077Y-114104587D01*
X234267577Y-114165391D01*
X234311315Y-114218685D01*
X234364609Y-114262423D01*
X234425413Y-114294923D01*
X234491388Y-114314936D01*
X234560000Y-114321694D01*
X235172500Y-114320000D01*
X235260000Y-114232500D01*
X235260000Y-113270000D01*
X235560000Y-113270000D01*
X235560000Y-114232500D01*
X235647500Y-114320000D01*
X236260000Y-114321694D01*
X236328612Y-114314936D01*
X236394587Y-114294923D01*
X236455391Y-114262423D01*
X236508685Y-114218685D01*
X236552423Y-114165391D01*
X236584923Y-114104587D01*
X236604936Y-114038612D01*
X236611694Y-113970000D01*
X236610000Y-113357500D01*
X236522500Y-113270000D01*
X235560000Y-113270000D01*
X235260000Y-113270000D01*
X234297500Y-113270000D01*
X234210000Y-113357500D01*
X234208306Y-113970000D01*
X233500010Y-113970000D01*
X233500010Y-112270000D01*
X234208306Y-112270000D01*
X234210000Y-112882500D01*
X234297500Y-112970000D01*
X235260000Y-112970000D01*
X235260000Y-112007500D01*
X235560000Y-112007500D01*
X235560000Y-112970000D01*
X236522500Y-112970000D01*
X236610000Y-112882500D01*
X236611694Y-112270000D01*
X236604936Y-112201388D01*
X236584923Y-112135413D01*
X236552423Y-112074609D01*
X236508685Y-112021315D01*
X236455391Y-111977577D01*
X236394587Y-111945077D01*
X236328612Y-111925064D01*
X236260000Y-111918306D01*
X235647500Y-111920000D01*
X235560000Y-112007500D01*
X235260000Y-112007500D01*
X235172500Y-111920000D01*
X234560000Y-111918306D01*
X234491388Y-111925064D01*
X234425413Y-111945077D01*
X234364609Y-111977577D01*
X234311315Y-112021315D01*
X234267577Y-112074609D01*
X234235077Y-112135413D01*
X234215064Y-112201388D01*
X234208306Y-112270000D01*
X233500010Y-112270000D01*
X233500010Y-110777878D01*
X233506224Y-110773726D01*
X233603726Y-110676224D01*
X233680332Y-110561574D01*
X233719615Y-110466735D01*
X234260000Y-110466735D01*
X234260000Y-110693265D01*
X234304194Y-110915443D01*
X234390884Y-111124729D01*
X234516737Y-111313082D01*
X234676918Y-111473263D01*
X234865271Y-111599116D01*
X235074557Y-111685806D01*
X235296735Y-111730000D01*
X235523265Y-111730000D01*
X235745443Y-111685806D01*
X235954729Y-111599116D01*
X236143082Y-111473263D01*
X236303263Y-111313082D01*
X236429116Y-111124729D01*
X236515806Y-110915443D01*
X236516012Y-110914403D01*
X236797528Y-110914403D01*
X236884911Y-111132814D01*
X237013225Y-111329980D01*
X237177539Y-111498325D01*
X237371538Y-111631379D01*
X237587767Y-111724029D01*
X237615598Y-111732465D01*
X237800000Y-111682341D01*
X237800000Y-110730000D01*
X236846905Y-110730000D01*
X236797528Y-110914403D01*
X236516012Y-110914403D01*
X236560000Y-110693265D01*
X236560000Y-110466735D01*
X236516013Y-110245597D01*
X236797528Y-110245597D01*
X236846905Y-110430000D01*
X237800000Y-110430000D01*
X237800000Y-109477659D01*
X237615598Y-109427535D01*
X237587767Y-109435971D01*
X237371538Y-109528621D01*
X237177539Y-109661675D01*
X237013225Y-109830020D01*
X236884911Y-110027186D01*
X236797528Y-110245597D01*
X236516013Y-110245597D01*
X236515806Y-110244557D01*
X236429116Y-110035271D01*
X236303263Y-109846918D01*
X236143082Y-109686737D01*
X235954729Y-109560884D01*
X235860000Y-109521646D01*
X235860000Y-103403502D01*
X238650002Y-106193504D01*
X238650001Y-109611979D01*
X238528462Y-109528621D01*
X238312233Y-109435971D01*
X238284402Y-109427535D01*
X238100000Y-109477659D01*
X238100000Y-110430000D01*
X238120000Y-110430000D01*
X238120000Y-110730000D01*
X238100000Y-110730000D01*
X238100000Y-111682341D01*
X238284402Y-111732465D01*
X238312233Y-111724029D01*
X238528462Y-111631379D01*
X238650001Y-111548022D01*
X238650001Y-111642181D01*
X238279225Y-112012957D01*
X238063265Y-111970000D01*
X237836735Y-111970000D01*
X237614557Y-112014194D01*
X237405271Y-112100884D01*
X237216918Y-112226737D01*
X237056737Y-112386918D01*
X236930884Y-112575271D01*
X236844194Y-112784557D01*
X236800000Y-113006735D01*
X236800000Y-113233265D01*
X236844194Y-113455443D01*
X236930884Y-113664729D01*
X237056737Y-113853082D01*
X237190001Y-113986346D01*
X237190000Y-115860707D01*
X237186130Y-115900000D01*
X237201576Y-116056827D01*
X237247321Y-116207628D01*
X237321607Y-116346606D01*
X237373633Y-116410000D01*
X237421578Y-116468422D01*
X237543394Y-116568393D01*
X237682372Y-116642679D01*
X237833173Y-116688424D01*
X237990000Y-116703870D01*
X238029293Y-116700000D01*
X244690709Y-116700000D01*
X244730000Y-116703870D01*
X244769291Y-116700000D01*
X253950709Y-116700000D01*
X253990000Y-116703870D01*
X254029291Y-116700000D01*
X254029293Y-116700000D01*
X254146827Y-116688424D01*
X254297628Y-116642679D01*
X254436606Y-116568393D01*
X254558422Y-116468422D01*
X254583474Y-116437896D01*
X255013469Y-116007900D01*
X255088393Y-115916606D01*
X255162679Y-115777628D01*
X255208423Y-115626827D01*
X255223870Y-115470000D01*
X255208423Y-115313173D01*
X255162679Y-115162373D01*
X255088393Y-115023394D01*
X254988422Y-114901578D01*
X254866606Y-114801607D01*
X254727627Y-114727321D01*
X254576827Y-114681577D01*
X254420000Y-114666130D01*
X254263173Y-114681577D01*
X254112372Y-114727321D01*
X253973394Y-114801607D01*
X253882100Y-114876531D01*
X253658631Y-115100000D01*
X246661370Y-115100000D01*
X249677897Y-112083473D01*
X249708422Y-112058422D01*
X249774571Y-111977819D01*
X249808393Y-111936607D01*
X249882679Y-111797628D01*
X249893367Y-111762393D01*
X249928424Y-111646827D01*
X249940000Y-111529293D01*
X249940000Y-111529291D01*
X249943870Y-111490000D01*
X249940000Y-111450709D01*
X249940000Y-110150707D01*
X249928424Y-110033173D01*
X249882679Y-109882372D01*
X249808393Y-109743394D01*
X249708422Y-109621578D01*
X249586605Y-109521607D01*
X249447627Y-109447321D01*
X249296826Y-109401576D01*
X249140000Y-109386130D01*
X248983173Y-109401576D01*
X248832372Y-109447321D01*
X248693394Y-109521607D01*
X248571578Y-109621578D01*
X248471607Y-109743395D01*
X248397321Y-109882373D01*
X248351576Y-110033174D01*
X248340000Y-110150708D01*
X248340001Y-111158629D01*
X244398630Y-115100000D01*
X238790000Y-115100000D01*
X238790000Y-113906345D01*
X238843263Y-113853082D01*
X238969116Y-113664729D01*
X239055806Y-113455443D01*
X239100000Y-113233265D01*
X239100000Y-113006735D01*
X239340000Y-113006735D01*
X239340000Y-113233265D01*
X239384194Y-113455443D01*
X239470884Y-113664729D01*
X239596737Y-113853082D01*
X239756918Y-114013263D01*
X239945271Y-114139116D01*
X240154557Y-114225806D01*
X240376735Y-114270000D01*
X240603265Y-114270000D01*
X240825443Y-114225806D01*
X241034729Y-114139116D01*
X241223082Y-114013263D01*
X241383263Y-113853082D01*
X241509116Y-113664729D01*
X241595806Y-113455443D01*
X241640000Y-113233265D01*
X241640000Y-113006735D01*
X241595806Y-112784557D01*
X241509116Y-112575271D01*
X241383263Y-112386918D01*
X241223082Y-112226737D01*
X241034729Y-112100884D01*
X240825443Y-112014194D01*
X240603265Y-111970000D01*
X240376735Y-111970000D01*
X240154557Y-112014194D01*
X239945271Y-112100884D01*
X239756918Y-112226737D01*
X239596737Y-112386918D01*
X239470884Y-112575271D01*
X239384194Y-112784557D01*
X239340000Y-113006735D01*
X239100000Y-113006735D01*
X239057043Y-112790775D01*
X239569811Y-112278007D01*
X239590791Y-112260789D01*
X239608009Y-112239809D01*
X239608014Y-112239804D01*
X239659521Y-112177042D01*
X239672662Y-112152457D01*
X239710593Y-112081493D01*
X239742043Y-111977818D01*
X239750001Y-111897017D01*
X239750001Y-111897008D01*
X239752661Y-111870000D01*
X239750001Y-111842992D01*
X239750001Y-111466346D01*
X239756918Y-111473263D01*
X239945271Y-111599116D01*
X240154557Y-111685806D01*
X240376735Y-111730000D01*
X240603265Y-111730000D01*
X240825443Y-111685806D01*
X241034729Y-111599116D01*
X241190002Y-111495366D01*
X241190002Y-111707897D01*
X241187825Y-111730001D01*
X241196513Y-111818216D01*
X241222244Y-111903041D01*
X241264030Y-111981217D01*
X241306173Y-112032568D01*
X241306178Y-112032573D01*
X241320265Y-112049738D01*
X241337430Y-112063825D01*
X241963432Y-112689828D01*
X241924194Y-112784557D01*
X241880000Y-113006735D01*
X241880000Y-113233265D01*
X241924194Y-113455443D01*
X242010884Y-113664729D01*
X242136737Y-113853082D01*
X242296918Y-114013263D01*
X242485271Y-114139116D01*
X242694557Y-114225806D01*
X242916735Y-114270000D01*
X243143265Y-114270000D01*
X243365443Y-114225806D01*
X243574729Y-114139116D01*
X243763082Y-114013263D01*
X243923263Y-113853082D01*
X244049116Y-113664729D01*
X244135806Y-113455443D01*
X244180000Y-113233265D01*
X244180000Y-113006735D01*
X244135806Y-112784557D01*
X244049116Y-112575271D01*
X243923263Y-112386918D01*
X243763082Y-112226737D01*
X243574729Y-112100884D01*
X243365443Y-112014194D01*
X243143265Y-111970000D01*
X242916735Y-111970000D01*
X242694557Y-112014194D01*
X242599828Y-112053432D01*
X242090001Y-111543606D01*
X242090001Y-111243136D01*
X242136737Y-111313082D01*
X242296918Y-111473263D01*
X242485271Y-111599116D01*
X242694557Y-111685806D01*
X242916735Y-111730000D01*
X243143265Y-111730000D01*
X243365443Y-111685806D01*
X243574729Y-111599116D01*
X243763082Y-111473263D01*
X243923263Y-111313082D01*
X244049116Y-111124729D01*
X244135806Y-110915443D01*
X244180000Y-110693265D01*
X244180000Y-110466735D01*
X244135806Y-110244557D01*
X244049116Y-110035271D01*
X243923263Y-109846918D01*
X243763082Y-109686737D01*
X243574729Y-109560884D01*
X243480000Y-109521646D01*
X243480000Y-108141056D01*
X244350000Y-108141056D01*
X244350000Y-108278944D01*
X244376901Y-108414182D01*
X244429668Y-108541574D01*
X244506274Y-108656224D01*
X244603776Y-108753726D01*
X244718426Y-108830332D01*
X244810001Y-108868263D01*
X244810000Y-109750050D01*
X244716274Y-109843776D01*
X244639668Y-109958426D01*
X244586901Y-110085818D01*
X244560000Y-110221056D01*
X244560000Y-110358944D01*
X244586901Y-110494182D01*
X244639668Y-110621574D01*
X244716274Y-110736224D01*
X244813776Y-110833726D01*
X244928426Y-110910332D01*
X245055818Y-110963099D01*
X245191056Y-110990000D01*
X245328944Y-110990000D01*
X245464182Y-110963099D01*
X245591574Y-110910332D01*
X245706224Y-110833726D01*
X245803726Y-110736224D01*
X245880332Y-110621574D01*
X245933099Y-110494182D01*
X245960000Y-110358944D01*
X245960000Y-110221056D01*
X245933099Y-110085818D01*
X245880332Y-109958426D01*
X245803726Y-109843776D01*
X245710000Y-109750050D01*
X245710000Y-108445806D01*
X245723099Y-108414182D01*
X245750000Y-108278944D01*
X245750000Y-108141056D01*
X245723099Y-108005818D01*
X245670332Y-107878426D01*
X245593726Y-107763776D01*
X245496224Y-107666274D01*
X245381574Y-107589668D01*
X245254182Y-107536901D01*
X245118944Y-107510000D01*
X244981056Y-107510000D01*
X244845818Y-107536901D01*
X244718426Y-107589668D01*
X244603776Y-107666274D01*
X244506274Y-107763776D01*
X244429668Y-107878426D01*
X244376901Y-108005818D01*
X244350000Y-108141056D01*
X243480000Y-108141056D01*
X243480000Y-100102126D01*
X243482176Y-100080034D01*
X243480000Y-100057942D01*
X243480000Y-100057930D01*
X243473489Y-99991820D01*
X243447757Y-99906994D01*
X243408745Y-99834008D01*
X243405971Y-99828818D01*
X243363828Y-99777467D01*
X243363824Y-99777463D01*
X243349737Y-99760298D01*
X243332572Y-99746211D01*
X238366361Y-94780000D01*
X255518549Y-94780000D01*
X255518549Y-96480000D01*
X255524341Y-96538810D01*
X255541496Y-96595360D01*
X255569353Y-96647477D01*
X255606842Y-96693158D01*
X255652523Y-96730647D01*
X255704640Y-96758504D01*
X255761190Y-96775659D01*
X255820000Y-96781451D01*
X257520000Y-96781451D01*
X257578810Y-96775659D01*
X257635360Y-96758504D01*
X257687477Y-96730647D01*
X257733158Y-96693158D01*
X257770647Y-96647477D01*
X257798504Y-96595360D01*
X257815659Y-96538810D01*
X257821451Y-96480000D01*
X257821451Y-94780000D01*
X257815659Y-94721190D01*
X257798504Y-94664640D01*
X257770647Y-94612523D01*
X257733158Y-94566842D01*
X257687477Y-94529353D01*
X257635360Y-94501496D01*
X257578810Y-94484341D01*
X257520000Y-94478549D01*
X255820000Y-94478549D01*
X255761190Y-94484341D01*
X255704640Y-94501496D01*
X255652523Y-94529353D01*
X255606842Y-94566842D01*
X255569353Y-94612523D01*
X255541496Y-94664640D01*
X255524341Y-94721190D01*
X255518549Y-94780000D01*
X238366361Y-94780000D01*
X237920800Y-94334440D01*
X237920800Y-94201891D01*
X237893899Y-94066653D01*
X237841132Y-93939261D01*
X237764526Y-93824611D01*
X237667024Y-93727109D01*
X237552374Y-93650503D01*
X237424982Y-93597736D01*
X237289744Y-93570835D01*
X237151856Y-93570835D01*
X237016618Y-93597736D01*
X236889226Y-93650503D01*
X236774576Y-93727109D01*
X236677074Y-93824611D01*
X236600468Y-93939261D01*
X236581485Y-93985090D01*
X236290000Y-93693605D01*
X236290000Y-93561056D01*
X236263099Y-93425818D01*
X236210332Y-93298426D01*
X236133726Y-93183776D01*
X236036224Y-93086274D01*
X235921574Y-93009668D01*
X235794182Y-92956901D01*
X235658944Y-92930000D01*
X235521056Y-92930000D01*
X235385818Y-92956901D01*
X235258426Y-93009668D01*
X235143776Y-93086274D01*
X235046274Y-93183776D01*
X234969668Y-93298426D01*
X234916901Y-93425818D01*
X234890000Y-93561056D01*
X234890000Y-93698944D01*
X234916901Y-93834182D01*
X234969668Y-93961574D01*
X235046274Y-94076224D01*
X235143776Y-94173726D01*
X235258426Y-94250332D01*
X235385818Y-94303099D01*
X235521056Y-94330000D01*
X235653605Y-94330000D01*
X241190001Y-99866397D01*
X241190002Y-109664634D01*
X241034729Y-109560884D01*
X240825443Y-109474194D01*
X240603265Y-109430000D01*
X240376735Y-109430000D01*
X240154557Y-109474194D01*
X239945271Y-109560884D01*
X239756918Y-109686737D01*
X239750001Y-109693654D01*
X239750001Y-105992697D01*
X239752661Y-105965686D01*
X239750001Y-105938675D01*
X239750001Y-105938668D01*
X239742043Y-105857867D01*
X239717658Y-105777481D01*
X239710593Y-105754191D01*
X239659522Y-105658644D01*
X239626728Y-105618685D01*
X239645258Y-105608781D01*
X239724088Y-105544088D01*
X239788781Y-105465258D01*
X239836853Y-105375322D01*
X239866455Y-105277736D01*
X239876451Y-105176250D01*
X239876451Y-104738750D01*
X239866455Y-104637264D01*
X239836853Y-104539678D01*
X239788781Y-104449742D01*
X239724088Y-104370912D01*
X239645258Y-104306219D01*
X239555322Y-104258147D01*
X239457736Y-104228545D01*
X239356250Y-104218549D01*
X238843750Y-104218549D01*
X238742264Y-104228545D01*
X238644678Y-104258147D01*
X238554742Y-104306219D01*
X238475912Y-104370912D01*
X238434052Y-104421920D01*
X238092132Y-104080000D01*
X238208944Y-104080000D01*
X238344182Y-104053099D01*
X238471574Y-104000332D01*
X238494951Y-103984712D01*
X238554742Y-104033781D01*
X238644678Y-104081853D01*
X238742264Y-104111455D01*
X238843750Y-104121451D01*
X239356250Y-104121451D01*
X239457736Y-104111455D01*
X239555322Y-104081853D01*
X239645258Y-104033781D01*
X239724088Y-103969088D01*
X239788781Y-103890258D01*
X239836853Y-103800322D01*
X239866455Y-103702736D01*
X239876451Y-103601250D01*
X239876451Y-103163750D01*
X239866455Y-103062264D01*
X239836853Y-102964678D01*
X239788781Y-102874742D01*
X239724088Y-102795912D01*
X239645258Y-102731219D01*
X239555322Y-102683147D01*
X239457736Y-102653545D01*
X239356250Y-102643549D01*
X238843750Y-102643549D01*
X238742264Y-102653545D01*
X238644678Y-102683147D01*
X238554742Y-102731219D01*
X238498309Y-102777532D01*
X238471574Y-102759668D01*
X238344182Y-102706901D01*
X238208944Y-102680000D01*
X238071056Y-102680000D01*
X237935818Y-102706901D01*
X237808426Y-102759668D01*
X237693776Y-102836274D01*
X237596274Y-102933776D01*
X237519668Y-103048426D01*
X237466901Y-103175818D01*
X237440000Y-103311056D01*
X237440000Y-103427868D01*
X236739640Y-102727508D01*
X236770332Y-102681574D01*
X236823099Y-102554182D01*
X236850000Y-102418944D01*
X236850000Y-102281056D01*
X236823099Y-102145818D01*
X236770332Y-102018426D01*
X236693726Y-101903776D01*
X236596224Y-101806274D01*
X236481574Y-101729668D01*
X236354182Y-101676901D01*
X236218944Y-101650000D01*
X236081056Y-101650000D01*
X235945818Y-101676901D01*
X235860000Y-101712448D01*
X235860000Y-99666395D01*
X237496396Y-98030000D01*
X237628944Y-98030000D01*
X237764182Y-98003099D01*
X237891574Y-97950332D01*
X238006224Y-97873726D01*
X238103726Y-97776224D01*
X238180332Y-97661574D01*
X238233099Y-97534182D01*
X238260000Y-97398944D01*
X238260000Y-97261056D01*
X238233099Y-97125818D01*
X238180332Y-96998426D01*
X238103726Y-96883776D01*
X238006224Y-96786274D01*
X237891574Y-96709668D01*
X237764182Y-96656901D01*
X237628944Y-96630000D01*
X237491056Y-96630000D01*
X237355818Y-96656901D01*
X237228426Y-96709668D01*
X237113776Y-96786274D01*
X237016274Y-96883776D01*
X236939668Y-96998426D01*
X236886901Y-97125818D01*
X236860000Y-97261056D01*
X236860000Y-97393604D01*
X235107434Y-99146171D01*
X235090263Y-99160263D01*
X235076172Y-99177433D01*
X235034029Y-99228784D01*
X235011236Y-99271427D01*
X234992243Y-99306960D01*
X234966511Y-99391786D01*
X234960000Y-99457896D01*
X234960000Y-99457906D01*
X234957824Y-99480000D01*
X234960000Y-99502094D01*
X234960001Y-109521645D01*
X234865271Y-109560884D01*
X234676918Y-109686737D01*
X234516737Y-109846918D01*
X234390884Y-110035271D01*
X234304194Y-110244557D01*
X234260000Y-110466735D01*
X233719615Y-110466735D01*
X233733099Y-110434182D01*
X233760000Y-110298944D01*
X233760000Y-110161056D01*
X233733099Y-110025818D01*
X233680332Y-109898426D01*
X233603726Y-109783776D01*
X233506224Y-109686274D01*
X233391574Y-109609668D01*
X233264182Y-109556901D01*
X233128944Y-109530000D01*
X232991056Y-109530000D01*
X232855818Y-109556901D01*
X232760000Y-109596590D01*
X232760000Y-104902473D01*
X232962539Y-104699934D01*
X233095088Y-104699934D01*
X233230326Y-104673033D01*
X233357718Y-104620266D01*
X233472368Y-104543660D01*
X233569870Y-104446158D01*
X233646476Y-104331508D01*
X233699243Y-104204116D01*
X233726144Y-104068878D01*
X233726144Y-103930990D01*
X233699243Y-103795752D01*
X233646476Y-103668360D01*
X233569870Y-103553710D01*
X233472368Y-103456208D01*
X233357718Y-103379602D01*
X233230326Y-103326835D01*
X233095088Y-103299934D01*
X232957200Y-103299934D01*
X232821962Y-103326835D01*
X232694570Y-103379602D01*
X232579920Y-103456208D01*
X232482418Y-103553710D01*
X232405812Y-103668360D01*
X232353045Y-103795752D01*
X232326144Y-103930990D01*
X232326144Y-104063539D01*
X232007429Y-104382254D01*
X231990264Y-104396341D01*
X231976177Y-104413506D01*
X231976172Y-104413511D01*
X231934029Y-104464862D01*
X231892243Y-104543038D01*
X231866665Y-104627357D01*
X231866512Y-104627863D01*
X231861090Y-104682921D01*
X231857824Y-104716078D01*
X231860001Y-104738182D01*
X231860001Y-108312411D01*
X231814172Y-108293428D01*
X231678934Y-108266527D01*
X231541046Y-108266527D01*
X231405808Y-108293428D01*
X231350000Y-108316544D01*
X231350000Y-90139268D01*
X231455818Y-90183099D01*
X231591056Y-90210000D01*
X231728944Y-90210000D01*
X231864182Y-90183099D01*
X231991574Y-90130332D01*
X232106224Y-90053726D01*
X232203726Y-89956224D01*
X232222789Y-89927694D01*
X245011448Y-89927694D01*
X244923776Y-89986274D01*
X244826274Y-90083776D01*
X244749668Y-90198426D01*
X244696901Y-90325818D01*
X244670000Y-90461056D01*
X244670000Y-90598944D01*
X244674980Y-90623980D01*
X244568961Y-90729999D01*
X239425867Y-90729999D01*
X239405000Y-90727944D01*
X239384133Y-90729999D01*
X239384127Y-90729999D01*
X239330099Y-90735320D01*
X239321686Y-90736149D01*
X239297384Y-90743521D01*
X239241574Y-90760451D01*
X239167741Y-90799915D01*
X239103027Y-90853025D01*
X239089722Y-90869237D01*
X238023980Y-91934980D01*
X237998944Y-91930000D01*
X237861056Y-91930000D01*
X237725818Y-91956901D01*
X237598426Y-92009668D01*
X237483776Y-92086274D01*
X237386274Y-92183776D01*
X237309668Y-92298426D01*
X237256901Y-92425818D01*
X237230000Y-92561056D01*
X237230000Y-92698944D01*
X237256901Y-92834182D01*
X237309668Y-92961574D01*
X237386274Y-93076224D01*
X237483776Y-93173726D01*
X237598426Y-93250332D01*
X237725818Y-93303099D01*
X237861056Y-93330000D01*
X237998944Y-93330000D01*
X238134182Y-93303099D01*
X238261574Y-93250332D01*
X238376224Y-93173726D01*
X238473726Y-93076224D01*
X238540201Y-92976735D01*
X255520000Y-92976735D01*
X255520000Y-93203265D01*
X255564194Y-93425443D01*
X255650884Y-93634729D01*
X255776737Y-93823082D01*
X255936918Y-93983263D01*
X256125271Y-94109116D01*
X256334557Y-94195806D01*
X256556735Y-94240000D01*
X256783265Y-94240000D01*
X257005443Y-94195806D01*
X257214729Y-94109116D01*
X257403082Y-93983263D01*
X257563263Y-93823082D01*
X257689116Y-93634729D01*
X257775806Y-93425443D01*
X257820000Y-93203265D01*
X257820000Y-92976735D01*
X257775806Y-92754557D01*
X257689116Y-92545271D01*
X257563263Y-92356918D01*
X257403082Y-92196737D01*
X257214729Y-92070884D01*
X257005443Y-91984194D01*
X256783265Y-91940000D01*
X256556735Y-91940000D01*
X256334557Y-91984194D01*
X256125271Y-92070884D01*
X255936918Y-92196737D01*
X255776737Y-92356918D01*
X255650884Y-92545271D01*
X255564194Y-92754557D01*
X255520000Y-92976735D01*
X238540201Y-92976735D01*
X238550332Y-92961574D01*
X238603099Y-92834182D01*
X238630000Y-92698944D01*
X238630000Y-92561056D01*
X238625020Y-92536020D01*
X239581042Y-91579999D01*
X244724134Y-91579999D01*
X244745001Y-91582054D01*
X244765868Y-91579999D01*
X244765875Y-91579999D01*
X244828315Y-91573849D01*
X244908428Y-91549547D01*
X244982261Y-91510083D01*
X245046975Y-91456973D01*
X245060284Y-91440756D01*
X245276020Y-91225020D01*
X245301056Y-91230000D01*
X245438944Y-91230000D01*
X245574182Y-91203099D01*
X245701574Y-91150332D01*
X245816224Y-91073726D01*
X245913726Y-90976224D01*
X245990332Y-90861574D01*
X246043099Y-90734182D01*
X246070000Y-90598944D01*
X246070000Y-90461056D01*
X246043099Y-90325818D01*
X245990332Y-90198426D01*
X245913726Y-90083776D01*
X245816224Y-89986274D01*
X245728552Y-89927694D01*
X248546439Y-89927694D01*
X248567306Y-89929749D01*
X248588173Y-89927694D01*
X248588180Y-89927694D01*
X248650620Y-89921544D01*
X248730733Y-89897242D01*
X248804566Y-89857778D01*
X248869280Y-89804668D01*
X248882590Y-89788450D01*
X256081041Y-82590000D01*
X256128944Y-82590000D01*
X256264182Y-82563099D01*
X256391574Y-82510332D01*
X256480000Y-82451248D01*
X256480000Y-82652894D01*
X255642895Y-83490000D01*
X255581056Y-83490000D01*
X255445818Y-83516901D01*
X255318426Y-83569668D01*
X255203776Y-83646274D01*
X255106274Y-83743776D01*
X255029668Y-83858426D01*
X254976901Y-83985818D01*
X254950000Y-84121056D01*
X254950000Y-84258944D01*
X254976901Y-84394182D01*
X255029668Y-84521574D01*
X255106274Y-84636224D01*
X255203776Y-84733726D01*
X255318426Y-84810332D01*
X255445818Y-84863099D01*
X255581056Y-84890000D01*
X255718944Y-84890000D01*
X255854182Y-84863099D01*
X255981574Y-84810332D01*
X256096224Y-84733726D01*
X256193726Y-84636224D01*
X256270332Y-84521574D01*
X256323099Y-84394182D01*
X256350000Y-84258944D01*
X256350000Y-84197105D01*
X257316181Y-83230925D01*
X257335264Y-83215264D01*
X257397746Y-83139129D01*
X257444175Y-83052267D01*
X257460316Y-82999057D01*
X257472765Y-82958018D01*
X257482419Y-82860001D01*
X257480000Y-82835441D01*
X257480000Y-78234557D01*
X257482419Y-78209999D01*
X257480000Y-78185440D01*
X257472765Y-78111983D01*
X257444175Y-78017733D01*
X257397746Y-77930871D01*
X257335264Y-77854736D01*
X257316181Y-77839075D01*
X256780000Y-77302895D01*
X256780000Y-77241056D01*
X256753099Y-77105818D01*
X256700332Y-76978426D01*
X256623726Y-76863776D01*
X256526224Y-76766274D01*
X256411574Y-76689668D01*
X256376162Y-76675000D01*
X258125000Y-76675000D01*
X258125001Y-96939660D01*
X257086346Y-97046078D01*
X257066040Y-97049622D01*
X257045640Y-97052525D01*
X257034164Y-97055185D01*
X255937461Y-97327608D01*
X255917868Y-97333974D01*
X255898070Y-97339726D01*
X255887083Y-97343977D01*
X254839706Y-97768208D01*
X254821201Y-97777273D01*
X254802416Y-97785755D01*
X254792137Y-97791511D01*
X253814983Y-98359087D01*
X253797928Y-98370678D01*
X253780538Y-98381714D01*
X253771173Y-98388861D01*
X252883740Y-99088457D01*
X252868494Y-99102330D01*
X252852826Y-99115712D01*
X252844561Y-99124107D01*
X252064555Y-99941764D01*
X252051420Y-99957642D01*
X252037790Y-99973102D01*
X252030791Y-99982578D01*
X251373776Y-100901981D01*
X251363012Y-100919546D01*
X251351693Y-100936778D01*
X251346099Y-100947146D01*
X250825183Y-101949952D01*
X250817002Y-101968857D01*
X250808223Y-101987513D01*
X250804146Y-101998565D01*
X250429724Y-103064764D01*
X250424284Y-103084648D01*
X250418226Y-103104341D01*
X250415746Y-103115857D01*
X250195288Y-104224175D01*
X250192703Y-104244631D01*
X250189481Y-104264977D01*
X250188650Y-104276708D01*
X250188648Y-104276727D01*
X250188648Y-104276742D01*
X250126554Y-105405053D01*
X250126878Y-105425672D01*
X250126554Y-105446265D01*
X250127385Y-105457998D01*
X250127385Y-105458017D01*
X250127387Y-105458032D01*
X250224892Y-106583834D01*
X250228117Y-106604196D01*
X250230699Y-106624635D01*
X250233178Y-106636152D01*
X250488341Y-107736999D01*
X250494404Y-107756708D01*
X250499839Y-107776575D01*
X250503916Y-107787627D01*
X250911644Y-108841538D01*
X250920423Y-108860194D01*
X250928604Y-108879099D01*
X250934198Y-108889467D01*
X251486355Y-109875416D01*
X251497669Y-109892640D01*
X251508438Y-109910213D01*
X251515437Y-109919689D01*
X252201007Y-110818001D01*
X252214637Y-110833461D01*
X252227772Y-110849339D01*
X252236037Y-110857735D01*
X253041342Y-111650488D01*
X253057014Y-111663873D01*
X253072256Y-111677742D01*
X253081621Y-111684889D01*
X253990590Y-112356264D01*
X254007990Y-112367306D01*
X254025036Y-112378891D01*
X254035315Y-112384647D01*
X255029813Y-112921249D01*
X255048595Y-112929730D01*
X255067104Y-112938797D01*
X255078091Y-112943048D01*
X256138277Y-113334171D01*
X256158075Y-113339923D01*
X256177668Y-113346289D01*
X256189144Y-113348949D01*
X257293863Y-113586789D01*
X257314272Y-113589694D01*
X257334568Y-113593236D01*
X257346305Y-113594253D01*
X258125000Y-113649388D01*
X258125000Y-134030098D01*
X250590525Y-134032891D01*
X250566448Y-134003552D01*
X250509347Y-133956691D01*
X250444200Y-133921869D01*
X250373513Y-133900426D01*
X250318419Y-133895000D01*
X250300000Y-133893186D01*
X250281581Y-133895000D01*
X207874997Y-133895000D01*
X207874815Y-112929516D01*
X208172406Y-112796637D01*
X208184786Y-112790023D01*
X208197584Y-112784245D01*
X208207863Y-112778489D01*
X208852050Y-112404315D01*
X209927824Y-112404315D01*
X209930001Y-112426419D01*
X209930000Y-119157906D01*
X209927824Y-119180000D01*
X209930000Y-119202094D01*
X209930000Y-119202104D01*
X209936511Y-119268214D01*
X209949267Y-119310263D01*
X209962243Y-119353040D01*
X210004029Y-119431216D01*
X210046172Y-119482567D01*
X210060263Y-119499737D01*
X210077434Y-119513829D01*
X211050001Y-120486397D01*
X211050000Y-130290050D01*
X210956274Y-130383776D01*
X210879668Y-130498426D01*
X210826901Y-130625818D01*
X210800000Y-130761056D01*
X210800000Y-130898944D01*
X210826901Y-131034182D01*
X210879668Y-131161574D01*
X210956274Y-131276224D01*
X211053776Y-131373726D01*
X211168426Y-131450332D01*
X211295818Y-131503099D01*
X211431056Y-131530000D01*
X211568944Y-131530000D01*
X211704182Y-131503099D01*
X211831574Y-131450332D01*
X211946224Y-131373726D01*
X212043726Y-131276224D01*
X212120332Y-131161574D01*
X212173099Y-131034182D01*
X212200000Y-130898944D01*
X212200000Y-130761056D01*
X212173099Y-130625818D01*
X212120332Y-130498426D01*
X212043726Y-130383776D01*
X211950000Y-130290050D01*
X211950000Y-129831659D01*
X244330000Y-129831659D01*
X244330000Y-130048341D01*
X244372273Y-130260858D01*
X244455193Y-130461045D01*
X244575575Y-130641209D01*
X244728791Y-130794425D01*
X244908955Y-130914807D01*
X245109142Y-130997727D01*
X245321659Y-131040000D01*
X245538341Y-131040000D01*
X245750858Y-130997727D01*
X245951045Y-130914807D01*
X246131209Y-130794425D01*
X246284425Y-130641209D01*
X246404807Y-130461045D01*
X246487727Y-130260858D01*
X246530000Y-130048341D01*
X246530000Y-129831659D01*
X246487727Y-129619142D01*
X246404807Y-129418955D01*
X246284425Y-129238791D01*
X246131209Y-129085575D01*
X245951045Y-128965193D01*
X245750858Y-128882273D01*
X245538341Y-128840000D01*
X245321659Y-128840000D01*
X245109142Y-128882273D01*
X244908955Y-128965193D01*
X244728791Y-129085575D01*
X244575575Y-129238791D01*
X244455193Y-129418955D01*
X244372273Y-129619142D01*
X244330000Y-129831659D01*
X211950000Y-129831659D01*
X211950000Y-120322093D01*
X211952176Y-120299999D01*
X211950000Y-120277905D01*
X211950000Y-120277895D01*
X211943489Y-120211785D01*
X211917757Y-120126959D01*
X211893820Y-120082177D01*
X211875971Y-120048783D01*
X211833828Y-119997432D01*
X211833824Y-119997428D01*
X211819737Y-119980263D01*
X211802572Y-119966176D01*
X210830000Y-118993605D01*
X210830000Y-112590710D01*
X215094672Y-108326038D01*
X215059668Y-108378426D01*
X215006901Y-108505818D01*
X214980000Y-108641056D01*
X214980000Y-108778944D01*
X215006901Y-108914182D01*
X215059668Y-109041574D01*
X215136274Y-109156224D01*
X215230001Y-109249951D01*
X215230000Y-112450100D01*
X215227824Y-112472194D01*
X215230000Y-112494288D01*
X215230000Y-112494298D01*
X215236511Y-112560408D01*
X215256429Y-112626069D01*
X215262243Y-112645234D01*
X215304029Y-112723410D01*
X215343642Y-112771678D01*
X215360263Y-112791931D01*
X215377434Y-112806023D01*
X216356688Y-113785278D01*
X216243919Y-113819486D01*
X216087568Y-113903057D01*
X215950525Y-114015525D01*
X215838057Y-114152569D01*
X215754486Y-114308920D01*
X215703023Y-114478570D01*
X215690000Y-114610794D01*
X215690000Y-114946440D01*
X215491451Y-115144989D01*
X215491451Y-114304999D01*
X215480855Y-114197416D01*
X215449474Y-114093968D01*
X215398515Y-113998630D01*
X215329935Y-113915065D01*
X215246370Y-113846485D01*
X215151032Y-113795526D01*
X215047584Y-113764145D01*
X214940001Y-113753549D01*
X214239999Y-113753549D01*
X214132416Y-113764145D01*
X214028968Y-113795526D01*
X213933630Y-113846485D01*
X213850065Y-113915065D01*
X213781485Y-113998630D01*
X213730526Y-114093968D01*
X213699145Y-114197416D01*
X213688549Y-114304999D01*
X213688549Y-115555001D01*
X213699145Y-115662584D01*
X213730526Y-115766032D01*
X213737040Y-115778219D01*
X213643568Y-115806573D01*
X213530647Y-115866930D01*
X213456475Y-115927802D01*
X213456473Y-115927804D01*
X213431673Y-115948157D01*
X213411320Y-115972957D01*
X211345951Y-118038327D01*
X211290184Y-118061426D01*
X211175534Y-118138032D01*
X211078032Y-118235534D01*
X211001426Y-118350184D01*
X210948659Y-118477576D01*
X210921758Y-118612814D01*
X210921758Y-118750702D01*
X210948659Y-118885940D01*
X211001426Y-119013332D01*
X211078032Y-119127982D01*
X211175534Y-119225484D01*
X211290184Y-119302090D01*
X211417576Y-119354857D01*
X211552814Y-119381758D01*
X211690702Y-119381758D01*
X211825940Y-119354857D01*
X211953332Y-119302090D01*
X212067982Y-119225484D01*
X212165484Y-119127982D01*
X212242090Y-119013332D01*
X212265189Y-118957565D01*
X214162755Y-117060000D01*
X215113757Y-117060000D01*
X215145678Y-117063144D01*
X215177599Y-117060000D01*
X215177610Y-117060000D01*
X215273100Y-117050595D01*
X215395626Y-117013427D01*
X215508546Y-116953070D01*
X215607521Y-116871843D01*
X215627878Y-116847038D01*
X216390068Y-116084848D01*
X216413570Y-116091977D01*
X216590000Y-116109354D01*
X216766431Y-116091977D01*
X216936081Y-116040514D01*
X217092432Y-115956943D01*
X217160001Y-115901491D01*
X217160000Y-122450050D01*
X217066274Y-122543776D01*
X216989668Y-122658426D01*
X216936901Y-122785818D01*
X216910000Y-122921056D01*
X216910000Y-123058944D01*
X216936901Y-123194182D01*
X216989668Y-123321574D01*
X217066274Y-123436224D01*
X217163776Y-123533726D01*
X217278426Y-123610332D01*
X217405818Y-123663099D01*
X217541056Y-123690000D01*
X217678944Y-123690000D01*
X217814182Y-123663099D01*
X217941574Y-123610332D01*
X218056224Y-123533726D01*
X218153726Y-123436224D01*
X218230332Y-123321574D01*
X218283099Y-123194182D01*
X218310000Y-123058944D01*
X218310000Y-122921056D01*
X218283099Y-122785818D01*
X218230332Y-122658426D01*
X218153726Y-122543776D01*
X218060000Y-122450050D01*
X218060000Y-116012952D01*
X218074648Y-116024312D01*
X218295098Y-116108068D01*
X218440000Y-116054356D01*
X218440000Y-115080000D01*
X218740000Y-115080000D01*
X218740000Y-116054356D01*
X218884902Y-116108068D01*
X219105352Y-116024312D01*
X219255289Y-115908029D01*
X219379660Y-115764729D01*
X219473685Y-115599919D01*
X219533750Y-115419932D01*
X219557547Y-115231686D01*
X219462310Y-115080000D01*
X218740000Y-115080000D01*
X218440000Y-115080000D01*
X218420000Y-115080000D01*
X218420000Y-114780000D01*
X218440000Y-114780000D01*
X218440000Y-113805644D01*
X218740000Y-113805644D01*
X218740000Y-114780000D01*
X219462310Y-114780000D01*
X219557547Y-114628314D01*
X219533750Y-114440068D01*
X219473685Y-114260081D01*
X219379660Y-114095271D01*
X219255289Y-113951971D01*
X219105352Y-113835688D01*
X218884902Y-113751932D01*
X218740000Y-113805644D01*
X218440000Y-113805644D01*
X218295098Y-113751932D01*
X218074648Y-113835688D01*
X217924711Y-113951971D01*
X217864987Y-114020785D01*
X216130000Y-112285799D01*
X216130000Y-109249950D01*
X216223726Y-109156224D01*
X216300332Y-109041574D01*
X216353099Y-108914182D01*
X216380000Y-108778944D01*
X216380000Y-108641056D01*
X216353099Y-108505818D01*
X216300332Y-108378426D01*
X216242375Y-108291686D01*
X219272453Y-108291686D01*
X219296250Y-108479932D01*
X219356315Y-108659919D01*
X219450340Y-108824729D01*
X219574711Y-108968029D01*
X219724648Y-109084312D01*
X219945098Y-109168068D01*
X220090000Y-109114356D01*
X220090000Y-108140000D01*
X219367690Y-108140000D01*
X219272453Y-108291686D01*
X216242375Y-108291686D01*
X216223726Y-108263776D01*
X216126224Y-108166274D01*
X216011574Y-108089668D01*
X215884182Y-108036901D01*
X215748944Y-108010000D01*
X215611056Y-108010000D01*
X215475818Y-108036901D01*
X215348426Y-108089668D01*
X215296039Y-108124672D01*
X215732397Y-107688314D01*
X219272453Y-107688314D01*
X219367690Y-107840000D01*
X220090000Y-107840000D01*
X220090000Y-106865644D01*
X220390000Y-106865644D01*
X220390000Y-107840000D01*
X220410000Y-107840000D01*
X220410000Y-108140000D01*
X220390000Y-108140000D01*
X220390000Y-109114356D01*
X220534902Y-109168068D01*
X220755352Y-109084312D01*
X220780001Y-109065196D01*
X220780000Y-122210050D01*
X220686274Y-122303776D01*
X220609668Y-122418426D01*
X220556901Y-122545818D01*
X220530000Y-122681056D01*
X220530000Y-122818944D01*
X220556901Y-122954182D01*
X220609668Y-123081574D01*
X220686274Y-123196224D01*
X220783776Y-123293726D01*
X220898426Y-123370332D01*
X221025818Y-123423099D01*
X221161056Y-123450000D01*
X221298944Y-123450000D01*
X221434182Y-123423099D01*
X221561574Y-123370332D01*
X221676224Y-123293726D01*
X221773726Y-123196224D01*
X221850332Y-123081574D01*
X221903099Y-122954182D01*
X221930000Y-122818944D01*
X221930000Y-122681056D01*
X221903099Y-122545818D01*
X221850332Y-122418426D01*
X221773726Y-122303776D01*
X221680000Y-122210050D01*
X221680000Y-109124787D01*
X221782416Y-109155855D01*
X221790000Y-109156602D01*
X221790001Y-119607896D01*
X221787824Y-119630000D01*
X221790001Y-119652105D01*
X221791927Y-119671659D01*
X221796512Y-119718215D01*
X221822243Y-119803040D01*
X221864029Y-119881216D01*
X221906172Y-119932567D01*
X221906177Y-119932572D01*
X221920264Y-119949737D01*
X221937429Y-119963824D01*
X226736176Y-124762572D01*
X226750263Y-124779737D01*
X226767428Y-124793824D01*
X226767432Y-124793828D01*
X226818783Y-124835971D01*
X226837492Y-124845971D01*
X226896959Y-124877757D01*
X226981785Y-124903489D01*
X227047895Y-124910000D01*
X227047906Y-124910000D01*
X227070000Y-124912176D01*
X227092094Y-124910000D01*
X227792115Y-124910000D01*
X227796274Y-124916224D01*
X227893776Y-125013726D01*
X228008426Y-125090332D01*
X228135818Y-125143099D01*
X228271056Y-125170000D01*
X228408944Y-125170000D01*
X228544182Y-125143099D01*
X228671574Y-125090332D01*
X228786224Y-125013726D01*
X228883726Y-124916224D01*
X228960332Y-124801574D01*
X229013099Y-124674182D01*
X229040000Y-124538944D01*
X229040000Y-124401056D01*
X229013099Y-124265818D01*
X228960332Y-124138426D01*
X228883726Y-124023776D01*
X228786224Y-123926274D01*
X228671574Y-123849668D01*
X228544182Y-123796901D01*
X228408944Y-123770000D01*
X228271056Y-123770000D01*
X228135818Y-123796901D01*
X228008426Y-123849668D01*
X227893776Y-123926274D01*
X227810050Y-124010000D01*
X227256396Y-124010000D01*
X227026224Y-123779828D01*
X227121575Y-123740333D01*
X227236225Y-123663727D01*
X227333727Y-123566225D01*
X227410333Y-123451575D01*
X227463100Y-123324183D01*
X227490001Y-123188945D01*
X227490001Y-123051057D01*
X227463100Y-122915819D01*
X227410333Y-122788427D01*
X227333727Y-122673777D01*
X227240001Y-122580051D01*
X227240001Y-115989686D01*
X227284648Y-116024312D01*
X227505098Y-116108068D01*
X227650000Y-116054356D01*
X227650000Y-115080000D01*
X227950000Y-115080000D01*
X227950000Y-116054356D01*
X228094902Y-116108068D01*
X228315352Y-116024312D01*
X228465289Y-115908029D01*
X228589660Y-115764729D01*
X228683685Y-115599919D01*
X228743750Y-115419932D01*
X228767547Y-115231686D01*
X228672310Y-115080000D01*
X227950000Y-115080000D01*
X227650000Y-115080000D01*
X227630000Y-115080000D01*
X227630000Y-114780000D01*
X227650000Y-114780000D01*
X227650000Y-113805644D01*
X227950000Y-113805644D01*
X227950000Y-114780000D01*
X228672310Y-114780000D01*
X228767547Y-114628314D01*
X228743750Y-114440068D01*
X228683685Y-114260081D01*
X228589660Y-114095271D01*
X228465289Y-113951971D01*
X228315352Y-113835688D01*
X228094902Y-113751932D01*
X227950000Y-113805644D01*
X227650000Y-113805644D01*
X227505098Y-113751932D01*
X227284648Y-113835688D01*
X227240001Y-113870314D01*
X227240001Y-100212095D01*
X227242177Y-100190001D01*
X227240001Y-100167907D01*
X227240001Y-100167896D01*
X227233490Y-100101786D01*
X227207758Y-100016960D01*
X227205033Y-100011862D01*
X227165972Y-99938784D01*
X227123829Y-99887433D01*
X227123825Y-99887429D01*
X227109738Y-99870264D01*
X227092573Y-99856177D01*
X225744507Y-98508112D01*
X225811574Y-98480332D01*
X225926224Y-98403726D01*
X226023726Y-98306224D01*
X226100332Y-98191574D01*
X226153099Y-98064182D01*
X226180000Y-97928944D01*
X226180000Y-97791056D01*
X226153099Y-97655818D01*
X226100332Y-97528426D01*
X226023726Y-97413776D01*
X225926224Y-97316274D01*
X225811574Y-97239668D01*
X225684182Y-97186901D01*
X225548944Y-97160000D01*
X225411056Y-97160000D01*
X225275818Y-97186901D01*
X225148426Y-97239668D01*
X225033776Y-97316274D01*
X224936274Y-97413776D01*
X224859668Y-97528426D01*
X224806901Y-97655818D01*
X224780000Y-97791056D01*
X224780000Y-97928944D01*
X224781070Y-97934321D01*
X224770417Y-97954251D01*
X224742243Y-98006960D01*
X224716511Y-98091786D01*
X224710000Y-98157896D01*
X224710000Y-98157906D01*
X224707824Y-98180000D01*
X224710000Y-98202094D01*
X224710000Y-98537906D01*
X224707824Y-98560000D01*
X224710000Y-98582094D01*
X224710000Y-98582105D01*
X224716511Y-98648215D01*
X224720920Y-98662748D01*
X224742243Y-98733040D01*
X224778302Y-98800502D01*
X224695808Y-98816911D01*
X224568416Y-98869678D01*
X224453766Y-98946284D01*
X224356264Y-99043786D01*
X224279658Y-99158436D01*
X224226891Y-99285828D01*
X224199990Y-99421066D01*
X224199990Y-99558954D01*
X224226891Y-99694192D01*
X224279658Y-99821584D01*
X224356264Y-99936234D01*
X224449990Y-100029960D01*
X224449990Y-100097916D01*
X224447814Y-100120010D01*
X224449990Y-100142104D01*
X224449990Y-100142114D01*
X224449991Y-100142124D01*
X224449990Y-113843075D01*
X224361032Y-113795526D01*
X224257584Y-113764145D01*
X224150001Y-113753549D01*
X223449999Y-113753549D01*
X223342416Y-113764145D01*
X223238968Y-113795526D01*
X223143630Y-113846485D01*
X223060065Y-113915065D01*
X222991485Y-113998630D01*
X222940526Y-114093968D01*
X222909145Y-114197416D01*
X222898549Y-114304999D01*
X222898549Y-115555001D01*
X222909145Y-115662584D01*
X222940526Y-115766032D01*
X222991485Y-115861370D01*
X223060065Y-115944935D01*
X223143630Y-116013515D01*
X223238968Y-116064474D01*
X223342416Y-116095855D01*
X223449999Y-116106451D01*
X224150001Y-116106451D01*
X224257584Y-116095855D01*
X224361032Y-116064474D01*
X224449990Y-116016925D01*
X224449990Y-120057896D01*
X224447814Y-120079990D01*
X224449990Y-120102084D01*
X224449990Y-120102094D01*
X224456501Y-120168204D01*
X224475924Y-120232233D01*
X224482233Y-120253030D01*
X224524019Y-120331206D01*
X224557096Y-120371510D01*
X224580253Y-120399727D01*
X224597424Y-120413819D01*
X225300000Y-121116396D01*
X225300000Y-121248944D01*
X225326901Y-121384182D01*
X225379668Y-121511574D01*
X225456274Y-121626224D01*
X225553776Y-121723726D01*
X225668426Y-121800332D01*
X225795818Y-121853099D01*
X225931056Y-121880000D01*
X226068944Y-121880000D01*
X226204182Y-121853099D01*
X226331574Y-121800332D01*
X226340001Y-121794701D01*
X226340001Y-122580051D01*
X226246275Y-122673777D01*
X226169669Y-122788427D01*
X226130174Y-122883778D01*
X222690000Y-119443605D01*
X222690000Y-109156602D01*
X222697584Y-109155855D01*
X222801032Y-109124474D01*
X222896370Y-109073515D01*
X222979935Y-109004935D01*
X223048515Y-108921370D01*
X223099474Y-108826032D01*
X223130855Y-108722584D01*
X223141451Y-108615001D01*
X223141451Y-107364999D01*
X223130855Y-107257416D01*
X223099474Y-107153968D01*
X223048515Y-107058630D01*
X222979935Y-106975065D01*
X222896370Y-106906485D01*
X222801032Y-106855526D01*
X222697584Y-106824145D01*
X222590001Y-106813549D01*
X221889999Y-106813549D01*
X221782416Y-106824145D01*
X221680000Y-106855213D01*
X221680000Y-106108096D01*
X221682176Y-106086002D01*
X221680000Y-106063908D01*
X221680000Y-106063897D01*
X221673489Y-105997787D01*
X221659999Y-105953317D01*
X221659999Y-104578274D01*
X221759554Y-104558471D01*
X221886946Y-104505704D01*
X222001596Y-104429098D01*
X222099098Y-104331596D01*
X222175704Y-104216946D01*
X222228471Y-104089554D01*
X222255372Y-103954316D01*
X222255372Y-103816428D01*
X222228471Y-103681190D01*
X222175704Y-103553798D01*
X222099098Y-103439148D01*
X222001596Y-103341646D01*
X221886946Y-103265040D01*
X221759554Y-103212273D01*
X221624316Y-103185372D01*
X221486428Y-103185372D01*
X221351190Y-103212273D01*
X221223798Y-103265040D01*
X221109148Y-103341646D01*
X221011646Y-103439148D01*
X220935040Y-103553798D01*
X220882273Y-103681190D01*
X220855372Y-103816428D01*
X220855372Y-103953521D01*
X220834028Y-103979529D01*
X220792242Y-104057705D01*
X220772905Y-104121451D01*
X220766511Y-104142530D01*
X220764591Y-104162030D01*
X220757823Y-104230745D01*
X220760000Y-104252849D01*
X220759999Y-106043906D01*
X220757823Y-106066001D01*
X220759999Y-106088095D01*
X220759999Y-106088105D01*
X220766510Y-106154215D01*
X220780001Y-106198688D01*
X220780001Y-106914804D01*
X220755352Y-106895688D01*
X220534902Y-106811932D01*
X220390000Y-106865644D01*
X220090000Y-106865644D01*
X219945098Y-106811932D01*
X219724648Y-106895688D01*
X219574711Y-107011971D01*
X219450340Y-107155271D01*
X219356315Y-107320081D01*
X219296250Y-107500068D01*
X219272453Y-107688314D01*
X215732397Y-107688314D01*
X221846396Y-101574315D01*
X221978944Y-101574315D01*
X222114182Y-101547414D01*
X222241574Y-101494647D01*
X222356224Y-101418041D01*
X222453726Y-101320539D01*
X222530332Y-101205889D01*
X222583099Y-101078497D01*
X222610000Y-100943259D01*
X222610000Y-100805371D01*
X222583099Y-100670133D01*
X222530332Y-100542741D01*
X222453726Y-100428091D01*
X222356224Y-100330589D01*
X222241574Y-100253983D01*
X222114182Y-100201216D01*
X221978944Y-100174315D01*
X221841056Y-100174315D01*
X221705818Y-100201216D01*
X221578426Y-100253983D01*
X221463776Y-100330589D01*
X221366274Y-100428091D01*
X221289668Y-100542741D01*
X221236901Y-100670133D01*
X221210000Y-100805371D01*
X221210000Y-100937919D01*
X210077429Y-112070491D01*
X210060264Y-112084578D01*
X210046177Y-112101743D01*
X210046172Y-112101748D01*
X210004029Y-112153099D01*
X209962243Y-112231275D01*
X209936512Y-112316100D01*
X209927824Y-112404315D01*
X208852050Y-112404315D01*
X209185016Y-112210913D01*
X209202066Y-112199326D01*
X209219462Y-112188286D01*
X209228827Y-112181139D01*
X210116260Y-111481543D01*
X210131506Y-111467670D01*
X210147174Y-111454288D01*
X210155439Y-111445893D01*
X210935445Y-110628236D01*
X210948580Y-110612358D01*
X210962210Y-110596898D01*
X210969209Y-110587422D01*
X211626224Y-109668019D01*
X211636993Y-109650446D01*
X211648307Y-109633222D01*
X211653896Y-109622862D01*
X211653901Y-109622855D01*
X211653904Y-109622849D01*
X212174817Y-108620049D01*
X212183003Y-108601131D01*
X212191777Y-108582487D01*
X212195854Y-108571435D01*
X212570276Y-107505236D01*
X212575714Y-107485357D01*
X212581774Y-107465660D01*
X212584249Y-107454160D01*
X212584254Y-107454143D01*
X212584256Y-107454129D01*
X212804712Y-106345826D01*
X212807295Y-106325379D01*
X212810519Y-106305023D01*
X212811351Y-106293272D01*
X212873446Y-105164947D01*
X212873122Y-105144341D01*
X212873446Y-105123735D01*
X212872614Y-105111984D01*
X212775108Y-103986167D01*
X212771884Y-103965808D01*
X212769301Y-103945365D01*
X212766822Y-103933848D01*
X212511659Y-102833001D01*
X212505597Y-102813296D01*
X212500161Y-102793425D01*
X212496089Y-102782389D01*
X212496084Y-102782373D01*
X212496078Y-102782361D01*
X212088356Y-101728462D01*
X212079577Y-101709806D01*
X212071396Y-101690901D01*
X212065802Y-101680533D01*
X211513645Y-100694584D01*
X211502331Y-100677360D01*
X211491562Y-100659787D01*
X211484563Y-100650311D01*
X210798993Y-99751999D01*
X210785364Y-99736540D01*
X210772228Y-99720661D01*
X210763964Y-99712266D01*
X210646604Y-99596735D01*
X213750000Y-99596735D01*
X213750000Y-99823265D01*
X213794194Y-100045443D01*
X213880884Y-100254729D01*
X214006737Y-100443082D01*
X214166918Y-100603263D01*
X214355271Y-100729116D01*
X214564557Y-100815806D01*
X214786735Y-100860000D01*
X215013265Y-100860000D01*
X215235443Y-100815806D01*
X215444729Y-100729116D01*
X215633082Y-100603263D01*
X215793263Y-100443082D01*
X215919116Y-100254729D01*
X216005806Y-100045443D01*
X216050000Y-99823265D01*
X216050000Y-99596735D01*
X216005806Y-99374557D01*
X215919116Y-99165271D01*
X215793263Y-98976918D01*
X215633082Y-98816737D01*
X215444729Y-98690884D01*
X215235443Y-98604194D01*
X215013265Y-98560000D01*
X214786735Y-98560000D01*
X214564557Y-98604194D01*
X214355271Y-98690884D01*
X214166918Y-98816737D01*
X214006737Y-98976918D01*
X213880884Y-99165271D01*
X213794194Y-99374557D01*
X213750000Y-99596735D01*
X210646604Y-99596735D01*
X209958658Y-98919512D01*
X209942986Y-98906127D01*
X209927744Y-98892258D01*
X209918379Y-98885111D01*
X209009409Y-98213736D01*
X208992010Y-98202694D01*
X208974963Y-98191109D01*
X208964685Y-98185353D01*
X207970186Y-97648750D01*
X207951397Y-97640266D01*
X207932896Y-97631203D01*
X207921909Y-97626952D01*
X206861723Y-97235829D01*
X206841925Y-97230077D01*
X206822332Y-97223711D01*
X206810856Y-97221051D01*
X205706137Y-96983211D01*
X205685728Y-96980306D01*
X205665432Y-96976764D01*
X205653695Y-96975747D01*
X204875000Y-96920612D01*
X204875000Y-79744403D01*
X205987528Y-79744403D01*
X206074911Y-79962814D01*
X206203225Y-80159980D01*
X206367539Y-80328325D01*
X206561538Y-80461379D01*
X206777767Y-80554029D01*
X206805598Y-80562465D01*
X206990000Y-80512341D01*
X206990000Y-79560000D01*
X207290000Y-79560000D01*
X207290000Y-80512341D01*
X207474402Y-80562465D01*
X207502233Y-80554029D01*
X207718462Y-80461379D01*
X207912461Y-80328325D01*
X208076775Y-80159980D01*
X208205089Y-79962814D01*
X208292472Y-79744403D01*
X208243095Y-79560000D01*
X207290000Y-79560000D01*
X206990000Y-79560000D01*
X206036905Y-79560000D01*
X205987528Y-79744403D01*
X204875000Y-79744403D01*
X204875000Y-79296735D01*
X208530000Y-79296735D01*
X208530000Y-79523265D01*
X208574194Y-79745443D01*
X208660884Y-79954729D01*
X208786737Y-80143082D01*
X208946918Y-80303263D01*
X209135271Y-80429116D01*
X209344557Y-80515806D01*
X209566735Y-80560000D01*
X209793265Y-80560000D01*
X210015443Y-80515806D01*
X210224729Y-80429116D01*
X210413082Y-80303263D01*
X210573263Y-80143082D01*
X210699116Y-79954729D01*
X210785806Y-79745443D01*
X210830000Y-79523265D01*
X210830000Y-79296735D01*
X211070000Y-79296735D01*
X211070000Y-79523265D01*
X211114194Y-79745443D01*
X211200884Y-79954729D01*
X211326737Y-80143082D01*
X211486918Y-80303263D01*
X211675271Y-80429116D01*
X211884557Y-80515806D01*
X212106735Y-80560000D01*
X212333265Y-80560000D01*
X212549226Y-80517043D01*
X225770571Y-93738389D01*
X220223960Y-99285000D01*
X218591451Y-99285000D01*
X218591451Y-98860000D01*
X218585659Y-98801190D01*
X218568504Y-98744640D01*
X218540647Y-98692523D01*
X218503158Y-98646842D01*
X218457477Y-98609353D01*
X218405360Y-98581496D01*
X218348810Y-98564341D01*
X218290000Y-98558549D01*
X216590000Y-98558549D01*
X216531190Y-98564341D01*
X216474640Y-98581496D01*
X216422523Y-98609353D01*
X216376842Y-98646842D01*
X216339353Y-98692523D01*
X216311496Y-98744640D01*
X216294341Y-98801190D01*
X216288549Y-98860000D01*
X216288549Y-100560000D01*
X216294341Y-100618810D01*
X216311496Y-100675360D01*
X216339353Y-100727477D01*
X216376842Y-100773158D01*
X216422523Y-100810647D01*
X216474640Y-100838504D01*
X216531190Y-100855659D01*
X216590000Y-100861451D01*
X218290000Y-100861451D01*
X218348810Y-100855659D01*
X218405360Y-100838504D01*
X218457477Y-100810647D01*
X218503158Y-100773158D01*
X218540647Y-100727477D01*
X218568504Y-100675360D01*
X218585659Y-100618810D01*
X218591451Y-100560000D01*
X218591451Y-100135000D01*
X220379133Y-100135000D01*
X220400000Y-100137055D01*
X220420867Y-100135000D01*
X220420874Y-100135000D01*
X220483314Y-100128850D01*
X220563427Y-100104548D01*
X220637260Y-100065084D01*
X220701974Y-100011974D01*
X220715284Y-99995756D01*
X226511041Y-94200000D01*
X227813166Y-94200000D01*
X227918426Y-94270332D01*
X228045818Y-94323099D01*
X228181056Y-94350000D01*
X228318944Y-94350000D01*
X228454182Y-94323099D01*
X228581574Y-94270332D01*
X228696224Y-94193726D01*
X228793726Y-94096224D01*
X228870332Y-93981574D01*
X228923099Y-93854182D01*
X228950000Y-93718944D01*
X228950000Y-93581056D01*
X228923099Y-93445818D01*
X228870332Y-93318426D01*
X228793726Y-93203776D01*
X228696224Y-93106274D01*
X228581574Y-93029668D01*
X228454182Y-92976901D01*
X228318944Y-92950000D01*
X228181056Y-92950000D01*
X228045818Y-92976901D01*
X227918426Y-93029668D01*
X227813166Y-93100000D01*
X226687818Y-93100000D01*
X213327043Y-79739226D01*
X213370000Y-79523265D01*
X213370000Y-79296735D01*
X213610000Y-79296735D01*
X213610000Y-79523265D01*
X213654194Y-79745443D01*
X213740884Y-79954729D01*
X213866737Y-80143082D01*
X214026918Y-80303263D01*
X214215271Y-80429116D01*
X214424557Y-80515806D01*
X214646735Y-80560000D01*
X214873265Y-80560000D01*
X215095443Y-80515806D01*
X215304729Y-80429116D01*
X215493082Y-80303263D01*
X215653263Y-80143082D01*
X215779116Y-79954729D01*
X215865806Y-79745443D01*
X215910000Y-79523265D01*
X215910000Y-79296735D01*
X216150000Y-79296735D01*
X216150000Y-79523265D01*
X216194194Y-79745443D01*
X216280884Y-79954729D01*
X216406737Y-80143082D01*
X216566918Y-80303263D01*
X216755271Y-80429116D01*
X216964557Y-80515806D01*
X217186735Y-80560000D01*
X217413265Y-80560000D01*
X217635443Y-80515806D01*
X217844729Y-80429116D01*
X218033082Y-80303263D01*
X218193263Y-80143082D01*
X218319116Y-79954729D01*
X218405806Y-79745443D01*
X218450000Y-79523265D01*
X218450000Y-79296735D01*
X218690000Y-79296735D01*
X218690000Y-79523265D01*
X218734194Y-79745443D01*
X218820884Y-79954729D01*
X218946737Y-80143082D01*
X219106918Y-80303263D01*
X219295271Y-80429116D01*
X219504557Y-80515806D01*
X219726735Y-80560000D01*
X219953265Y-80560000D01*
X220175443Y-80515806D01*
X220384729Y-80429116D01*
X220573082Y-80303263D01*
X220733263Y-80143082D01*
X220859116Y-79954729D01*
X220945806Y-79745443D01*
X220990000Y-79523265D01*
X220990000Y-79296735D01*
X221230000Y-79296735D01*
X221230000Y-79523265D01*
X221274194Y-79745443D01*
X221360884Y-79954729D01*
X221486737Y-80143082D01*
X221646918Y-80303263D01*
X221835271Y-80429116D01*
X222044557Y-80515806D01*
X222266735Y-80560000D01*
X222493265Y-80560000D01*
X222715443Y-80515806D01*
X222924729Y-80429116D01*
X223113082Y-80303263D01*
X223273263Y-80143082D01*
X223399116Y-79954729D01*
X223485806Y-79745443D01*
X223530000Y-79523265D01*
X223530000Y-79296735D01*
X223485806Y-79074557D01*
X223399116Y-78865271D01*
X223273263Y-78676918D01*
X223156345Y-78560000D01*
X223768549Y-78560000D01*
X223768549Y-80260000D01*
X223774341Y-80318810D01*
X223791496Y-80375360D01*
X223819353Y-80427477D01*
X223856842Y-80473158D01*
X223902523Y-80510647D01*
X223954640Y-80538504D01*
X224011190Y-80555659D01*
X224070000Y-80561451D01*
X225770000Y-80561451D01*
X225828810Y-80555659D01*
X225885360Y-80538504D01*
X225937477Y-80510647D01*
X225983158Y-80473158D01*
X226020647Y-80427477D01*
X226048504Y-80375360D01*
X226065659Y-80318810D01*
X226071451Y-80260000D01*
X226071451Y-78560000D01*
X226065659Y-78501190D01*
X226048504Y-78444640D01*
X226020647Y-78392523D01*
X225983158Y-78346842D01*
X225937477Y-78309353D01*
X225885360Y-78281496D01*
X225828810Y-78264341D01*
X225770000Y-78258549D01*
X224070000Y-78258549D01*
X224011190Y-78264341D01*
X223954640Y-78281496D01*
X223902523Y-78309353D01*
X223856842Y-78346842D01*
X223819353Y-78392523D01*
X223791496Y-78444640D01*
X223774341Y-78501190D01*
X223768549Y-78560000D01*
X223156345Y-78560000D01*
X223113082Y-78516737D01*
X222924729Y-78390884D01*
X222715443Y-78304194D01*
X222493265Y-78260000D01*
X222266735Y-78260000D01*
X222044557Y-78304194D01*
X221835271Y-78390884D01*
X221646918Y-78516737D01*
X221486737Y-78676918D01*
X221360884Y-78865271D01*
X221274194Y-79074557D01*
X221230000Y-79296735D01*
X220990000Y-79296735D01*
X220945806Y-79074557D01*
X220859116Y-78865271D01*
X220733263Y-78676918D01*
X220573082Y-78516737D01*
X220384729Y-78390884D01*
X220175443Y-78304194D01*
X219953265Y-78260000D01*
X219726735Y-78260000D01*
X219504557Y-78304194D01*
X219295271Y-78390884D01*
X219106918Y-78516737D01*
X218946737Y-78676918D01*
X218820884Y-78865271D01*
X218734194Y-79074557D01*
X218690000Y-79296735D01*
X218450000Y-79296735D01*
X218405806Y-79074557D01*
X218319116Y-78865271D01*
X218193263Y-78676918D01*
X218033082Y-78516737D01*
X217844729Y-78390884D01*
X217635443Y-78304194D01*
X217413265Y-78260000D01*
X217186735Y-78260000D01*
X216964557Y-78304194D01*
X216755271Y-78390884D01*
X216566918Y-78516737D01*
X216406737Y-78676918D01*
X216280884Y-78865271D01*
X216194194Y-79074557D01*
X216150000Y-79296735D01*
X215910000Y-79296735D01*
X215865806Y-79074557D01*
X215779116Y-78865271D01*
X215653263Y-78676918D01*
X215493082Y-78516737D01*
X215304729Y-78390884D01*
X215095443Y-78304194D01*
X214873265Y-78260000D01*
X214646735Y-78260000D01*
X214424557Y-78304194D01*
X214215271Y-78390884D01*
X214026918Y-78516737D01*
X213866737Y-78676918D01*
X213740884Y-78865271D01*
X213654194Y-79074557D01*
X213610000Y-79296735D01*
X213370000Y-79296735D01*
X213325806Y-79074557D01*
X213239116Y-78865271D01*
X213113263Y-78676918D01*
X212953082Y-78516737D01*
X212764729Y-78390884D01*
X212555443Y-78304194D01*
X212333265Y-78260000D01*
X212106735Y-78260000D01*
X211884557Y-78304194D01*
X211675271Y-78390884D01*
X211486918Y-78516737D01*
X211326737Y-78676918D01*
X211200884Y-78865271D01*
X211114194Y-79074557D01*
X211070000Y-79296735D01*
X210830000Y-79296735D01*
X210785806Y-79074557D01*
X210699116Y-78865271D01*
X210573263Y-78676918D01*
X210413082Y-78516737D01*
X210224729Y-78390884D01*
X210015443Y-78304194D01*
X209793265Y-78260000D01*
X209566735Y-78260000D01*
X209344557Y-78304194D01*
X209135271Y-78390884D01*
X208946918Y-78516737D01*
X208786737Y-78676918D01*
X208660884Y-78865271D01*
X208574194Y-79074557D01*
X208530000Y-79296735D01*
X204875000Y-79296735D01*
X204875000Y-79075597D01*
X205987528Y-79075597D01*
X206036905Y-79260000D01*
X206990000Y-79260000D01*
X206990000Y-78307659D01*
X207290000Y-78307659D01*
X207290000Y-79260000D01*
X208243095Y-79260000D01*
X208292472Y-79075597D01*
X208205089Y-78857186D01*
X208076775Y-78660020D01*
X207912461Y-78491675D01*
X207718462Y-78358621D01*
X207502233Y-78265971D01*
X207474402Y-78257535D01*
X207290000Y-78307659D01*
X206990000Y-78307659D01*
X206805598Y-78257535D01*
X206777767Y-78265971D01*
X206561538Y-78358621D01*
X206367539Y-78491675D01*
X206203225Y-78660020D01*
X206074911Y-78857186D01*
X205987528Y-79075597D01*
X204875000Y-79075597D01*
X204875000Y-76675000D01*
X255783838Y-76675000D01*
X255748426Y-76689668D01*
G37*
X255748426Y-76689668D02*
X255633776Y-76766274D01*
X255536274Y-76863776D01*
X255459668Y-76978426D01*
X255406901Y-77105818D01*
X255380000Y-77241056D01*
X255380000Y-77378944D01*
X255406901Y-77514182D01*
X255459668Y-77641574D01*
X255536274Y-77756224D01*
X255633776Y-77853726D01*
X255748426Y-77930332D01*
X255875818Y-77983099D01*
X256011056Y-78010000D01*
X256072895Y-78010000D01*
X256480001Y-78417107D01*
X256480001Y-79095299D01*
X256471574Y-79089668D01*
X256344182Y-79036901D01*
X256208944Y-79010000D01*
X256071056Y-79010000D01*
X255935818Y-79036901D01*
X255808426Y-79089668D01*
X255807912Y-79090012D01*
X255803099Y-79065818D01*
X255750332Y-78938426D01*
X255673726Y-78823776D01*
X255576224Y-78726274D01*
X255461574Y-78649668D01*
X255334182Y-78596901D01*
X255198944Y-78570000D01*
X255137106Y-78570000D01*
X254250929Y-77683824D01*
X254235264Y-77664736D01*
X254159129Y-77602254D01*
X254072267Y-77555825D01*
X253978017Y-77527235D01*
X253904560Y-77520000D01*
X253880000Y-77517581D01*
X253855440Y-77520000D01*
X249049950Y-77520000D01*
X249006224Y-77476274D01*
X248891574Y-77399668D01*
X248764182Y-77346901D01*
X248628944Y-77320000D01*
X248491056Y-77320000D01*
X248355818Y-77346901D01*
X248228426Y-77399668D01*
X248113776Y-77476274D01*
X248016274Y-77573776D01*
X247939668Y-77688426D01*
X247886901Y-77815818D01*
X247860000Y-77951056D01*
X247860000Y-78088944D01*
X247886901Y-78224182D01*
X247939668Y-78351574D01*
X248016274Y-78466224D01*
X248113776Y-78563726D01*
X248228426Y-78640332D01*
X248355818Y-78693099D01*
X248491056Y-78720000D01*
X248628944Y-78720000D01*
X248764182Y-78693099D01*
X248891574Y-78640332D01*
X249006224Y-78563726D01*
X249049950Y-78520000D01*
X253672895Y-78520000D01*
X254430000Y-79277106D01*
X254430000Y-79338944D01*
X254456901Y-79474182D01*
X254509668Y-79601574D01*
X254586274Y-79716224D01*
X254683776Y-79813726D01*
X254798426Y-79890332D01*
X254925818Y-79943099D01*
X255061056Y-79970000D01*
X255198944Y-79970000D01*
X255298828Y-79950131D01*
X255212758Y-80036202D01*
X255196541Y-80049511D01*
X255143431Y-80114226D01*
X255107489Y-80181470D01*
X250903822Y-84385137D01*
X250880332Y-84328426D01*
X250803726Y-84213776D01*
X250743589Y-84153639D01*
X250751574Y-84150332D01*
X250866224Y-84073726D01*
X250963726Y-83976224D01*
X251040332Y-83861574D01*
X251093099Y-83734182D01*
X251120000Y-83598944D01*
X251120000Y-83461056D01*
X251093099Y-83325818D01*
X251040332Y-83198426D01*
X250963726Y-83083776D01*
X250866224Y-82986274D01*
X250751574Y-82909668D01*
X250624182Y-82856901D01*
X250488944Y-82830000D01*
X250351056Y-82830000D01*
X250215818Y-82856901D01*
X250088426Y-82909668D01*
X249973776Y-82986274D01*
X249876274Y-83083776D01*
X249799668Y-83198426D01*
X249746901Y-83325818D01*
X249720000Y-83461056D01*
X249720000Y-83598944D01*
X249724980Y-83623979D01*
X247283969Y-86064991D01*
X240517907Y-86064991D01*
X240503726Y-86043767D01*
X240406224Y-85946265D01*
X240291574Y-85869659D01*
X240164182Y-85816892D01*
X240028944Y-85789991D01*
X239891056Y-85789991D01*
X239755818Y-85816892D01*
X239628426Y-85869659D01*
X239513776Y-85946265D01*
X239416274Y-86043767D01*
X239339668Y-86158417D01*
X239286901Y-86285809D01*
X239260000Y-86421047D01*
X239260000Y-86558935D01*
X239286901Y-86694173D01*
X239305883Y-86740001D01*
X237869951Y-86740001D01*
X237836224Y-86706274D01*
X237721574Y-86629668D01*
X237594182Y-86576901D01*
X237458944Y-86550000D01*
X237321056Y-86550000D01*
X237185818Y-86576901D01*
X237058426Y-86629668D01*
X236943776Y-86706274D01*
X236846274Y-86803776D01*
X236769668Y-86918426D01*
X236716901Y-87045818D01*
X236690000Y-87181056D01*
X236690000Y-87318944D01*
X236716901Y-87454182D01*
X236765429Y-87571341D01*
X235767907Y-87571341D01*
X235753726Y-87550117D01*
X235656224Y-87452615D01*
X235541574Y-87376009D01*
X235414182Y-87323242D01*
X235278944Y-87296341D01*
X235141056Y-87296341D01*
X235005818Y-87323242D01*
X234878426Y-87376009D01*
X234763776Y-87452615D01*
X234666274Y-87550117D01*
X234589668Y-87664767D01*
X234536901Y-87792159D01*
X234510000Y-87927397D01*
X234510000Y-88065285D01*
X234536901Y-88200523D01*
X234588260Y-88324516D01*
X234027907Y-88324516D01*
X234013726Y-88303292D01*
X233916224Y-88205790D01*
X233801574Y-88129184D01*
X233674182Y-88076417D01*
X233538944Y-88049516D01*
X233401056Y-88049516D01*
X233265818Y-88076417D01*
X233138426Y-88129184D01*
X233023776Y-88205790D01*
X232926274Y-88303292D01*
X232849668Y-88417942D01*
X232796901Y-88545334D01*
X232770000Y-88680572D01*
X232770000Y-88818460D01*
X232796901Y-88953698D01*
X232848261Y-89077694D01*
X232213026Y-89077694D01*
X232203726Y-89063776D01*
X232106224Y-88966274D01*
X231991574Y-88889668D01*
X231864182Y-88836901D01*
X231728944Y-88810000D01*
X231591056Y-88810000D01*
X231455818Y-88836901D01*
X231350000Y-88880732D01*
X231350000Y-85809238D01*
X237085807Y-80073431D01*
X237141574Y-80050332D01*
X237256224Y-79973726D01*
X237353726Y-79876224D01*
X237430332Y-79761574D01*
X237483099Y-79634182D01*
X237510000Y-79498944D01*
X237510000Y-79361056D01*
X237483099Y-79225818D01*
X237430332Y-79098426D01*
X237353726Y-78983776D01*
X237256224Y-78886274D01*
X237141574Y-78809668D01*
X237014182Y-78756901D01*
X236878944Y-78730000D01*
X236741056Y-78730000D01*
X236605818Y-78756901D01*
X236478426Y-78809668D01*
X236363776Y-78886274D01*
X236266274Y-78983776D01*
X236189668Y-79098426D01*
X236166569Y-79154193D01*
X230262958Y-85057804D01*
X230238158Y-85078157D01*
X230217805Y-85102957D01*
X230217802Y-85102960D01*
X230156930Y-85177132D01*
X230096573Y-85290053D01*
X230059406Y-85412578D01*
X230046856Y-85540000D01*
X230050001Y-85571932D01*
X230050001Y-99913605D01*
X229760000Y-99623604D01*
X229760000Y-99491056D01*
X229733099Y-99355818D01*
X229680332Y-99228426D01*
X229603726Y-99113776D01*
X229506224Y-99016274D01*
X229391574Y-98939668D01*
X229264182Y-98886901D01*
X229128944Y-98860000D01*
X228991056Y-98860000D01*
X228855818Y-98886901D01*
X228728426Y-98939668D01*
X228613776Y-99016274D01*
X228516274Y-99113776D01*
X228439668Y-99228426D01*
X228386901Y-99355818D01*
X228360000Y-99491056D01*
X228360000Y-99628944D01*
X228386901Y-99764182D01*
X228439668Y-99891574D01*
X228516274Y-100006224D01*
X228613776Y-100103726D01*
X228728426Y-100180332D01*
X228855818Y-100233099D01*
X228991056Y-100260000D01*
X229123604Y-100260000D01*
X229300000Y-100436396D01*
X229300000Y-100582104D01*
X229300001Y-100582114D01*
X229300000Y-107800050D01*
X229206274Y-107893776D01*
X229129668Y-108008426D01*
X229076901Y-108135818D01*
X229050000Y-108271056D01*
X229050000Y-108408944D01*
X229076901Y-108544182D01*
X229129668Y-108671574D01*
X229206274Y-108786224D01*
X229303776Y-108883726D01*
X229418426Y-108960332D01*
X229545818Y-109013099D01*
X229681056Y-109040000D01*
X229818944Y-109040000D01*
X229954182Y-109013099D01*
X230050000Y-108973410D01*
X230050000Y-124248079D01*
X230046856Y-124280000D01*
X230050000Y-124311921D01*
X230050000Y-124311932D01*
X230059405Y-124407422D01*
X230096573Y-124529948D01*
X230096629Y-124530052D01*
X230156930Y-124642868D01*
X230217802Y-124717040D01*
X230217805Y-124717043D01*
X230238158Y-124741843D01*
X230262958Y-124762196D01*
X230556569Y-125055807D01*
X230579668Y-125111574D01*
X230656274Y-125226224D01*
X230753776Y-125323726D01*
X230868426Y-125400332D01*
X230995818Y-125453099D01*
X231131056Y-125480000D01*
X231268944Y-125480000D01*
X231404182Y-125453099D01*
X231531574Y-125400332D01*
X231646224Y-125323726D01*
X231685548Y-125284402D01*
X252497535Y-125284402D01*
X252505971Y-125312233D01*
X252598621Y-125528462D01*
X252731675Y-125722461D01*
X252900020Y-125886775D01*
X253097186Y-126015089D01*
X253315597Y-126102472D01*
X253500000Y-126053095D01*
X253500000Y-125100000D01*
X253800000Y-125100000D01*
X253800000Y-126053095D01*
X253984403Y-126102472D01*
X254202814Y-126015089D01*
X254399980Y-125886775D01*
X254568325Y-125722461D01*
X254701379Y-125528462D01*
X254794029Y-125312233D01*
X254802465Y-125284402D01*
X254752341Y-125100000D01*
X253800000Y-125100000D01*
X253500000Y-125100000D01*
X252547659Y-125100000D01*
X252497535Y-125284402D01*
X231685548Y-125284402D01*
X231743726Y-125226224D01*
X231820332Y-125111574D01*
X231873099Y-124984182D01*
X231900000Y-124848944D01*
X231900000Y-124711056D01*
X231881012Y-124615598D01*
X252497535Y-124615598D01*
X252547659Y-124800000D01*
X253500000Y-124800000D01*
X253500000Y-123846905D01*
X253800000Y-123846905D01*
X253800000Y-124800000D01*
X254752341Y-124800000D01*
X254802465Y-124615598D01*
X254794029Y-124587767D01*
X254701379Y-124371538D01*
X254568325Y-124177539D01*
X254399980Y-124013225D01*
X254202814Y-123884911D01*
X253984403Y-123797528D01*
X253800000Y-123846905D01*
X253500000Y-123846905D01*
X253315597Y-123797528D01*
X253097186Y-123884911D01*
X252900020Y-124013225D01*
X252731675Y-124177539D01*
X252598621Y-124371538D01*
X252505971Y-124587767D01*
X252497535Y-124615598D01*
X231881012Y-124615598D01*
X231873099Y-124575818D01*
X231820332Y-124448426D01*
X231743726Y-124333776D01*
X231646224Y-124236274D01*
X231531574Y-124159668D01*
X231475807Y-124136569D01*
X231350000Y-124010762D01*
X231350000Y-121156395D01*
X233100000Y-122906396D01*
X233100000Y-123038944D01*
X233126901Y-123174182D01*
X233179668Y-123301574D01*
X233256274Y-123416224D01*
X233353776Y-123513726D01*
X233468426Y-123590332D01*
X233595818Y-123643099D01*
X233731056Y-123670000D01*
X233868944Y-123670000D01*
X234004182Y-123643099D01*
X234131574Y-123590332D01*
X234246224Y-123513726D01*
X234343726Y-123416224D01*
X234420332Y-123301574D01*
X234473099Y-123174182D01*
X234500000Y-123038944D01*
X234500000Y-122901056D01*
X234473099Y-122765818D01*
X234420332Y-122638426D01*
X234343726Y-122523776D01*
X234246224Y-122426274D01*
X234131574Y-122349668D01*
X234004182Y-122296901D01*
X233868944Y-122270000D01*
X233736396Y-122270000D01*
X232059990Y-120593595D01*
X232059990Y-119082070D01*
X236710491Y-123732572D01*
X236724578Y-123749737D01*
X236741743Y-123763824D01*
X236741747Y-123763828D01*
X236793098Y-123805971D01*
X236815897Y-123818157D01*
X236871274Y-123847757D01*
X236956100Y-123873489D01*
X237022210Y-123880000D01*
X237022222Y-123880000D01*
X237044314Y-123882176D01*
X237066406Y-123880000D01*
X237070050Y-123880000D01*
X237163776Y-123973726D01*
X237278426Y-124050332D01*
X237405818Y-124103099D01*
X237541056Y-124130000D01*
X237678944Y-124130000D01*
X237814182Y-124103099D01*
X237941574Y-124050332D01*
X238056224Y-123973726D01*
X238153726Y-123876224D01*
X238230332Y-123761574D01*
X238283099Y-123634182D01*
X238310000Y-123498944D01*
X238310000Y-123361056D01*
X238283099Y-123225818D01*
X238230332Y-123098426D01*
X238153726Y-122983776D01*
X238056224Y-122886274D01*
X237941574Y-122809668D01*
X237814182Y-122756901D01*
X237678944Y-122730000D01*
X237541056Y-122730000D01*
X237405818Y-122756901D01*
X237278426Y-122809668D01*
X237163776Y-122886274D01*
X237150380Y-122899670D01*
X236592283Y-122341572D01*
X236729359Y-122328071D01*
X236949905Y-122261169D01*
X237153161Y-122152526D01*
X237331318Y-122006318D01*
X237477526Y-121828162D01*
X237586169Y-121624906D01*
X237653071Y-121404360D01*
X237664088Y-121292493D01*
X237818745Y-121292493D01*
X237865133Y-121528490D01*
X237956670Y-121750903D01*
X238089839Y-121951184D01*
X238259522Y-122121637D01*
X238459198Y-122255711D01*
X238702445Y-122347373D01*
X238890000Y-122297522D01*
X238890000Y-121100000D01*
X239190000Y-121100000D01*
X239190000Y-122297522D01*
X239377555Y-122347373D01*
X239620802Y-122255711D01*
X239820478Y-122121637D01*
X239990161Y-121951184D01*
X240123330Y-121750903D01*
X240214867Y-121528490D01*
X240261255Y-121292493D01*
X240177099Y-121100000D01*
X239190000Y-121100000D01*
X238890000Y-121100000D01*
X237902901Y-121100000D01*
X237818745Y-121292493D01*
X237664088Y-121292493D01*
X237670000Y-121232477D01*
X237670000Y-120667524D01*
X237664089Y-120607507D01*
X237818745Y-120607507D01*
X237902901Y-120800000D01*
X238890000Y-120800000D01*
X238890000Y-119602478D01*
X239190000Y-119602478D01*
X239190000Y-120800000D01*
X240177099Y-120800000D01*
X240261255Y-120607507D01*
X240214867Y-120371510D01*
X240123330Y-120149097D01*
X240094009Y-120104999D01*
X240408549Y-120104999D01*
X240408549Y-121795001D01*
X240419145Y-121902584D01*
X240450526Y-122006032D01*
X240501485Y-122101370D01*
X240570065Y-122184935D01*
X240653630Y-122253515D01*
X240748968Y-122304474D01*
X240852416Y-122335855D01*
X240959999Y-122346451D01*
X242200001Y-122346451D01*
X242307584Y-122335855D01*
X242411032Y-122304474D01*
X242506370Y-122253515D01*
X242589935Y-122184935D01*
X242658515Y-122101370D01*
X242709474Y-122006032D01*
X242740855Y-121902584D01*
X242751451Y-121795001D01*
X242751451Y-120104999D01*
X242740855Y-119997416D01*
X242709474Y-119893968D01*
X242658515Y-119798630D01*
X242589935Y-119715065D01*
X242537045Y-119671659D01*
X244330000Y-119671659D01*
X244330000Y-119888341D01*
X244372273Y-120100858D01*
X244455193Y-120301045D01*
X244575575Y-120481209D01*
X244728791Y-120634425D01*
X244908955Y-120754807D01*
X245109142Y-120837727D01*
X245321659Y-120880000D01*
X245538341Y-120880000D01*
X245750858Y-120837727D01*
X245951045Y-120754807D01*
X246131209Y-120634425D01*
X246284425Y-120481209D01*
X246404807Y-120301045D01*
X246487727Y-120100858D01*
X246530000Y-119888341D01*
X246530000Y-119671659D01*
X246487727Y-119459142D01*
X246404807Y-119258955D01*
X246284425Y-119078791D01*
X246131209Y-118925575D01*
X245951045Y-118805193D01*
X245750858Y-118722273D01*
X245538341Y-118680000D01*
X245321659Y-118680000D01*
X245109142Y-118722273D01*
X244908955Y-118805193D01*
X244728791Y-118925575D01*
X244575575Y-119078791D01*
X244455193Y-119258955D01*
X244372273Y-119459142D01*
X244330000Y-119671659D01*
X242537045Y-119671659D01*
X242506370Y-119646485D01*
X242411032Y-119595526D01*
X242307584Y-119564145D01*
X242200001Y-119553549D01*
X240959999Y-119553549D01*
X240852416Y-119564145D01*
X240748968Y-119595526D01*
X240653630Y-119646485D01*
X240570065Y-119715065D01*
X240501485Y-119798630D01*
X240450526Y-119893968D01*
X240419145Y-119997416D01*
X240408549Y-120104999D01*
X240094009Y-120104999D01*
X239990161Y-119948816D01*
X239820478Y-119778363D01*
X239620802Y-119644289D01*
X239377555Y-119552627D01*
X239190000Y-119602478D01*
X238890000Y-119602478D01*
X238702445Y-119552627D01*
X238459198Y-119644289D01*
X238259522Y-119778363D01*
X238089839Y-119948816D01*
X237956670Y-120149097D01*
X237865133Y-120371510D01*
X237818745Y-120607507D01*
X237664089Y-120607507D01*
X237653071Y-120495641D01*
X237586169Y-120275095D01*
X237477526Y-120071838D01*
X237331318Y-119893682D01*
X237153162Y-119747474D01*
X236949906Y-119638831D01*
X236729360Y-119571929D01*
X236500000Y-119549339D01*
X236270641Y-119571929D01*
X236050095Y-119638831D01*
X235846839Y-119747474D01*
X235668683Y-119893682D01*
X235522475Y-120071838D01*
X235413831Y-120275094D01*
X235346929Y-120495640D01*
X235330000Y-120667523D01*
X235330000Y-121079289D01*
X232760000Y-118509290D01*
X232760000Y-114656395D01*
X235856176Y-117752572D01*
X235870263Y-117769737D01*
X235887428Y-117783824D01*
X235887432Y-117783828D01*
X235938783Y-117825971D01*
X235966014Y-117840526D01*
X236016959Y-117867757D01*
X236101785Y-117893489D01*
X236167895Y-117900000D01*
X236167907Y-117900000D01*
X236189999Y-117902176D01*
X236212091Y-117900000D01*
X248503605Y-117900000D01*
X252583432Y-121979828D01*
X252544194Y-122074557D01*
X252500000Y-122296735D01*
X252500000Y-122523265D01*
X252544194Y-122745443D01*
X252630884Y-122954729D01*
X252756737Y-123143082D01*
X252916918Y-123303263D01*
X253105271Y-123429116D01*
X253314557Y-123515806D01*
X253536735Y-123560000D01*
X253763265Y-123560000D01*
X253985443Y-123515806D01*
X254194729Y-123429116D01*
X254383082Y-123303263D01*
X254410001Y-123276344D01*
X254410001Y-123597896D01*
X254407824Y-123620000D01*
X254410001Y-123642105D01*
X254412748Y-123670000D01*
X254416512Y-123708215D01*
X254442243Y-123793040D01*
X254484029Y-123871216D01*
X254526172Y-123922567D01*
X254526177Y-123922572D01*
X254540264Y-123939737D01*
X254557429Y-123953824D01*
X255123432Y-124519828D01*
X255084194Y-124614557D01*
X255040000Y-124836735D01*
X255040000Y-125063265D01*
X255084194Y-125285443D01*
X255170884Y-125494729D01*
X255296737Y-125683082D01*
X255456918Y-125843263D01*
X255645271Y-125969116D01*
X255854557Y-126055806D01*
X256076735Y-126100000D01*
X256303265Y-126100000D01*
X256525443Y-126055806D01*
X256734729Y-125969116D01*
X256923082Y-125843263D01*
X257083263Y-125683082D01*
X257209116Y-125494729D01*
X257295806Y-125285443D01*
X257340000Y-125063265D01*
X257340000Y-124836735D01*
X257295806Y-124614557D01*
X257209116Y-124405271D01*
X257083263Y-124216918D01*
X256923082Y-124056737D01*
X256734729Y-123930884D01*
X256525443Y-123844194D01*
X256303265Y-123800000D01*
X256076735Y-123800000D01*
X255854557Y-123844194D01*
X255759828Y-123883432D01*
X255310000Y-123433605D01*
X255310000Y-123156345D01*
X255456918Y-123303263D01*
X255645271Y-123429116D01*
X255854557Y-123515806D01*
X256076735Y-123560000D01*
X256303265Y-123560000D01*
X256525443Y-123515806D01*
X256734729Y-123429116D01*
X256923082Y-123303263D01*
X257083263Y-123143082D01*
X257209116Y-122954729D01*
X257295806Y-122745443D01*
X257340000Y-122523265D01*
X257340000Y-122296735D01*
X257295806Y-122074557D01*
X257209116Y-121865271D01*
X257083263Y-121676918D01*
X256923082Y-121516737D01*
X256734729Y-121390884D01*
X256525443Y-121304194D01*
X256303265Y-121260000D01*
X256076735Y-121260000D01*
X255854557Y-121304194D01*
X255645271Y-121390884D01*
X255456918Y-121516737D01*
X255310000Y-121663655D01*
X255310000Y-121018496D01*
X255340000Y-121021451D01*
X257040000Y-121021451D01*
X257098810Y-121015659D01*
X257155360Y-120998504D01*
X257207477Y-120970647D01*
X257253158Y-120933158D01*
X257290647Y-120887477D01*
X257318504Y-120835360D01*
X257335659Y-120778810D01*
X257341451Y-120720000D01*
X257341451Y-119020000D01*
X257335659Y-118961190D01*
X257318504Y-118904640D01*
X257290647Y-118852523D01*
X257253158Y-118806842D01*
X257207477Y-118769353D01*
X257155360Y-118741496D01*
X257098810Y-118724341D01*
X257040000Y-118718549D01*
X255435581Y-118718549D01*
X255480332Y-118651574D01*
X255533099Y-118524182D01*
X255560000Y-118388944D01*
X255560000Y-118251056D01*
X255533099Y-118115818D01*
X255480332Y-117988426D01*
X255403726Y-117873776D01*
X255306224Y-117776274D01*
X255191574Y-117699668D01*
X255064182Y-117646901D01*
X254928944Y-117620000D01*
X254791056Y-117620000D01*
X254655818Y-117646901D01*
X254528426Y-117699668D01*
X254413776Y-117776274D01*
X254316274Y-117873776D01*
X254239668Y-117988426D01*
X254186901Y-118115818D01*
X254160000Y-118251056D01*
X254160000Y-118388944D01*
X254186901Y-118524182D01*
X254239668Y-118651574D01*
X254316274Y-118766224D01*
X254410000Y-118859950D01*
X254410000Y-118943005D01*
X254399980Y-118933225D01*
X254202814Y-118804911D01*
X253984403Y-118717528D01*
X253800000Y-118766905D01*
X253800000Y-119720000D01*
X253820000Y-119720000D01*
X253820000Y-120020000D01*
X253800000Y-120020000D01*
X253800000Y-120973095D01*
X253984403Y-121022472D01*
X254202814Y-120935089D01*
X254399980Y-120806775D01*
X254410000Y-120796994D01*
X254410001Y-121543656D01*
X254383082Y-121516737D01*
X254194729Y-121390884D01*
X253985443Y-121304194D01*
X253763265Y-121260000D01*
X253536735Y-121260000D01*
X253314557Y-121304194D01*
X253219828Y-121343432D01*
X252080798Y-120204402D01*
X252497535Y-120204402D01*
X252505971Y-120232233D01*
X252598621Y-120448462D01*
X252731675Y-120642461D01*
X252900020Y-120806775D01*
X253097186Y-120935089D01*
X253315597Y-121022472D01*
X253500000Y-120973095D01*
X253500000Y-120020000D01*
X252547659Y-120020000D01*
X252497535Y-120204402D01*
X252080798Y-120204402D01*
X251411994Y-119535598D01*
X252497535Y-119535598D01*
X252547659Y-119720000D01*
X253500000Y-119720000D01*
X253500000Y-118766905D01*
X253315597Y-118717528D01*
X253097186Y-118804911D01*
X252900020Y-118933225D01*
X252731675Y-119097539D01*
X252598621Y-119291538D01*
X252505971Y-119507767D01*
X252497535Y-119535598D01*
X251411994Y-119535598D01*
X249023827Y-117147432D01*
X249009737Y-117130263D01*
X248941216Y-117074029D01*
X248863041Y-117032243D01*
X248778215Y-117006511D01*
X248712105Y-117000000D01*
X248712094Y-117000000D01*
X248690000Y-116997824D01*
X248667906Y-117000000D01*
X236376396Y-117000000D01*
X233500010Y-114123615D01*
X233500010Y-113970000D01*
X234208306Y-113970000D01*
X234215064Y-114038612D01*
X234235077Y-114104587D01*
X234267577Y-114165391D01*
X234311315Y-114218685D01*
X234364609Y-114262423D01*
X234425413Y-114294923D01*
X234491388Y-114314936D01*
X234560000Y-114321694D01*
X235172500Y-114320000D01*
X235260000Y-114232500D01*
X235260000Y-113270000D01*
X235560000Y-113270000D01*
X235560000Y-114232500D01*
X235647500Y-114320000D01*
X236260000Y-114321694D01*
X236328612Y-114314936D01*
X236394587Y-114294923D01*
X236455391Y-114262423D01*
X236508685Y-114218685D01*
X236552423Y-114165391D01*
X236584923Y-114104587D01*
X236604936Y-114038612D01*
X236611694Y-113970000D01*
X236610000Y-113357500D01*
X236522500Y-113270000D01*
X235560000Y-113270000D01*
X235260000Y-113270000D01*
X234297500Y-113270000D01*
X234210000Y-113357500D01*
X234208306Y-113970000D01*
X233500010Y-113970000D01*
X233500010Y-112270000D01*
X234208306Y-112270000D01*
X234210000Y-112882500D01*
X234297500Y-112970000D01*
X235260000Y-112970000D01*
X235260000Y-112007500D01*
X235560000Y-112007500D01*
X235560000Y-112970000D01*
X236522500Y-112970000D01*
X236610000Y-112882500D01*
X236611694Y-112270000D01*
X236604936Y-112201388D01*
X236584923Y-112135413D01*
X236552423Y-112074609D01*
X236508685Y-112021315D01*
X236455391Y-111977577D01*
X236394587Y-111945077D01*
X236328612Y-111925064D01*
X236260000Y-111918306D01*
X235647500Y-111920000D01*
X235560000Y-112007500D01*
X235260000Y-112007500D01*
X235172500Y-111920000D01*
X234560000Y-111918306D01*
X234491388Y-111925064D01*
X234425413Y-111945077D01*
X234364609Y-111977577D01*
X234311315Y-112021315D01*
X234267577Y-112074609D01*
X234235077Y-112135413D01*
X234215064Y-112201388D01*
X234208306Y-112270000D01*
X233500010Y-112270000D01*
X233500010Y-110777878D01*
X233506224Y-110773726D01*
X233603726Y-110676224D01*
X233680332Y-110561574D01*
X233719615Y-110466735D01*
X234260000Y-110466735D01*
X234260000Y-110693265D01*
X234304194Y-110915443D01*
X234390884Y-111124729D01*
X234516737Y-111313082D01*
X234676918Y-111473263D01*
X234865271Y-111599116D01*
X235074557Y-111685806D01*
X235296735Y-111730000D01*
X235523265Y-111730000D01*
X235745443Y-111685806D01*
X235954729Y-111599116D01*
X236143082Y-111473263D01*
X236303263Y-111313082D01*
X236429116Y-111124729D01*
X236515806Y-110915443D01*
X236516012Y-110914403D01*
X236797528Y-110914403D01*
X236884911Y-111132814D01*
X237013225Y-111329980D01*
X237177539Y-111498325D01*
X237371538Y-111631379D01*
X237587767Y-111724029D01*
X237615598Y-111732465D01*
X237800000Y-111682341D01*
X237800000Y-110730000D01*
X236846905Y-110730000D01*
X236797528Y-110914403D01*
X236516012Y-110914403D01*
X236560000Y-110693265D01*
X236560000Y-110466735D01*
X236516013Y-110245597D01*
X236797528Y-110245597D01*
X236846905Y-110430000D01*
X237800000Y-110430000D01*
X237800000Y-109477659D01*
X237615598Y-109427535D01*
X237587767Y-109435971D01*
X237371538Y-109528621D01*
X237177539Y-109661675D01*
X237013225Y-109830020D01*
X236884911Y-110027186D01*
X236797528Y-110245597D01*
X236516013Y-110245597D01*
X236515806Y-110244557D01*
X236429116Y-110035271D01*
X236303263Y-109846918D01*
X236143082Y-109686737D01*
X235954729Y-109560884D01*
X235860000Y-109521646D01*
X235860000Y-103403502D01*
X238650002Y-106193504D01*
X238650001Y-109611979D01*
X238528462Y-109528621D01*
X238312233Y-109435971D01*
X238284402Y-109427535D01*
X238100000Y-109477659D01*
X238100000Y-110430000D01*
X238120000Y-110430000D01*
X238120000Y-110730000D01*
X238100000Y-110730000D01*
X238100000Y-111682341D01*
X238284402Y-111732465D01*
X238312233Y-111724029D01*
X238528462Y-111631379D01*
X238650001Y-111548022D01*
X238650001Y-111642181D01*
X238279225Y-112012957D01*
X238063265Y-111970000D01*
X237836735Y-111970000D01*
X237614557Y-112014194D01*
X237405271Y-112100884D01*
X237216918Y-112226737D01*
X237056737Y-112386918D01*
X236930884Y-112575271D01*
X236844194Y-112784557D01*
X236800000Y-113006735D01*
X236800000Y-113233265D01*
X236844194Y-113455443D01*
X236930884Y-113664729D01*
X237056737Y-113853082D01*
X237190001Y-113986346D01*
X237190000Y-115860707D01*
X237186130Y-115900000D01*
X237201576Y-116056827D01*
X237247321Y-116207628D01*
X237321607Y-116346606D01*
X237373633Y-116410000D01*
X237421578Y-116468422D01*
X237543394Y-116568393D01*
X237682372Y-116642679D01*
X237833173Y-116688424D01*
X237990000Y-116703870D01*
X238029293Y-116700000D01*
X244690709Y-116700000D01*
X244730000Y-116703870D01*
X244769291Y-116700000D01*
X253950709Y-116700000D01*
X253990000Y-116703870D01*
X254029291Y-116700000D01*
X254029293Y-116700000D01*
X254146827Y-116688424D01*
X254297628Y-116642679D01*
X254436606Y-116568393D01*
X254558422Y-116468422D01*
X254583474Y-116437896D01*
X255013469Y-116007900D01*
X255088393Y-115916606D01*
X255162679Y-115777628D01*
X255208423Y-115626827D01*
X255223870Y-115470000D01*
X255208423Y-115313173D01*
X255162679Y-115162373D01*
X255088393Y-115023394D01*
X254988422Y-114901578D01*
X254866606Y-114801607D01*
X254727627Y-114727321D01*
X254576827Y-114681577D01*
X254420000Y-114666130D01*
X254263173Y-114681577D01*
X254112372Y-114727321D01*
X253973394Y-114801607D01*
X253882100Y-114876531D01*
X253658631Y-115100000D01*
X246661370Y-115100000D01*
X249677897Y-112083473D01*
X249708422Y-112058422D01*
X249774571Y-111977819D01*
X249808393Y-111936607D01*
X249882679Y-111797628D01*
X249893367Y-111762393D01*
X249928424Y-111646827D01*
X249940000Y-111529293D01*
X249940000Y-111529291D01*
X249943870Y-111490000D01*
X249940000Y-111450709D01*
X249940000Y-110150707D01*
X249928424Y-110033173D01*
X249882679Y-109882372D01*
X249808393Y-109743394D01*
X249708422Y-109621578D01*
X249586605Y-109521607D01*
X249447627Y-109447321D01*
X249296826Y-109401576D01*
X249140000Y-109386130D01*
X248983173Y-109401576D01*
X248832372Y-109447321D01*
X248693394Y-109521607D01*
X248571578Y-109621578D01*
X248471607Y-109743395D01*
X248397321Y-109882373D01*
X248351576Y-110033174D01*
X248340000Y-110150708D01*
X248340001Y-111158629D01*
X244398630Y-115100000D01*
X238790000Y-115100000D01*
X238790000Y-113906345D01*
X238843263Y-113853082D01*
X238969116Y-113664729D01*
X239055806Y-113455443D01*
X239100000Y-113233265D01*
X239100000Y-113006735D01*
X239340000Y-113006735D01*
X239340000Y-113233265D01*
X239384194Y-113455443D01*
X239470884Y-113664729D01*
X239596737Y-113853082D01*
X239756918Y-114013263D01*
X239945271Y-114139116D01*
X240154557Y-114225806D01*
X240376735Y-114270000D01*
X240603265Y-114270000D01*
X240825443Y-114225806D01*
X241034729Y-114139116D01*
X241223082Y-114013263D01*
X241383263Y-113853082D01*
X241509116Y-113664729D01*
X241595806Y-113455443D01*
X241640000Y-113233265D01*
X241640000Y-113006735D01*
X241595806Y-112784557D01*
X241509116Y-112575271D01*
X241383263Y-112386918D01*
X241223082Y-112226737D01*
X241034729Y-112100884D01*
X240825443Y-112014194D01*
X240603265Y-111970000D01*
X240376735Y-111970000D01*
X240154557Y-112014194D01*
X239945271Y-112100884D01*
X239756918Y-112226737D01*
X239596737Y-112386918D01*
X239470884Y-112575271D01*
X239384194Y-112784557D01*
X239340000Y-113006735D01*
X239100000Y-113006735D01*
X239057043Y-112790775D01*
X239569811Y-112278007D01*
X239590791Y-112260789D01*
X239608009Y-112239809D01*
X239608014Y-112239804D01*
X239659521Y-112177042D01*
X239672662Y-112152457D01*
X239710593Y-112081493D01*
X239742043Y-111977818D01*
X239750001Y-111897017D01*
X239750001Y-111897008D01*
X239752661Y-111870000D01*
X239750001Y-111842992D01*
X239750001Y-111466346D01*
X239756918Y-111473263D01*
X239945271Y-111599116D01*
X240154557Y-111685806D01*
X240376735Y-111730000D01*
X240603265Y-111730000D01*
X240825443Y-111685806D01*
X241034729Y-111599116D01*
X241190002Y-111495366D01*
X241190002Y-111707897D01*
X241187825Y-111730001D01*
X241196513Y-111818216D01*
X241222244Y-111903041D01*
X241264030Y-111981217D01*
X241306173Y-112032568D01*
X241306178Y-112032573D01*
X241320265Y-112049738D01*
X241337430Y-112063825D01*
X241963432Y-112689828D01*
X241924194Y-112784557D01*
X241880000Y-113006735D01*
X241880000Y-113233265D01*
X241924194Y-113455443D01*
X242010884Y-113664729D01*
X242136737Y-113853082D01*
X242296918Y-114013263D01*
X242485271Y-114139116D01*
X242694557Y-114225806D01*
X242916735Y-114270000D01*
X243143265Y-114270000D01*
X243365443Y-114225806D01*
X243574729Y-114139116D01*
X243763082Y-114013263D01*
X243923263Y-113853082D01*
X244049116Y-113664729D01*
X244135806Y-113455443D01*
X244180000Y-113233265D01*
X244180000Y-113006735D01*
X244135806Y-112784557D01*
X244049116Y-112575271D01*
X243923263Y-112386918D01*
X243763082Y-112226737D01*
X243574729Y-112100884D01*
X243365443Y-112014194D01*
X243143265Y-111970000D01*
X242916735Y-111970000D01*
X242694557Y-112014194D01*
X242599828Y-112053432D01*
X242090001Y-111543606D01*
X242090001Y-111243136D01*
X242136737Y-111313082D01*
X242296918Y-111473263D01*
X242485271Y-111599116D01*
X242694557Y-111685806D01*
X242916735Y-111730000D01*
X243143265Y-111730000D01*
X243365443Y-111685806D01*
X243574729Y-111599116D01*
X243763082Y-111473263D01*
X243923263Y-111313082D01*
X244049116Y-111124729D01*
X244135806Y-110915443D01*
X244180000Y-110693265D01*
X244180000Y-110466735D01*
X244135806Y-110244557D01*
X244049116Y-110035271D01*
X243923263Y-109846918D01*
X243763082Y-109686737D01*
X243574729Y-109560884D01*
X243480000Y-109521646D01*
X243480000Y-108141056D01*
X244350000Y-108141056D01*
X244350000Y-108278944D01*
X244376901Y-108414182D01*
X244429668Y-108541574D01*
X244506274Y-108656224D01*
X244603776Y-108753726D01*
X244718426Y-108830332D01*
X244810001Y-108868263D01*
X244810000Y-109750050D01*
X244716274Y-109843776D01*
X244639668Y-109958426D01*
X244586901Y-110085818D01*
X244560000Y-110221056D01*
X244560000Y-110358944D01*
X244586901Y-110494182D01*
X244639668Y-110621574D01*
X244716274Y-110736224D01*
X244813776Y-110833726D01*
X244928426Y-110910332D01*
X245055818Y-110963099D01*
X245191056Y-110990000D01*
X245328944Y-110990000D01*
X245464182Y-110963099D01*
X245591574Y-110910332D01*
X245706224Y-110833726D01*
X245803726Y-110736224D01*
X245880332Y-110621574D01*
X245933099Y-110494182D01*
X245960000Y-110358944D01*
X245960000Y-110221056D01*
X245933099Y-110085818D01*
X245880332Y-109958426D01*
X245803726Y-109843776D01*
X245710000Y-109750050D01*
X245710000Y-108445806D01*
X245723099Y-108414182D01*
X245750000Y-108278944D01*
X245750000Y-108141056D01*
X245723099Y-108005818D01*
X245670332Y-107878426D01*
X245593726Y-107763776D01*
X245496224Y-107666274D01*
X245381574Y-107589668D01*
X245254182Y-107536901D01*
X245118944Y-107510000D01*
X244981056Y-107510000D01*
X244845818Y-107536901D01*
X244718426Y-107589668D01*
X244603776Y-107666274D01*
X244506274Y-107763776D01*
X244429668Y-107878426D01*
X244376901Y-108005818D01*
X244350000Y-108141056D01*
X243480000Y-108141056D01*
X243480000Y-100102126D01*
X243482176Y-100080034D01*
X243480000Y-100057942D01*
X243480000Y-100057930D01*
X243473489Y-99991820D01*
X243447757Y-99906994D01*
X243408745Y-99834008D01*
X243405971Y-99828818D01*
X243363828Y-99777467D01*
X243363824Y-99777463D01*
X243349737Y-99760298D01*
X243332572Y-99746211D01*
X238366361Y-94780000D01*
X255518549Y-94780000D01*
X255518549Y-96480000D01*
X255524341Y-96538810D01*
X255541496Y-96595360D01*
X255569353Y-96647477D01*
X255606842Y-96693158D01*
X255652523Y-96730647D01*
X255704640Y-96758504D01*
X255761190Y-96775659D01*
X255820000Y-96781451D01*
X257520000Y-96781451D01*
X257578810Y-96775659D01*
X257635360Y-96758504D01*
X257687477Y-96730647D01*
X257733158Y-96693158D01*
X257770647Y-96647477D01*
X257798504Y-96595360D01*
X257815659Y-96538810D01*
X257821451Y-96480000D01*
X257821451Y-94780000D01*
X257815659Y-94721190D01*
X257798504Y-94664640D01*
X257770647Y-94612523D01*
X257733158Y-94566842D01*
X257687477Y-94529353D01*
X257635360Y-94501496D01*
X257578810Y-94484341D01*
X257520000Y-94478549D01*
X255820000Y-94478549D01*
X255761190Y-94484341D01*
X255704640Y-94501496D01*
X255652523Y-94529353D01*
X255606842Y-94566842D01*
X255569353Y-94612523D01*
X255541496Y-94664640D01*
X255524341Y-94721190D01*
X255518549Y-94780000D01*
X238366361Y-94780000D01*
X237920800Y-94334440D01*
X237920800Y-94201891D01*
X237893899Y-94066653D01*
X237841132Y-93939261D01*
X237764526Y-93824611D01*
X237667024Y-93727109D01*
X237552374Y-93650503D01*
X237424982Y-93597736D01*
X237289744Y-93570835D01*
X237151856Y-93570835D01*
X237016618Y-93597736D01*
X236889226Y-93650503D01*
X236774576Y-93727109D01*
X236677074Y-93824611D01*
X236600468Y-93939261D01*
X236581485Y-93985090D01*
X236290000Y-93693605D01*
X236290000Y-93561056D01*
X236263099Y-93425818D01*
X236210332Y-93298426D01*
X236133726Y-93183776D01*
X236036224Y-93086274D01*
X235921574Y-93009668D01*
X235794182Y-92956901D01*
X235658944Y-92930000D01*
X235521056Y-92930000D01*
X235385818Y-92956901D01*
X235258426Y-93009668D01*
X235143776Y-93086274D01*
X235046274Y-93183776D01*
X234969668Y-93298426D01*
X234916901Y-93425818D01*
X234890000Y-93561056D01*
X234890000Y-93698944D01*
X234916901Y-93834182D01*
X234969668Y-93961574D01*
X235046274Y-94076224D01*
X235143776Y-94173726D01*
X235258426Y-94250332D01*
X235385818Y-94303099D01*
X235521056Y-94330000D01*
X235653605Y-94330000D01*
X241190001Y-99866397D01*
X241190002Y-109664634D01*
X241034729Y-109560884D01*
X240825443Y-109474194D01*
X240603265Y-109430000D01*
X240376735Y-109430000D01*
X240154557Y-109474194D01*
X239945271Y-109560884D01*
X239756918Y-109686737D01*
X239750001Y-109693654D01*
X239750001Y-105992697D01*
X239752661Y-105965686D01*
X239750001Y-105938675D01*
X239750001Y-105938668D01*
X239742043Y-105857867D01*
X239717658Y-105777481D01*
X239710593Y-105754191D01*
X239659522Y-105658644D01*
X239626728Y-105618685D01*
X239645258Y-105608781D01*
X239724088Y-105544088D01*
X239788781Y-105465258D01*
X239836853Y-105375322D01*
X239866455Y-105277736D01*
X239876451Y-105176250D01*
X239876451Y-104738750D01*
X239866455Y-104637264D01*
X239836853Y-104539678D01*
X239788781Y-104449742D01*
X239724088Y-104370912D01*
X239645258Y-104306219D01*
X239555322Y-104258147D01*
X239457736Y-104228545D01*
X239356250Y-104218549D01*
X238843750Y-104218549D01*
X238742264Y-104228545D01*
X238644678Y-104258147D01*
X238554742Y-104306219D01*
X238475912Y-104370912D01*
X238434052Y-104421920D01*
X238092132Y-104080000D01*
X238208944Y-104080000D01*
X238344182Y-104053099D01*
X238471574Y-104000332D01*
X238494951Y-103984712D01*
X238554742Y-104033781D01*
X238644678Y-104081853D01*
X238742264Y-104111455D01*
X238843750Y-104121451D01*
X239356250Y-104121451D01*
X239457736Y-104111455D01*
X239555322Y-104081853D01*
X239645258Y-104033781D01*
X239724088Y-103969088D01*
X239788781Y-103890258D01*
X239836853Y-103800322D01*
X239866455Y-103702736D01*
X239876451Y-103601250D01*
X239876451Y-103163750D01*
X239866455Y-103062264D01*
X239836853Y-102964678D01*
X239788781Y-102874742D01*
X239724088Y-102795912D01*
X239645258Y-102731219D01*
X239555322Y-102683147D01*
X239457736Y-102653545D01*
X239356250Y-102643549D01*
X238843750Y-102643549D01*
X238742264Y-102653545D01*
X238644678Y-102683147D01*
X238554742Y-102731219D01*
X238498309Y-102777532D01*
X238471574Y-102759668D01*
X238344182Y-102706901D01*
X238208944Y-102680000D01*
X238071056Y-102680000D01*
X237935818Y-102706901D01*
X237808426Y-102759668D01*
X237693776Y-102836274D01*
X237596274Y-102933776D01*
X237519668Y-103048426D01*
X237466901Y-103175818D01*
X237440000Y-103311056D01*
X237440000Y-103427868D01*
X236739640Y-102727508D01*
X236770332Y-102681574D01*
X236823099Y-102554182D01*
X236850000Y-102418944D01*
X236850000Y-102281056D01*
X236823099Y-102145818D01*
X236770332Y-102018426D01*
X236693726Y-101903776D01*
X236596224Y-101806274D01*
X236481574Y-101729668D01*
X236354182Y-101676901D01*
X236218944Y-101650000D01*
X236081056Y-101650000D01*
X235945818Y-101676901D01*
X235860000Y-101712448D01*
X235860000Y-99666395D01*
X237496396Y-98030000D01*
X237628944Y-98030000D01*
X237764182Y-98003099D01*
X237891574Y-97950332D01*
X238006224Y-97873726D01*
X238103726Y-97776224D01*
X238180332Y-97661574D01*
X238233099Y-97534182D01*
X238260000Y-97398944D01*
X238260000Y-97261056D01*
X238233099Y-97125818D01*
X238180332Y-96998426D01*
X238103726Y-96883776D01*
X238006224Y-96786274D01*
X237891574Y-96709668D01*
X237764182Y-96656901D01*
X237628944Y-96630000D01*
X237491056Y-96630000D01*
X237355818Y-96656901D01*
X237228426Y-96709668D01*
X237113776Y-96786274D01*
X237016274Y-96883776D01*
X236939668Y-96998426D01*
X236886901Y-97125818D01*
X236860000Y-97261056D01*
X236860000Y-97393604D01*
X235107434Y-99146171D01*
X235090263Y-99160263D01*
X235076172Y-99177433D01*
X235034029Y-99228784D01*
X235011236Y-99271427D01*
X234992243Y-99306960D01*
X234966511Y-99391786D01*
X234960000Y-99457896D01*
X234960000Y-99457906D01*
X234957824Y-99480000D01*
X234960000Y-99502094D01*
X234960001Y-109521645D01*
X234865271Y-109560884D01*
X234676918Y-109686737D01*
X234516737Y-109846918D01*
X234390884Y-110035271D01*
X234304194Y-110244557D01*
X234260000Y-110466735D01*
X233719615Y-110466735D01*
X233733099Y-110434182D01*
X233760000Y-110298944D01*
X233760000Y-110161056D01*
X233733099Y-110025818D01*
X233680332Y-109898426D01*
X233603726Y-109783776D01*
X233506224Y-109686274D01*
X233391574Y-109609668D01*
X233264182Y-109556901D01*
X233128944Y-109530000D01*
X232991056Y-109530000D01*
X232855818Y-109556901D01*
X232760000Y-109596590D01*
X232760000Y-104902473D01*
X232962539Y-104699934D01*
X233095088Y-104699934D01*
X233230326Y-104673033D01*
X233357718Y-104620266D01*
X233472368Y-104543660D01*
X233569870Y-104446158D01*
X233646476Y-104331508D01*
X233699243Y-104204116D01*
X233726144Y-104068878D01*
X233726144Y-103930990D01*
X233699243Y-103795752D01*
X233646476Y-103668360D01*
X233569870Y-103553710D01*
X233472368Y-103456208D01*
X233357718Y-103379602D01*
X233230326Y-103326835D01*
X233095088Y-103299934D01*
X232957200Y-103299934D01*
X232821962Y-103326835D01*
X232694570Y-103379602D01*
X232579920Y-103456208D01*
X232482418Y-103553710D01*
X232405812Y-103668360D01*
X232353045Y-103795752D01*
X232326144Y-103930990D01*
X232326144Y-104063539D01*
X232007429Y-104382254D01*
X231990264Y-104396341D01*
X231976177Y-104413506D01*
X231976172Y-104413511D01*
X231934029Y-104464862D01*
X231892243Y-104543038D01*
X231866665Y-104627357D01*
X231866512Y-104627863D01*
X231861090Y-104682921D01*
X231857824Y-104716078D01*
X231860001Y-104738182D01*
X231860001Y-108312411D01*
X231814172Y-108293428D01*
X231678934Y-108266527D01*
X231541046Y-108266527D01*
X231405808Y-108293428D01*
X231350000Y-108316544D01*
X231350000Y-90139268D01*
X231455818Y-90183099D01*
X231591056Y-90210000D01*
X231728944Y-90210000D01*
X231864182Y-90183099D01*
X231991574Y-90130332D01*
X232106224Y-90053726D01*
X232203726Y-89956224D01*
X232222789Y-89927694D01*
X245011448Y-89927694D01*
X244923776Y-89986274D01*
X244826274Y-90083776D01*
X244749668Y-90198426D01*
X244696901Y-90325818D01*
X244670000Y-90461056D01*
X244670000Y-90598944D01*
X244674980Y-90623980D01*
X244568961Y-90729999D01*
X239425867Y-90729999D01*
X239405000Y-90727944D01*
X239384133Y-90729999D01*
X239384127Y-90729999D01*
X239330099Y-90735320D01*
X239321686Y-90736149D01*
X239297384Y-90743521D01*
X239241574Y-90760451D01*
X239167741Y-90799915D01*
X239103027Y-90853025D01*
X239089722Y-90869237D01*
X238023980Y-91934980D01*
X237998944Y-91930000D01*
X237861056Y-91930000D01*
X237725818Y-91956901D01*
X237598426Y-92009668D01*
X237483776Y-92086274D01*
X237386274Y-92183776D01*
X237309668Y-92298426D01*
X237256901Y-92425818D01*
X237230000Y-92561056D01*
X237230000Y-92698944D01*
X237256901Y-92834182D01*
X237309668Y-92961574D01*
X237386274Y-93076224D01*
X237483776Y-93173726D01*
X237598426Y-93250332D01*
X237725818Y-93303099D01*
X237861056Y-93330000D01*
X237998944Y-93330000D01*
X238134182Y-93303099D01*
X238261574Y-93250332D01*
X238376224Y-93173726D01*
X238473726Y-93076224D01*
X238540201Y-92976735D01*
X255520000Y-92976735D01*
X255520000Y-93203265D01*
X255564194Y-93425443D01*
X255650884Y-93634729D01*
X255776737Y-93823082D01*
X255936918Y-93983263D01*
X256125271Y-94109116D01*
X256334557Y-94195806D01*
X256556735Y-94240000D01*
X256783265Y-94240000D01*
X257005443Y-94195806D01*
X257214729Y-94109116D01*
X257403082Y-93983263D01*
X257563263Y-93823082D01*
X257689116Y-93634729D01*
X257775806Y-93425443D01*
X257820000Y-93203265D01*
X257820000Y-92976735D01*
X257775806Y-92754557D01*
X257689116Y-92545271D01*
X257563263Y-92356918D01*
X257403082Y-92196737D01*
X257214729Y-92070884D01*
X257005443Y-91984194D01*
X256783265Y-91940000D01*
X256556735Y-91940000D01*
X256334557Y-91984194D01*
X256125271Y-92070884D01*
X255936918Y-92196737D01*
X255776737Y-92356918D01*
X255650884Y-92545271D01*
X255564194Y-92754557D01*
X255520000Y-92976735D01*
X238540201Y-92976735D01*
X238550332Y-92961574D01*
X238603099Y-92834182D01*
X238630000Y-92698944D01*
X238630000Y-92561056D01*
X238625020Y-92536020D01*
X239581042Y-91579999D01*
X244724134Y-91579999D01*
X244745001Y-91582054D01*
X244765868Y-91579999D01*
X244765875Y-91579999D01*
X244828315Y-91573849D01*
X244908428Y-91549547D01*
X244982261Y-91510083D01*
X245046975Y-91456973D01*
X245060284Y-91440756D01*
X245276020Y-91225020D01*
X245301056Y-91230000D01*
X245438944Y-91230000D01*
X245574182Y-91203099D01*
X245701574Y-91150332D01*
X245816224Y-91073726D01*
X245913726Y-90976224D01*
X245990332Y-90861574D01*
X246043099Y-90734182D01*
X246070000Y-90598944D01*
X246070000Y-90461056D01*
X246043099Y-90325818D01*
X245990332Y-90198426D01*
X245913726Y-90083776D01*
X245816224Y-89986274D01*
X245728552Y-89927694D01*
X248546439Y-89927694D01*
X248567306Y-89929749D01*
X248588173Y-89927694D01*
X248588180Y-89927694D01*
X248650620Y-89921544D01*
X248730733Y-89897242D01*
X248804566Y-89857778D01*
X248869280Y-89804668D01*
X248882590Y-89788450D01*
X256081041Y-82590000D01*
X256128944Y-82590000D01*
X256264182Y-82563099D01*
X256391574Y-82510332D01*
X256480000Y-82451248D01*
X256480000Y-82652894D01*
X255642895Y-83490000D01*
X255581056Y-83490000D01*
X255445818Y-83516901D01*
X255318426Y-83569668D01*
X255203776Y-83646274D01*
X255106274Y-83743776D01*
X255029668Y-83858426D01*
X254976901Y-83985818D01*
X254950000Y-84121056D01*
X254950000Y-84258944D01*
X254976901Y-84394182D01*
X255029668Y-84521574D01*
X255106274Y-84636224D01*
X255203776Y-84733726D01*
X255318426Y-84810332D01*
X255445818Y-84863099D01*
X255581056Y-84890000D01*
X255718944Y-84890000D01*
X255854182Y-84863099D01*
X255981574Y-84810332D01*
X256096224Y-84733726D01*
X256193726Y-84636224D01*
X256270332Y-84521574D01*
X256323099Y-84394182D01*
X256350000Y-84258944D01*
X256350000Y-84197105D01*
X257316181Y-83230925D01*
X257335264Y-83215264D01*
X257397746Y-83139129D01*
X257444175Y-83052267D01*
X257460316Y-82999057D01*
X257472765Y-82958018D01*
X257482419Y-82860001D01*
X257480000Y-82835441D01*
X257480000Y-78234557D01*
X257482419Y-78209999D01*
X257480000Y-78185440D01*
X257472765Y-78111983D01*
X257444175Y-78017733D01*
X257397746Y-77930871D01*
X257335264Y-77854736D01*
X257316181Y-77839075D01*
X256780000Y-77302895D01*
X256780000Y-77241056D01*
X256753099Y-77105818D01*
X256700332Y-76978426D01*
X256623726Y-76863776D01*
X256526224Y-76766274D01*
X256411574Y-76689668D01*
X256376162Y-76675000D01*
X258125000Y-76675000D01*
X258125001Y-96939660D01*
X257086346Y-97046078D01*
X257066040Y-97049622D01*
X257045640Y-97052525D01*
X257034164Y-97055185D01*
X255937461Y-97327608D01*
X255917868Y-97333974D01*
X255898070Y-97339726D01*
X255887083Y-97343977D01*
X254839706Y-97768208D01*
X254821201Y-97777273D01*
X254802416Y-97785755D01*
X254792137Y-97791511D01*
X253814983Y-98359087D01*
X253797928Y-98370678D01*
X253780538Y-98381714D01*
X253771173Y-98388861D01*
X252883740Y-99088457D01*
X252868494Y-99102330D01*
X252852826Y-99115712D01*
X252844561Y-99124107D01*
X252064555Y-99941764D01*
X252051420Y-99957642D01*
X252037790Y-99973102D01*
X252030791Y-99982578D01*
X251373776Y-100901981D01*
X251363012Y-100919546D01*
X251351693Y-100936778D01*
X251346099Y-100947146D01*
X250825183Y-101949952D01*
X250817002Y-101968857D01*
X250808223Y-101987513D01*
X250804146Y-101998565D01*
X250429724Y-103064764D01*
X250424284Y-103084648D01*
X250418226Y-103104341D01*
X250415746Y-103115857D01*
X250195288Y-104224175D01*
X250192703Y-104244631D01*
X250189481Y-104264977D01*
X250188650Y-104276708D01*
X250188648Y-104276727D01*
X250188648Y-104276742D01*
X250126554Y-105405053D01*
X250126878Y-105425672D01*
X250126554Y-105446265D01*
X250127385Y-105457998D01*
X250127385Y-105458017D01*
X250127387Y-105458032D01*
X250224892Y-106583834D01*
X250228117Y-106604196D01*
X250230699Y-106624635D01*
X250233178Y-106636152D01*
X250488341Y-107736999D01*
X250494404Y-107756708D01*
X250499839Y-107776575D01*
X250503916Y-107787627D01*
X250911644Y-108841538D01*
X250920423Y-108860194D01*
X250928604Y-108879099D01*
X250934198Y-108889467D01*
X251486355Y-109875416D01*
X251497669Y-109892640D01*
X251508438Y-109910213D01*
X251515437Y-109919689D01*
X252201007Y-110818001D01*
X252214637Y-110833461D01*
X252227772Y-110849339D01*
X252236037Y-110857735D01*
X253041342Y-111650488D01*
X253057014Y-111663873D01*
X253072256Y-111677742D01*
X253081621Y-111684889D01*
X253990590Y-112356264D01*
X254007990Y-112367306D01*
X254025036Y-112378891D01*
X254035315Y-112384647D01*
X255029813Y-112921249D01*
X255048595Y-112929730D01*
X255067104Y-112938797D01*
X255078091Y-112943048D01*
X256138277Y-113334171D01*
X256158075Y-113339923D01*
X256177668Y-113346289D01*
X256189144Y-113348949D01*
X257293863Y-113586789D01*
X257314272Y-113589694D01*
X257334568Y-113593236D01*
X257346305Y-113594253D01*
X258125000Y-113649388D01*
X258125000Y-134030098D01*
X250590525Y-134032891D01*
X250566448Y-134003552D01*
X250509347Y-133956691D01*
X250444200Y-133921869D01*
X250373513Y-133900426D01*
X250318419Y-133895000D01*
X250300000Y-133893186D01*
X250281581Y-133895000D01*
X207874997Y-133895000D01*
X207874815Y-112929516D01*
X208172406Y-112796637D01*
X208184786Y-112790023D01*
X208197584Y-112784245D01*
X208207863Y-112778489D01*
X208852050Y-112404315D01*
X209927824Y-112404315D01*
X209930001Y-112426419D01*
X209930000Y-119157906D01*
X209927824Y-119180000D01*
X209930000Y-119202094D01*
X209930000Y-119202104D01*
X209936511Y-119268214D01*
X209949267Y-119310263D01*
X209962243Y-119353040D01*
X210004029Y-119431216D01*
X210046172Y-119482567D01*
X210060263Y-119499737D01*
X210077434Y-119513829D01*
X211050001Y-120486397D01*
X211050000Y-130290050D01*
X210956274Y-130383776D01*
X210879668Y-130498426D01*
X210826901Y-130625818D01*
X210800000Y-130761056D01*
X210800000Y-130898944D01*
X210826901Y-131034182D01*
X210879668Y-131161574D01*
X210956274Y-131276224D01*
X211053776Y-131373726D01*
X211168426Y-131450332D01*
X211295818Y-131503099D01*
X211431056Y-131530000D01*
X211568944Y-131530000D01*
X211704182Y-131503099D01*
X211831574Y-131450332D01*
X211946224Y-131373726D01*
X212043726Y-131276224D01*
X212120332Y-131161574D01*
X212173099Y-131034182D01*
X212200000Y-130898944D01*
X212200000Y-130761056D01*
X212173099Y-130625818D01*
X212120332Y-130498426D01*
X212043726Y-130383776D01*
X211950000Y-130290050D01*
X211950000Y-129831659D01*
X244330000Y-129831659D01*
X244330000Y-130048341D01*
X244372273Y-130260858D01*
X244455193Y-130461045D01*
X244575575Y-130641209D01*
X244728791Y-130794425D01*
X244908955Y-130914807D01*
X245109142Y-130997727D01*
X245321659Y-131040000D01*
X245538341Y-131040000D01*
X245750858Y-130997727D01*
X245951045Y-130914807D01*
X246131209Y-130794425D01*
X246284425Y-130641209D01*
X246404807Y-130461045D01*
X246487727Y-130260858D01*
X246530000Y-130048341D01*
X246530000Y-129831659D01*
X246487727Y-129619142D01*
X246404807Y-129418955D01*
X246284425Y-129238791D01*
X246131209Y-129085575D01*
X245951045Y-128965193D01*
X245750858Y-128882273D01*
X245538341Y-128840000D01*
X245321659Y-128840000D01*
X245109142Y-128882273D01*
X244908955Y-128965193D01*
X244728791Y-129085575D01*
X244575575Y-129238791D01*
X244455193Y-129418955D01*
X244372273Y-129619142D01*
X244330000Y-129831659D01*
X211950000Y-129831659D01*
X211950000Y-120322093D01*
X211952176Y-120299999D01*
X211950000Y-120277905D01*
X211950000Y-120277895D01*
X211943489Y-120211785D01*
X211917757Y-120126959D01*
X211893820Y-120082177D01*
X211875971Y-120048783D01*
X211833828Y-119997432D01*
X211833824Y-119997428D01*
X211819737Y-119980263D01*
X211802572Y-119966176D01*
X210830000Y-118993605D01*
X210830000Y-112590710D01*
X215094672Y-108326038D01*
X215059668Y-108378426D01*
X215006901Y-108505818D01*
X214980000Y-108641056D01*
X214980000Y-108778944D01*
X215006901Y-108914182D01*
X215059668Y-109041574D01*
X215136274Y-109156224D01*
X215230001Y-109249951D01*
X215230000Y-112450100D01*
X215227824Y-112472194D01*
X215230000Y-112494288D01*
X215230000Y-112494298D01*
X215236511Y-112560408D01*
X215256429Y-112626069D01*
X215262243Y-112645234D01*
X215304029Y-112723410D01*
X215343642Y-112771678D01*
X215360263Y-112791931D01*
X215377434Y-112806023D01*
X216356688Y-113785278D01*
X216243919Y-113819486D01*
X216087568Y-113903057D01*
X215950525Y-114015525D01*
X215838057Y-114152569D01*
X215754486Y-114308920D01*
X215703023Y-114478570D01*
X215690000Y-114610794D01*
X215690000Y-114946440D01*
X215491451Y-115144989D01*
X215491451Y-114304999D01*
X215480855Y-114197416D01*
X215449474Y-114093968D01*
X215398515Y-113998630D01*
X215329935Y-113915065D01*
X215246370Y-113846485D01*
X215151032Y-113795526D01*
X215047584Y-113764145D01*
X214940001Y-113753549D01*
X214239999Y-113753549D01*
X214132416Y-113764145D01*
X214028968Y-113795526D01*
X213933630Y-113846485D01*
X213850065Y-113915065D01*
X213781485Y-113998630D01*
X213730526Y-114093968D01*
X213699145Y-114197416D01*
X213688549Y-114304999D01*
X213688549Y-115555001D01*
X213699145Y-115662584D01*
X213730526Y-115766032D01*
X213737040Y-115778219D01*
X213643568Y-115806573D01*
X213530647Y-115866930D01*
X213456475Y-115927802D01*
X213456473Y-115927804D01*
X213431673Y-115948157D01*
X213411320Y-115972957D01*
X211345951Y-118038327D01*
X211290184Y-118061426D01*
X211175534Y-118138032D01*
X211078032Y-118235534D01*
X211001426Y-118350184D01*
X210948659Y-118477576D01*
X210921758Y-118612814D01*
X210921758Y-118750702D01*
X210948659Y-118885940D01*
X211001426Y-119013332D01*
X211078032Y-119127982D01*
X211175534Y-119225484D01*
X211290184Y-119302090D01*
X211417576Y-119354857D01*
X211552814Y-119381758D01*
X211690702Y-119381758D01*
X211825940Y-119354857D01*
X211953332Y-119302090D01*
X212067982Y-119225484D01*
X212165484Y-119127982D01*
X212242090Y-119013332D01*
X212265189Y-118957565D01*
X214162755Y-117060000D01*
X215113757Y-117060000D01*
X215145678Y-117063144D01*
X215177599Y-117060000D01*
X215177610Y-117060000D01*
X215273100Y-117050595D01*
X215395626Y-117013427D01*
X215508546Y-116953070D01*
X215607521Y-116871843D01*
X215627878Y-116847038D01*
X216390068Y-116084848D01*
X216413570Y-116091977D01*
X216590000Y-116109354D01*
X216766431Y-116091977D01*
X216936081Y-116040514D01*
X217092432Y-115956943D01*
X217160001Y-115901491D01*
X217160000Y-122450050D01*
X217066274Y-122543776D01*
X216989668Y-122658426D01*
X216936901Y-122785818D01*
X216910000Y-122921056D01*
X216910000Y-123058944D01*
X216936901Y-123194182D01*
X216989668Y-123321574D01*
X217066274Y-123436224D01*
X217163776Y-123533726D01*
X217278426Y-123610332D01*
X217405818Y-123663099D01*
X217541056Y-123690000D01*
X217678944Y-123690000D01*
X217814182Y-123663099D01*
X217941574Y-123610332D01*
X218056224Y-123533726D01*
X218153726Y-123436224D01*
X218230332Y-123321574D01*
X218283099Y-123194182D01*
X218310000Y-123058944D01*
X218310000Y-122921056D01*
X218283099Y-122785818D01*
X218230332Y-122658426D01*
X218153726Y-122543776D01*
X218060000Y-122450050D01*
X218060000Y-116012952D01*
X218074648Y-116024312D01*
X218295098Y-116108068D01*
X218440000Y-116054356D01*
X218440000Y-115080000D01*
X218740000Y-115080000D01*
X218740000Y-116054356D01*
X218884902Y-116108068D01*
X219105352Y-116024312D01*
X219255289Y-115908029D01*
X219379660Y-115764729D01*
X219473685Y-115599919D01*
X219533750Y-115419932D01*
X219557547Y-115231686D01*
X219462310Y-115080000D01*
X218740000Y-115080000D01*
X218440000Y-115080000D01*
X218420000Y-115080000D01*
X218420000Y-114780000D01*
X218440000Y-114780000D01*
X218440000Y-113805644D01*
X218740000Y-113805644D01*
X218740000Y-114780000D01*
X219462310Y-114780000D01*
X219557547Y-114628314D01*
X219533750Y-114440068D01*
X219473685Y-114260081D01*
X219379660Y-114095271D01*
X219255289Y-113951971D01*
X219105352Y-113835688D01*
X218884902Y-113751932D01*
X218740000Y-113805644D01*
X218440000Y-113805644D01*
X218295098Y-113751932D01*
X218074648Y-113835688D01*
X217924711Y-113951971D01*
X217864987Y-114020785D01*
X216130000Y-112285799D01*
X216130000Y-109249950D01*
X216223726Y-109156224D01*
X216300332Y-109041574D01*
X216353099Y-108914182D01*
X216380000Y-108778944D01*
X216380000Y-108641056D01*
X216353099Y-108505818D01*
X216300332Y-108378426D01*
X216242375Y-108291686D01*
X219272453Y-108291686D01*
X219296250Y-108479932D01*
X219356315Y-108659919D01*
X219450340Y-108824729D01*
X219574711Y-108968029D01*
X219724648Y-109084312D01*
X219945098Y-109168068D01*
X220090000Y-109114356D01*
X220090000Y-108140000D01*
X219367690Y-108140000D01*
X219272453Y-108291686D01*
X216242375Y-108291686D01*
X216223726Y-108263776D01*
X216126224Y-108166274D01*
X216011574Y-108089668D01*
X215884182Y-108036901D01*
X215748944Y-108010000D01*
X215611056Y-108010000D01*
X215475818Y-108036901D01*
X215348426Y-108089668D01*
X215296039Y-108124672D01*
X215732397Y-107688314D01*
X219272453Y-107688314D01*
X219367690Y-107840000D01*
X220090000Y-107840000D01*
X220090000Y-106865644D01*
X220390000Y-106865644D01*
X220390000Y-107840000D01*
X220410000Y-107840000D01*
X220410000Y-108140000D01*
X220390000Y-108140000D01*
X220390000Y-109114356D01*
X220534902Y-109168068D01*
X220755352Y-109084312D01*
X220780001Y-109065196D01*
X220780000Y-122210050D01*
X220686274Y-122303776D01*
X220609668Y-122418426D01*
X220556901Y-122545818D01*
X220530000Y-122681056D01*
X220530000Y-122818944D01*
X220556901Y-122954182D01*
X220609668Y-123081574D01*
X220686274Y-123196224D01*
X220783776Y-123293726D01*
X220898426Y-123370332D01*
X221025818Y-123423099D01*
X221161056Y-123450000D01*
X221298944Y-123450000D01*
X221434182Y-123423099D01*
X221561574Y-123370332D01*
X221676224Y-123293726D01*
X221773726Y-123196224D01*
X221850332Y-123081574D01*
X221903099Y-122954182D01*
X221930000Y-122818944D01*
X221930000Y-122681056D01*
X221903099Y-122545818D01*
X221850332Y-122418426D01*
X221773726Y-122303776D01*
X221680000Y-122210050D01*
X221680000Y-109124787D01*
X221782416Y-109155855D01*
X221790000Y-109156602D01*
X221790001Y-119607896D01*
X221787824Y-119630000D01*
X221790001Y-119652105D01*
X221791927Y-119671659D01*
X221796512Y-119718215D01*
X221822243Y-119803040D01*
X221864029Y-119881216D01*
X221906172Y-119932567D01*
X221906177Y-119932572D01*
X221920264Y-119949737D01*
X221937429Y-119963824D01*
X226736176Y-124762572D01*
X226750263Y-124779737D01*
X226767428Y-124793824D01*
X226767432Y-124793828D01*
X226818783Y-124835971D01*
X226837492Y-124845971D01*
X226896959Y-124877757D01*
X226981785Y-124903489D01*
X227047895Y-124910000D01*
X227047906Y-124910000D01*
X227070000Y-124912176D01*
X227092094Y-124910000D01*
X227792115Y-124910000D01*
X227796274Y-124916224D01*
X227893776Y-125013726D01*
X228008426Y-125090332D01*
X228135818Y-125143099D01*
X228271056Y-125170000D01*
X228408944Y-125170000D01*
X228544182Y-125143099D01*
X228671574Y-125090332D01*
X228786224Y-125013726D01*
X228883726Y-124916224D01*
X228960332Y-124801574D01*
X229013099Y-124674182D01*
X229040000Y-124538944D01*
X229040000Y-124401056D01*
X229013099Y-124265818D01*
X228960332Y-124138426D01*
X228883726Y-124023776D01*
X228786224Y-123926274D01*
X228671574Y-123849668D01*
X228544182Y-123796901D01*
X228408944Y-123770000D01*
X228271056Y-123770000D01*
X228135818Y-123796901D01*
X228008426Y-123849668D01*
X227893776Y-123926274D01*
X227810050Y-124010000D01*
X227256396Y-124010000D01*
X227026224Y-123779828D01*
X227121575Y-123740333D01*
X227236225Y-123663727D01*
X227333727Y-123566225D01*
X227410333Y-123451575D01*
X227463100Y-123324183D01*
X227490001Y-123188945D01*
X227490001Y-123051057D01*
X227463100Y-122915819D01*
X227410333Y-122788427D01*
X227333727Y-122673777D01*
X227240001Y-122580051D01*
X227240001Y-115989686D01*
X227284648Y-116024312D01*
X227505098Y-116108068D01*
X227650000Y-116054356D01*
X227650000Y-115080000D01*
X227950000Y-115080000D01*
X227950000Y-116054356D01*
X228094902Y-116108068D01*
X228315352Y-116024312D01*
X228465289Y-115908029D01*
X228589660Y-115764729D01*
X228683685Y-115599919D01*
X228743750Y-115419932D01*
X228767547Y-115231686D01*
X228672310Y-115080000D01*
X227950000Y-115080000D01*
X227650000Y-115080000D01*
X227630000Y-115080000D01*
X227630000Y-114780000D01*
X227650000Y-114780000D01*
X227650000Y-113805644D01*
X227950000Y-113805644D01*
X227950000Y-114780000D01*
X228672310Y-114780000D01*
X228767547Y-114628314D01*
X228743750Y-114440068D01*
X228683685Y-114260081D01*
X228589660Y-114095271D01*
X228465289Y-113951971D01*
X228315352Y-113835688D01*
X228094902Y-113751932D01*
X227950000Y-113805644D01*
X227650000Y-113805644D01*
X227505098Y-113751932D01*
X227284648Y-113835688D01*
X227240001Y-113870314D01*
X227240001Y-100212095D01*
X227242177Y-100190001D01*
X227240001Y-100167907D01*
X227240001Y-100167896D01*
X227233490Y-100101786D01*
X227207758Y-100016960D01*
X227205033Y-100011862D01*
X227165972Y-99938784D01*
X227123829Y-99887433D01*
X227123825Y-99887429D01*
X227109738Y-99870264D01*
X227092573Y-99856177D01*
X225744507Y-98508112D01*
X225811574Y-98480332D01*
X225926224Y-98403726D01*
X226023726Y-98306224D01*
X226100332Y-98191574D01*
X226153099Y-98064182D01*
X226180000Y-97928944D01*
X226180000Y-97791056D01*
X226153099Y-97655818D01*
X226100332Y-97528426D01*
X226023726Y-97413776D01*
X225926224Y-97316274D01*
X225811574Y-97239668D01*
X225684182Y-97186901D01*
X225548944Y-97160000D01*
X225411056Y-97160000D01*
X225275818Y-97186901D01*
X225148426Y-97239668D01*
X225033776Y-97316274D01*
X224936274Y-97413776D01*
X224859668Y-97528426D01*
X224806901Y-97655818D01*
X224780000Y-97791056D01*
X224780000Y-97928944D01*
X224781070Y-97934321D01*
X224770417Y-97954251D01*
X224742243Y-98006960D01*
X224716511Y-98091786D01*
X224710000Y-98157896D01*
X224710000Y-98157906D01*
X224707824Y-98180000D01*
X224710000Y-98202094D01*
X224710000Y-98537906D01*
X224707824Y-98560000D01*
X224710000Y-98582094D01*
X224710000Y-98582105D01*
X224716511Y-98648215D01*
X224720920Y-98662748D01*
X224742243Y-98733040D01*
X224778302Y-98800502D01*
X224695808Y-98816911D01*
X224568416Y-98869678D01*
X224453766Y-98946284D01*
X224356264Y-99043786D01*
X224279658Y-99158436D01*
X224226891Y-99285828D01*
X224199990Y-99421066D01*
X224199990Y-99558954D01*
X224226891Y-99694192D01*
X224279658Y-99821584D01*
X224356264Y-99936234D01*
X224449990Y-100029960D01*
X224449990Y-100097916D01*
X224447814Y-100120010D01*
X224449990Y-100142104D01*
X224449990Y-100142114D01*
X224449991Y-100142124D01*
X224449990Y-113843075D01*
X224361032Y-113795526D01*
X224257584Y-113764145D01*
X224150001Y-113753549D01*
X223449999Y-113753549D01*
X223342416Y-113764145D01*
X223238968Y-113795526D01*
X223143630Y-113846485D01*
X223060065Y-113915065D01*
X222991485Y-113998630D01*
X222940526Y-114093968D01*
X222909145Y-114197416D01*
X222898549Y-114304999D01*
X222898549Y-115555001D01*
X222909145Y-115662584D01*
X222940526Y-115766032D01*
X222991485Y-115861370D01*
X223060065Y-115944935D01*
X223143630Y-116013515D01*
X223238968Y-116064474D01*
X223342416Y-116095855D01*
X223449999Y-116106451D01*
X224150001Y-116106451D01*
X224257584Y-116095855D01*
X224361032Y-116064474D01*
X224449990Y-116016925D01*
X224449990Y-120057896D01*
X224447814Y-120079990D01*
X224449990Y-120102084D01*
X224449990Y-120102094D01*
X224456501Y-120168204D01*
X224475924Y-120232233D01*
X224482233Y-120253030D01*
X224524019Y-120331206D01*
X224557096Y-120371510D01*
X224580253Y-120399727D01*
X224597424Y-120413819D01*
X225300000Y-121116396D01*
X225300000Y-121248944D01*
X225326901Y-121384182D01*
X225379668Y-121511574D01*
X225456274Y-121626224D01*
X225553776Y-121723726D01*
X225668426Y-121800332D01*
X225795818Y-121853099D01*
X225931056Y-121880000D01*
X226068944Y-121880000D01*
X226204182Y-121853099D01*
X226331574Y-121800332D01*
X226340001Y-121794701D01*
X226340001Y-122580051D01*
X226246275Y-122673777D01*
X226169669Y-122788427D01*
X226130174Y-122883778D01*
X222690000Y-119443605D01*
X222690000Y-109156602D01*
X222697584Y-109155855D01*
X222801032Y-109124474D01*
X222896370Y-109073515D01*
X222979935Y-109004935D01*
X223048515Y-108921370D01*
X223099474Y-108826032D01*
X223130855Y-108722584D01*
X223141451Y-108615001D01*
X223141451Y-107364999D01*
X223130855Y-107257416D01*
X223099474Y-107153968D01*
X223048515Y-107058630D01*
X222979935Y-106975065D01*
X222896370Y-106906485D01*
X222801032Y-106855526D01*
X222697584Y-106824145D01*
X222590001Y-106813549D01*
X221889999Y-106813549D01*
X221782416Y-106824145D01*
X221680000Y-106855213D01*
X221680000Y-106108096D01*
X221682176Y-106086002D01*
X221680000Y-106063908D01*
X221680000Y-106063897D01*
X221673489Y-105997787D01*
X221659999Y-105953317D01*
X221659999Y-104578274D01*
X221759554Y-104558471D01*
X221886946Y-104505704D01*
X222001596Y-104429098D01*
X222099098Y-104331596D01*
X222175704Y-104216946D01*
X222228471Y-104089554D01*
X222255372Y-103954316D01*
X222255372Y-103816428D01*
X222228471Y-103681190D01*
X222175704Y-103553798D01*
X222099098Y-103439148D01*
X222001596Y-103341646D01*
X221886946Y-103265040D01*
X221759554Y-103212273D01*
X221624316Y-103185372D01*
X221486428Y-103185372D01*
X221351190Y-103212273D01*
X221223798Y-103265040D01*
X221109148Y-103341646D01*
X221011646Y-103439148D01*
X220935040Y-103553798D01*
X220882273Y-103681190D01*
X220855372Y-103816428D01*
X220855372Y-103953521D01*
X220834028Y-103979529D01*
X220792242Y-104057705D01*
X220772905Y-104121451D01*
X220766511Y-104142530D01*
X220764591Y-104162030D01*
X220757823Y-104230745D01*
X220760000Y-104252849D01*
X220759999Y-106043906D01*
X220757823Y-106066001D01*
X220759999Y-106088095D01*
X220759999Y-106088105D01*
X220766510Y-106154215D01*
X220780001Y-106198688D01*
X220780001Y-106914804D01*
X220755352Y-106895688D01*
X220534902Y-106811932D01*
X220390000Y-106865644D01*
X220090000Y-106865644D01*
X219945098Y-106811932D01*
X219724648Y-106895688D01*
X219574711Y-107011971D01*
X219450340Y-107155271D01*
X219356315Y-107320081D01*
X219296250Y-107500068D01*
X219272453Y-107688314D01*
X215732397Y-107688314D01*
X221846396Y-101574315D01*
X221978944Y-101574315D01*
X222114182Y-101547414D01*
X222241574Y-101494647D01*
X222356224Y-101418041D01*
X222453726Y-101320539D01*
X222530332Y-101205889D01*
X222583099Y-101078497D01*
X222610000Y-100943259D01*
X222610000Y-100805371D01*
X222583099Y-100670133D01*
X222530332Y-100542741D01*
X222453726Y-100428091D01*
X222356224Y-100330589D01*
X222241574Y-100253983D01*
X222114182Y-100201216D01*
X221978944Y-100174315D01*
X221841056Y-100174315D01*
X221705818Y-100201216D01*
X221578426Y-100253983D01*
X221463776Y-100330589D01*
X221366274Y-100428091D01*
X221289668Y-100542741D01*
X221236901Y-100670133D01*
X221210000Y-100805371D01*
X221210000Y-100937919D01*
X210077429Y-112070491D01*
X210060264Y-112084578D01*
X210046177Y-112101743D01*
X210046172Y-112101748D01*
X210004029Y-112153099D01*
X209962243Y-112231275D01*
X209936512Y-112316100D01*
X209927824Y-112404315D01*
X208852050Y-112404315D01*
X209185016Y-112210913D01*
X209202066Y-112199326D01*
X209219462Y-112188286D01*
X209228827Y-112181139D01*
X210116260Y-111481543D01*
X210131506Y-111467670D01*
X210147174Y-111454288D01*
X210155439Y-111445893D01*
X210935445Y-110628236D01*
X210948580Y-110612358D01*
X210962210Y-110596898D01*
X210969209Y-110587422D01*
X211626224Y-109668019D01*
X211636993Y-109650446D01*
X211648307Y-109633222D01*
X211653896Y-109622862D01*
X211653901Y-109622855D01*
X211653904Y-109622849D01*
X212174817Y-108620049D01*
X212183003Y-108601131D01*
X212191777Y-108582487D01*
X212195854Y-108571435D01*
X212570276Y-107505236D01*
X212575714Y-107485357D01*
X212581774Y-107465660D01*
X212584249Y-107454160D01*
X212584254Y-107454143D01*
X212584256Y-107454129D01*
X212804712Y-106345826D01*
X212807295Y-106325379D01*
X212810519Y-106305023D01*
X212811351Y-106293272D01*
X212873446Y-105164947D01*
X212873122Y-105144341D01*
X212873446Y-105123735D01*
X212872614Y-105111984D01*
X212775108Y-103986167D01*
X212771884Y-103965808D01*
X212769301Y-103945365D01*
X212766822Y-103933848D01*
X212511659Y-102833001D01*
X212505597Y-102813296D01*
X212500161Y-102793425D01*
X212496089Y-102782389D01*
X212496084Y-102782373D01*
X212496078Y-102782361D01*
X212088356Y-101728462D01*
X212079577Y-101709806D01*
X212071396Y-101690901D01*
X212065802Y-101680533D01*
X211513645Y-100694584D01*
X211502331Y-100677360D01*
X211491562Y-100659787D01*
X211484563Y-100650311D01*
X210798993Y-99751999D01*
X210785364Y-99736540D01*
X210772228Y-99720661D01*
X210763964Y-99712266D01*
X210646604Y-99596735D01*
X213750000Y-99596735D01*
X213750000Y-99823265D01*
X213794194Y-100045443D01*
X213880884Y-100254729D01*
X214006737Y-100443082D01*
X214166918Y-100603263D01*
X214355271Y-100729116D01*
X214564557Y-100815806D01*
X214786735Y-100860000D01*
X215013265Y-100860000D01*
X215235443Y-100815806D01*
X215444729Y-100729116D01*
X215633082Y-100603263D01*
X215793263Y-100443082D01*
X215919116Y-100254729D01*
X216005806Y-100045443D01*
X216050000Y-99823265D01*
X216050000Y-99596735D01*
X216005806Y-99374557D01*
X215919116Y-99165271D01*
X215793263Y-98976918D01*
X215633082Y-98816737D01*
X215444729Y-98690884D01*
X215235443Y-98604194D01*
X215013265Y-98560000D01*
X214786735Y-98560000D01*
X214564557Y-98604194D01*
X214355271Y-98690884D01*
X214166918Y-98816737D01*
X214006737Y-98976918D01*
X213880884Y-99165271D01*
X213794194Y-99374557D01*
X213750000Y-99596735D01*
X210646604Y-99596735D01*
X209958658Y-98919512D01*
X209942986Y-98906127D01*
X209927744Y-98892258D01*
X209918379Y-98885111D01*
X209009409Y-98213736D01*
X208992010Y-98202694D01*
X208974963Y-98191109D01*
X208964685Y-98185353D01*
X207970186Y-97648750D01*
X207951397Y-97640266D01*
X207932896Y-97631203D01*
X207921909Y-97626952D01*
X206861723Y-97235829D01*
X206841925Y-97230077D01*
X206822332Y-97223711D01*
X206810856Y-97221051D01*
X205706137Y-96983211D01*
X205685728Y-96980306D01*
X205665432Y-96976764D01*
X205653695Y-96975747D01*
X204875000Y-96920612D01*
X204875000Y-79744403D01*
X205987528Y-79744403D01*
X206074911Y-79962814D01*
X206203225Y-80159980D01*
X206367539Y-80328325D01*
X206561538Y-80461379D01*
X206777767Y-80554029D01*
X206805598Y-80562465D01*
X206990000Y-80512341D01*
X206990000Y-79560000D01*
X207290000Y-79560000D01*
X207290000Y-80512341D01*
X207474402Y-80562465D01*
X207502233Y-80554029D01*
X207718462Y-80461379D01*
X207912461Y-80328325D01*
X208076775Y-80159980D01*
X208205089Y-79962814D01*
X208292472Y-79744403D01*
X208243095Y-79560000D01*
X207290000Y-79560000D01*
X206990000Y-79560000D01*
X206036905Y-79560000D01*
X205987528Y-79744403D01*
X204875000Y-79744403D01*
X204875000Y-79296735D01*
X208530000Y-79296735D01*
X208530000Y-79523265D01*
X208574194Y-79745443D01*
X208660884Y-79954729D01*
X208786737Y-80143082D01*
X208946918Y-80303263D01*
X209135271Y-80429116D01*
X209344557Y-80515806D01*
X209566735Y-80560000D01*
X209793265Y-80560000D01*
X210015443Y-80515806D01*
X210224729Y-80429116D01*
X210413082Y-80303263D01*
X210573263Y-80143082D01*
X210699116Y-79954729D01*
X210785806Y-79745443D01*
X210830000Y-79523265D01*
X210830000Y-79296735D01*
X211070000Y-79296735D01*
X211070000Y-79523265D01*
X211114194Y-79745443D01*
X211200884Y-79954729D01*
X211326737Y-80143082D01*
X211486918Y-80303263D01*
X211675271Y-80429116D01*
X211884557Y-80515806D01*
X212106735Y-80560000D01*
X212333265Y-80560000D01*
X212549226Y-80517043D01*
X225770571Y-93738389D01*
X220223960Y-99285000D01*
X218591451Y-99285000D01*
X218591451Y-98860000D01*
X218585659Y-98801190D01*
X218568504Y-98744640D01*
X218540647Y-98692523D01*
X218503158Y-98646842D01*
X218457477Y-98609353D01*
X218405360Y-98581496D01*
X218348810Y-98564341D01*
X218290000Y-98558549D01*
X216590000Y-98558549D01*
X216531190Y-98564341D01*
X216474640Y-98581496D01*
X216422523Y-98609353D01*
X216376842Y-98646842D01*
X216339353Y-98692523D01*
X216311496Y-98744640D01*
X216294341Y-98801190D01*
X216288549Y-98860000D01*
X216288549Y-100560000D01*
X216294341Y-100618810D01*
X216311496Y-100675360D01*
X216339353Y-100727477D01*
X216376842Y-100773158D01*
X216422523Y-100810647D01*
X216474640Y-100838504D01*
X216531190Y-100855659D01*
X216590000Y-100861451D01*
X218290000Y-100861451D01*
X218348810Y-100855659D01*
X218405360Y-100838504D01*
X218457477Y-100810647D01*
X218503158Y-100773158D01*
X218540647Y-100727477D01*
X218568504Y-100675360D01*
X218585659Y-100618810D01*
X218591451Y-100560000D01*
X218591451Y-100135000D01*
X220379133Y-100135000D01*
X220400000Y-100137055D01*
X220420867Y-100135000D01*
X220420874Y-100135000D01*
X220483314Y-100128850D01*
X220563427Y-100104548D01*
X220637260Y-100065084D01*
X220701974Y-100011974D01*
X220715284Y-99995756D01*
X226511041Y-94200000D01*
X227813166Y-94200000D01*
X227918426Y-94270332D01*
X228045818Y-94323099D01*
X228181056Y-94350000D01*
X228318944Y-94350000D01*
X228454182Y-94323099D01*
X228581574Y-94270332D01*
X228696224Y-94193726D01*
X228793726Y-94096224D01*
X228870332Y-93981574D01*
X228923099Y-93854182D01*
X228950000Y-93718944D01*
X228950000Y-93581056D01*
X228923099Y-93445818D01*
X228870332Y-93318426D01*
X228793726Y-93203776D01*
X228696224Y-93106274D01*
X228581574Y-93029668D01*
X228454182Y-92976901D01*
X228318944Y-92950000D01*
X228181056Y-92950000D01*
X228045818Y-92976901D01*
X227918426Y-93029668D01*
X227813166Y-93100000D01*
X226687818Y-93100000D01*
X213327043Y-79739226D01*
X213370000Y-79523265D01*
X213370000Y-79296735D01*
X213610000Y-79296735D01*
X213610000Y-79523265D01*
X213654194Y-79745443D01*
X213740884Y-79954729D01*
X213866737Y-80143082D01*
X214026918Y-80303263D01*
X214215271Y-80429116D01*
X214424557Y-80515806D01*
X214646735Y-80560000D01*
X214873265Y-80560000D01*
X215095443Y-80515806D01*
X215304729Y-80429116D01*
X215493082Y-80303263D01*
X215653263Y-80143082D01*
X215779116Y-79954729D01*
X215865806Y-79745443D01*
X215910000Y-79523265D01*
X215910000Y-79296735D01*
X216150000Y-79296735D01*
X216150000Y-79523265D01*
X216194194Y-79745443D01*
X216280884Y-79954729D01*
X216406737Y-80143082D01*
X216566918Y-80303263D01*
X216755271Y-80429116D01*
X216964557Y-80515806D01*
X217186735Y-80560000D01*
X217413265Y-80560000D01*
X217635443Y-80515806D01*
X217844729Y-80429116D01*
X218033082Y-80303263D01*
X218193263Y-80143082D01*
X218319116Y-79954729D01*
X218405806Y-79745443D01*
X218450000Y-79523265D01*
X218450000Y-79296735D01*
X218690000Y-79296735D01*
X218690000Y-79523265D01*
X218734194Y-79745443D01*
X218820884Y-79954729D01*
X218946737Y-80143082D01*
X219106918Y-80303263D01*
X219295271Y-80429116D01*
X219504557Y-80515806D01*
X219726735Y-80560000D01*
X219953265Y-80560000D01*
X220175443Y-80515806D01*
X220384729Y-80429116D01*
X220573082Y-80303263D01*
X220733263Y-80143082D01*
X220859116Y-79954729D01*
X220945806Y-79745443D01*
X220990000Y-79523265D01*
X220990000Y-79296735D01*
X221230000Y-79296735D01*
X221230000Y-79523265D01*
X221274194Y-79745443D01*
X221360884Y-79954729D01*
X221486737Y-80143082D01*
X221646918Y-80303263D01*
X221835271Y-80429116D01*
X222044557Y-80515806D01*
X222266735Y-80560000D01*
X222493265Y-80560000D01*
X222715443Y-80515806D01*
X222924729Y-80429116D01*
X223113082Y-80303263D01*
X223273263Y-80143082D01*
X223399116Y-79954729D01*
X223485806Y-79745443D01*
X223530000Y-79523265D01*
X223530000Y-79296735D01*
X223485806Y-79074557D01*
X223399116Y-78865271D01*
X223273263Y-78676918D01*
X223156345Y-78560000D01*
X223768549Y-78560000D01*
X223768549Y-80260000D01*
X223774341Y-80318810D01*
X223791496Y-80375360D01*
X223819353Y-80427477D01*
X223856842Y-80473158D01*
X223902523Y-80510647D01*
X223954640Y-80538504D01*
X224011190Y-80555659D01*
X224070000Y-80561451D01*
X225770000Y-80561451D01*
X225828810Y-80555659D01*
X225885360Y-80538504D01*
X225937477Y-80510647D01*
X225983158Y-80473158D01*
X226020647Y-80427477D01*
X226048504Y-80375360D01*
X226065659Y-80318810D01*
X226071451Y-80260000D01*
X226071451Y-78560000D01*
X226065659Y-78501190D01*
X226048504Y-78444640D01*
X226020647Y-78392523D01*
X225983158Y-78346842D01*
X225937477Y-78309353D01*
X225885360Y-78281496D01*
X225828810Y-78264341D01*
X225770000Y-78258549D01*
X224070000Y-78258549D01*
X224011190Y-78264341D01*
X223954640Y-78281496D01*
X223902523Y-78309353D01*
X223856842Y-78346842D01*
X223819353Y-78392523D01*
X223791496Y-78444640D01*
X223774341Y-78501190D01*
X223768549Y-78560000D01*
X223156345Y-78560000D01*
X223113082Y-78516737D01*
X222924729Y-78390884D01*
X222715443Y-78304194D01*
X222493265Y-78260000D01*
X222266735Y-78260000D01*
X222044557Y-78304194D01*
X221835271Y-78390884D01*
X221646918Y-78516737D01*
X221486737Y-78676918D01*
X221360884Y-78865271D01*
X221274194Y-79074557D01*
X221230000Y-79296735D01*
X220990000Y-79296735D01*
X220945806Y-79074557D01*
X220859116Y-78865271D01*
X220733263Y-78676918D01*
X220573082Y-78516737D01*
X220384729Y-78390884D01*
X220175443Y-78304194D01*
X219953265Y-78260000D01*
X219726735Y-78260000D01*
X219504557Y-78304194D01*
X219295271Y-78390884D01*
X219106918Y-78516737D01*
X218946737Y-78676918D01*
X218820884Y-78865271D01*
X218734194Y-79074557D01*
X218690000Y-79296735D01*
X218450000Y-79296735D01*
X218405806Y-79074557D01*
X218319116Y-78865271D01*
X218193263Y-78676918D01*
X218033082Y-78516737D01*
X217844729Y-78390884D01*
X217635443Y-78304194D01*
X217413265Y-78260000D01*
X217186735Y-78260000D01*
X216964557Y-78304194D01*
X216755271Y-78390884D01*
X216566918Y-78516737D01*
X216406737Y-78676918D01*
X216280884Y-78865271D01*
X216194194Y-79074557D01*
X216150000Y-79296735D01*
X215910000Y-79296735D01*
X215865806Y-79074557D01*
X215779116Y-78865271D01*
X215653263Y-78676918D01*
X215493082Y-78516737D01*
X215304729Y-78390884D01*
X215095443Y-78304194D01*
X214873265Y-78260000D01*
X214646735Y-78260000D01*
X214424557Y-78304194D01*
X214215271Y-78390884D01*
X214026918Y-78516737D01*
X213866737Y-78676918D01*
X213740884Y-78865271D01*
X213654194Y-79074557D01*
X213610000Y-79296735D01*
X213370000Y-79296735D01*
X213325806Y-79074557D01*
X213239116Y-78865271D01*
X213113263Y-78676918D01*
X212953082Y-78516737D01*
X212764729Y-78390884D01*
X212555443Y-78304194D01*
X212333265Y-78260000D01*
X212106735Y-78260000D01*
X211884557Y-78304194D01*
X211675271Y-78390884D01*
X211486918Y-78516737D01*
X211326737Y-78676918D01*
X211200884Y-78865271D01*
X211114194Y-79074557D01*
X211070000Y-79296735D01*
X210830000Y-79296735D01*
X210785806Y-79074557D01*
X210699116Y-78865271D01*
X210573263Y-78676918D01*
X210413082Y-78516737D01*
X210224729Y-78390884D01*
X210015443Y-78304194D01*
X209793265Y-78260000D01*
X209566735Y-78260000D01*
X209344557Y-78304194D01*
X209135271Y-78390884D01*
X208946918Y-78516737D01*
X208786737Y-78676918D01*
X208660884Y-78865271D01*
X208574194Y-79074557D01*
X208530000Y-79296735D01*
X204875000Y-79296735D01*
X204875000Y-79075597D01*
X205987528Y-79075597D01*
X206036905Y-79260000D01*
X206990000Y-79260000D01*
X206990000Y-78307659D01*
X207290000Y-78307659D01*
X207290000Y-79260000D01*
X208243095Y-79260000D01*
X208292472Y-79075597D01*
X208205089Y-78857186D01*
X208076775Y-78660020D01*
X207912461Y-78491675D01*
X207718462Y-78358621D01*
X207502233Y-78265971D01*
X207474402Y-78257535D01*
X207290000Y-78307659D01*
X206990000Y-78307659D01*
X206805598Y-78257535D01*
X206777767Y-78265971D01*
X206561538Y-78358621D01*
X206367539Y-78491675D01*
X206203225Y-78660020D01*
X206074911Y-78857186D01*
X205987528Y-79075597D01*
X204875000Y-79075597D01*
X204875000Y-76675000D01*
X255783838Y-76675000D01*
X255748426Y-76689668D01*
G36*
X226340002Y-100376398D02*
G01*
X226340001Y-113933890D01*
X226302431Y-113903057D01*
X226146080Y-113819486D01*
X225976430Y-113768023D01*
X225800000Y-113750646D01*
X225623569Y-113768023D01*
X225453919Y-113819486D01*
X225349990Y-113875037D01*
X225349990Y-100142197D01*
X225352176Y-100120001D01*
X225349990Y-100097805D01*
X225349990Y-100029960D01*
X225443716Y-99936234D01*
X225520322Y-99821584D01*
X225573089Y-99694192D01*
X225587143Y-99623539D01*
X226340002Y-100376398D01*
G37*
X226340002Y-100376398D02*
X226340001Y-113933890D01*
X226302431Y-113903057D01*
X226146080Y-113819486D01*
X225976430Y-113768023D01*
X225800000Y-113750646D01*
X225623569Y-113768023D01*
X225453919Y-113819486D01*
X225349990Y-113875037D01*
X225349990Y-100142197D01*
X225352176Y-100120001D01*
X225349990Y-100097805D01*
X225349990Y-100029960D01*
X225443716Y-99936234D01*
X225520322Y-99821584D01*
X225573089Y-99694192D01*
X225587143Y-99623539D01*
X226340002Y-100376398D01*
M02*
