M48
; DRILL file {KiCad 5.1.6} date Mon Sep  7 17:13:13 2020
; FORMAT={-:-/ absolute / inch / decimal}
; #@! TF.CreationDate,2020-09-07T17:13:13+08:00
; #@! TF.GenerationSoftware,Kicad,Pcbnew,5.1.6
; #@! TF.FileFunction,Plated,1,2,PTH
FMAT,2
INCH
T1C0.0118
T2C0.0157
T3C0.0295
T4C0.0315
T5C0.0394
T6C0.0469
%
G90
G05
T1
X10.0606Y-5.4661
T2
X8.1583Y-3.6551
X8.1933Y-4.8622
X8.1933Y-4.9174
X8.1933Y-4.9726
X8.1933Y-5.0279
X8.1933Y-5.0831
X8.1957Y-4.452
X8.1957Y-4.5504
X8.1957Y-4.6504
X8.1957Y-4.7756
X8.1957Y-5.1677
X8.252Y-4.4917
X8.2587Y-4.7992
X8.2587Y-4.8558
X8.2587Y-4.9125
X8.2587Y-4.9691
X8.2587Y-5.0257
X8.2587Y-5.0823
X8.2587Y-5.139
X8.3268Y-5.1508
X8.3316Y-4.6725
X8.3488Y-3.2425
X8.3858Y-4.3717
X8.4504Y-4.6504
X8.4913Y-4.2799
X8.5512Y-4.3717
X8.5673Y-4.8421
X8.589Y-4.1618
X8.6366Y-4.9465
X8.6386Y-4.7819
X8.6386Y-5.152
X8.6411Y-4.6504
X8.678Y-4.3713
X8.6969Y-3.2484
X8.7098Y-4.8327
X8.7102Y-3.7035
X8.7227Y-4.09
X8.7366Y-3.9714
X8.7366Y-4.1626
X8.826Y-4.6524
X8.8311Y-5.152
X8.8335Y-4.9713
X8.8524Y-4.7669
X8.8543Y-3.9169
X8.8772Y-3.8528
X8.8819Y-4.3717
X8.8866Y-4.1622
X8.8976Y-4.7709
X8.9287Y-4.8472
X8.9862Y-3.687
X8.9882Y-3.3799
X8.9898Y-4.9004
X9.0181Y-3.9197
X9.0224Y-4.6504
X9.0335Y-3.85
X9.0453Y-4.2654
X9.0472Y-4.3717
X9.0472Y-4.5089
X9.1024Y-4.9126
X9.1185Y-4.29
X9.1205Y-3.524
X9.1311Y-3.9445
X9.1413Y-5.1614
X9.161Y-3.8709
X9.1743Y-4.0945
X9.1756Y-4.3398
X9.1787Y-4.2461
X9.1917Y-3.4941
X9.2047Y-4.8413
X9.2067Y-4.3673
X9.2157Y-3.7551
X9.2354Y-3.8744
X9.2382Y-3.1547
X9.2445Y-3.0299
X9.2602Y-3.4644
X9.2673Y-3.3213
X9.2752Y-3.6862
X9.2972Y-4.0295
X9.3169Y-3.6315
X9.3232Y-3.1272
X9.3394Y-3.7115
X9.3461Y-3.435
X9.3528Y-3.8319
X9.3547Y-4.8594
X9.3673Y-3.6469
X9.3697Y-4.563
X9.3756Y-4.0701
X9.3827Y-3.5508
X9.3916Y-3.0299
X9.3965Y-3.3516
X9.4472Y-3.4051
X9.4685Y-4.1343
X9.4931Y-3.5508
X9.4984Y-5.161
X9.5094Y-3.378
X9.5388Y-3.0299
X9.5736Y-3.1398
X9.6008Y-4.1343
X9.6035Y-3.5508
X9.6035Y-4.2063
X9.6138Y-3.3728
X9.6236Y-3.1398
X9.6378Y-3.6154
X9.6378Y-3.7346
X9.6378Y-3.8539
X9.6378Y-3.9732
X9.6378Y-4.0925
X9.6476Y-4.2602
X9.6559Y-4.3421
X9.6602Y-3.5642
X9.6736Y-3.1398
X9.6859Y-3.0299
X9.7547Y-3.3362
X9.7858Y-3.0717
X9.8059Y-4.7744
X9.8087Y-4.3382
X9.8331Y-3.0299
X9.8528Y-3.3331
X9.8591Y-3.2886
X9.8622Y-3.2323
X9.863Y-3.1382
X9.863Y-3.9906
X9.863Y-4.3154
X9.8799Y-5.6008
X9.8929Y-6.2008
X9.8965Y-6.0874
X9.9035Y-5.8311
X9.9059Y-5.9642
X9.9071Y-5.1618
X9.9289Y-5.7254
X9.9504Y-5.7638
X9.9504Y-6.1287
X9.9547Y-5.3087
X9.963Y-5.6004
X9.9823Y-5.8504
X9.9957Y-3.8563
X10.0165Y-4.5461
X10.0244Y-6.0646
X10.0339Y-4.6583
X10.0358Y-4.474
X10.0445Y-3.1209
X10.065Y-3.3146
X10.0811Y-3.224
X10.0819Y-3.0437
X10.083Y-3.1838
X10.0843Y-3.1382
X10.0929Y-5.4146
X10.1043Y-5.9724
X10.111Y-6.0598
X10.1118Y-5.774
X10.1118Y-5.9264
X10.1299Y-5.5031
X10.1343Y-6.2008
X10.1374Y-5.4433
X10.1516Y-5.3122
T3
X8.4484Y-4.5248
X8.5272Y-4.5248
X8.6059Y-4.5248
X8.811Y-4.5248
X8.8898Y-4.5248
X8.9685Y-4.5248
X8.6709Y-4.2516
X8.7496Y-4.2516
T4
X9.6626Y-4.7157
X9.6626Y-5.1157
T5
X10.1051Y-3.665
X10.1051Y-3.765
X9.9118Y-5.35
X9.9118Y-5.45
X9.9118Y-5.55
X10.0118Y-5.35
X10.0118Y-5.45
X10.0118Y-5.55
X8.4606Y-3.9256
X8.5606Y-3.9256
X9.9862Y-4.7193
X9.9862Y-4.8193
X9.9862Y-4.9193
X10.0862Y-4.7193
X10.0862Y-4.8193
X10.0862Y-4.9193
X9.2681Y-4.3535
X9.2681Y-4.4535
X9.3681Y-4.3535
X9.3681Y-4.4535
X9.4681Y-4.3535
X9.4681Y-4.4535
X9.5681Y-4.3535
X9.5681Y-4.4535
X8.1551Y-3.1264
X8.2551Y-3.1264
X8.3551Y-3.1264
X8.4551Y-3.1264
X8.5551Y-3.1264
X8.6551Y-3.1264
X8.7551Y-3.1264
X8.8551Y-3.1264
T6
X9.311Y-4.7618
X9.411Y-4.7618
X9.511Y-4.7618
T0
M30
