<?xml version="1.0" encoding="UTF-8" standalone="no"?>
<svg
   width="24"
   height="24"
   viewBox="0 0 24 24"
   version="1.1"
   id="svg4"
   xmlns="http://www.w3.org/2000/svg"
   xmlns:svg="http://www.w3.org/2000/svg"
   xmlns:rdf="http://www.w3.org/1999/02/22-rdf-syntax-ns#"
   xmlns:cc="http://creativecommons.org/ns#"
   xmlns:dc="http://purl.org/dc/elements/1.1/">
  <metadata
     id="metadata10">
    <rdf:RDF>
      <cc:Work
         rdf:about="">
        <dc:format>image/svg+xml</dc:format>
        <dc:type
           rdf:resource="http://purl.org/dc/dcmitype/StillImage" />
      </cc:Work>
    </rdf:RDF>
  </metadata>
  <defs
     id="defs8" />
  <rect
     style="fill:#000000;stroke:#000000;stroke-width:8.93857;stroke-linecap:round"
     id="rect860"
     width="80.185173"
     height="145.79597"
     x="-24.698606"
     y="-17.250736"
     rx="0"
     ry="0" />
  <path
     d="M7 12l-2-2-2 2 2 2 2-2zm10.71-4.29L12 2h-1v7.59L6.41 5 5 6.41 10.59 12 5 17.59 6.41 19 11 14.41V22h1l5.71-5.71-4.3-4.29 4.3-4.29zM13 5.83l1.88 1.88L13 9.59V5.83zm1.88 10.46L13 18.17v-3.76l1.88 1.88zM19 10l-2 2 2 2 2-2-2-2z"
     id="path2"
     style="fill:#ffffff" />
  <path
     id="path842"
     d="m 15.273594,41.15237 5.970904,6.046123"
     style="fill:#cccccc;stroke:#cccccc;stroke-width:2;stroke-linecap:butt;stroke-linejoin:miter;stroke-miterlimit:4;stroke-dasharray:none;stroke-opacity:1" />
  <path
     style="fill:#cccccc;stroke:#cccccc;stroke-width:2;stroke-linecap:butt;stroke-linejoin:miter;stroke-miterlimit:4;stroke-dasharray:none;stroke-opacity:1"
     d="M 15.582236,66.058993 21.55314,60.01287"
     id="path844" />
  <rect
     transform="rotate(40.563095)"
     ry="0"
     rx="0"
     y="22.834702"
     x="52.121281"
     height="2.9955792"
     width="2.9425457"
     id="rect846"
     style="fill:#cccccc;stroke:none;stroke-width:2;stroke-linecap:round;stroke-miterlimit:4;stroke-dasharray:none" />
  <rect
     style="fill:#cccccc;stroke:none;stroke-width:2;stroke-linecap:round;stroke-miterlimit:4;stroke-dasharray:none"
     id="rect848"
     width="2.9425457"
     height="2.9955792"
     x="34.952236"
     y="37.842812"
     rx="0"
     ry="0"
     transform="rotate(40.563095)" />
  <path
     style="fill:#cccccc;stroke:#cccccc;stroke-width:2;stroke-linecap:butt;stroke-linejoin:miter;stroke-miterlimit:4;stroke-dasharray:none;stroke-opacity:1"
     d="m 3.2880779,41.15237 5.9709033,6.046123"
     id="path850" />
  <path
     id="path852"
     d="M 3.5967197,66.058993 9.5676222,60.01287"
     style="fill:#cccccc;stroke:#cccccc;stroke-width:2;stroke-linecap:butt;stroke-linejoin:miter;stroke-miterlimit:4;stroke-dasharray:none;stroke-opacity:1" />
  <path
     id="path854"
     d="M 15.582236,56.610173 21.55314,50.56405"
     style="fill:#cccccc;stroke:#cccccc;stroke-width:2;stroke-linecap:butt;stroke-linejoin:miter;stroke-miterlimit:4;stroke-dasharray:none;stroke-opacity:1" />
  <path
     style="fill:#cccccc;stroke:#cccccc;stroke-width:2;stroke-linecap:butt;stroke-linejoin:miter;stroke-miterlimit:4;stroke-dasharray:none;stroke-opacity:1"
     d="m 15.273594,50.60119 5.970904,6.046123"
     id="path856" />
  <path
     style="fill:#cccccc;stroke:#cccccc;stroke-width:2;stroke-linecap:butt;stroke-linejoin:miter;stroke-miterlimit:4;stroke-dasharray:none;stroke-opacity:1"
     d="M 11.05595,43.260435 10.900688,63.714988"
     id="path858" />
  <path
     style="fill:#4d4d4d;stroke:#4d4d4d;stroke-width:2;stroke-linecap:butt;stroke-linejoin:miter;stroke-miterlimit:4;stroke-dasharray:none;stroke-opacity:1"
     d="m 20.470505,78.380027 5.970904,6.046123"
     id="path862" />
  <path
     id="path864"
     d="m 20.779147,110.8457 5.970904,-6.04613"
     style="fill:#4d4d4d;stroke:#4d4d4d;stroke-width:2;stroke-linecap:butt;stroke-linejoin:miter;stroke-miterlimit:4;stroke-dasharray:none;stroke-opacity:1" />
  <rect
     style="fill:#4d4d4d;stroke:none;stroke-width:2;stroke-linecap:round;stroke-miterlimit:4;stroke-dasharray:none"
     id="rect866"
     width="2.9425457"
     height="2.9955792"
     x="82.703896"
     y="50.635197"
     rx="0"
     ry="0"
     transform="rotate(40.563095)" />
  <rect
     transform="rotate(40.563095)"
     ry="0"
     rx="0"
     y="71.519867"
     x="58.669579"
     height="2.9955792"
     width="2.9425457"
     id="rect868"
     style="fill:#4d4d4d;stroke:none;stroke-width:2;stroke-linecap:round;stroke-miterlimit:4;stroke-dasharray:none" />
  <path
     id="path870"
     d="M -2.5672476,78.380027 3.4036559,84.42615"
     style="fill:#4d4d4d;stroke:#4d4d4d;stroke-width:2;stroke-linecap:butt;stroke-linejoin:miter;stroke-miterlimit:4;stroke-dasharray:none;stroke-opacity:1" />
  <path
     style="fill:#4d4d4d;stroke:#4d4d4d;stroke-width:2;stroke-linecap:butt;stroke-linejoin:miter;stroke-miterlimit:4;stroke-dasharray:none;stroke-opacity:1"
     d="m -2.2586058,110.8457 5.9709027,-6.04613"
     id="path872" />
  <path
     style="fill:#4d4d4d;stroke:#4d4d4d;stroke-width:2;stroke-linecap:butt;stroke-linejoin:miter;stroke-miterlimit:4;stroke-dasharray:none;stroke-opacity:1"
     d="m 18.889383,101.39689 5.970904,-6.046127"
     id="path874" />
  <path
     id="path876"
     d="m 18.580741,87.828847 5.970904,6.046123"
     style="fill:#4d4d4d;stroke:#4d4d4d;stroke-width:2;stroke-linecap:butt;stroke-linejoin:miter;stroke-miterlimit:4;stroke-dasharray:none;stroke-opacity:1" />
  <path
     id="path878"
     d="M 7.090388,84.26762 6.935126,104.72217"
     style="fill:#4d4d4d;stroke:#4d4d4d;stroke-width:2;stroke-linecap:butt;stroke-linejoin:miter;stroke-miterlimit:4;stroke-dasharray:none;stroke-opacity:1" />
</svg>
