G04 #@! TF.GenerationSoftware,KiCad,Pcbnew,5.1.6*
G04 #@! TF.CreationDate,2020-09-07T17:15:36+08:00*
G04 #@! TF.ProjectId,bt_audio_rec,62745f61-7564-4696-9f5f-7265632e6b69,rev?*
G04 #@! TF.SameCoordinates,Original*
G04 #@! TF.FileFunction,Paste,Top*
G04 #@! TF.FilePolarity,Positive*
%FSLAX46Y46*%
G04 Gerber Fmt 4.6, Leading zero omitted, Abs format (unit mm)*
G04 Created by KiCad (PCBNEW 5.1.6) date 2020-09-07 17:15:36*
%MOMM*%
%LPD*%
G01*
G04 APERTURE LIST*
%ADD10R,0.800000X1.600000*%
%ADD11R,1.600000X0.800000*%
%ADD12C,1.000000*%
%ADD13R,0.440000X0.230000*%
%ADD14R,0.340000X0.230000*%
%ADD15R,1.200000X1.200000*%
%ADD16R,3.900000X1.600000*%
%ADD17R,1.200000X0.900000*%
%ADD18R,0.450000X0.700000*%
%ADD19R,0.700000X0.450000*%
%ADD20R,0.800000X0.900000*%
%ADD21R,0.650000X1.060000*%
%ADD22R,1.060000X0.650000*%
%ADD23R,0.800000X0.500000*%
%ADD24R,0.500000X0.350000*%
%ADD25R,2.000000X4.500000*%
G04 APERTURE END LIST*
D10*
X207990000Y-133060000D03*
X209190000Y-133060000D03*
X210390000Y-133060000D03*
X211590000Y-133060000D03*
X212790000Y-133060000D03*
X213990000Y-133060000D03*
X215190000Y-133060000D03*
X216390000Y-133060000D03*
X217590000Y-133060000D03*
X218790000Y-133060000D03*
X219990000Y-133060000D03*
X221190000Y-133060000D03*
X222390000Y-133060000D03*
X223590000Y-133060000D03*
X224790000Y-133060000D03*
X225990000Y-133060000D03*
X227190000Y-133060000D03*
D11*
X229190000Y-132210000D03*
X229190000Y-130510000D03*
X229190000Y-129310000D03*
X229190000Y-128110000D03*
X229190000Y-126910000D03*
X229190000Y-125710000D03*
X229190000Y-124510000D03*
X229190000Y-123310000D03*
X229190000Y-122110000D03*
X229190000Y-120410000D03*
D10*
X227190000Y-119560000D03*
X225990000Y-119560000D03*
X224790000Y-119560000D03*
X223590000Y-119560000D03*
X222390000Y-119560000D03*
X221190000Y-119560000D03*
X219990000Y-119560000D03*
X218790000Y-119560000D03*
X217590000Y-119560000D03*
X216390000Y-119560000D03*
X215190000Y-119560000D03*
X213990000Y-119560000D03*
X212790000Y-119560000D03*
X211590000Y-119560000D03*
X210390000Y-119560000D03*
X209190000Y-119560000D03*
X207990000Y-119560000D03*
D12*
X208690000Y-122810000D03*
X208690000Y-124210000D03*
X208690000Y-125610000D03*
X208690000Y-127010000D03*
X208690000Y-128410000D03*
X208690000Y-129810000D03*
D13*
X257105000Y-77310000D03*
D14*
X254345000Y-77610000D03*
D13*
X257105000Y-77910000D03*
D14*
X254345000Y-78210000D03*
D13*
X257105000Y-78510000D03*
D14*
X254345000Y-78810000D03*
D13*
X257105000Y-79110000D03*
D14*
X254345000Y-79410000D03*
D13*
X257105000Y-79710000D03*
D14*
X254345000Y-80010000D03*
D13*
X257105000Y-80310000D03*
D14*
X254345000Y-80610000D03*
D13*
X257105000Y-80910000D03*
D14*
X254345000Y-81210000D03*
D13*
X257105000Y-81510000D03*
D14*
X254345000Y-81810000D03*
D13*
X257105000Y-82110000D03*
D14*
X254345000Y-82410000D03*
D13*
X257105000Y-82710000D03*
D14*
X254345000Y-83010000D03*
D13*
X257105000Y-83310000D03*
D14*
X254345000Y-83610000D03*
D13*
X257105000Y-83910000D03*
D14*
X254345000Y-84210000D03*
D13*
X257105000Y-84510000D03*
D14*
X254345000Y-84810000D03*
D13*
X257105000Y-85110000D03*
D14*
X254345000Y-85410000D03*
D13*
X257105000Y-85710000D03*
D14*
X254345000Y-86010000D03*
D13*
X257105000Y-86310000D03*
D15*
X256700000Y-143380000D03*
X256700000Y-145080000D03*
X256700000Y-146780000D03*
X256700000Y-148480000D03*
X256700000Y-150180000D03*
X254700000Y-150180000D03*
X254700000Y-148480000D03*
X254700000Y-146780000D03*
X254700000Y-145080000D03*
X254700000Y-143380000D03*
D16*
X238350000Y-78550000D03*
X238350000Y-81450000D03*
G36*
G01*
X238712500Y-99910000D02*
X238367500Y-99910000D01*
G75*
G02*
X238220000Y-99762500I0J147500D01*
G01*
X238220000Y-99467500D01*
G75*
G02*
X238367500Y-99320000I147500J0D01*
G01*
X238712500Y-99320000D01*
G75*
G02*
X238860000Y-99467500I0J-147500D01*
G01*
X238860000Y-99762500D01*
G75*
G02*
X238712500Y-99910000I-147500J0D01*
G01*
G37*
G36*
G01*
X238712500Y-100880000D02*
X238367500Y-100880000D01*
G75*
G02*
X238220000Y-100732500I0J147500D01*
G01*
X238220000Y-100437500D01*
G75*
G02*
X238367500Y-100290000I147500J0D01*
G01*
X238712500Y-100290000D01*
G75*
G02*
X238860000Y-100437500I0J-147500D01*
G01*
X238860000Y-100732500D01*
G75*
G02*
X238712500Y-100880000I-147500J0D01*
G01*
G37*
G36*
G01*
X254113750Y-90440000D02*
X254626250Y-90440000D01*
G75*
G02*
X254845000Y-90658750I0J-218750D01*
G01*
X254845000Y-91096250D01*
G75*
G02*
X254626250Y-91315000I-218750J0D01*
G01*
X254113750Y-91315000D01*
G75*
G02*
X253895000Y-91096250I0J218750D01*
G01*
X253895000Y-90658750D01*
G75*
G02*
X254113750Y-90440000I218750J0D01*
G01*
G37*
G36*
G01*
X254113750Y-88865000D02*
X254626250Y-88865000D01*
G75*
G02*
X254845000Y-89083750I0J-218750D01*
G01*
X254845000Y-89521250D01*
G75*
G02*
X254626250Y-89740000I-218750J0D01*
G01*
X254113750Y-89740000D01*
G75*
G02*
X253895000Y-89521250I0J218750D01*
G01*
X253895000Y-89083750D01*
G75*
G02*
X254113750Y-88865000I218750J0D01*
G01*
G37*
G36*
G01*
X252633750Y-88865000D02*
X253146250Y-88865000D01*
G75*
G02*
X253365000Y-89083750I0J-218750D01*
G01*
X253365000Y-89521250D01*
G75*
G02*
X253146250Y-89740000I-218750J0D01*
G01*
X252633750Y-89740000D01*
G75*
G02*
X252415000Y-89521250I0J218750D01*
G01*
X252415000Y-89083750D01*
G75*
G02*
X252633750Y-88865000I218750J0D01*
G01*
G37*
G36*
G01*
X252633750Y-90440000D02*
X253146250Y-90440000D01*
G75*
G02*
X253365000Y-90658750I0J-218750D01*
G01*
X253365000Y-91096250D01*
G75*
G02*
X253146250Y-91315000I-218750J0D01*
G01*
X252633750Y-91315000D01*
G75*
G02*
X252415000Y-91096250I0J218750D01*
G01*
X252415000Y-90658750D01*
G75*
G02*
X252633750Y-90440000I218750J0D01*
G01*
G37*
G36*
G01*
X255563750Y-88867500D02*
X256076250Y-88867500D01*
G75*
G02*
X256295000Y-89086250I0J-218750D01*
G01*
X256295000Y-89523750D01*
G75*
G02*
X256076250Y-89742500I-218750J0D01*
G01*
X255563750Y-89742500D01*
G75*
G02*
X255345000Y-89523750I0J218750D01*
G01*
X255345000Y-89086250D01*
G75*
G02*
X255563750Y-88867500I218750J0D01*
G01*
G37*
G36*
G01*
X255563750Y-90442500D02*
X256076250Y-90442500D01*
G75*
G02*
X256295000Y-90661250I0J-218750D01*
G01*
X256295000Y-91098750D01*
G75*
G02*
X256076250Y-91317500I-218750J0D01*
G01*
X255563750Y-91317500D01*
G75*
G02*
X255345000Y-91098750I0J218750D01*
G01*
X255345000Y-90661250D01*
G75*
G02*
X255563750Y-90442500I218750J0D01*
G01*
G37*
G36*
G01*
X238377500Y-97290000D02*
X238722500Y-97290000D01*
G75*
G02*
X238870000Y-97437500I0J-147500D01*
G01*
X238870000Y-97732500D01*
G75*
G02*
X238722500Y-97880000I-147500J0D01*
G01*
X238377500Y-97880000D01*
G75*
G02*
X238230000Y-97732500I0J147500D01*
G01*
X238230000Y-97437500D01*
G75*
G02*
X238377500Y-97290000I147500J0D01*
G01*
G37*
G36*
G01*
X238377500Y-98260000D02*
X238722500Y-98260000D01*
G75*
G02*
X238870000Y-98407500I0J-147500D01*
G01*
X238870000Y-98702500D01*
G75*
G02*
X238722500Y-98850000I-147500J0D01*
G01*
X238377500Y-98850000D01*
G75*
G02*
X238230000Y-98702500I0J147500D01*
G01*
X238230000Y-98407500D01*
G75*
G02*
X238377500Y-98260000I147500J0D01*
G01*
G37*
G36*
G01*
X233817500Y-108390000D02*
X234162500Y-108390000D01*
G75*
G02*
X234310000Y-108537500I0J-147500D01*
G01*
X234310000Y-108832500D01*
G75*
G02*
X234162500Y-108980000I-147500J0D01*
G01*
X233817500Y-108980000D01*
G75*
G02*
X233670000Y-108832500I0J147500D01*
G01*
X233670000Y-108537500D01*
G75*
G02*
X233817500Y-108390000I147500J0D01*
G01*
G37*
G36*
G01*
X233817500Y-109360000D02*
X234162500Y-109360000D01*
G75*
G02*
X234310000Y-109507500I0J-147500D01*
G01*
X234310000Y-109802500D01*
G75*
G02*
X234162500Y-109950000I-147500J0D01*
G01*
X233817500Y-109950000D01*
G75*
G02*
X233670000Y-109802500I0J147500D01*
G01*
X233670000Y-109507500D01*
G75*
G02*
X233817500Y-109360000I147500J0D01*
G01*
G37*
G36*
G01*
X257060000Y-136752500D02*
X257060000Y-136407500D01*
G75*
G02*
X257207500Y-136260000I147500J0D01*
G01*
X257502500Y-136260000D01*
G75*
G02*
X257650000Y-136407500I0J-147500D01*
G01*
X257650000Y-136752500D01*
G75*
G02*
X257502500Y-136900000I-147500J0D01*
G01*
X257207500Y-136900000D01*
G75*
G02*
X257060000Y-136752500I0J147500D01*
G01*
G37*
G36*
G01*
X256090000Y-136752500D02*
X256090000Y-136407500D01*
G75*
G02*
X256237500Y-136260000I147500J0D01*
G01*
X256532500Y-136260000D01*
G75*
G02*
X256680000Y-136407500I0J-147500D01*
G01*
X256680000Y-136752500D01*
G75*
G02*
X256532500Y-136900000I-147500J0D01*
G01*
X256237500Y-136900000D01*
G75*
G02*
X256090000Y-136752500I0J147500D01*
G01*
G37*
G36*
G01*
X238290000Y-96592500D02*
X238290000Y-96247500D01*
G75*
G02*
X238437500Y-96100000I147500J0D01*
G01*
X238732500Y-96100000D01*
G75*
G02*
X238880000Y-96247500I0J-147500D01*
G01*
X238880000Y-96592500D01*
G75*
G02*
X238732500Y-96740000I-147500J0D01*
G01*
X238437500Y-96740000D01*
G75*
G02*
X238290000Y-96592500I0J147500D01*
G01*
G37*
G36*
G01*
X237320000Y-96592500D02*
X237320000Y-96247500D01*
G75*
G02*
X237467500Y-96100000I147500J0D01*
G01*
X237762500Y-96100000D01*
G75*
G02*
X237910000Y-96247500I0J-147500D01*
G01*
X237910000Y-96592500D01*
G75*
G02*
X237762500Y-96740000I-147500J0D01*
G01*
X237467500Y-96740000D01*
G75*
G02*
X237320000Y-96592500I0J147500D01*
G01*
G37*
G36*
G01*
X228540000Y-92557500D02*
X228540000Y-92902500D01*
G75*
G02*
X228392500Y-93050000I-147500J0D01*
G01*
X228097500Y-93050000D01*
G75*
G02*
X227950000Y-92902500I0J147500D01*
G01*
X227950000Y-92557500D01*
G75*
G02*
X228097500Y-92410000I147500J0D01*
G01*
X228392500Y-92410000D01*
G75*
G02*
X228540000Y-92557500I0J-147500D01*
G01*
G37*
G36*
G01*
X227570000Y-92557500D02*
X227570000Y-92902500D01*
G75*
G02*
X227422500Y-93050000I-147500J0D01*
G01*
X227127500Y-93050000D01*
G75*
G02*
X226980000Y-92902500I0J147500D01*
G01*
X226980000Y-92557500D01*
G75*
G02*
X227127500Y-92410000I147500J0D01*
G01*
X227422500Y-92410000D01*
G75*
G02*
X227570000Y-92557500I0J-147500D01*
G01*
G37*
G36*
G01*
X234390000Y-103992500D02*
X234390000Y-103647500D01*
G75*
G02*
X234537500Y-103500000I147500J0D01*
G01*
X234832500Y-103500000D01*
G75*
G02*
X234980000Y-103647500I0J-147500D01*
G01*
X234980000Y-103992500D01*
G75*
G02*
X234832500Y-104140000I-147500J0D01*
G01*
X234537500Y-104140000D01*
G75*
G02*
X234390000Y-103992500I0J147500D01*
G01*
G37*
G36*
G01*
X235360000Y-103992500D02*
X235360000Y-103647500D01*
G75*
G02*
X235507500Y-103500000I147500J0D01*
G01*
X235802500Y-103500000D01*
G75*
G02*
X235950000Y-103647500I0J-147500D01*
G01*
X235950000Y-103992500D01*
G75*
G02*
X235802500Y-104140000I-147500J0D01*
G01*
X235507500Y-104140000D01*
G75*
G02*
X235360000Y-103992500I0J147500D01*
G01*
G37*
G36*
G01*
X227367500Y-102270000D02*
X227712500Y-102270000D01*
G75*
G02*
X227860000Y-102417500I0J-147500D01*
G01*
X227860000Y-102712500D01*
G75*
G02*
X227712500Y-102860000I-147500J0D01*
G01*
X227367500Y-102860000D01*
G75*
G02*
X227220000Y-102712500I0J147500D01*
G01*
X227220000Y-102417500D01*
G75*
G02*
X227367500Y-102270000I147500J0D01*
G01*
G37*
G36*
G01*
X227367500Y-101300000D02*
X227712500Y-101300000D01*
G75*
G02*
X227860000Y-101447500I0J-147500D01*
G01*
X227860000Y-101742500D01*
G75*
G02*
X227712500Y-101890000I-147500J0D01*
G01*
X227367500Y-101890000D01*
G75*
G02*
X227220000Y-101742500I0J147500D01*
G01*
X227220000Y-101447500D01*
G75*
G02*
X227367500Y-101300000I147500J0D01*
G01*
G37*
G36*
G01*
X252072500Y-143656250D02*
X252072500Y-143143750D01*
G75*
G02*
X252291250Y-142925000I218750J0D01*
G01*
X252728750Y-142925000D01*
G75*
G02*
X252947500Y-143143750I0J-218750D01*
G01*
X252947500Y-143656250D01*
G75*
G02*
X252728750Y-143875000I-218750J0D01*
G01*
X252291250Y-143875000D01*
G75*
G02*
X252072500Y-143656250I0J218750D01*
G01*
G37*
G36*
G01*
X250497500Y-143656250D02*
X250497500Y-143143750D01*
G75*
G02*
X250716250Y-142925000I218750J0D01*
G01*
X251153750Y-142925000D01*
G75*
G02*
X251372500Y-143143750I0J-218750D01*
G01*
X251372500Y-143656250D01*
G75*
G02*
X251153750Y-143875000I-218750J0D01*
G01*
X250716250Y-143875000D01*
G75*
G02*
X250497500Y-143656250I0J218750D01*
G01*
G37*
G36*
G01*
X242096250Y-80185000D02*
X241583750Y-80185000D01*
G75*
G02*
X241365000Y-79966250I0J218750D01*
G01*
X241365000Y-79528750D01*
G75*
G02*
X241583750Y-79310000I218750J0D01*
G01*
X242096250Y-79310000D01*
G75*
G02*
X242315000Y-79528750I0J-218750D01*
G01*
X242315000Y-79966250D01*
G75*
G02*
X242096250Y-80185000I-218750J0D01*
G01*
G37*
G36*
G01*
X242096250Y-78610000D02*
X241583750Y-78610000D01*
G75*
G02*
X241365000Y-78391250I0J218750D01*
G01*
X241365000Y-77953750D01*
G75*
G02*
X241583750Y-77735000I218750J0D01*
G01*
X242096250Y-77735000D01*
G75*
G02*
X242315000Y-77953750I0J-218750D01*
G01*
X242315000Y-78391250D01*
G75*
G02*
X242096250Y-78610000I-218750J0D01*
G01*
G37*
G36*
G01*
X244696250Y-82840000D02*
X244183750Y-82840000D01*
G75*
G02*
X243965000Y-82621250I0J218750D01*
G01*
X243965000Y-82183750D01*
G75*
G02*
X244183750Y-81965000I218750J0D01*
G01*
X244696250Y-81965000D01*
G75*
G02*
X244915000Y-82183750I0J-218750D01*
G01*
X244915000Y-82621250D01*
G75*
G02*
X244696250Y-82840000I-218750J0D01*
G01*
G37*
G36*
G01*
X244696250Y-84415000D02*
X244183750Y-84415000D01*
G75*
G02*
X243965000Y-84196250I0J218750D01*
G01*
X243965000Y-83758750D01*
G75*
G02*
X244183750Y-83540000I218750J0D01*
G01*
X244696250Y-83540000D01*
G75*
G02*
X244915000Y-83758750I0J-218750D01*
G01*
X244915000Y-84196250D01*
G75*
G02*
X244696250Y-84415000I-218750J0D01*
G01*
G37*
D17*
X241930000Y-84790000D03*
X241930000Y-81490000D03*
D18*
X241900000Y-125010000D03*
X240600000Y-125010000D03*
X241250000Y-127010000D03*
X229740000Y-80570000D03*
X231040000Y-80570000D03*
X230390000Y-78570000D03*
D19*
X250300000Y-87880000D03*
X248300000Y-88530000D03*
X248300000Y-87230000D03*
D20*
X251220000Y-148530000D03*
X253120000Y-148530000D03*
X252170000Y-146530000D03*
G36*
G01*
X237416250Y-103837500D02*
X236903750Y-103837500D01*
G75*
G02*
X236685000Y-103618750I0J218750D01*
G01*
X236685000Y-103181250D01*
G75*
G02*
X236903750Y-102962500I218750J0D01*
G01*
X237416250Y-102962500D01*
G75*
G02*
X237635000Y-103181250I0J-218750D01*
G01*
X237635000Y-103618750D01*
G75*
G02*
X237416250Y-103837500I-218750J0D01*
G01*
G37*
G36*
G01*
X237416250Y-102262500D02*
X236903750Y-102262500D01*
G75*
G02*
X236685000Y-102043750I0J218750D01*
G01*
X236685000Y-101606250D01*
G75*
G02*
X236903750Y-101387500I218750J0D01*
G01*
X237416250Y-101387500D01*
G75*
G02*
X237635000Y-101606250I0J-218750D01*
G01*
X237635000Y-102043750D01*
G75*
G02*
X237416250Y-102262500I-218750J0D01*
G01*
G37*
G36*
G01*
X257023750Y-88865000D02*
X257536250Y-88865000D01*
G75*
G02*
X257755000Y-89083750I0J-218750D01*
G01*
X257755000Y-89521250D01*
G75*
G02*
X257536250Y-89740000I-218750J0D01*
G01*
X257023750Y-89740000D01*
G75*
G02*
X256805000Y-89521250I0J218750D01*
G01*
X256805000Y-89083750D01*
G75*
G02*
X257023750Y-88865000I218750J0D01*
G01*
G37*
G36*
G01*
X257023750Y-90440000D02*
X257536250Y-90440000D01*
G75*
G02*
X257755000Y-90658750I0J-218750D01*
G01*
X257755000Y-91096250D01*
G75*
G02*
X257536250Y-91315000I-218750J0D01*
G01*
X257023750Y-91315000D01*
G75*
G02*
X256805000Y-91096250I0J218750D01*
G01*
X256805000Y-90658750D01*
G75*
G02*
X257023750Y-90440000I218750J0D01*
G01*
G37*
G36*
G01*
X239046250Y-125465000D02*
X238533750Y-125465000D01*
G75*
G02*
X238315000Y-125246250I0J218750D01*
G01*
X238315000Y-124808750D01*
G75*
G02*
X238533750Y-124590000I218750J0D01*
G01*
X239046250Y-124590000D01*
G75*
G02*
X239265000Y-124808750I0J-218750D01*
G01*
X239265000Y-125246250D01*
G75*
G02*
X239046250Y-125465000I-218750J0D01*
G01*
G37*
G36*
G01*
X239046250Y-123890000D02*
X238533750Y-123890000D01*
G75*
G02*
X238315000Y-123671250I0J218750D01*
G01*
X238315000Y-123233750D01*
G75*
G02*
X238533750Y-123015000I218750J0D01*
G01*
X239046250Y-123015000D01*
G75*
G02*
X239265000Y-123233750I0J-218750D01*
G01*
X239265000Y-123671250D01*
G75*
G02*
X239046250Y-123890000I-218750J0D01*
G01*
G37*
G36*
G01*
X232523750Y-80095000D02*
X233036250Y-80095000D01*
G75*
G02*
X233255000Y-80313750I0J-218750D01*
G01*
X233255000Y-80751250D01*
G75*
G02*
X233036250Y-80970000I-218750J0D01*
G01*
X232523750Y-80970000D01*
G75*
G02*
X232305000Y-80751250I0J218750D01*
G01*
X232305000Y-80313750D01*
G75*
G02*
X232523750Y-80095000I218750J0D01*
G01*
G37*
G36*
G01*
X232523750Y-81670000D02*
X233036250Y-81670000D01*
G75*
G02*
X233255000Y-81888750I0J-218750D01*
G01*
X233255000Y-82326250D01*
G75*
G02*
X233036250Y-82545000I-218750J0D01*
G01*
X232523750Y-82545000D01*
G75*
G02*
X232305000Y-82326250I0J218750D01*
G01*
X232305000Y-81888750D01*
G75*
G02*
X232523750Y-81670000I218750J0D01*
G01*
G37*
G36*
G01*
X247002500Y-90263750D02*
X247002500Y-90776250D01*
G75*
G02*
X246783750Y-90995000I-218750J0D01*
G01*
X246346250Y-90995000D01*
G75*
G02*
X246127500Y-90776250I0J218750D01*
G01*
X246127500Y-90263750D01*
G75*
G02*
X246346250Y-90045000I218750J0D01*
G01*
X246783750Y-90045000D01*
G75*
G02*
X247002500Y-90263750I0J-218750D01*
G01*
G37*
G36*
G01*
X248577500Y-90263750D02*
X248577500Y-90776250D01*
G75*
G02*
X248358750Y-90995000I-218750J0D01*
G01*
X247921250Y-90995000D01*
G75*
G02*
X247702500Y-90776250I0J218750D01*
G01*
X247702500Y-90263750D01*
G75*
G02*
X247921250Y-90045000I218750J0D01*
G01*
X248358750Y-90045000D01*
G75*
G02*
X248577500Y-90263750I0J-218750D01*
G01*
G37*
G36*
G01*
X240770000Y-123193750D02*
X240770000Y-123706250D01*
G75*
G02*
X240551250Y-123925000I-218750J0D01*
G01*
X240113750Y-123925000D01*
G75*
G02*
X239895000Y-123706250I0J218750D01*
G01*
X239895000Y-123193750D01*
G75*
G02*
X240113750Y-122975000I218750J0D01*
G01*
X240551250Y-122975000D01*
G75*
G02*
X240770000Y-123193750I0J-218750D01*
G01*
G37*
G36*
G01*
X242345000Y-123193750D02*
X242345000Y-123706250D01*
G75*
G02*
X242126250Y-123925000I-218750J0D01*
G01*
X241688750Y-123925000D01*
G75*
G02*
X241470000Y-123706250I0J218750D01*
G01*
X241470000Y-123193750D01*
G75*
G02*
X241688750Y-122975000I218750J0D01*
G01*
X242126250Y-122975000D01*
G75*
G02*
X242345000Y-123193750I0J-218750D01*
G01*
G37*
G36*
G01*
X229265000Y-82416250D02*
X229265000Y-81903750D01*
G75*
G02*
X229483750Y-81685000I218750J0D01*
G01*
X229921250Y-81685000D01*
G75*
G02*
X230140000Y-81903750I0J-218750D01*
G01*
X230140000Y-82416250D01*
G75*
G02*
X229921250Y-82635000I-218750J0D01*
G01*
X229483750Y-82635000D01*
G75*
G02*
X229265000Y-82416250I0J218750D01*
G01*
G37*
G36*
G01*
X230840000Y-82416250D02*
X230840000Y-81903750D01*
G75*
G02*
X231058750Y-81685000I218750J0D01*
G01*
X231496250Y-81685000D01*
G75*
G02*
X231715000Y-81903750I0J-218750D01*
G01*
X231715000Y-82416250D01*
G75*
G02*
X231496250Y-82635000I-218750J0D01*
G01*
X231058750Y-82635000D01*
G75*
G02*
X230840000Y-82416250I0J218750D01*
G01*
G37*
G36*
G01*
X246303750Y-88350000D02*
X246816250Y-88350000D01*
G75*
G02*
X247035000Y-88568750I0J-218750D01*
G01*
X247035000Y-89006250D01*
G75*
G02*
X246816250Y-89225000I-218750J0D01*
G01*
X246303750Y-89225000D01*
G75*
G02*
X246085000Y-89006250I0J218750D01*
G01*
X246085000Y-88568750D01*
G75*
G02*
X246303750Y-88350000I218750J0D01*
G01*
G37*
G36*
G01*
X246303750Y-86775000D02*
X246816250Y-86775000D01*
G75*
G02*
X247035000Y-86993750I0J-218750D01*
G01*
X247035000Y-87431250D01*
G75*
G02*
X246816250Y-87650000I-218750J0D01*
G01*
X246303750Y-87650000D01*
G75*
G02*
X246085000Y-87431250I0J218750D01*
G01*
X246085000Y-86993750D01*
G75*
G02*
X246303750Y-86775000I218750J0D01*
G01*
G37*
G36*
G01*
X216570000Y-102706250D02*
X216570000Y-102193750D01*
G75*
G02*
X216788750Y-101975000I218750J0D01*
G01*
X217226250Y-101975000D01*
G75*
G02*
X217445000Y-102193750I0J-218750D01*
G01*
X217445000Y-102706250D01*
G75*
G02*
X217226250Y-102925000I-218750J0D01*
G01*
X216788750Y-102925000D01*
G75*
G02*
X216570000Y-102706250I0J218750D01*
G01*
G37*
G36*
G01*
X214995000Y-102706250D02*
X214995000Y-102193750D01*
G75*
G02*
X215213750Y-101975000I218750J0D01*
G01*
X215651250Y-101975000D01*
G75*
G02*
X215870000Y-102193750I0J-218750D01*
G01*
X215870000Y-102706250D01*
G75*
G02*
X215651250Y-102925000I-218750J0D01*
G01*
X215213750Y-102925000D01*
G75*
G02*
X214995000Y-102706250I0J218750D01*
G01*
G37*
G36*
G01*
X257685000Y-116783750D02*
X257685000Y-117296250D01*
G75*
G02*
X257466250Y-117515000I-218750J0D01*
G01*
X257028750Y-117515000D01*
G75*
G02*
X256810000Y-117296250I0J218750D01*
G01*
X256810000Y-116783750D01*
G75*
G02*
X257028750Y-116565000I218750J0D01*
G01*
X257466250Y-116565000D01*
G75*
G02*
X257685000Y-116783750I0J-218750D01*
G01*
G37*
G36*
G01*
X256110000Y-116783750D02*
X256110000Y-117296250D01*
G75*
G02*
X255891250Y-117515000I-218750J0D01*
G01*
X255453750Y-117515000D01*
G75*
G02*
X255235000Y-117296250I0J218750D01*
G01*
X255235000Y-116783750D01*
G75*
G02*
X255453750Y-116565000I218750J0D01*
G01*
X255891250Y-116565000D01*
G75*
G02*
X256110000Y-116783750I0J-218750D01*
G01*
G37*
G36*
G01*
X256800000Y-115706250D02*
X256800000Y-115193750D01*
G75*
G02*
X257018750Y-114975000I218750J0D01*
G01*
X257456250Y-114975000D01*
G75*
G02*
X257675000Y-115193750I0J-218750D01*
G01*
X257675000Y-115706250D01*
G75*
G02*
X257456250Y-115925000I-218750J0D01*
G01*
X257018750Y-115925000D01*
G75*
G02*
X256800000Y-115706250I0J218750D01*
G01*
G37*
G36*
G01*
X255225000Y-115706250D02*
X255225000Y-115193750D01*
G75*
G02*
X255443750Y-114975000I218750J0D01*
G01*
X255881250Y-114975000D01*
G75*
G02*
X256100000Y-115193750I0J-218750D01*
G01*
X256100000Y-115706250D01*
G75*
G02*
X255881250Y-115925000I-218750J0D01*
G01*
X255443750Y-115925000D01*
G75*
G02*
X255225000Y-115706250I0J218750D01*
G01*
G37*
G36*
G01*
X252072500Y-145226250D02*
X252072500Y-144713750D01*
G75*
G02*
X252291250Y-144495000I218750J0D01*
G01*
X252728750Y-144495000D01*
G75*
G02*
X252947500Y-144713750I0J-218750D01*
G01*
X252947500Y-145226250D01*
G75*
G02*
X252728750Y-145445000I-218750J0D01*
G01*
X252291250Y-145445000D01*
G75*
G02*
X252072500Y-145226250I0J218750D01*
G01*
G37*
G36*
G01*
X250497500Y-145226250D02*
X250497500Y-144713750D01*
G75*
G02*
X250716250Y-144495000I218750J0D01*
G01*
X251153750Y-144495000D01*
G75*
G02*
X251372500Y-144713750I0J-218750D01*
G01*
X251372500Y-145226250D01*
G75*
G02*
X251153750Y-145445000I-218750J0D01*
G01*
X250716250Y-145445000D01*
G75*
G02*
X250497500Y-145226250I0J218750D01*
G01*
G37*
G36*
G01*
X252947500Y-149953750D02*
X252947500Y-150466250D01*
G75*
G02*
X252728750Y-150685000I-218750J0D01*
G01*
X252291250Y-150685000D01*
G75*
G02*
X252072500Y-150466250I0J218750D01*
G01*
X252072500Y-149953750D01*
G75*
G02*
X252291250Y-149735000I218750J0D01*
G01*
X252728750Y-149735000D01*
G75*
G02*
X252947500Y-149953750I0J-218750D01*
G01*
G37*
G36*
G01*
X251372500Y-149953750D02*
X251372500Y-150466250D01*
G75*
G02*
X251153750Y-150685000I-218750J0D01*
G01*
X250716250Y-150685000D01*
G75*
G02*
X250497500Y-150466250I0J218750D01*
G01*
X250497500Y-149953750D01*
G75*
G02*
X250716250Y-149735000I218750J0D01*
G01*
X251153750Y-149735000D01*
G75*
G02*
X251372500Y-149953750I0J-218750D01*
G01*
G37*
G36*
G01*
X247427500Y-79043750D02*
X247427500Y-79556250D01*
G75*
G02*
X247208750Y-79775000I-218750J0D01*
G01*
X246771250Y-79775000D01*
G75*
G02*
X246552500Y-79556250I0J218750D01*
G01*
X246552500Y-79043750D01*
G75*
G02*
X246771250Y-78825000I218750J0D01*
G01*
X247208750Y-78825000D01*
G75*
G02*
X247427500Y-79043750I0J-218750D01*
G01*
G37*
G36*
G01*
X249002500Y-79043750D02*
X249002500Y-79556250D01*
G75*
G02*
X248783750Y-79775000I-218750J0D01*
G01*
X248346250Y-79775000D01*
G75*
G02*
X248127500Y-79556250I0J218750D01*
G01*
X248127500Y-79043750D01*
G75*
G02*
X248346250Y-78825000I218750J0D01*
G01*
X248783750Y-78825000D01*
G75*
G02*
X249002500Y-79043750I0J-218750D01*
G01*
G37*
G36*
G01*
X248110000Y-81086250D02*
X248110000Y-80573750D01*
G75*
G02*
X248328750Y-80355000I218750J0D01*
G01*
X248766250Y-80355000D01*
G75*
G02*
X248985000Y-80573750I0J-218750D01*
G01*
X248985000Y-81086250D01*
G75*
G02*
X248766250Y-81305000I-218750J0D01*
G01*
X248328750Y-81305000D01*
G75*
G02*
X248110000Y-81086250I0J218750D01*
G01*
G37*
G36*
G01*
X246535000Y-81086250D02*
X246535000Y-80573750D01*
G75*
G02*
X246753750Y-80355000I218750J0D01*
G01*
X247191250Y-80355000D01*
G75*
G02*
X247410000Y-80573750I0J-218750D01*
G01*
X247410000Y-81086250D01*
G75*
G02*
X247191250Y-81305000I-218750J0D01*
G01*
X246753750Y-81305000D01*
G75*
G02*
X246535000Y-81086250I0J218750D01*
G01*
G37*
G36*
G01*
X236840000Y-100492500D02*
X236840000Y-100642500D01*
G75*
G02*
X236765000Y-100717500I-75000J0D01*
G01*
X235440000Y-100717500D01*
G75*
G02*
X235365000Y-100642500I0J75000D01*
G01*
X235365000Y-100492500D01*
G75*
G02*
X235440000Y-100417500I75000J0D01*
G01*
X236765000Y-100417500D01*
G75*
G02*
X236840000Y-100492500I0J-75000D01*
G01*
G37*
G36*
G01*
X236840000Y-99992500D02*
X236840000Y-100142500D01*
G75*
G02*
X236765000Y-100217500I-75000J0D01*
G01*
X235440000Y-100217500D01*
G75*
G02*
X235365000Y-100142500I0J75000D01*
G01*
X235365000Y-99992500D01*
G75*
G02*
X235440000Y-99917500I75000J0D01*
G01*
X236765000Y-99917500D01*
G75*
G02*
X236840000Y-99992500I0J-75000D01*
G01*
G37*
G36*
G01*
X236840000Y-99492500D02*
X236840000Y-99642500D01*
G75*
G02*
X236765000Y-99717500I-75000J0D01*
G01*
X235440000Y-99717500D01*
G75*
G02*
X235365000Y-99642500I0J75000D01*
G01*
X235365000Y-99492500D01*
G75*
G02*
X235440000Y-99417500I75000J0D01*
G01*
X236765000Y-99417500D01*
G75*
G02*
X236840000Y-99492500I0J-75000D01*
G01*
G37*
G36*
G01*
X236840000Y-98992500D02*
X236840000Y-99142500D01*
G75*
G02*
X236765000Y-99217500I-75000J0D01*
G01*
X235440000Y-99217500D01*
G75*
G02*
X235365000Y-99142500I0J75000D01*
G01*
X235365000Y-98992500D01*
G75*
G02*
X235440000Y-98917500I75000J0D01*
G01*
X236765000Y-98917500D01*
G75*
G02*
X236840000Y-98992500I0J-75000D01*
G01*
G37*
G36*
G01*
X236840000Y-98492500D02*
X236840000Y-98642500D01*
G75*
G02*
X236765000Y-98717500I-75000J0D01*
G01*
X235440000Y-98717500D01*
G75*
G02*
X235365000Y-98642500I0J75000D01*
G01*
X235365000Y-98492500D01*
G75*
G02*
X235440000Y-98417500I75000J0D01*
G01*
X236765000Y-98417500D01*
G75*
G02*
X236840000Y-98492500I0J-75000D01*
G01*
G37*
G36*
G01*
X236840000Y-97992500D02*
X236840000Y-98142500D01*
G75*
G02*
X236765000Y-98217500I-75000J0D01*
G01*
X235440000Y-98217500D01*
G75*
G02*
X235365000Y-98142500I0J75000D01*
G01*
X235365000Y-97992500D01*
G75*
G02*
X235440000Y-97917500I75000J0D01*
G01*
X236765000Y-97917500D01*
G75*
G02*
X236840000Y-97992500I0J-75000D01*
G01*
G37*
G36*
G01*
X236840000Y-97492500D02*
X236840000Y-97642500D01*
G75*
G02*
X236765000Y-97717500I-75000J0D01*
G01*
X235440000Y-97717500D01*
G75*
G02*
X235365000Y-97642500I0J75000D01*
G01*
X235365000Y-97492500D01*
G75*
G02*
X235440000Y-97417500I75000J0D01*
G01*
X236765000Y-97417500D01*
G75*
G02*
X236840000Y-97492500I0J-75000D01*
G01*
G37*
G36*
G01*
X236840000Y-96992500D02*
X236840000Y-97142500D01*
G75*
G02*
X236765000Y-97217500I-75000J0D01*
G01*
X235440000Y-97217500D01*
G75*
G02*
X235365000Y-97142500I0J75000D01*
G01*
X235365000Y-96992500D01*
G75*
G02*
X235440000Y-96917500I75000J0D01*
G01*
X236765000Y-96917500D01*
G75*
G02*
X236840000Y-96992500I0J-75000D01*
G01*
G37*
G36*
G01*
X236840000Y-96492500D02*
X236840000Y-96642500D01*
G75*
G02*
X236765000Y-96717500I-75000J0D01*
G01*
X235440000Y-96717500D01*
G75*
G02*
X235365000Y-96642500I0J75000D01*
G01*
X235365000Y-96492500D01*
G75*
G02*
X235440000Y-96417500I75000J0D01*
G01*
X236765000Y-96417500D01*
G75*
G02*
X236840000Y-96492500I0J-75000D01*
G01*
G37*
G36*
G01*
X236840000Y-95992500D02*
X236840000Y-96142500D01*
G75*
G02*
X236765000Y-96217500I-75000J0D01*
G01*
X235440000Y-96217500D01*
G75*
G02*
X235365000Y-96142500I0J75000D01*
G01*
X235365000Y-95992500D01*
G75*
G02*
X235440000Y-95917500I75000J0D01*
G01*
X236765000Y-95917500D01*
G75*
G02*
X236840000Y-95992500I0J-75000D01*
G01*
G37*
G36*
G01*
X236840000Y-95492500D02*
X236840000Y-95642500D01*
G75*
G02*
X236765000Y-95717500I-75000J0D01*
G01*
X235440000Y-95717500D01*
G75*
G02*
X235365000Y-95642500I0J75000D01*
G01*
X235365000Y-95492500D01*
G75*
G02*
X235440000Y-95417500I75000J0D01*
G01*
X236765000Y-95417500D01*
G75*
G02*
X236840000Y-95492500I0J-75000D01*
G01*
G37*
G36*
G01*
X236840000Y-94992500D02*
X236840000Y-95142500D01*
G75*
G02*
X236765000Y-95217500I-75000J0D01*
G01*
X235440000Y-95217500D01*
G75*
G02*
X235365000Y-95142500I0J75000D01*
G01*
X235365000Y-94992500D01*
G75*
G02*
X235440000Y-94917500I75000J0D01*
G01*
X236765000Y-94917500D01*
G75*
G02*
X236840000Y-94992500I0J-75000D01*
G01*
G37*
G36*
G01*
X234840000Y-92992500D02*
X234840000Y-94317500D01*
G75*
G02*
X234765000Y-94392500I-75000J0D01*
G01*
X234615000Y-94392500D01*
G75*
G02*
X234540000Y-94317500I0J75000D01*
G01*
X234540000Y-92992500D01*
G75*
G02*
X234615000Y-92917500I75000J0D01*
G01*
X234765000Y-92917500D01*
G75*
G02*
X234840000Y-92992500I0J-75000D01*
G01*
G37*
G36*
G01*
X234340000Y-92992500D02*
X234340000Y-94317500D01*
G75*
G02*
X234265000Y-94392500I-75000J0D01*
G01*
X234115000Y-94392500D01*
G75*
G02*
X234040000Y-94317500I0J75000D01*
G01*
X234040000Y-92992500D01*
G75*
G02*
X234115000Y-92917500I75000J0D01*
G01*
X234265000Y-92917500D01*
G75*
G02*
X234340000Y-92992500I0J-75000D01*
G01*
G37*
G36*
G01*
X233840000Y-92992500D02*
X233840000Y-94317500D01*
G75*
G02*
X233765000Y-94392500I-75000J0D01*
G01*
X233615000Y-94392500D01*
G75*
G02*
X233540000Y-94317500I0J75000D01*
G01*
X233540000Y-92992500D01*
G75*
G02*
X233615000Y-92917500I75000J0D01*
G01*
X233765000Y-92917500D01*
G75*
G02*
X233840000Y-92992500I0J-75000D01*
G01*
G37*
G36*
G01*
X233340000Y-92992500D02*
X233340000Y-94317500D01*
G75*
G02*
X233265000Y-94392500I-75000J0D01*
G01*
X233115000Y-94392500D01*
G75*
G02*
X233040000Y-94317500I0J75000D01*
G01*
X233040000Y-92992500D01*
G75*
G02*
X233115000Y-92917500I75000J0D01*
G01*
X233265000Y-92917500D01*
G75*
G02*
X233340000Y-92992500I0J-75000D01*
G01*
G37*
G36*
G01*
X232840000Y-92992500D02*
X232840000Y-94317500D01*
G75*
G02*
X232765000Y-94392500I-75000J0D01*
G01*
X232615000Y-94392500D01*
G75*
G02*
X232540000Y-94317500I0J75000D01*
G01*
X232540000Y-92992500D01*
G75*
G02*
X232615000Y-92917500I75000J0D01*
G01*
X232765000Y-92917500D01*
G75*
G02*
X232840000Y-92992500I0J-75000D01*
G01*
G37*
G36*
G01*
X232340000Y-92992500D02*
X232340000Y-94317500D01*
G75*
G02*
X232265000Y-94392500I-75000J0D01*
G01*
X232115000Y-94392500D01*
G75*
G02*
X232040000Y-94317500I0J75000D01*
G01*
X232040000Y-92992500D01*
G75*
G02*
X232115000Y-92917500I75000J0D01*
G01*
X232265000Y-92917500D01*
G75*
G02*
X232340000Y-92992500I0J-75000D01*
G01*
G37*
G36*
G01*
X231840000Y-92992500D02*
X231840000Y-94317500D01*
G75*
G02*
X231765000Y-94392500I-75000J0D01*
G01*
X231615000Y-94392500D01*
G75*
G02*
X231540000Y-94317500I0J75000D01*
G01*
X231540000Y-92992500D01*
G75*
G02*
X231615000Y-92917500I75000J0D01*
G01*
X231765000Y-92917500D01*
G75*
G02*
X231840000Y-92992500I0J-75000D01*
G01*
G37*
G36*
G01*
X231340000Y-92992500D02*
X231340000Y-94317500D01*
G75*
G02*
X231265000Y-94392500I-75000J0D01*
G01*
X231115000Y-94392500D01*
G75*
G02*
X231040000Y-94317500I0J75000D01*
G01*
X231040000Y-92992500D01*
G75*
G02*
X231115000Y-92917500I75000J0D01*
G01*
X231265000Y-92917500D01*
G75*
G02*
X231340000Y-92992500I0J-75000D01*
G01*
G37*
G36*
G01*
X230840000Y-92992500D02*
X230840000Y-94317500D01*
G75*
G02*
X230765000Y-94392500I-75000J0D01*
G01*
X230615000Y-94392500D01*
G75*
G02*
X230540000Y-94317500I0J75000D01*
G01*
X230540000Y-92992500D01*
G75*
G02*
X230615000Y-92917500I75000J0D01*
G01*
X230765000Y-92917500D01*
G75*
G02*
X230840000Y-92992500I0J-75000D01*
G01*
G37*
G36*
G01*
X230340000Y-92992500D02*
X230340000Y-94317500D01*
G75*
G02*
X230265000Y-94392500I-75000J0D01*
G01*
X230115000Y-94392500D01*
G75*
G02*
X230040000Y-94317500I0J75000D01*
G01*
X230040000Y-92992500D01*
G75*
G02*
X230115000Y-92917500I75000J0D01*
G01*
X230265000Y-92917500D01*
G75*
G02*
X230340000Y-92992500I0J-75000D01*
G01*
G37*
G36*
G01*
X229840000Y-92992500D02*
X229840000Y-94317500D01*
G75*
G02*
X229765000Y-94392500I-75000J0D01*
G01*
X229615000Y-94392500D01*
G75*
G02*
X229540000Y-94317500I0J75000D01*
G01*
X229540000Y-92992500D01*
G75*
G02*
X229615000Y-92917500I75000J0D01*
G01*
X229765000Y-92917500D01*
G75*
G02*
X229840000Y-92992500I0J-75000D01*
G01*
G37*
G36*
G01*
X229340000Y-92992500D02*
X229340000Y-94317500D01*
G75*
G02*
X229265000Y-94392500I-75000J0D01*
G01*
X229115000Y-94392500D01*
G75*
G02*
X229040000Y-94317500I0J75000D01*
G01*
X229040000Y-92992500D01*
G75*
G02*
X229115000Y-92917500I75000J0D01*
G01*
X229265000Y-92917500D01*
G75*
G02*
X229340000Y-92992500I0J-75000D01*
G01*
G37*
G36*
G01*
X228515000Y-94992500D02*
X228515000Y-95142500D01*
G75*
G02*
X228440000Y-95217500I-75000J0D01*
G01*
X227115000Y-95217500D01*
G75*
G02*
X227040000Y-95142500I0J75000D01*
G01*
X227040000Y-94992500D01*
G75*
G02*
X227115000Y-94917500I75000J0D01*
G01*
X228440000Y-94917500D01*
G75*
G02*
X228515000Y-94992500I0J-75000D01*
G01*
G37*
G36*
G01*
X228515000Y-95492500D02*
X228515000Y-95642500D01*
G75*
G02*
X228440000Y-95717500I-75000J0D01*
G01*
X227115000Y-95717500D01*
G75*
G02*
X227040000Y-95642500I0J75000D01*
G01*
X227040000Y-95492500D01*
G75*
G02*
X227115000Y-95417500I75000J0D01*
G01*
X228440000Y-95417500D01*
G75*
G02*
X228515000Y-95492500I0J-75000D01*
G01*
G37*
G36*
G01*
X228515000Y-95992500D02*
X228515000Y-96142500D01*
G75*
G02*
X228440000Y-96217500I-75000J0D01*
G01*
X227115000Y-96217500D01*
G75*
G02*
X227040000Y-96142500I0J75000D01*
G01*
X227040000Y-95992500D01*
G75*
G02*
X227115000Y-95917500I75000J0D01*
G01*
X228440000Y-95917500D01*
G75*
G02*
X228515000Y-95992500I0J-75000D01*
G01*
G37*
G36*
G01*
X228515000Y-96492500D02*
X228515000Y-96642500D01*
G75*
G02*
X228440000Y-96717500I-75000J0D01*
G01*
X227115000Y-96717500D01*
G75*
G02*
X227040000Y-96642500I0J75000D01*
G01*
X227040000Y-96492500D01*
G75*
G02*
X227115000Y-96417500I75000J0D01*
G01*
X228440000Y-96417500D01*
G75*
G02*
X228515000Y-96492500I0J-75000D01*
G01*
G37*
G36*
G01*
X228515000Y-96992500D02*
X228515000Y-97142500D01*
G75*
G02*
X228440000Y-97217500I-75000J0D01*
G01*
X227115000Y-97217500D01*
G75*
G02*
X227040000Y-97142500I0J75000D01*
G01*
X227040000Y-96992500D01*
G75*
G02*
X227115000Y-96917500I75000J0D01*
G01*
X228440000Y-96917500D01*
G75*
G02*
X228515000Y-96992500I0J-75000D01*
G01*
G37*
G36*
G01*
X228515000Y-97492500D02*
X228515000Y-97642500D01*
G75*
G02*
X228440000Y-97717500I-75000J0D01*
G01*
X227115000Y-97717500D01*
G75*
G02*
X227040000Y-97642500I0J75000D01*
G01*
X227040000Y-97492500D01*
G75*
G02*
X227115000Y-97417500I75000J0D01*
G01*
X228440000Y-97417500D01*
G75*
G02*
X228515000Y-97492500I0J-75000D01*
G01*
G37*
G36*
G01*
X228515000Y-97992500D02*
X228515000Y-98142500D01*
G75*
G02*
X228440000Y-98217500I-75000J0D01*
G01*
X227115000Y-98217500D01*
G75*
G02*
X227040000Y-98142500I0J75000D01*
G01*
X227040000Y-97992500D01*
G75*
G02*
X227115000Y-97917500I75000J0D01*
G01*
X228440000Y-97917500D01*
G75*
G02*
X228515000Y-97992500I0J-75000D01*
G01*
G37*
G36*
G01*
X228515000Y-98492500D02*
X228515000Y-98642500D01*
G75*
G02*
X228440000Y-98717500I-75000J0D01*
G01*
X227115000Y-98717500D01*
G75*
G02*
X227040000Y-98642500I0J75000D01*
G01*
X227040000Y-98492500D01*
G75*
G02*
X227115000Y-98417500I75000J0D01*
G01*
X228440000Y-98417500D01*
G75*
G02*
X228515000Y-98492500I0J-75000D01*
G01*
G37*
G36*
G01*
X228515000Y-98992500D02*
X228515000Y-99142500D01*
G75*
G02*
X228440000Y-99217500I-75000J0D01*
G01*
X227115000Y-99217500D01*
G75*
G02*
X227040000Y-99142500I0J75000D01*
G01*
X227040000Y-98992500D01*
G75*
G02*
X227115000Y-98917500I75000J0D01*
G01*
X228440000Y-98917500D01*
G75*
G02*
X228515000Y-98992500I0J-75000D01*
G01*
G37*
G36*
G01*
X228515000Y-99492500D02*
X228515000Y-99642500D01*
G75*
G02*
X228440000Y-99717500I-75000J0D01*
G01*
X227115000Y-99717500D01*
G75*
G02*
X227040000Y-99642500I0J75000D01*
G01*
X227040000Y-99492500D01*
G75*
G02*
X227115000Y-99417500I75000J0D01*
G01*
X228440000Y-99417500D01*
G75*
G02*
X228515000Y-99492500I0J-75000D01*
G01*
G37*
G36*
G01*
X228515000Y-99992500D02*
X228515000Y-100142500D01*
G75*
G02*
X228440000Y-100217500I-75000J0D01*
G01*
X227115000Y-100217500D01*
G75*
G02*
X227040000Y-100142500I0J75000D01*
G01*
X227040000Y-99992500D01*
G75*
G02*
X227115000Y-99917500I75000J0D01*
G01*
X228440000Y-99917500D01*
G75*
G02*
X228515000Y-99992500I0J-75000D01*
G01*
G37*
G36*
G01*
X228515000Y-100492500D02*
X228515000Y-100642500D01*
G75*
G02*
X228440000Y-100717500I-75000J0D01*
G01*
X227115000Y-100717500D01*
G75*
G02*
X227040000Y-100642500I0J75000D01*
G01*
X227040000Y-100492500D01*
G75*
G02*
X227115000Y-100417500I75000J0D01*
G01*
X228440000Y-100417500D01*
G75*
G02*
X228515000Y-100492500I0J-75000D01*
G01*
G37*
G36*
G01*
X229340000Y-101317500D02*
X229340000Y-102642500D01*
G75*
G02*
X229265000Y-102717500I-75000J0D01*
G01*
X229115000Y-102717500D01*
G75*
G02*
X229040000Y-102642500I0J75000D01*
G01*
X229040000Y-101317500D01*
G75*
G02*
X229115000Y-101242500I75000J0D01*
G01*
X229265000Y-101242500D01*
G75*
G02*
X229340000Y-101317500I0J-75000D01*
G01*
G37*
G36*
G01*
X229840000Y-101317500D02*
X229840000Y-102642500D01*
G75*
G02*
X229765000Y-102717500I-75000J0D01*
G01*
X229615000Y-102717500D01*
G75*
G02*
X229540000Y-102642500I0J75000D01*
G01*
X229540000Y-101317500D01*
G75*
G02*
X229615000Y-101242500I75000J0D01*
G01*
X229765000Y-101242500D01*
G75*
G02*
X229840000Y-101317500I0J-75000D01*
G01*
G37*
G36*
G01*
X230340000Y-101317500D02*
X230340000Y-102642500D01*
G75*
G02*
X230265000Y-102717500I-75000J0D01*
G01*
X230115000Y-102717500D01*
G75*
G02*
X230040000Y-102642500I0J75000D01*
G01*
X230040000Y-101317500D01*
G75*
G02*
X230115000Y-101242500I75000J0D01*
G01*
X230265000Y-101242500D01*
G75*
G02*
X230340000Y-101317500I0J-75000D01*
G01*
G37*
G36*
G01*
X230840000Y-101317500D02*
X230840000Y-102642500D01*
G75*
G02*
X230765000Y-102717500I-75000J0D01*
G01*
X230615000Y-102717500D01*
G75*
G02*
X230540000Y-102642500I0J75000D01*
G01*
X230540000Y-101317500D01*
G75*
G02*
X230615000Y-101242500I75000J0D01*
G01*
X230765000Y-101242500D01*
G75*
G02*
X230840000Y-101317500I0J-75000D01*
G01*
G37*
G36*
G01*
X231340000Y-101317500D02*
X231340000Y-102642500D01*
G75*
G02*
X231265000Y-102717500I-75000J0D01*
G01*
X231115000Y-102717500D01*
G75*
G02*
X231040000Y-102642500I0J75000D01*
G01*
X231040000Y-101317500D01*
G75*
G02*
X231115000Y-101242500I75000J0D01*
G01*
X231265000Y-101242500D01*
G75*
G02*
X231340000Y-101317500I0J-75000D01*
G01*
G37*
G36*
G01*
X231840000Y-101317500D02*
X231840000Y-102642500D01*
G75*
G02*
X231765000Y-102717500I-75000J0D01*
G01*
X231615000Y-102717500D01*
G75*
G02*
X231540000Y-102642500I0J75000D01*
G01*
X231540000Y-101317500D01*
G75*
G02*
X231615000Y-101242500I75000J0D01*
G01*
X231765000Y-101242500D01*
G75*
G02*
X231840000Y-101317500I0J-75000D01*
G01*
G37*
G36*
G01*
X232340000Y-101317500D02*
X232340000Y-102642500D01*
G75*
G02*
X232265000Y-102717500I-75000J0D01*
G01*
X232115000Y-102717500D01*
G75*
G02*
X232040000Y-102642500I0J75000D01*
G01*
X232040000Y-101317500D01*
G75*
G02*
X232115000Y-101242500I75000J0D01*
G01*
X232265000Y-101242500D01*
G75*
G02*
X232340000Y-101317500I0J-75000D01*
G01*
G37*
G36*
G01*
X232840000Y-101317500D02*
X232840000Y-102642500D01*
G75*
G02*
X232765000Y-102717500I-75000J0D01*
G01*
X232615000Y-102717500D01*
G75*
G02*
X232540000Y-102642500I0J75000D01*
G01*
X232540000Y-101317500D01*
G75*
G02*
X232615000Y-101242500I75000J0D01*
G01*
X232765000Y-101242500D01*
G75*
G02*
X232840000Y-101317500I0J-75000D01*
G01*
G37*
G36*
G01*
X233340000Y-101317500D02*
X233340000Y-102642500D01*
G75*
G02*
X233265000Y-102717500I-75000J0D01*
G01*
X233115000Y-102717500D01*
G75*
G02*
X233040000Y-102642500I0J75000D01*
G01*
X233040000Y-101317500D01*
G75*
G02*
X233115000Y-101242500I75000J0D01*
G01*
X233265000Y-101242500D01*
G75*
G02*
X233340000Y-101317500I0J-75000D01*
G01*
G37*
G36*
G01*
X233840000Y-101317500D02*
X233840000Y-102642500D01*
G75*
G02*
X233765000Y-102717500I-75000J0D01*
G01*
X233615000Y-102717500D01*
G75*
G02*
X233540000Y-102642500I0J75000D01*
G01*
X233540000Y-101317500D01*
G75*
G02*
X233615000Y-101242500I75000J0D01*
G01*
X233765000Y-101242500D01*
G75*
G02*
X233840000Y-101317500I0J-75000D01*
G01*
G37*
G36*
G01*
X234340000Y-101317500D02*
X234340000Y-102642500D01*
G75*
G02*
X234265000Y-102717500I-75000J0D01*
G01*
X234115000Y-102717500D01*
G75*
G02*
X234040000Y-102642500I0J75000D01*
G01*
X234040000Y-101317500D01*
G75*
G02*
X234115000Y-101242500I75000J0D01*
G01*
X234265000Y-101242500D01*
G75*
G02*
X234340000Y-101317500I0J-75000D01*
G01*
G37*
G36*
G01*
X234840000Y-101317500D02*
X234840000Y-102642500D01*
G75*
G02*
X234765000Y-102717500I-75000J0D01*
G01*
X234615000Y-102717500D01*
G75*
G02*
X234540000Y-102642500I0J75000D01*
G01*
X234540000Y-101317500D01*
G75*
G02*
X234615000Y-101242500I75000J0D01*
G01*
X234765000Y-101242500D01*
G75*
G02*
X234840000Y-101317500I0J-75000D01*
G01*
G37*
D21*
X243490000Y-80850000D03*
X244440000Y-80850000D03*
X245390000Y-80850000D03*
X245390000Y-78650000D03*
X243490000Y-78650000D03*
G36*
G01*
X235973750Y-124915000D02*
X236886250Y-124915000D01*
G75*
G02*
X237130000Y-125158750I0J-243750D01*
G01*
X237130000Y-125646250D01*
G75*
G02*
X236886250Y-125890000I-243750J0D01*
G01*
X235973750Y-125890000D01*
G75*
G02*
X235730000Y-125646250I0J243750D01*
G01*
X235730000Y-125158750D01*
G75*
G02*
X235973750Y-124915000I243750J0D01*
G01*
G37*
G36*
G01*
X235973750Y-126790000D02*
X236886250Y-126790000D01*
G75*
G02*
X237130000Y-127033750I0J-243750D01*
G01*
X237130000Y-127521250D01*
G75*
G02*
X236886250Y-127765000I-243750J0D01*
G01*
X235973750Y-127765000D01*
G75*
G02*
X235730000Y-127521250I0J243750D01*
G01*
X235730000Y-127033750D01*
G75*
G02*
X235973750Y-126790000I243750J0D01*
G01*
G37*
G36*
G01*
X233340000Y-123896250D02*
X233340000Y-123383750D01*
G75*
G02*
X233558750Y-123165000I218750J0D01*
G01*
X233996250Y-123165000D01*
G75*
G02*
X234215000Y-123383750I0J-218750D01*
G01*
X234215000Y-123896250D01*
G75*
G02*
X233996250Y-124115000I-218750J0D01*
G01*
X233558750Y-124115000D01*
G75*
G02*
X233340000Y-123896250I0J218750D01*
G01*
G37*
G36*
G01*
X231765000Y-123896250D02*
X231765000Y-123383750D01*
G75*
G02*
X231983750Y-123165000I218750J0D01*
G01*
X232421250Y-123165000D01*
G75*
G02*
X232640000Y-123383750I0J-218750D01*
G01*
X232640000Y-123896250D01*
G75*
G02*
X232421250Y-124115000I-218750J0D01*
G01*
X231983750Y-124115000D01*
G75*
G02*
X231765000Y-123896250I0J218750D01*
G01*
G37*
G36*
G01*
X249195000Y-90736250D02*
X249195000Y-90223750D01*
G75*
G02*
X249413750Y-90005000I218750J0D01*
G01*
X249851250Y-90005000D01*
G75*
G02*
X250070000Y-90223750I0J-218750D01*
G01*
X250070000Y-90736250D01*
G75*
G02*
X249851250Y-90955000I-218750J0D01*
G01*
X249413750Y-90955000D01*
G75*
G02*
X249195000Y-90736250I0J218750D01*
G01*
G37*
G36*
G01*
X250770000Y-90736250D02*
X250770000Y-90223750D01*
G75*
G02*
X250988750Y-90005000I218750J0D01*
G01*
X251426250Y-90005000D01*
G75*
G02*
X251645000Y-90223750I0J-218750D01*
G01*
X251645000Y-90736250D01*
G75*
G02*
X251426250Y-90955000I-218750J0D01*
G01*
X250988750Y-90955000D01*
G75*
G02*
X250770000Y-90736250I0J218750D01*
G01*
G37*
D22*
X232320000Y-125460000D03*
X232320000Y-126410000D03*
X232320000Y-127360000D03*
X234520000Y-127360000D03*
X234520000Y-125460000D03*
X234520000Y-126410000D03*
D23*
X246730000Y-107590000D03*
X246730000Y-106690000D03*
X246730000Y-105790000D03*
X246730000Y-104890000D03*
X245530000Y-104890000D03*
X245530000Y-105790000D03*
X245530000Y-106690000D03*
X245530000Y-107590000D03*
G36*
G01*
X248142500Y-106085000D02*
X247797500Y-106085000D01*
G75*
G02*
X247650000Y-105937500I0J147500D01*
G01*
X247650000Y-105642500D01*
G75*
G02*
X247797500Y-105495000I147500J0D01*
G01*
X248142500Y-105495000D01*
G75*
G02*
X248290000Y-105642500I0J-147500D01*
G01*
X248290000Y-105937500D01*
G75*
G02*
X248142500Y-106085000I-147500J0D01*
G01*
G37*
G36*
G01*
X248142500Y-105115000D02*
X247797500Y-105115000D01*
G75*
G02*
X247650000Y-104967500I0J147500D01*
G01*
X247650000Y-104672500D01*
G75*
G02*
X247797500Y-104525000I147500J0D01*
G01*
X248142500Y-104525000D01*
G75*
G02*
X248290000Y-104672500I0J-147500D01*
G01*
X248290000Y-104967500D01*
G75*
G02*
X248142500Y-105115000I-147500J0D01*
G01*
G37*
G36*
G01*
X252637500Y-156020000D02*
X252982500Y-156020000D01*
G75*
G02*
X253130000Y-156167500I0J-147500D01*
G01*
X253130000Y-156462500D01*
G75*
G02*
X252982500Y-156610000I-147500J0D01*
G01*
X252637500Y-156610000D01*
G75*
G02*
X252490000Y-156462500I0J147500D01*
G01*
X252490000Y-156167500D01*
G75*
G02*
X252637500Y-156020000I147500J0D01*
G01*
G37*
G36*
G01*
X252637500Y-156990000D02*
X252982500Y-156990000D01*
G75*
G02*
X253130000Y-157137500I0J-147500D01*
G01*
X253130000Y-157432500D01*
G75*
G02*
X252982500Y-157580000I-147500J0D01*
G01*
X252637500Y-157580000D01*
G75*
G02*
X252490000Y-157432500I0J147500D01*
G01*
X252490000Y-157137500D01*
G75*
G02*
X252637500Y-156990000I147500J0D01*
G01*
G37*
G36*
G01*
X252982500Y-154350000D02*
X252637500Y-154350000D01*
G75*
G02*
X252490000Y-154202500I0J147500D01*
G01*
X252490000Y-153907500D01*
G75*
G02*
X252637500Y-153760000I147500J0D01*
G01*
X252982500Y-153760000D01*
G75*
G02*
X253130000Y-153907500I0J-147500D01*
G01*
X253130000Y-154202500D01*
G75*
G02*
X252982500Y-154350000I-147500J0D01*
G01*
G37*
G36*
G01*
X252982500Y-155320000D02*
X252637500Y-155320000D01*
G75*
G02*
X252490000Y-155172500I0J147500D01*
G01*
X252490000Y-154877500D01*
G75*
G02*
X252637500Y-154730000I147500J0D01*
G01*
X252982500Y-154730000D01*
G75*
G02*
X253130000Y-154877500I0J-147500D01*
G01*
X253130000Y-155172500D01*
G75*
G02*
X252982500Y-155320000I-147500J0D01*
G01*
G37*
D24*
X255925000Y-156965000D03*
X255925000Y-156315000D03*
X255925000Y-155665000D03*
X255925000Y-155015000D03*
X253875000Y-155015000D03*
X253875000Y-155665000D03*
X253875000Y-156315000D03*
X253875000Y-156965000D03*
D25*
X241700000Y-93340000D03*
X241700000Y-101840000D03*
M02*
