G04 #@! TF.GenerationSoftware,KiCad,Pcbnew,5.1.6*
G04 #@! TF.CreationDate,2020-09-07T17:12:55+08:00*
G04 #@! TF.ProjectId,bt_audio_rec,62745f61-7564-4696-9f5f-7265632e6b69,rev?*
G04 #@! TF.SameCoordinates,Original*
G04 #@! TF.FileFunction,Soldermask,Bot*
G04 #@! TF.FilePolarity,Negative*
%FSLAX46Y46*%
G04 Gerber Fmt 4.6, Leading zero omitted, Abs format (unit mm)*
G04 Created by KiCad (PCBNEW 5.1.6) date 2020-09-07 17:12:55*
%MOMM*%
%LPD*%
G01*
G04 APERTURE LIST*
%ADD10C,0.100000*%
G04 APERTURE END LIST*
D10*
G36*
X254562520Y-140104586D02*
G01*
X254726310Y-140172430D01*
X254873717Y-140270924D01*
X254999076Y-140396283D01*
X255097570Y-140543690D01*
X255165414Y-140707480D01*
X255200000Y-140881358D01*
X255200000Y-141058642D01*
X255165414Y-141232520D01*
X255097570Y-141396310D01*
X254999076Y-141543717D01*
X254873717Y-141669076D01*
X254726310Y-141767570D01*
X254726309Y-141767571D01*
X254726308Y-141767571D01*
X254562520Y-141835414D01*
X254388644Y-141870000D01*
X254211356Y-141870000D01*
X254037480Y-141835414D01*
X253873692Y-141767571D01*
X253873691Y-141767571D01*
X253873690Y-141767570D01*
X253726283Y-141669076D01*
X253600924Y-141543717D01*
X253502430Y-141396310D01*
X253434586Y-141232520D01*
X253400000Y-141058642D01*
X253400000Y-140881358D01*
X253434586Y-140707480D01*
X253502430Y-140543690D01*
X253600924Y-140396283D01*
X253726283Y-140270924D01*
X253873690Y-140172430D01*
X254037480Y-140104586D01*
X254211356Y-140070000D01*
X254388644Y-140070000D01*
X254562520Y-140104586D01*
G37*
G36*
X252022520Y-140104586D02*
G01*
X252186310Y-140172430D01*
X252333717Y-140270924D01*
X252459076Y-140396283D01*
X252557570Y-140543690D01*
X252625414Y-140707480D01*
X252660000Y-140881358D01*
X252660000Y-141058642D01*
X252625414Y-141232520D01*
X252557570Y-141396310D01*
X252459076Y-141543717D01*
X252333717Y-141669076D01*
X252186310Y-141767570D01*
X252186309Y-141767571D01*
X252186308Y-141767571D01*
X252022520Y-141835414D01*
X251848644Y-141870000D01*
X251671356Y-141870000D01*
X251497480Y-141835414D01*
X251333692Y-141767571D01*
X251333691Y-141767571D01*
X251333690Y-141767570D01*
X251186283Y-141669076D01*
X251060924Y-141543717D01*
X250962430Y-141396310D01*
X250894586Y-141232520D01*
X250860000Y-141058642D01*
X250860000Y-140881358D01*
X250894586Y-140707480D01*
X250962430Y-140543690D01*
X251060924Y-140396283D01*
X251186283Y-140270924D01*
X251333690Y-140172430D01*
X251497480Y-140104586D01*
X251671356Y-140070000D01*
X251848644Y-140070000D01*
X252022520Y-140104586D01*
G37*
G36*
X254562520Y-137564586D02*
G01*
X254726310Y-137632430D01*
X254873717Y-137730924D01*
X254999076Y-137856283D01*
X255097570Y-138003690D01*
X255165414Y-138167480D01*
X255200000Y-138341358D01*
X255200000Y-138518642D01*
X255165414Y-138692520D01*
X255097570Y-138856310D01*
X254999076Y-139003717D01*
X254873717Y-139129076D01*
X254726310Y-139227570D01*
X254726309Y-139227571D01*
X254726308Y-139227571D01*
X254562520Y-139295414D01*
X254388644Y-139330000D01*
X254211356Y-139330000D01*
X254037480Y-139295414D01*
X253873692Y-139227571D01*
X253873691Y-139227571D01*
X253873690Y-139227570D01*
X253726283Y-139129076D01*
X253600924Y-139003717D01*
X253502430Y-138856310D01*
X253434586Y-138692520D01*
X253400000Y-138518642D01*
X253400000Y-138341358D01*
X253434586Y-138167480D01*
X253502430Y-138003690D01*
X253600924Y-137856283D01*
X253726283Y-137730924D01*
X253873690Y-137632430D01*
X254037480Y-137564586D01*
X254211356Y-137530000D01*
X254388644Y-137530000D01*
X254562520Y-137564586D01*
G37*
G36*
X252022520Y-137564586D02*
G01*
X252186310Y-137632430D01*
X252333717Y-137730924D01*
X252459076Y-137856283D01*
X252557570Y-138003690D01*
X252625414Y-138167480D01*
X252660000Y-138341358D01*
X252660000Y-138518642D01*
X252625414Y-138692520D01*
X252557570Y-138856310D01*
X252459076Y-139003717D01*
X252333717Y-139129076D01*
X252186310Y-139227570D01*
X252186309Y-139227571D01*
X252186308Y-139227571D01*
X252022520Y-139295414D01*
X251848644Y-139330000D01*
X251671356Y-139330000D01*
X251497480Y-139295414D01*
X251333692Y-139227571D01*
X251333691Y-139227571D01*
X251333690Y-139227570D01*
X251186283Y-139129076D01*
X251060924Y-139003717D01*
X250962430Y-138856310D01*
X250894586Y-138692520D01*
X250860000Y-138518642D01*
X250860000Y-138341358D01*
X250894586Y-138167480D01*
X250962430Y-138003690D01*
X251060924Y-137856283D01*
X251186283Y-137730924D01*
X251333690Y-137632430D01*
X251497480Y-137564586D01*
X251671356Y-137530000D01*
X251848644Y-137530000D01*
X252022520Y-137564586D01*
G37*
G36*
X255200000Y-136790000D02*
G01*
X253400000Y-136790000D01*
X253400000Y-134990000D01*
X255200000Y-134990000D01*
X255200000Y-136790000D01*
G37*
G36*
X252022520Y-135024586D02*
G01*
X252186310Y-135092430D01*
X252333717Y-135190924D01*
X252459076Y-135316283D01*
X252557570Y-135463690D01*
X252625414Y-135627480D01*
X252660000Y-135801358D01*
X252660000Y-135978642D01*
X252625414Y-136152520D01*
X252557570Y-136316310D01*
X252459076Y-136463717D01*
X252333717Y-136589076D01*
X252186310Y-136687570D01*
X252186309Y-136687571D01*
X252186308Y-136687571D01*
X252022520Y-136755414D01*
X251848644Y-136790000D01*
X251671356Y-136790000D01*
X251497480Y-136755414D01*
X251333692Y-136687571D01*
X251333691Y-136687571D01*
X251333690Y-136687570D01*
X251186283Y-136589076D01*
X251060924Y-136463717D01*
X250962430Y-136316310D01*
X250894586Y-136152520D01*
X250860000Y-135978642D01*
X250860000Y-135801358D01*
X250894586Y-135627480D01*
X250962430Y-135463690D01*
X251060924Y-135316283D01*
X251186283Y-135190924D01*
X251333690Y-135092430D01*
X251497480Y-135024586D01*
X251671356Y-134990000D01*
X251848644Y-134990000D01*
X252022520Y-135024586D01*
G37*
G36*
X245677935Y-129122664D02*
G01*
X245832624Y-129186739D01*
X245832626Y-129186740D01*
X245971844Y-129279762D01*
X246090238Y-129398156D01*
X246183260Y-129537374D01*
X246183261Y-129537376D01*
X246247336Y-129692065D01*
X246280000Y-129856281D01*
X246280000Y-130023719D01*
X246247336Y-130187935D01*
X246183261Y-130342624D01*
X246183260Y-130342626D01*
X246090238Y-130481844D01*
X245971844Y-130600238D01*
X245832626Y-130693260D01*
X245832625Y-130693261D01*
X245832624Y-130693261D01*
X245677935Y-130757336D01*
X245513719Y-130790000D01*
X245346281Y-130790000D01*
X245182065Y-130757336D01*
X245027376Y-130693261D01*
X245027375Y-130693261D01*
X245027374Y-130693260D01*
X244888156Y-130600238D01*
X244769762Y-130481844D01*
X244676740Y-130342626D01*
X244676739Y-130342624D01*
X244612664Y-130187935D01*
X244580000Y-130023719D01*
X244580000Y-129856281D01*
X244612664Y-129692065D01*
X244676739Y-129537376D01*
X244676740Y-129537374D01*
X244769762Y-129398156D01*
X244888156Y-129279762D01*
X245027374Y-129186740D01*
X245027376Y-129186739D01*
X245182065Y-129122664D01*
X245346281Y-129090000D01*
X245513719Y-129090000D01*
X245677935Y-129122664D01*
G37*
G36*
X256452520Y-124084586D02*
G01*
X256616310Y-124152430D01*
X256763717Y-124250924D01*
X256889076Y-124376283D01*
X256987570Y-124523690D01*
X257055414Y-124687480D01*
X257090000Y-124861358D01*
X257090000Y-125038642D01*
X257055414Y-125212520D01*
X256987570Y-125376310D01*
X256889076Y-125523717D01*
X256763717Y-125649076D01*
X256616310Y-125747570D01*
X256616309Y-125747571D01*
X256616308Y-125747571D01*
X256452520Y-125815414D01*
X256278644Y-125850000D01*
X256101356Y-125850000D01*
X255927480Y-125815414D01*
X255763692Y-125747571D01*
X255763691Y-125747571D01*
X255763690Y-125747570D01*
X255616283Y-125649076D01*
X255490924Y-125523717D01*
X255392430Y-125376310D01*
X255324586Y-125212520D01*
X255290000Y-125038642D01*
X255290000Y-124861358D01*
X255324586Y-124687480D01*
X255392430Y-124523690D01*
X255490924Y-124376283D01*
X255616283Y-124250924D01*
X255763690Y-124152430D01*
X255927480Y-124084586D01*
X256101356Y-124050000D01*
X256278644Y-124050000D01*
X256452520Y-124084586D01*
G37*
G36*
X253912520Y-124084586D02*
G01*
X254076310Y-124152430D01*
X254223717Y-124250924D01*
X254349076Y-124376283D01*
X254447570Y-124523690D01*
X254515414Y-124687480D01*
X254550000Y-124861358D01*
X254550000Y-125038642D01*
X254515414Y-125212520D01*
X254447570Y-125376310D01*
X254349076Y-125523717D01*
X254223717Y-125649076D01*
X254076310Y-125747570D01*
X254076309Y-125747571D01*
X254076308Y-125747571D01*
X253912520Y-125815414D01*
X253738644Y-125850000D01*
X253561356Y-125850000D01*
X253387480Y-125815414D01*
X253223692Y-125747571D01*
X253223691Y-125747571D01*
X253223690Y-125747570D01*
X253076283Y-125649076D01*
X252950924Y-125523717D01*
X252852430Y-125376310D01*
X252784586Y-125212520D01*
X252750000Y-125038642D01*
X252750000Y-124861358D01*
X252784586Y-124687480D01*
X252852430Y-124523690D01*
X252950924Y-124376283D01*
X253076283Y-124250924D01*
X253223690Y-124152430D01*
X253387480Y-124084586D01*
X253561356Y-124050000D01*
X253738644Y-124050000D01*
X253912520Y-124084586D01*
G37*
G36*
X256452520Y-121544586D02*
G01*
X256616310Y-121612430D01*
X256763717Y-121710924D01*
X256889076Y-121836283D01*
X256987570Y-121983690D01*
X256987571Y-121983692D01*
X257027918Y-122081099D01*
X257055414Y-122147480D01*
X257090000Y-122321358D01*
X257090000Y-122498642D01*
X257055414Y-122672520D01*
X256987570Y-122836310D01*
X256889076Y-122983717D01*
X256763717Y-123109076D01*
X256616310Y-123207570D01*
X256616309Y-123207571D01*
X256616308Y-123207571D01*
X256452520Y-123275414D01*
X256278644Y-123310000D01*
X256101356Y-123310000D01*
X255927480Y-123275414D01*
X255763692Y-123207571D01*
X255763691Y-123207571D01*
X255763690Y-123207570D01*
X255616283Y-123109076D01*
X255490924Y-122983717D01*
X255392430Y-122836310D01*
X255324586Y-122672520D01*
X255290000Y-122498642D01*
X255290000Y-122321358D01*
X255324586Y-122147480D01*
X255352082Y-122081099D01*
X255392429Y-121983692D01*
X255392430Y-121983690D01*
X255490924Y-121836283D01*
X255616283Y-121710924D01*
X255763690Y-121612430D01*
X255927480Y-121544586D01*
X256101356Y-121510000D01*
X256278644Y-121510000D01*
X256452520Y-121544586D01*
G37*
G36*
X253912520Y-121544586D02*
G01*
X254076310Y-121612430D01*
X254223717Y-121710924D01*
X254349076Y-121836283D01*
X254447570Y-121983690D01*
X254447571Y-121983692D01*
X254487918Y-122081099D01*
X254515414Y-122147480D01*
X254550000Y-122321358D01*
X254550000Y-122498642D01*
X254515414Y-122672520D01*
X254447570Y-122836310D01*
X254349076Y-122983717D01*
X254223717Y-123109076D01*
X254076310Y-123207570D01*
X254076309Y-123207571D01*
X254076308Y-123207571D01*
X253912520Y-123275414D01*
X253738644Y-123310000D01*
X253561356Y-123310000D01*
X253387480Y-123275414D01*
X253223692Y-123207571D01*
X253223691Y-123207571D01*
X253223690Y-123207570D01*
X253076283Y-123109076D01*
X252950924Y-122983717D01*
X252852430Y-122836310D01*
X252784586Y-122672520D01*
X252750000Y-122498642D01*
X252750000Y-122321358D01*
X252784586Y-122147480D01*
X252812082Y-122081099D01*
X252852429Y-121983692D01*
X252852430Y-121983690D01*
X252950924Y-121836283D01*
X253076283Y-121710924D01*
X253223690Y-121612430D01*
X253387480Y-121544586D01*
X253561356Y-121510000D01*
X253738644Y-121510000D01*
X253912520Y-121544586D01*
G37*
G36*
X236680351Y-119818312D02*
G01*
X236830037Y-119863719D01*
X236853775Y-119870920D01*
X237013593Y-119956344D01*
X237013596Y-119956346D01*
X237013597Y-119956347D01*
X237153686Y-120071314D01*
X237268653Y-120211403D01*
X237268656Y-120211407D01*
X237354080Y-120371225D01*
X237354081Y-120371228D01*
X237406688Y-120544649D01*
X237406688Y-120544651D01*
X237420000Y-120679808D01*
X237420000Y-121220193D01*
X237406688Y-121355350D01*
X237354080Y-121528775D01*
X237268656Y-121688593D01*
X237268654Y-121688596D01*
X237268653Y-121688597D01*
X237153686Y-121828686D01*
X237050249Y-121913573D01*
X237013593Y-121943656D01*
X236853775Y-122029080D01*
X236807125Y-122043231D01*
X236680350Y-122081688D01*
X236500000Y-122099451D01*
X236319649Y-122081688D01*
X236146228Y-122029081D01*
X236146225Y-122029080D01*
X235986407Y-121943656D01*
X235986403Y-121943653D01*
X235846314Y-121828686D01*
X235749671Y-121710924D01*
X235731344Y-121688593D01*
X235645920Y-121528775D01*
X235624195Y-121457157D01*
X235593312Y-121355350D01*
X235580000Y-121220191D01*
X235580000Y-120679808D01*
X235593312Y-120544649D01*
X235645919Y-120371228D01*
X235645919Y-120371227D01*
X235731347Y-120211405D01*
X235731348Y-120211403D01*
X235846315Y-120071314D01*
X235986404Y-119956347D01*
X235986405Y-119956346D01*
X235986408Y-119956344D01*
X236146226Y-119870920D01*
X236169964Y-119863719D01*
X236319650Y-119818312D01*
X236500000Y-119800549D01*
X236680351Y-119818312D01*
G37*
G36*
X239220351Y-119818312D02*
G01*
X239370037Y-119863719D01*
X239393775Y-119870920D01*
X239553593Y-119956344D01*
X239553596Y-119956346D01*
X239553597Y-119956347D01*
X239693686Y-120071314D01*
X239808653Y-120211403D01*
X239808656Y-120211407D01*
X239894080Y-120371225D01*
X239894081Y-120371228D01*
X239946688Y-120544649D01*
X239946688Y-120544651D01*
X239960000Y-120679808D01*
X239960000Y-121220193D01*
X239946688Y-121355350D01*
X239894080Y-121528775D01*
X239808656Y-121688593D01*
X239808654Y-121688596D01*
X239808653Y-121688597D01*
X239693686Y-121828686D01*
X239590249Y-121913573D01*
X239553593Y-121943656D01*
X239393775Y-122029080D01*
X239347125Y-122043231D01*
X239220350Y-122081688D01*
X239040000Y-122099451D01*
X238859649Y-122081688D01*
X238686228Y-122029081D01*
X238686225Y-122029080D01*
X238526407Y-121943656D01*
X238526403Y-121943653D01*
X238386314Y-121828686D01*
X238289671Y-121710924D01*
X238271344Y-121688593D01*
X238185920Y-121528775D01*
X238164195Y-121457157D01*
X238133312Y-121355350D01*
X238120000Y-121220191D01*
X238120000Y-120679808D01*
X238133312Y-120544649D01*
X238185919Y-120371228D01*
X238185919Y-120371227D01*
X238271347Y-120211405D01*
X238271348Y-120211403D01*
X238386315Y-120071314D01*
X238526404Y-119956347D01*
X238526405Y-119956346D01*
X238526408Y-119956344D01*
X238686226Y-119870920D01*
X238709964Y-119863719D01*
X238859650Y-119818312D01*
X239040000Y-119800549D01*
X239220351Y-119818312D01*
G37*
G36*
X242358793Y-119808961D02*
G01*
X242391559Y-119818901D01*
X242421759Y-119835043D01*
X242448231Y-119856769D01*
X242469957Y-119883241D01*
X242486099Y-119913441D01*
X242496039Y-119946207D01*
X242500000Y-119986427D01*
X242500000Y-121913573D01*
X242496039Y-121953793D01*
X242486099Y-121986559D01*
X242469957Y-122016759D01*
X242448231Y-122043231D01*
X242421759Y-122064957D01*
X242391559Y-122081099D01*
X242358793Y-122091039D01*
X242318573Y-122095000D01*
X240841427Y-122095000D01*
X240801207Y-122091039D01*
X240768441Y-122081099D01*
X240738241Y-122064957D01*
X240711769Y-122043231D01*
X240690043Y-122016759D01*
X240673901Y-121986559D01*
X240663961Y-121953793D01*
X240660000Y-121913573D01*
X240660000Y-119986427D01*
X240663961Y-119946207D01*
X240673901Y-119913441D01*
X240690043Y-119883241D01*
X240711769Y-119856769D01*
X240738241Y-119835043D01*
X240768441Y-119818901D01*
X240801207Y-119808961D01*
X240841427Y-119805000D01*
X242318573Y-119805000D01*
X242358793Y-119808961D01*
G37*
G36*
X253912520Y-119004586D02*
G01*
X254076310Y-119072430D01*
X254223717Y-119170924D01*
X254349076Y-119296283D01*
X254403259Y-119377374D01*
X254447571Y-119443692D01*
X254515414Y-119607480D01*
X254550000Y-119781356D01*
X254550000Y-119958644D01*
X254527588Y-120071315D01*
X254515414Y-120132520D01*
X254447570Y-120296310D01*
X254349076Y-120443717D01*
X254223717Y-120569076D01*
X254076310Y-120667570D01*
X254076309Y-120667571D01*
X254076308Y-120667571D01*
X253912520Y-120735414D01*
X253738644Y-120770000D01*
X253561356Y-120770000D01*
X253387480Y-120735414D01*
X253223692Y-120667571D01*
X253223691Y-120667571D01*
X253223690Y-120667570D01*
X253076283Y-120569076D01*
X252950924Y-120443717D01*
X252852430Y-120296310D01*
X252784586Y-120132520D01*
X252772412Y-120071315D01*
X252750000Y-119958644D01*
X252750000Y-119781356D01*
X252784586Y-119607480D01*
X252852429Y-119443692D01*
X252896741Y-119377374D01*
X252950924Y-119296283D01*
X253076283Y-119170924D01*
X253223690Y-119072430D01*
X253387480Y-119004586D01*
X253561356Y-118970000D01*
X253738644Y-118970000D01*
X253912520Y-119004586D01*
G37*
G36*
X257090000Y-120770000D02*
G01*
X255290000Y-120770000D01*
X255290000Y-118970000D01*
X257090000Y-118970000D01*
X257090000Y-120770000D01*
G37*
G36*
X245677935Y-118962664D02*
G01*
X245832624Y-119026739D01*
X245832626Y-119026740D01*
X245971844Y-119119762D01*
X246090238Y-119238156D01*
X246183260Y-119377374D01*
X246183261Y-119377376D01*
X246247336Y-119532065D01*
X246280000Y-119696281D01*
X246280000Y-119863719D01*
X246247336Y-120027935D01*
X246229367Y-120071315D01*
X246183260Y-120182626D01*
X246090238Y-120321844D01*
X245971844Y-120440238D01*
X245832626Y-120533260D01*
X245832625Y-120533261D01*
X245832624Y-120533261D01*
X245677935Y-120597336D01*
X245513719Y-120630000D01*
X245346281Y-120630000D01*
X245182065Y-120597336D01*
X245027376Y-120533261D01*
X245027375Y-120533261D01*
X245027374Y-120533260D01*
X244888156Y-120440238D01*
X244769762Y-120321844D01*
X244676740Y-120182626D01*
X244630633Y-120071315D01*
X244612664Y-120027935D01*
X244580000Y-119863719D01*
X244580000Y-119696281D01*
X244612664Y-119532065D01*
X244676739Y-119377376D01*
X244676740Y-119377374D01*
X244769762Y-119238156D01*
X244888156Y-119119762D01*
X245027374Y-119026740D01*
X245027376Y-119026739D01*
X245182065Y-118962664D01*
X245346281Y-118930000D01*
X245513719Y-118930000D01*
X245677935Y-118962664D01*
G37*
G36*
X216705997Y-114013280D02*
G01*
X216717422Y-114014405D01*
X216754379Y-114025616D01*
X216839947Y-114051573D01*
X216952867Y-114111930D01*
X217051843Y-114193157D01*
X217133070Y-114292132D01*
X217193427Y-114405052D01*
X217230595Y-114527578D01*
X217240000Y-114623068D01*
X217240000Y-115236932D01*
X217230595Y-115332422D01*
X217193427Y-115454948D01*
X217133070Y-115567868D01*
X217051843Y-115666843D01*
X216952868Y-115748070D01*
X216839948Y-115808427D01*
X216798032Y-115821142D01*
X216717423Y-115845595D01*
X216705998Y-115846720D01*
X216590000Y-115858145D01*
X216474003Y-115846720D01*
X216462578Y-115845595D01*
X216381969Y-115821142D01*
X216340053Y-115808427D01*
X216227133Y-115748070D01*
X216128158Y-115666843D01*
X216046930Y-115567868D01*
X215986573Y-115454948D01*
X215949405Y-115332422D01*
X215940000Y-115236932D01*
X215940000Y-114623069D01*
X215949405Y-114527579D01*
X215949406Y-114527577D01*
X215986573Y-114405054D01*
X215986573Y-114405053D01*
X216046930Y-114292133D01*
X216128157Y-114193157D01*
X216227132Y-114111930D01*
X216340052Y-114051573D01*
X216425620Y-114025616D01*
X216462577Y-114014405D01*
X216474002Y-114013280D01*
X216590000Y-114001855D01*
X216705997Y-114013280D01*
G37*
G36*
X225915997Y-114013280D02*
G01*
X225927422Y-114014405D01*
X225964379Y-114025616D01*
X226049947Y-114051573D01*
X226162867Y-114111930D01*
X226261843Y-114193157D01*
X226343070Y-114292132D01*
X226403427Y-114405052D01*
X226440595Y-114527578D01*
X226450000Y-114623068D01*
X226450000Y-115236932D01*
X226440595Y-115332422D01*
X226403427Y-115454948D01*
X226343070Y-115567868D01*
X226261843Y-115666843D01*
X226162868Y-115748070D01*
X226049948Y-115808427D01*
X226008032Y-115821142D01*
X225927423Y-115845595D01*
X225915998Y-115846720D01*
X225800000Y-115858145D01*
X225684003Y-115846720D01*
X225672578Y-115845595D01*
X225591969Y-115821142D01*
X225550053Y-115808427D01*
X225437133Y-115748070D01*
X225338158Y-115666843D01*
X225256930Y-115567868D01*
X225196573Y-115454948D01*
X225159405Y-115332422D01*
X225150000Y-115236932D01*
X225150000Y-114623069D01*
X225159405Y-114527579D01*
X225159406Y-114527577D01*
X225196573Y-114405054D01*
X225196573Y-114405053D01*
X225256930Y-114292133D01*
X225338157Y-114193157D01*
X225437132Y-114111930D01*
X225550052Y-114051573D01*
X225635620Y-114025616D01*
X225672577Y-114014405D01*
X225684002Y-114013280D01*
X225800000Y-114001855D01*
X225915997Y-114013280D01*
G37*
G36*
X227915997Y-114013280D02*
G01*
X227927422Y-114014405D01*
X227964379Y-114025616D01*
X228049947Y-114051573D01*
X228162867Y-114111930D01*
X228261843Y-114193157D01*
X228343070Y-114292132D01*
X228403427Y-114405052D01*
X228440595Y-114527578D01*
X228450000Y-114623068D01*
X228450000Y-115236932D01*
X228440595Y-115332422D01*
X228403427Y-115454948D01*
X228343070Y-115567868D01*
X228261843Y-115666843D01*
X228162868Y-115748070D01*
X228049948Y-115808427D01*
X228008032Y-115821142D01*
X227927423Y-115845595D01*
X227915998Y-115846720D01*
X227800000Y-115858145D01*
X227684003Y-115846720D01*
X227672578Y-115845595D01*
X227591969Y-115821142D01*
X227550053Y-115808427D01*
X227437133Y-115748070D01*
X227338158Y-115666843D01*
X227256930Y-115567868D01*
X227196573Y-115454948D01*
X227159405Y-115332422D01*
X227150000Y-115236932D01*
X227150000Y-114623069D01*
X227159405Y-114527579D01*
X227159406Y-114527577D01*
X227196573Y-114405054D01*
X227196573Y-114405053D01*
X227256930Y-114292133D01*
X227338157Y-114193157D01*
X227437132Y-114111930D01*
X227550052Y-114051573D01*
X227635620Y-114025616D01*
X227672577Y-114014405D01*
X227684002Y-114013280D01*
X227800000Y-114001855D01*
X227915997Y-114013280D01*
G37*
G36*
X218705997Y-114013280D02*
G01*
X218717422Y-114014405D01*
X218754379Y-114025616D01*
X218839947Y-114051573D01*
X218952867Y-114111930D01*
X219051843Y-114193157D01*
X219133070Y-114292132D01*
X219193427Y-114405052D01*
X219230595Y-114527578D01*
X219240000Y-114623068D01*
X219240000Y-115236932D01*
X219230595Y-115332422D01*
X219193427Y-115454948D01*
X219133070Y-115567868D01*
X219051843Y-115666843D01*
X218952868Y-115748070D01*
X218839948Y-115808427D01*
X218798032Y-115821142D01*
X218717423Y-115845595D01*
X218705998Y-115846720D01*
X218590000Y-115858145D01*
X218474003Y-115846720D01*
X218462578Y-115845595D01*
X218381969Y-115821142D01*
X218340053Y-115808427D01*
X218227133Y-115748070D01*
X218128158Y-115666843D01*
X218046930Y-115567868D01*
X217986573Y-115454948D01*
X217949405Y-115332422D01*
X217940000Y-115236932D01*
X217940000Y-114623069D01*
X217949405Y-114527579D01*
X217949406Y-114527577D01*
X217986573Y-114405054D01*
X217986573Y-114405053D01*
X218046930Y-114292133D01*
X218128157Y-114193157D01*
X218227132Y-114111930D01*
X218340052Y-114051573D01*
X218425620Y-114025616D01*
X218462577Y-114014405D01*
X218474002Y-114013280D01*
X218590000Y-114001855D01*
X218705997Y-114013280D01*
G37*
G36*
X215080578Y-114009396D02*
G01*
X215117591Y-114020624D01*
X215151705Y-114038858D01*
X215181604Y-114063396D01*
X215206142Y-114093295D01*
X215224376Y-114127409D01*
X215235604Y-114164422D01*
X215240000Y-114209057D01*
X215240000Y-115650943D01*
X215235604Y-115695578D01*
X215224376Y-115732591D01*
X215206142Y-115766705D01*
X215181604Y-115796604D01*
X215151705Y-115821142D01*
X215117591Y-115839376D01*
X215080578Y-115850604D01*
X215035943Y-115855000D01*
X214144057Y-115855000D01*
X214099422Y-115850604D01*
X214062409Y-115839376D01*
X214028295Y-115821142D01*
X213998396Y-115796604D01*
X213973858Y-115766705D01*
X213955624Y-115732591D01*
X213944396Y-115695578D01*
X213940000Y-115650943D01*
X213940000Y-114209057D01*
X213944396Y-114164422D01*
X213955624Y-114127409D01*
X213973858Y-114093295D01*
X213998396Y-114063396D01*
X214028295Y-114038858D01*
X214062409Y-114020624D01*
X214099422Y-114009396D01*
X214144057Y-114005000D01*
X215035943Y-114005000D01*
X215080578Y-114009396D01*
G37*
G36*
X224290578Y-114009396D02*
G01*
X224327591Y-114020624D01*
X224361705Y-114038858D01*
X224391604Y-114063396D01*
X224416142Y-114093295D01*
X224434376Y-114127409D01*
X224445604Y-114164422D01*
X224450000Y-114209057D01*
X224450000Y-115650943D01*
X224445604Y-115695578D01*
X224434376Y-115732591D01*
X224416142Y-115766705D01*
X224391604Y-115796604D01*
X224361705Y-115821142D01*
X224327591Y-115839376D01*
X224290578Y-115850604D01*
X224245943Y-115855000D01*
X223354057Y-115855000D01*
X223309422Y-115850604D01*
X223272409Y-115839376D01*
X223238295Y-115821142D01*
X223208396Y-115796604D01*
X223183858Y-115766705D01*
X223165624Y-115732591D01*
X223154396Y-115695578D01*
X223150000Y-115650943D01*
X223150000Y-114209057D01*
X223154396Y-114164422D01*
X223165624Y-114127409D01*
X223183858Y-114093295D01*
X223208396Y-114063396D01*
X223238295Y-114038858D01*
X223272409Y-114020624D01*
X223309422Y-114009396D01*
X223354057Y-114005000D01*
X224245943Y-114005000D01*
X224290578Y-114009396D01*
G37*
G36*
X236310000Y-114020000D02*
G01*
X234510000Y-114020000D01*
X234510000Y-112220000D01*
X236310000Y-112220000D01*
X236310000Y-114020000D01*
G37*
G36*
X243292520Y-112254586D02*
G01*
X243456310Y-112322430D01*
X243603717Y-112420924D01*
X243729076Y-112546283D01*
X243827570Y-112693690D01*
X243895414Y-112857480D01*
X243930000Y-113031358D01*
X243930000Y-113208642D01*
X243895414Y-113382520D01*
X243827570Y-113546310D01*
X243729076Y-113693717D01*
X243603717Y-113819076D01*
X243456310Y-113917570D01*
X243456309Y-113917571D01*
X243456308Y-113917571D01*
X243292520Y-113985414D01*
X243118644Y-114020000D01*
X242941356Y-114020000D01*
X242767480Y-113985414D01*
X242603692Y-113917571D01*
X242603691Y-113917571D01*
X242603690Y-113917570D01*
X242456283Y-113819076D01*
X242330924Y-113693717D01*
X242232430Y-113546310D01*
X242164586Y-113382520D01*
X242130000Y-113208642D01*
X242130000Y-113031358D01*
X242164586Y-112857480D01*
X242232430Y-112693690D01*
X242330924Y-112546283D01*
X242456283Y-112420924D01*
X242603690Y-112322430D01*
X242767480Y-112254586D01*
X242941356Y-112220000D01*
X243118644Y-112220000D01*
X243292520Y-112254586D01*
G37*
G36*
X238212520Y-112254586D02*
G01*
X238376310Y-112322430D01*
X238523717Y-112420924D01*
X238649076Y-112546283D01*
X238747570Y-112693690D01*
X238815414Y-112857480D01*
X238850000Y-113031358D01*
X238850000Y-113208642D01*
X238815414Y-113382520D01*
X238747570Y-113546310D01*
X238649076Y-113693717D01*
X238523717Y-113819076D01*
X238376310Y-113917570D01*
X238376309Y-113917571D01*
X238376308Y-113917571D01*
X238212520Y-113985414D01*
X238038644Y-114020000D01*
X237861356Y-114020000D01*
X237687480Y-113985414D01*
X237523692Y-113917571D01*
X237523691Y-113917571D01*
X237523690Y-113917570D01*
X237376283Y-113819076D01*
X237250924Y-113693717D01*
X237152430Y-113546310D01*
X237084586Y-113382520D01*
X237050000Y-113208642D01*
X237050000Y-113031358D01*
X237084586Y-112857480D01*
X237152430Y-112693690D01*
X237250924Y-112546283D01*
X237376283Y-112420924D01*
X237523690Y-112322430D01*
X237687480Y-112254586D01*
X237861356Y-112220000D01*
X238038644Y-112220000D01*
X238212520Y-112254586D01*
G37*
G36*
X240752520Y-112254586D02*
G01*
X240916310Y-112322430D01*
X241063717Y-112420924D01*
X241189076Y-112546283D01*
X241287570Y-112693690D01*
X241355414Y-112857480D01*
X241390000Y-113031358D01*
X241390000Y-113208642D01*
X241355414Y-113382520D01*
X241287570Y-113546310D01*
X241189076Y-113693717D01*
X241063717Y-113819076D01*
X240916310Y-113917570D01*
X240916309Y-113917571D01*
X240916308Y-113917571D01*
X240752520Y-113985414D01*
X240578644Y-114020000D01*
X240401356Y-114020000D01*
X240227480Y-113985414D01*
X240063692Y-113917571D01*
X240063691Y-113917571D01*
X240063690Y-113917570D01*
X239916283Y-113819076D01*
X239790924Y-113693717D01*
X239692430Y-113546310D01*
X239624586Y-113382520D01*
X239590000Y-113208642D01*
X239590000Y-113031358D01*
X239624586Y-112857480D01*
X239692430Y-112693690D01*
X239790924Y-112546283D01*
X239916283Y-112420924D01*
X240063690Y-112322430D01*
X240227480Y-112254586D01*
X240401356Y-112220000D01*
X240578644Y-112220000D01*
X240752520Y-112254586D01*
G37*
G36*
X243292520Y-109714586D02*
G01*
X243456310Y-109782430D01*
X243603717Y-109880924D01*
X243729076Y-110006283D01*
X243827570Y-110153690D01*
X243895414Y-110317480D01*
X243930000Y-110491358D01*
X243930000Y-110668642D01*
X243895414Y-110842520D01*
X243827570Y-111006310D01*
X243729076Y-111153717D01*
X243603717Y-111279076D01*
X243456310Y-111377570D01*
X243456309Y-111377571D01*
X243456308Y-111377571D01*
X243292520Y-111445414D01*
X243118644Y-111480000D01*
X242941356Y-111480000D01*
X242767480Y-111445414D01*
X242603692Y-111377571D01*
X242603691Y-111377571D01*
X242603690Y-111377570D01*
X242456283Y-111279076D01*
X242330924Y-111153717D01*
X242232430Y-111006310D01*
X242164586Y-110842520D01*
X242130000Y-110668642D01*
X242130000Y-110491358D01*
X242164586Y-110317480D01*
X242232430Y-110153690D01*
X242330924Y-110006283D01*
X242456283Y-109880924D01*
X242603690Y-109782430D01*
X242767480Y-109714586D01*
X242941356Y-109680000D01*
X243118644Y-109680000D01*
X243292520Y-109714586D01*
G37*
G36*
X240752520Y-109714586D02*
G01*
X240916310Y-109782430D01*
X241063717Y-109880924D01*
X241189076Y-110006283D01*
X241287570Y-110153690D01*
X241355414Y-110317480D01*
X241390000Y-110491358D01*
X241390000Y-110668642D01*
X241355414Y-110842520D01*
X241287570Y-111006310D01*
X241189076Y-111153717D01*
X241063717Y-111279076D01*
X240916310Y-111377570D01*
X240916309Y-111377571D01*
X240916308Y-111377571D01*
X240752520Y-111445414D01*
X240578644Y-111480000D01*
X240401356Y-111480000D01*
X240227480Y-111445414D01*
X240063692Y-111377571D01*
X240063691Y-111377571D01*
X240063690Y-111377570D01*
X239916283Y-111279076D01*
X239790924Y-111153717D01*
X239692430Y-111006310D01*
X239624586Y-110842520D01*
X239590000Y-110668642D01*
X239590000Y-110491358D01*
X239624586Y-110317480D01*
X239692430Y-110153690D01*
X239790924Y-110006283D01*
X239916283Y-109880924D01*
X240063690Y-109782430D01*
X240227480Y-109714586D01*
X240401356Y-109680000D01*
X240578644Y-109680000D01*
X240752520Y-109714586D01*
G37*
G36*
X238212520Y-109714586D02*
G01*
X238376310Y-109782430D01*
X238523717Y-109880924D01*
X238649076Y-110006283D01*
X238747570Y-110153690D01*
X238815414Y-110317480D01*
X238850000Y-110491358D01*
X238850000Y-110668642D01*
X238815414Y-110842520D01*
X238747570Y-111006310D01*
X238649076Y-111153717D01*
X238523717Y-111279076D01*
X238376310Y-111377570D01*
X238376309Y-111377571D01*
X238376308Y-111377571D01*
X238212520Y-111445414D01*
X238038644Y-111480000D01*
X237861356Y-111480000D01*
X237687480Y-111445414D01*
X237523692Y-111377571D01*
X237523691Y-111377571D01*
X237523690Y-111377570D01*
X237376283Y-111279076D01*
X237250924Y-111153717D01*
X237152430Y-111006310D01*
X237084586Y-110842520D01*
X237050000Y-110668642D01*
X237050000Y-110491358D01*
X237084586Y-110317480D01*
X237152430Y-110153690D01*
X237250924Y-110006283D01*
X237376283Y-109880924D01*
X237523690Y-109782430D01*
X237687480Y-109714586D01*
X237861356Y-109680000D01*
X238038644Y-109680000D01*
X238212520Y-109714586D01*
G37*
G36*
X235672520Y-109714586D02*
G01*
X235836310Y-109782430D01*
X235983717Y-109880924D01*
X236109076Y-110006283D01*
X236207570Y-110153690D01*
X236275414Y-110317480D01*
X236310000Y-110491358D01*
X236310000Y-110668642D01*
X236275414Y-110842520D01*
X236207570Y-111006310D01*
X236109076Y-111153717D01*
X235983717Y-111279076D01*
X235836310Y-111377570D01*
X235836309Y-111377571D01*
X235836308Y-111377571D01*
X235672520Y-111445414D01*
X235498644Y-111480000D01*
X235321356Y-111480000D01*
X235147480Y-111445414D01*
X234983692Y-111377571D01*
X234983691Y-111377571D01*
X234983690Y-111377570D01*
X234836283Y-111279076D01*
X234710924Y-111153717D01*
X234612430Y-111006310D01*
X234544586Y-110842520D01*
X234510000Y-110668642D01*
X234510000Y-110491358D01*
X234544586Y-110317480D01*
X234612430Y-110153690D01*
X234710924Y-110006283D01*
X234836283Y-109880924D01*
X234983690Y-109782430D01*
X235147480Y-109714586D01*
X235321356Y-109680000D01*
X235498644Y-109680000D01*
X235672520Y-109714586D01*
G37*
G36*
X220355998Y-107073280D02*
G01*
X220367423Y-107074405D01*
X220404380Y-107085616D01*
X220489948Y-107111573D01*
X220602868Y-107171930D01*
X220701843Y-107253157D01*
X220783070Y-107352132D01*
X220843427Y-107465052D01*
X220880595Y-107587578D01*
X220890000Y-107683068D01*
X220890000Y-108296932D01*
X220880595Y-108392422D01*
X220843427Y-108514948D01*
X220783070Y-108627868D01*
X220701843Y-108726843D01*
X220602867Y-108808070D01*
X220489947Y-108868427D01*
X220448031Y-108881142D01*
X220367422Y-108905595D01*
X220355997Y-108906720D01*
X220240000Y-108918145D01*
X220124002Y-108906720D01*
X220112577Y-108905595D01*
X220031968Y-108881142D01*
X219990052Y-108868427D01*
X219877132Y-108808070D01*
X219778157Y-108726843D01*
X219696930Y-108627867D01*
X219636573Y-108514947D01*
X219617989Y-108453684D01*
X219599405Y-108392422D01*
X219598229Y-108380485D01*
X219590000Y-108296931D01*
X219590000Y-107683068D01*
X219599405Y-107587578D01*
X219636573Y-107465052D01*
X219696930Y-107352132D01*
X219778158Y-107253157D01*
X219877133Y-107171930D01*
X219990053Y-107111573D01*
X220075621Y-107085616D01*
X220112578Y-107074405D01*
X220124003Y-107073280D01*
X220240000Y-107061855D01*
X220355998Y-107073280D01*
G37*
G36*
X222730578Y-107069396D02*
G01*
X222767591Y-107080624D01*
X222801705Y-107098858D01*
X222831604Y-107123396D01*
X222856142Y-107153295D01*
X222874376Y-107187409D01*
X222885604Y-107224422D01*
X222890000Y-107269057D01*
X222890000Y-108710943D01*
X222885604Y-108755578D01*
X222874376Y-108792591D01*
X222856142Y-108826705D01*
X222831604Y-108856604D01*
X222801705Y-108881142D01*
X222767591Y-108899376D01*
X222730578Y-108910604D01*
X222685943Y-108915000D01*
X221794057Y-108915000D01*
X221749422Y-108910604D01*
X221712409Y-108899376D01*
X221678295Y-108881142D01*
X221648396Y-108856604D01*
X221623858Y-108826705D01*
X221605624Y-108792591D01*
X221594396Y-108755578D01*
X221590000Y-108710943D01*
X221590000Y-107269057D01*
X221594396Y-107224422D01*
X221605624Y-107187409D01*
X221623858Y-107153295D01*
X221648396Y-107123396D01*
X221678295Y-107098858D01*
X221712409Y-107080624D01*
X221749422Y-107069396D01*
X221794057Y-107065000D01*
X222685943Y-107065000D01*
X222730578Y-107069396D01*
G37*
G36*
X239478991Y-104474075D02*
G01*
X239512879Y-104484355D01*
X239544112Y-104501050D01*
X239571486Y-104523514D01*
X239593950Y-104550888D01*
X239610645Y-104582121D01*
X239620925Y-104616009D01*
X239625000Y-104657388D01*
X239625000Y-105257612D01*
X239620925Y-105298991D01*
X239610645Y-105332879D01*
X239593950Y-105364112D01*
X239571486Y-105391486D01*
X239544112Y-105413950D01*
X239512879Y-105430645D01*
X239478991Y-105440925D01*
X239437612Y-105445000D01*
X238762388Y-105445000D01*
X238721009Y-105440925D01*
X238687121Y-105430645D01*
X238655888Y-105413950D01*
X238628514Y-105391486D01*
X238606050Y-105364112D01*
X238589355Y-105332879D01*
X238579075Y-105298991D01*
X238575000Y-105257612D01*
X238575000Y-104657388D01*
X238579075Y-104616009D01*
X238589355Y-104582121D01*
X238606050Y-104550888D01*
X238628514Y-104523514D01*
X238655888Y-104501050D01*
X238687121Y-104484355D01*
X238721009Y-104474075D01*
X238762388Y-104470000D01*
X239437612Y-104470000D01*
X239478991Y-104474075D01*
G37*
G36*
X239478991Y-102899075D02*
G01*
X239512879Y-102909355D01*
X239544112Y-102926050D01*
X239571486Y-102948514D01*
X239593950Y-102975888D01*
X239610645Y-103007121D01*
X239620925Y-103041009D01*
X239625000Y-103082388D01*
X239625000Y-103682612D01*
X239620925Y-103723991D01*
X239610645Y-103757879D01*
X239593950Y-103789112D01*
X239571486Y-103816486D01*
X239544112Y-103838950D01*
X239512879Y-103855645D01*
X239478991Y-103865925D01*
X239437612Y-103870000D01*
X238762388Y-103870000D01*
X238721009Y-103865925D01*
X238687121Y-103855645D01*
X238655888Y-103838950D01*
X238628514Y-103816486D01*
X238606050Y-103789112D01*
X238589355Y-103757879D01*
X238579075Y-103723991D01*
X238575000Y-103682612D01*
X238575000Y-103082388D01*
X238579075Y-103041009D01*
X238589355Y-103007121D01*
X238606050Y-102975888D01*
X238628514Y-102948514D01*
X238655888Y-102926050D01*
X238687121Y-102909355D01*
X238721009Y-102899075D01*
X238762388Y-102895000D01*
X239437612Y-102895000D01*
X239478991Y-102899075D01*
G37*
G36*
X215162520Y-98844586D02*
G01*
X215326310Y-98912430D01*
X215473717Y-99010924D01*
X215599076Y-99136283D01*
X215697570Y-99283690D01*
X215765414Y-99447480D01*
X215800000Y-99621358D01*
X215800000Y-99798642D01*
X215765414Y-99972520D01*
X215697570Y-100136310D01*
X215599076Y-100283717D01*
X215473717Y-100409076D01*
X215326310Y-100507570D01*
X215326309Y-100507571D01*
X215326308Y-100507571D01*
X215162520Y-100575414D01*
X214988644Y-100610000D01*
X214811356Y-100610000D01*
X214637480Y-100575414D01*
X214473692Y-100507571D01*
X214473691Y-100507571D01*
X214473690Y-100507570D01*
X214326283Y-100409076D01*
X214200924Y-100283717D01*
X214102430Y-100136310D01*
X214034586Y-99972520D01*
X214000000Y-99798642D01*
X214000000Y-99621358D01*
X214034586Y-99447480D01*
X214102430Y-99283690D01*
X214200924Y-99136283D01*
X214326283Y-99010924D01*
X214473690Y-98912430D01*
X214637480Y-98844586D01*
X214811356Y-98810000D01*
X214988644Y-98810000D01*
X215162520Y-98844586D01*
G37*
G36*
X218340000Y-100610000D02*
G01*
X216540000Y-100610000D01*
X216540000Y-98810000D01*
X218340000Y-98810000D01*
X218340000Y-100610000D01*
G37*
G36*
X257570000Y-96530000D02*
G01*
X255770000Y-96530000D01*
X255770000Y-94730000D01*
X257570000Y-94730000D01*
X257570000Y-96530000D01*
G37*
G36*
X256932520Y-92224586D02*
G01*
X257096310Y-92292430D01*
X257243717Y-92390924D01*
X257369076Y-92516283D01*
X257467570Y-92663690D01*
X257535414Y-92827480D01*
X257570000Y-93001358D01*
X257570000Y-93178642D01*
X257535414Y-93352520D01*
X257467570Y-93516310D01*
X257369076Y-93663717D01*
X257243717Y-93789076D01*
X257096310Y-93887570D01*
X257096309Y-93887571D01*
X257096308Y-93887571D01*
X256932520Y-93955414D01*
X256758644Y-93990000D01*
X256581356Y-93990000D01*
X256407480Y-93955414D01*
X256243692Y-93887571D01*
X256243691Y-93887571D01*
X256243690Y-93887570D01*
X256096283Y-93789076D01*
X255970924Y-93663717D01*
X255872430Y-93516310D01*
X255804586Y-93352520D01*
X255770000Y-93178642D01*
X255770000Y-93001358D01*
X255804586Y-92827480D01*
X255872430Y-92663690D01*
X255970924Y-92516283D01*
X256096283Y-92390924D01*
X256243690Y-92292430D01*
X256407480Y-92224586D01*
X256581356Y-92190000D01*
X256758644Y-92190000D01*
X256932520Y-92224586D01*
G37*
G36*
X225820000Y-80310000D02*
G01*
X224020000Y-80310000D01*
X224020000Y-78510000D01*
X225820000Y-78510000D01*
X225820000Y-80310000D01*
G37*
G36*
X222642520Y-78544586D02*
G01*
X222806310Y-78612430D01*
X222953717Y-78710924D01*
X223079076Y-78836283D01*
X223177570Y-78983690D01*
X223245414Y-79147480D01*
X223280000Y-79321358D01*
X223280000Y-79498642D01*
X223245414Y-79672520D01*
X223177570Y-79836310D01*
X223079076Y-79983717D01*
X222953717Y-80109076D01*
X222806310Y-80207570D01*
X222806309Y-80207571D01*
X222806308Y-80207571D01*
X222642520Y-80275414D01*
X222468644Y-80310000D01*
X222291356Y-80310000D01*
X222117480Y-80275414D01*
X221953692Y-80207571D01*
X221953691Y-80207571D01*
X221953690Y-80207570D01*
X221806283Y-80109076D01*
X221680924Y-79983717D01*
X221582430Y-79836310D01*
X221514586Y-79672520D01*
X221480000Y-79498642D01*
X221480000Y-79321358D01*
X221514586Y-79147480D01*
X221582430Y-78983690D01*
X221680924Y-78836283D01*
X221806283Y-78710924D01*
X221953690Y-78612430D01*
X222117480Y-78544586D01*
X222291356Y-78510000D01*
X222468644Y-78510000D01*
X222642520Y-78544586D01*
G37*
G36*
X220102520Y-78544586D02*
G01*
X220266310Y-78612430D01*
X220413717Y-78710924D01*
X220539076Y-78836283D01*
X220637570Y-78983690D01*
X220705414Y-79147480D01*
X220740000Y-79321358D01*
X220740000Y-79498642D01*
X220705414Y-79672520D01*
X220637570Y-79836310D01*
X220539076Y-79983717D01*
X220413717Y-80109076D01*
X220266310Y-80207570D01*
X220266309Y-80207571D01*
X220266308Y-80207571D01*
X220102520Y-80275414D01*
X219928644Y-80310000D01*
X219751356Y-80310000D01*
X219577480Y-80275414D01*
X219413692Y-80207571D01*
X219413691Y-80207571D01*
X219413690Y-80207570D01*
X219266283Y-80109076D01*
X219140924Y-79983717D01*
X219042430Y-79836310D01*
X218974586Y-79672520D01*
X218940000Y-79498642D01*
X218940000Y-79321358D01*
X218974586Y-79147480D01*
X219042430Y-78983690D01*
X219140924Y-78836283D01*
X219266283Y-78710924D01*
X219413690Y-78612430D01*
X219577480Y-78544586D01*
X219751356Y-78510000D01*
X219928644Y-78510000D01*
X220102520Y-78544586D01*
G37*
G36*
X209942520Y-78544586D02*
G01*
X210106310Y-78612430D01*
X210253717Y-78710924D01*
X210379076Y-78836283D01*
X210477570Y-78983690D01*
X210545414Y-79147480D01*
X210580000Y-79321358D01*
X210580000Y-79498642D01*
X210545414Y-79672520D01*
X210477570Y-79836310D01*
X210379076Y-79983717D01*
X210253717Y-80109076D01*
X210106310Y-80207570D01*
X210106309Y-80207571D01*
X210106308Y-80207571D01*
X209942520Y-80275414D01*
X209768644Y-80310000D01*
X209591356Y-80310000D01*
X209417480Y-80275414D01*
X209253692Y-80207571D01*
X209253691Y-80207571D01*
X209253690Y-80207570D01*
X209106283Y-80109076D01*
X208980924Y-79983717D01*
X208882430Y-79836310D01*
X208814586Y-79672520D01*
X208780000Y-79498642D01*
X208780000Y-79321358D01*
X208814586Y-79147480D01*
X208882430Y-78983690D01*
X208980924Y-78836283D01*
X209106283Y-78710924D01*
X209253690Y-78612430D01*
X209417480Y-78544586D01*
X209591356Y-78510000D01*
X209768644Y-78510000D01*
X209942520Y-78544586D01*
G37*
G36*
X207402520Y-78544586D02*
G01*
X207566310Y-78612430D01*
X207713717Y-78710924D01*
X207839076Y-78836283D01*
X207937570Y-78983690D01*
X208005414Y-79147480D01*
X208040000Y-79321358D01*
X208040000Y-79498642D01*
X208005414Y-79672520D01*
X207937570Y-79836310D01*
X207839076Y-79983717D01*
X207713717Y-80109076D01*
X207566310Y-80207570D01*
X207566309Y-80207571D01*
X207566308Y-80207571D01*
X207402520Y-80275414D01*
X207228644Y-80310000D01*
X207051356Y-80310000D01*
X206877480Y-80275414D01*
X206713692Y-80207571D01*
X206713691Y-80207571D01*
X206713690Y-80207570D01*
X206566283Y-80109076D01*
X206440924Y-79983717D01*
X206342430Y-79836310D01*
X206274586Y-79672520D01*
X206240000Y-79498642D01*
X206240000Y-79321358D01*
X206274586Y-79147480D01*
X206342430Y-78983690D01*
X206440924Y-78836283D01*
X206566283Y-78710924D01*
X206713690Y-78612430D01*
X206877480Y-78544586D01*
X207051356Y-78510000D01*
X207228644Y-78510000D01*
X207402520Y-78544586D01*
G37*
G36*
X217562520Y-78544586D02*
G01*
X217726310Y-78612430D01*
X217873717Y-78710924D01*
X217999076Y-78836283D01*
X218097570Y-78983690D01*
X218165414Y-79147480D01*
X218200000Y-79321358D01*
X218200000Y-79498642D01*
X218165414Y-79672520D01*
X218097570Y-79836310D01*
X217999076Y-79983717D01*
X217873717Y-80109076D01*
X217726310Y-80207570D01*
X217726309Y-80207571D01*
X217726308Y-80207571D01*
X217562520Y-80275414D01*
X217388644Y-80310000D01*
X217211356Y-80310000D01*
X217037480Y-80275414D01*
X216873692Y-80207571D01*
X216873691Y-80207571D01*
X216873690Y-80207570D01*
X216726283Y-80109076D01*
X216600924Y-79983717D01*
X216502430Y-79836310D01*
X216434586Y-79672520D01*
X216400000Y-79498642D01*
X216400000Y-79321358D01*
X216434586Y-79147480D01*
X216502430Y-78983690D01*
X216600924Y-78836283D01*
X216726283Y-78710924D01*
X216873690Y-78612430D01*
X217037480Y-78544586D01*
X217211356Y-78510000D01*
X217388644Y-78510000D01*
X217562520Y-78544586D01*
G37*
G36*
X215022520Y-78544586D02*
G01*
X215186310Y-78612430D01*
X215333717Y-78710924D01*
X215459076Y-78836283D01*
X215557570Y-78983690D01*
X215625414Y-79147480D01*
X215660000Y-79321358D01*
X215660000Y-79498642D01*
X215625414Y-79672520D01*
X215557570Y-79836310D01*
X215459076Y-79983717D01*
X215333717Y-80109076D01*
X215186310Y-80207570D01*
X215186309Y-80207571D01*
X215186308Y-80207571D01*
X215022520Y-80275414D01*
X214848644Y-80310000D01*
X214671356Y-80310000D01*
X214497480Y-80275414D01*
X214333692Y-80207571D01*
X214333691Y-80207571D01*
X214333690Y-80207570D01*
X214186283Y-80109076D01*
X214060924Y-79983717D01*
X213962430Y-79836310D01*
X213894586Y-79672520D01*
X213860000Y-79498642D01*
X213860000Y-79321358D01*
X213894586Y-79147480D01*
X213962430Y-78983690D01*
X214060924Y-78836283D01*
X214186283Y-78710924D01*
X214333690Y-78612430D01*
X214497480Y-78544586D01*
X214671356Y-78510000D01*
X214848644Y-78510000D01*
X215022520Y-78544586D01*
G37*
G36*
X212482520Y-78544586D02*
G01*
X212646310Y-78612430D01*
X212793717Y-78710924D01*
X212919076Y-78836283D01*
X213017570Y-78983690D01*
X213085414Y-79147480D01*
X213120000Y-79321358D01*
X213120000Y-79498642D01*
X213085414Y-79672520D01*
X213017570Y-79836310D01*
X212919076Y-79983717D01*
X212793717Y-80109076D01*
X212646310Y-80207570D01*
X212646309Y-80207571D01*
X212646308Y-80207571D01*
X212482520Y-80275414D01*
X212308644Y-80310000D01*
X212131356Y-80310000D01*
X211957480Y-80275414D01*
X211793692Y-80207571D01*
X211793691Y-80207571D01*
X211793690Y-80207570D01*
X211646283Y-80109076D01*
X211520924Y-79983717D01*
X211422430Y-79836310D01*
X211354586Y-79672520D01*
X211320000Y-79498642D01*
X211320000Y-79321358D01*
X211354586Y-79147480D01*
X211422430Y-78983690D01*
X211520924Y-78836283D01*
X211646283Y-78710924D01*
X211793690Y-78612430D01*
X211957480Y-78544586D01*
X212131356Y-78510000D01*
X212308644Y-78510000D01*
X212482520Y-78544586D01*
G37*
M02*
